<?xml version="1.0" encoding="utf-8"?>
<!-- Generator: Adobe Illustrator 16.0.0, SVG Export Plug-In . SVG Version: 6.00 Build 0)  -->
<!DOCTYPE svg PUBLIC "-//W3C//DTD SVG 1.1//EN" "http://www.w3.org/Graphics/SVG/1.1/DTD/svg11.dtd">
<svg version="1.1" id="Layer_1" xmlns="http://www.w3.org/2000/svg" xmlns:xlink="http://www.w3.org/1999/xlink" x="0px" y="0px"
	 width="57.604px" height="48.146px" viewBox="0 0 57.604 48.146" enable-background="new 0 0 57.604 48.146" xml:space="preserve">
<g>
	<g>
		<path d="M28.725,48.146L0,14.049L9.953,0h38.076l9.574,14.155L28.725,48.146z M4.046,13.88l24.688,29.305l24.852-29.25
			l-7.26-10.729H11.609L4.046,13.88z"/>
	</g>
	<g>
		<rect x="2.134" y="12.443" width="53.276" height="3.204"/>
	</g>
	<g>
		<rect x="27.206" y="1.563" width="3.204" height="44.012"/>
	</g>
	<g>
		<rect x="1.255" y="28.208" transform="matrix(0.5058 0.8627 -0.8627 0.5058 35.3678 -2.115)" width="36.549" height="3.204"/>
	</g>
	<g>
		<rect x="6.976" y="27.879" transform="matrix(0.3239 0.9461 -0.9461 0.3239 43.7583 -2.2691)" width="32.982" height="3.206"/>
	</g>
	<g>
		<polygon points="18.426,16.709 9.209,2.824 11.878,1.051 18.735,11.381 27.916,0.527 30.363,2.598 		"/>
	</g>
	<g>
		<rect x="36.641" y="11.4" transform="matrix(0.8554 0.518 -0.518 0.8554 20.9063 -15.5187)" width="3.205" height="36.559"/>
	</g>
	<g>
		<rect x="32.691" y="12.994" transform="matrix(0.9365 0.3508 -0.3508 0.9365 12.5488 -10.1501)" width="3.205" height="33.143"/>
	</g>
	<g>
		<polygon points="39.484,16.709 27.547,2.598 29.994,0.527 39.175,11.381 46.032,1.051 48.701,2.824 		"/>
	</g>
</g>
</svg>
