<?xml version="1.0" encoding="utf-8"?>
<!-- Generator: Adobe Illustrator 19.0.0, SVG Export Plug-In . SVG Version: 6.00 Build 0)  -->
<svg version="1.1" id="Layer_1" xmlns="http://www.w3.org/2000/svg" xmlns:xlink="http://www.w3.org/1999/xlink" x="0px" y="0px"
	 viewBox="-304 -19 450 600" style="enable-background:new -304 -19 450 600;" xml:space="preserve">
<style type="text/css">
	.st0{fill:#CCCCCC;}
</style>
<g id="XMLID_14_">
	<path id="XMLID_27_" class="st0" d="M-56.6,576.4c0,1.5-0.6,2.8-1.5,3.9h3c0.6-1,1-2.4,1-3.7l1.3-7.3c3.1-3.1-6.1-5.2-7.8-5.4
		c-4.5-0.3-9.1,0.6-13.7,0.9c-6.1,0.4-11.9-1.6-17.9-2.7c-0.1,0-0.4,0-0.6,0c-2.2-0.6-4.5-1-6.7-1.2c-1.3-0.1-1.6,1.5-0.9,2.2
		c0,0.1,0,0.3,0,0.4l1.6,13.1c0,1.3,0.4,2.7,1,3.7h3c-0.9-1-1.5-2.4-1.5-3.9l-1.5-12.8c10.3,1.5,19.5,6.7,30,7.8
		c3.1,0.3,8.6,0.6,12.4-0.6l-1,5.5L-56.6,576.4z M-58.4,568.3c-5.5,0.7-11,0.4-16.6-0.9c-0.3,0-0.6-0.1-0.7-0.1c1.6,0,3.4,0,5.1-0.1
		c1.9-0.1,3.9-0.4,5.7-0.4c1.5-0.1,2.8-0.1,4.3-0.1c1.5,0,3,0.3,4.3,0.9c0.3,0.1,0.4,0.1,0.7,0.3C-55.4,567.7-57.9,568.3-58.4,568.3
		z"/>
	<path id="XMLID_30_" class="st0" d="M-184.4,559.4c0-2.1-1.6-3.7-3.7-3.7s-3.7,1.6-3.7,3.7c0,1.6,1,3.1,2.5,3.6v2.7h-38.3V563
		c1.5-0.4,2.5-1.9,2.5-3.6c0-2.1-1.6-3.7-3.7-3.7c-2.1,0-3.7,1.6-3.7,3.7c0,1.6,1,3.1,2.5,3.6v17.3h2.4v-12.4h7.5v12.4h2.4v-12.4
		h8.1v12.4h2.4v-12.4h8.1v12.4h2.4v-12.4h7.5v12.4h2.4V563C-185.6,562.4-184.4,561-184.4,559.4z M-229,560.7c-0.7,0-1.3-0.6-1.3-1.3
		s0.6-1.3,1.3-1.3c0.7,0,1.3,0.6,1.3,1.3C-227.6,560.1-228.2,560.7-229,560.7z M-188.3,560.7c-0.7,0-1.3-0.6-1.3-1.3
		s0.6-1.3,1.3-1.3c0.7,0,1.3,0.6,1.3,1.3C-186.8,560.1-187.5,560.7-188.3,560.7z"/>
	<path id="XMLID_36_" class="st0" d="M70.8,573.9c0-2.8,2.1-5.5,5.2-6.6l0.4-0.1l0.1-0.4c0.7-1.5,1.5-2.4,2.4-2.5
		c2.1-0.4,2.8-0.6,3.9-0.6c-0.1,0.4-0.3,1.2-0.9,2.4l-0.4,0.9l1,0.3c2.2,0.7,3.9,2.4,4.6,4.3l0.3,0.9l0.9-0.3
		c1.6-0.4,1.9-0.7,2.1-0.7c0.3-0.1,0.6-0.4,0.9-0.9c0.3-0.4,0.7-0.9,1.3-1.3c-0.3,1.5-0.7,3.1-1.3,3.7l-0.7,0.7l0.7,0.7
		c0.7,0.6,1.2,2.2,1.3,3.7c-0.6-0.3-0.9-0.9-1.3-1.3c-0.3-0.4-0.6-0.7-0.9-0.9c-0.1-0.1-0.6-0.3-2.1-0.7l-0.9-0.3l-0.3,0.9
		c-0.7,1.8-2.2,3.3-4.3,4.2h3.7c0.9-0.7,1.5-1.6,2.1-2.7c0.6,0.1,0.7,0.3,0.7,0.3s0.1,0.3,0.3,0.4c0.4,0.6,1,1.3,2.1,1.9h3v-0.4
		c0-0.4-0.3-3.9-1.6-6c1.3-2.1,1.5-5.5,1.6-6v-1.2l-1.2,0.1c-2.1,0.3-3.1,1.6-3.9,2.5c-0.1,0.1-0.3,0.3-0.3,0.3s-0.3,0.1-0.9,0.3
		c-0.9-1.8-2.5-3.3-4.5-4.2c0.9-2.4,0.7-3.3,0.4-3.7c-0.3-0.4-0.7-0.6-1.2-0.6c-1.5,0-2.4,0.1-4.9,0.7c-1.3,0.3-2.5,1.5-3.6,3.3
		c-3.9,1.5-6.3,4.6-6.3,8.4c0,2.4,1,4.8,3,6.4h3.7C72.7,579.1,70.8,576.7,70.8,573.9z"/>
	<path id="XMLID_37_" class="st0" d="M93.5,557h-0.7c0.9-1.3,1.5-3.6-1.2-7c-3.3-4.2-2.8-5.2-2.8-5.2c0.4-0.6,3.9-0.1,7,0.9
		c0.6,0.3,1.3-0.1,1.5-0.7c0.3-0.6-0.1-1.3-0.7-1.5c-1.8-0.6-7.9-2.7-9.8,0c-0.1,0.1-0.1,0.3-0.3,0.4c-0.7,1.6,0.1,4,3.1,7.6
		c2.2,2.8,1.2,4,0.9,4.3c-0.4,0.4-1,0.7-1.6,1c-1.8,0.7-4.3,1.2-7.2,1c-2.8,0-5.5-0.4-7.5-1c-0.7-0.3-1.5-0.6-1.9-0.9
		c-0.9-0.6-0.6-0.9-0.6-1.2c1-1.9,1.3-3.4,0.7-4.5c-0.7-1.6-2.7-1.9-4.6-2.4c-1.3-0.3-2.8-0.6-3.6-1.3c-0.4-0.4-0.3-0.6-0.3-0.7
		c0.1-0.9,2.1-1.9,3.4-2.4c0.4-0.1,0.7-0.6,0.7-1c0-0.1,0-0.3,0-0.4c-0.3-0.6-0.9-0.9-1.5-0.7c-0.7,0.3-4.5,1.6-4.9,4.2
		c-0.1,0.7-0.1,1.8,0.9,2.8c1.2,1.3,3.1,1.6,4.9,1.9c1.2,0.3,2.7,0.4,2.8,1c0,0.1,0.1,0.7-0.7,2.4c-0.6,1.2-0.6,2.4,0.1,3.3
		c-2.7,0.1-4.8,2.4-4.8,5.2v18.2h2.4v-18c0-1.5,1.2-2.8,2.8-2.8h3.6c2.2,0.7,5.2,1,8.1,1c2.7,0,5.2-0.3,7.3-1h4.3
		c1.5,0,2.8,1.2,2.8,2.8v18h2.4v-18C98.7,559.4,96.3,557,93.5,557z"/>
	<path id="XMLID_47_" class="st0" d="M75.3,570.9c-1.8,0-1.8,2.8,0,2.8S77,570.9,75.3,570.9z"/>
	<path id="XMLID_50_" class="st0" d="M113.1,214.6c2.8-2.2,6.7-2.5,5.8-7.2c-0.3-1.6-2.8-0.9-2.5,0.7c0.6,2.8-4.9,3.6-6.1,5.8
		c-0.6,1-0.4,2.7,0.3,3.7c0.9,1.3,3.1,2.5,1.6,4c-0.1,0-7.3,3-17.4,3c-6,0-11.8-1-17.3-3l0,0c-1.5-1-3.4-2.7-3.3-4.5
		c0.1-1.9,1.6-2.8,3.3-3.4c2.1-0.7,4.3-1.3,5.8-3.1c1-1.3-0.7-3.1-1.8-1.8c-2.4,2.7-7.5,2.1-9.1,5.7c-1.8,3.9,0.6,6.9,3.6,9.2v9.2
		c0,9.4,7.6,16.9,16.9,16.9H97c9.4,0,16.9-7.6,16.9-16.9v-9.2c1.2-1,2.2-2.4,1.5-4C114.6,218.2,111.3,215.9,113.1,214.6z
		 M111.5,232.9c0,8.1-6.6,14.5-14.5,14.5h-4.2c-8.1,0-14.5-6.6-14.5-14.5v-8.5c5.2,1.6,10.7,2.5,16.4,2.5c7.9,0,13.9-1.6,16.7-2.5
		V232.9z"/>
	<path id="XMLID_55_" class="st0" d="M-271.5,516.6c0.4-0.1,0.6-0.6,0.6-1c0-0.3-0.1-0.4-0.1-0.7l1.8-6.9c0.1-0.6-0.1-1.3-0.9-1.5
		c-0.6-0.1-1.3,0.1-1.5,0.9l-1.8,6.9H-290c-0.6,0-1.2,0.6-1.2,1.2c0,0.6,0.6,1.2,1.2,1.2h1.6v4.6h-0.9c-0.6,0-1,0.4-1.2,1l-4.5,25.9
		h3.6l1.6-3.7h16.3l1.6,3.7h3.6l-4.5-25.8L-271.5,516.6z M-285.9,516.8h12.1l-1.2,4.6h-10.9C-285.9,521.4-285.9,516.8-285.9,516.8z
		 M-291.5,542.3L-291.5,542.3l3.1-18.3h4.8l-2.8,6.6l0,0L-291.5,542.3z M-288.9,542.3l4.3-10.3h5.5l4.3,10.3H-288.9z M-272.1,542.3
		L-272.1,542.3l-5.2-11.9l0,0l-2.8-6.6h4.8L-272.1,542.3z"/>
	<path id="XMLID_62_" class="st0" d="M73.8,33.2c0,3.3,2.4,6.1,5.5,6.7c-0.7,1-1,2.4-1,3.7c0,1.8,0.7,3.6,1.9,4.8
		c1.3,1.3,3,1.9,4.8,1.9c1.3,0,2.7-0.4,3.7-1c0.6,3.1,3.4,5.5,6.7,5.5s6.1-2.4,6.7-5.5c1,0.7,2.4,1,3.7,1c1.8,0,3.6-0.7,4.8-1.9
		c1.3-1.3,1.9-3,1.9-4.8c0-1.3-0.4-2.7-1-3.7c3.1-0.6,5.5-3.4,5.5-6.7c0-3.3-2.4-6-5.4-6.7c1.6-2.2,1.3-4.5-0.9-6.9l-0.3-0.3h-0.9
		c0.4-4.8,2.2-9.7,6.9-12.1c1.5-0.7,0.1-3-1.3-2.2c-5.5,2.7-7.6,8.5-8.2,14.3H84.5c-0.6-5.7-2.7-11.6-8.2-14.3
		c-1.5-0.7-2.8,1.5-1.3,2.2c4.6,2.2,6.4,7.2,6.9,12.1h-1.3l-0.3,0.3c-2.2,2.2-2.7,4.6-0.9,6.9C76,27.3,73.8,30,73.8,33.2z
		 M86.9,21.8h16.9v11.2c0,4.2-3.4,7.6-7.6,7.6h-1.8c-4.2,0-7.6-3.4-7.6-7.6V21.8H86.9z M80.6,28.9c0.3,0,0.6,0,0.9,0.1l1,0.1
		l0.9-1.9l-0.7-0.6c-0.3-0.1-0.4-0.3-0.6-0.6c-1.6-1.6-1.8-2.7-0.3-4.2H85v11c0,5.5,4.5,10,10,10h1.8c5.5,0,10-4.5,10-10V21.8h3.1
		c1.3,1.5,1.3,2.5-0.3,4.2c-0.1,0.1-0.4,0.3-0.6,0.6l-0.7,0.6l0.9,2.1l1-0.1c0.3,0,0.6-0.1,0.9-0.1c2.4,0,4.5,1.9,4.5,4.5
		c0,2.4-1.9,4.5-4.5,4.5c-0.3,0-0.6,0-0.9-0.1l-1-0.1l-0.9,1.9l0.7,0.6c0.3,0.1,0.4,0.3,0.6,0.6c0.9,0.9,1.3,1.9,1.3,3.1
		s-0.4,2.2-1.3,3.1c-0.9,0.9-1.9,1.3-3.1,1.3c-1.2,0-2.2-0.4-3.1-1.3c-0.1-0.1-0.3-0.4-0.6-0.6l-0.6-0.7l-2.1,0.9l0.1,1
		c0,0.3,0.1,0.6,0.1,0.9c0,2.4-1.9,4.5-4.5,4.5c-2.4,0-4.5-1.9-4.5-4.5c0-0.3,0-0.6,0.1-0.9l0.1-1l-1.9-0.9l-0.6,0.7
		c-0.1,0.3-0.3,0.4-0.6,0.6c-0.9,0.9-1.9,1.3-3.1,1.3c-1.2,0-2.2-0.4-3.1-1.3c-0.9-0.9-1.3-1.9-1.3-3.1s0.4-2.2,1.3-3.1
		c0.1-0.1,0.4-0.3,0.6-0.6l0.7-0.6l-0.9-2.1l-1,0.1c-0.3,0-0.6,0.1-0.9,0.1c-2.4,0-4.5-1.9-4.5-4.5C76.2,30.9,78.1,28.9,80.6,28.9z"
		/>
	<path id="XMLID_67_" class="st0" d="M89.1,31.2c1,3.1,5.2,5.4,5.7,5.7l0.6,0.3l0.6-0.3c0.4-0.3,4.6-2.5,5.7-5.5v-0.1V31
		c0-0.3,0.1-0.4,0.1-0.7c0-0.1,0-0.3,0-0.4c0-2.4-1.9-4.3-4.3-4.3c-0.7,0-1.5,0.1-2.1,0.6c-0.6-0.3-1.3-0.6-2.1-0.6
		c-2.4,0-4.3,1.9-4.3,4.3c0,0.1,0,0.3,0,0.4c0,0.3,0,0.4,0.1,0.7C89.1,31,89.1,31,89.1,31.2L89.1,31.2z M91.4,30v-0.1
		c0-1,0.9-1.9,1.9-1.9c0.4,0,0.9,0.1,1.3,0.4l0.9,0.7l0.9-0.7c0.3-0.3,0.7-0.4,1.3-0.4c1,0,1.9,0.9,1.9,1.9V30c0,0.1,0,0.1,0,0.3
		v0.1c-0.4,1.6-2.7,3.1-3.9,3.9c-1.2-0.7-3.4-2.2-3.9-3.9l-1.2,0.3l1.2-0.4C91.4,30.3,91.4,30.1,91.4,30z"/>
	<path id="XMLID_77_" class="st0" d="M113.6,440.1c0.6,0,1.2-0.6,1.2-1.2v-30.4c0-0.6-0.6-1.2-1.2-1.2s-1.2,0.6-1.2,1.2v3H68.7v-3
		c0-0.6-0.6-1.2-1.2-1.2s-1.2,0.6-1.2,1.2v30.4c0,0.6,0.6,1.2,1.2,1.2s1.2-0.6,1.2-1.2v-1.8h43.7v1.8
		C112.4,439.5,112.8,440.1,113.6,440.1z M103.4,413.8h8.8v16.1h-8.8V413.8z M91.7,413.8h9.4v16.1h-9.4V413.8z M79.9,413.8h9.4v16.1
		h-9.4V413.8z M68.5,413.8h8.8v16.1h-8.8V413.8z M68.5,434.6v-2.2h43.7v2.2H68.5z"/>
	<path id="XMLID_88_" class="st0" d="M66.8,121.1c0,13.1,10.7,23.9,23.9,23.9s23.9-10.7,23.9-23.9s-10.7-23.9-23.9-23.9
		C77.3,97.2,66.8,108,66.8,121.1z M111.2,121.1c0,8.2-4.8,15.2-11.8,18.6c3.1-4.3,5.2-11,5.2-18.6c0-7.6-1.9-14.3-5.2-18.6
		C106.4,105.9,111.2,112.9,111.2,121.1z M90.6,100.5c6,0,10.9,9.4,10.9,20.7c0,11.2-5.1,20.6-10.9,20.6c-6,0-10.9-9.4-10.9-20.6
		C79.6,109.9,84.7,100.5,90.6,100.5z M81.7,102.4c-3.1,4.3-5.2,11-5.2,18.6c0,7.6,1.9,14.3,5.2,18.6c-6.9-3.3-11.8-10.4-11.8-18.6
		S74.7,105.9,81.7,102.4z"/>
	<path id="XMLID_93_" class="st0" d="M-47.8,402.9c0-3.3-2.4-6-5.4-6.7c1.6-2.2,1.3-4.5-0.9-6.9l-0.3-0.3h-0.9
		c0.4-4.8,2.2-9.7,6.9-12.1c1.5-0.7,0.1-3-1.3-2.2c-5.5,2.7-7.6,8.5-8.2,14.3h-22.4c-0.6-5.7-2.7-11.6-8.2-14.3
		c-1.5-0.7-2.8,1.5-1.3,2.2c4.6,2.2,6.4,7.2,6.9,12.1h-1.3l-0.3,0.3c-2.2,2.2-2.7,4.6-0.9,6.9c-3.1,0.6-5.4,3.4-5.4,6.7
		c0,3.3,2.4,6.1,5.5,6.7c-0.7,1-1.2,2.4-1.2,3.7c0,1.8,0.7,3.6,1.9,4.8c1.3,1.3,3,1.9,4.8,1.9c1.3,0,2.7-0.4,3.7-1
		c0.6,3.1,3.4,5.5,6.7,5.5s6.1-2.4,6.7-5.5c1,0.7,2.4,1,3.7,1c1.8,0,3.6-0.7,4.8-1.9c1.3-1.3,1.9-3,1.9-4.8c0-1.3-0.4-2.7-1-3.7
		C-50.2,408.9-47.8,406.2-47.8,402.9z M-77.8,391.5h16.9v11.2c0,4.2-3.4,7.6-7.6,7.6h-1.8c-4.2,0-7.6-3.4-7.6-7.6v-11.2H-77.8z
		 M-54.6,407.4c-0.3,0-0.6,0-0.9-0.1l-1-0.1l-0.9,1.9l0.7,0.6c0.3,0.1,0.4,0.3,0.6,0.6c0.9,0.9,1.3,1.9,1.3,3.1
		c0,1.2-0.4,2.2-1.3,3.1c-0.9,0.9-1.9,1.3-3.1,1.3c-1.2,0-2.2-0.4-3.1-1.3c-0.1-0.1-0.3-0.4-0.6-0.6l-0.6-0.7l-2.1,0.9l0.1,1
		c0,0.3,0.1,0.6,0.1,0.9c0,2.4-1.9,4.5-4.5,4.5c-2.4,0-4.5-1.9-4.5-4.5c0-0.3,0-0.6,0.1-0.9l0.1-1l-1.9-0.9l-0.6,0.7
		c-0.1,0.3-0.3,0.4-0.6,0.6c-0.9,0.9-1.9,1.3-3.1,1.3s-2.2-0.4-3.1-1.3c-0.9-0.9-1.3-1.9-1.3-3.1c0-1.2,0.4-2.2,1.3-3.1
		c0.1-0.1,0.4-0.3,0.6-0.6l0.7-0.6L-83,407l-1,0.1c-0.3,0-0.6,0.1-0.9,0.1c-2.4,0-4.5-1.9-4.5-4.5c0-2.4,1.9-4.5,4.5-4.5
		c0.3,0,0.6,0,0.9,0.1l1,0.1l0.9-1.9l-0.7-0.6c-0.3-0.1-0.4-0.3-0.6-0.6c-1.6-1.6-1.8-2.7-0.3-4.2h3.1v11.2c0,5.5,4.5,10,10,10h1.8
		c5.5,0,10-4.5,10-10v-11.2h3.1c1.3,1.5,1.3,2.5-0.3,4.2c-0.1,0.1-0.4,0.3-0.6,0.6l-0.7,0.6l0.9,2.1l1-0.1c0.3,0,0.6-0.1,0.9-0.1
		c2.4,0,4.5,1.9,4.5,4.5C-50.2,405.3-52.1,407.4-54.6,407.4z"/>
	<path id="XMLID_97_" class="st0" d="M14.6,139.1c0.9,0.9,2.2,1.5,3.6,1.5c1.3,0,2.5-0.4,3.6-1.5c1.9-1.9,1.9-5.1,0-7
		c-0.9-0.9-2.2-1.5-3.6-1.5c-1.3,0-2.5,0.4-3.6,1.5C12.6,133.9,12.6,137.2,14.6,139.1z M18.1,131.8c1,0,1.9,0.4,2.7,1
		c1.5,1.5,1.5,3.9,0,5.4c-0.7,0.7-1.6,1-2.7,1c-1,0-1.9-0.4-2.7-1c-1.5-1.5-1.5-3.9,0-5.4C16.2,132.1,17.1,131.8,18.1,131.8z"/>
	<path id="XMLID_100_" class="st0" d="M-16.8,486.9c2.1,0,4-0.7,5.8-1.9c2.5,0.7,5.4,0.9,7.9,0.1c1.6,1.2,3.6,1.8,5.5,1.8
		c5.2,0,9.5-4.3,9.5-9.5c0-2.7-1.2-5.4-3.3-7.2l0,0c0-5.2-2.7-10-7-13c1-1.6,1.6-3.6,1.6-5.5c0-0.4,0-0.9-0.1-1.3
		c2.2-0.9,3.7-3,3.7-5.4c0-3.3-2.7-5.8-5.8-5.8c-2.1,0-3.9,1-4.9,2.8c-1.9-0.6-3.9-0.6-5.8,0c-1-1.8-3-2.8-4.9-2.8
		c-3.3,0-5.8,2.7-5.8,5.8c0,2.4,1.5,4.5,3.7,5.4c0,0.4-0.1,0.9-0.1,1.3c0,1.9,0.6,3.9,1.6,5.5c-4.2,2.7-6.7,7.3-7,12.2
		c-2.5,1.8-4.2,4.8-4.2,7.9C-26.3,482.6-22,486.9-16.8,486.9z M-20.3,471.1c0.3-0.1,0.6-0.6,0.6-1c0-4.8,2.7-9.2,6.9-11.5
		c0.3-0.1,0.6-0.4,0.6-0.9c0-0.3,0-0.7-0.3-1c-1.2-1.5-1.9-3.3-1.9-5.1c0-0.6,0.1-1.2,0.3-1.9c0.1-0.3,0-0.6-0.1-0.9
		c-0.1-0.3-0.4-0.4-0.7-0.6c-1.6-0.3-2.8-1.6-2.8-3.4c0-1.9,1.5-3.4,3.4-3.4c1.5,0,2.7,0.9,3.3,2.4c0.1,0.3,0.3,0.6,0.6,0.7
		c0.3,0.1,0.6,0.1,0.9,0c1.9-0.9,4.2-0.9,6.1,0c0.3,0.1,0.6,0.1,0.9,0c0.3-0.1,0.6-0.4,0.6-0.7c0.4-1.3,1.8-2.4,3.3-2.4
		c1.9,0,3.4,1.5,3.4,3.4c0,1.6-1.2,3.1-2.8,3.4c-0.3,0-0.6,0.3-0.7,0.6c-0.1,0.3-0.3,0.6-0.1,0.9c0.1,0.6,0.3,1.2,0.3,1.9
		c0,1.9-0.7,3.7-1.9,5.1c-0.3,0.3-0.3,0.6-0.3,1c0,0.3,0.3,0.7,0.6,0.9c4.2,2.2,6.9,6.7,6.9,11.5c0,0.1,0,0.1,0,0.3v0.3
		c0,0.4,0.1,0.7,0.4,1c1.8,1.3,2.8,3.4,2.8,5.7c0,3.9-3.1,7.2-7.2,7.2c-1.6,0-3.1-0.6-4.5-1.6c-0.1-0.1-0.4-0.3-0.7-0.3
		c-0.1,0-0.1,0-0.3,0c-2.5,0.7-5.2,0.6-7.8-0.1c-0.4-0.1-0.9,0-1.2,0.3c-1.3,1.2-3,1.8-4.6,1.8c-3.9,0-7.2-3.1-7.2-7.2
		C-23.9,474.8-22.6,472.4-20.3,471.1z"/>
	<path id="XMLID_101_" class="st0" d="M-139,303.9c1-1,1.6-2.4,1.6-4.2s-0.6-3.1-1.6-4.2c-1-1-2.5-1.6-4.2-1.6h-3.7
		c-1.9,0-3.6-0.7-4.9-2.1c-1.3-1.3-2.1-3-2.1-4.9v-37.3c0-1.8-0.6-3.1-1.6-4.2c-1-1-2.5-1.6-4.2-1.6c-1.8,0-3.1,0.6-4.2,1.6
		c-1,1-1.6,2.5-1.6,4.2v37.3c0,5.4,1.8,9.7,5.4,13.3c3.6,3.6,8.1,5.4,13.3,5.4h3.7C-141.6,305.4-140.2,305-139,303.9z"/>
	<path id="XMLID_102_" class="st0" d="M-7.2,454.1h1.8c1.5,0,1.5-2.4,0-2.4h-1.8C-8.9,451.7-8.9,454.1-7.2,454.1z"/>
	<path id="XMLID_103_" class="st0" d="M-16.6,473.2c1.2,0.1,2.2,0.9,3,1.9s0.9,2.2,0.7,3.4c-0.1,0.6,0.3,1.3,0.9,1.3h0.1
		c0.6,0,1-0.4,1.2-1c0.3-1.8,0-3.7-1.2-5.2c-1-1.5-2.7-2.5-4.5-2.8c-0.6-0.1-1.3,0.3-1.3,1C-17.7,472.4-17.2,473-16.6,473.2z"/>
	<path id="XMLID_109_" class="st0" d="M15.2,128.7c-1-0.6-2.7-0.4-3.6,0.4c-0.9,0.9-1,2.4-0.4,3.6c-1.2,0.3-2.2,1.5-2.2,2.8
		s0.9,2.5,2.2,2.8c-0.6,1-0.4,2.5,0.4,3.6c0.9,0.9,2.4,1,3.6,0.4c0.3,1.2,1.5,2.2,2.8,2.2c1.3,0,2.5-0.9,2.8-2.2
		c1,0.6,2.7,0.4,3.6-0.4c0.9-0.9,1-2.4,0.4-3.6c1.2-0.3,2.2-1.5,2.2-2.8s-0.9-2.5-2.2-2.8c0.6-1,0.4-2.5-0.4-3.6
		c-0.9-0.9-2.4-1-3.6-0.4c-0.3-1.2-1.5-2.2-2.8-2.2C16.6,126.5,15.6,127.4,15.2,128.7z M19.8,129.4c0,0.1,0,0.3,0,0.3v0.4l0.9,0.4
		l0.3-0.4c0-0.1,0.1-0.1,0.1-0.3c0.6-0.6,1.8-0.6,2.4,0c0.7,0.6,0.7,1.8,0,2.4c-0.1,0.1-0.1,0.1-0.3,0.1l-0.3,0.3l0.4,0.9l0.4-0.1
		c0.1,0,0.1,0,0.3,0c0.9,0,1.8,0.7,1.8,1.8c0,0.9-0.7,1.8-1.8,1.8c-0.1,0-0.3,0-0.3,0l-0.4-0.1l-0.1,0.4l0.6,0.3l-0.6-0.1l-0.1,0.4
		l0.4,0.3c0.1,0,0.1,0.1,0.3,0.1c0.7,0.6,0.7,1.8,0,2.4c-0.6,0.6-1.8,0.6-2.4,0c-0.1-0.1-0.1-0.1-0.1-0.3L21,140l-0.9,0.4l0.1,0.4
		c0,0.1,0,0.1,0,0.3c0,0.9-0.7,1.8-1.8,1.8c-0.9,0-1.8-0.7-1.8-1.8c0-0.1,0-0.1,0-0.3l0.1-0.4l-0.4-0.1l-0.3,0.6l0.1-0.6l-0.4-0.1
		l-0.3,0.4c0,0.1-0.1,0.1-0.1,0.3c-0.6,0.6-1.8,0.6-2.4,0c-0.6-0.6-0.6-1.8,0-2.4c0.1-0.1,0.1-0.1,0.3-0.1l0.4-0.3l-0.4-0.9
		l-0.4,0.1c-0.1,0-0.1,0-0.3,0c-0.9,0-1.8-0.7-1.8-1.8c0-0.9,0.7-1.6,1.8-1.6c0.1,0,0.1,0,0.3,0l0.4,0.1l0.1-0.4l-0.6-0.3l0.6,0.1
		l0.1-0.4l-0.4-0.3c-0.1,0-0.1-0.1-0.3-0.1c-0.6-0.7-0.6-1.8,0-2.4c0.6-0.6,1.8-0.6,2.4,0c0.1,0.1,0.1,0.1,0.1,0.3l0.3,0.4l1-0.4
		l-0.1-0.4c0-0.1,0-0.1,0-0.3c0-0.9,0.7-1.8,1.8-1.8C19,127.6,19.8,128.4,19.8,129.4z"/>
	<path id="XMLID_112_" class="st0" d="M40.7,112.7c-1.6-3.6-6.9-2.8-9.1-5.7c-1-1.3-3,0.6-1.8,1.8c1.5,1.8,3.6,2.4,5.8,3.1
		c1.6,0.6,3.1,1.3,3.3,3.4c0.1,1.8-1.8,3.4-3.3,4.5l0,0c-5.4,1.9-11.2,3-17.2,3c-10.1,0-17.3-2.8-17.4-3c-1.3-1.5,0.7-2.7,1.6-4
		c0.7-1,0.9-2.5,0.3-3.7c-1.2-2.2-6.7-3.1-6.1-5.8c0.3-1.6-2.2-2.4-2.5-0.7c-0.9,4.5,3,4.9,5.8,7.2c1.8,1.3-1.5,3.7-2.2,5.1
		c-0.7,1.6,0.3,3,1.5,4v9.2c0,9.2,7.6,16.9,16.9,16.9h4.2c9.2,0,16.9-7.6,16.9-16.9v-9.2C40.1,119.6,42.4,116.6,40.7,112.7z
		 M34.7,131.2c0,8.1-6.6,14.5-14.5,14.5h-4.2c-8.1,0-14.5-6.6-14.5-14.5v-8.4c2.8,0.9,8.8,2.5,16.7,2.5c5.7,0,11.2-0.9,16.4-2.5
		V131.2z"/>
	<path id="XMLID_118_" class="st0" d="M-96.2,89.8v25.1c0,1.5,1.2,2.8,2.8,2.8h22.1c1.5,0,2.8-1.2,2.8-2.8V89.8
		c0-1.5-1.2-2.8-2.8-2.8h-22.1C-94.9,87.1-96.2,88.3-96.2,89.8z M-70.9,89.8v25.1c0,0.1-0.1,0.4-0.4,0.4h-22.1
		c-0.1,0-0.4-0.1-0.4-0.4v-4.3h10c0.6,0,1.2-0.6,1.2-1.2c0-0.6-0.6-1.2-1.2-1.2h-10v-3.3h10c0.6,0,1.2-0.6,1.2-1.2
		c0-0.6-0.6-1.2-1.2-1.2h-10v-3.3h10c0.6,0,1.2-0.6,1.2-1.2s-0.6-1.2-1.2-1.2h-10v-7.2c0-0.1,0.1-0.4,0.4-0.4h22.1
		C-71.2,89.5-70.9,89.6-70.9,89.8z"/>
	<path id="XMLID_119_" class="st0" d="M-97.3,303.9c1,1,2.4,1.6,4.2,1.6c1.8,0,3.1-0.6,4.2-1.6c1-1,1.6-2.4,1.6-4.2v-49.8
		c0-3.9-1.9-5.8-5.8-5.8c-1.8,0-3.1,0.6-4.2,1.6c-1,1-1.6,2.4-1.6,4.2v49.8C-98.9,301.4-98.5,302.7-97.3,303.9z"/>
	<path id="XMLID_122_" class="st0" d="M-91.9,84.4l-1,1.8h20.9l-1-1.8c0-0.1-1.6-2.8-4.2-3.4c0,0-0.3-0.6,0.3-2.7
		c0.6-0.9,0.9-2.1,0.9-3.1c0-3.4-2.8-6.1-6.1-6.1c-3.4,0-6.1,2.8-6.1,6.1c0,0.7,0.1,1.5,0.3,2.1c1,3.1,0.6,3.7,0.6,3.7
		C-90.3,81.6-91.8,84.3-91.9,84.4z M-87.1,83.4c0.7-0.1,1.2-0.6,1.5-1.2c0.9-1.5,0.3-3.7-0.3-5.7c-0.1-0.4-0.3-0.9-0.3-1.3
		c0-2.1,1.6-3.7,3.7-3.7s3.7,1.6,3.7,3.7c0,0.7-0.1,1.5-0.6,2.1l-0.1,0.1v0.1c-0.6,2.2-0.6,3.7,0,4.6c0.3,0.6,0.9,0.9,1.5,1
		c0.3,0.1,0.7,0.3,1,0.4h-11.2C-87.7,83.5-87.4,83.4-87.1,83.4z"/>
	<path id="XMLID_125_" class="st0" d="M-20.6,48.6c0,0.1,0,0.1,0,0.3c0,0.1,0.1,0.1,0.1,0.3l4.9,5.2h20v-3.6l3.3,3.6h20V34.7v-0.4
		h-0.1c0,0,0,0-0.1-0.1l-4.9-4.5l0,0c-0.1,0-0.1-0.1-0.3-0.1s-0.1,0-0.1,0H10.2V13.3v-0.4h-0.1c0,0,0,0-0.1-0.1L5,8.2l0,0
		C4.9,8.2,4.9,8,4.7,8C4.6,8,4.6,8,4.6,8h-19.2v19.1c0,0.1,0,0.1,0,0.3c0,0.1,0.1,0.1,0.1,0.3l1.6,1.6h-7.5L-20.6,48.6z M2.3,52.3
		h-16V36.5h16V52.3z M7.8,51.9l-3.3-3.7l-0.3-0.3V34.3v-1.8l0.1,0.1l0.3,0.4l3.1,3.6V51.9z M25.6,52.3h-16V36.5h16V52.3z M10.1,33.1
		v-1.5h11.3l3,2.7H9l-1.3-1.3h2.4V33.1z M8,21.2v10.1H-8v-1.8v-8.4l0,0v-6.1H8V21.2L8,21.2z M3.7,10.1l3,2.7H-8.7l-2.7-2.7H3.7z
		 M-13.5,26.2V10.9l3.6,4.2v15.4l-0.3-0.4l-0.3-0.4L-13.5,26.2z M-11.2,31.6l1.3,1.5h9.5L1,34.4h-15.4l-2.7-2.7h5.8V31.6z
		 M-19.1,32.5l3.6,4.2V52l-3.6-4V32.5z"/>
	<path id="XMLID_136_" class="st0" d="M-128.2,37.7c0,0.6,0.6,1.2,1.2,1.2c0.6,0,1.2-0.6,1.2-1.2V4.5c1.5-0.4,2.5-1.9,2.5-3.6
		c0-2.1-1.6-3.7-3.7-3.7s-3.7,1.6-3.7,3.7c0,1.6,1,3.1,2.5,3.6v2.7h-38.3V4.5C-165,4-164,2.5-164,0.9c0-2.1-1.6-3.7-3.7-3.7
		c-2.1,0-3.7,1.6-3.7,3.7c0,1.6,1,3.1,2.5,3.6v33.4c0,0.6,0.6,1.2,1.2,1.2c0.6,0,1.2-0.6,1.2-1.2v-2.2h38.3V37.7z M-128.5,0.9
		c0-0.7,0.6-1.3,1.3-1.3c0.7,0,1.3,0.6,1.3,1.3s-0.6,1.3-1.3,1.3C-127.7,2.2-128.5,1.6-128.5,0.9z M-135.8,9.4h7.5v18.5h-7.5V9.4z
		 M-146.2,9.4h8.1v18.5h-8.1V9.4z M-156.6,9.4h8.1v18.5h-8.1V9.4z M-159,9.4v18.5h-7.5V9.4H-159z M-167.8,2.2
		c-0.7,0-1.3-0.6-1.3-1.3s0.6-1.3,1.3-1.3s1.3,0.6,1.3,1.3C-166.3,1.6-166.9,2.2-167.8,2.2z M-166.5,33.1v-2.8h38.3v2.8H-166.5z"/>
	<path id="XMLID_145_" class="st0" d="M-7.7,51.1h2.8c2.4,0,4.3-1.9,4.3-4.3c0-1.6-0.9-3-2.2-3.7c0.4-0.6,0.6-1.3,0.6-2.1
		c0-1.9-1.6-3.6-3.6-3.6h-1.9c-0.9,0-1.6,0.6-1.8,1.3c0,0.1-0.1,0.3-0.1,0.4v10.1c0,0.1,0,0.1,0,0.3C-9.4,50.4-8.6,51.1-7.7,51.1z
		 M-7.2,39.7h1.5c0.6,0,1.2,0.6,1.2,1.2S-5.1,42-5.7,42h-1.5V39.7z M-7.2,44.7H-5c1,0,1.9,0.9,1.9,1.9s-0.9,1.9-1.9,1.9h-2.2V44.7z"
		/>
	<path id="XMLID_149_" class="st0" d="M3.5,21.2l-2.4-4.6l0,0v-0.1c0,0,0,0,0-0.1c0,0,0,0-0.1-0.1c0,0,0,0-0.1-0.1c0,0,0,0-0.1,0
		c0,0,0,0-0.1,0l0,0c0,0,0,0-0.1,0H0.2H0.1c0,0,0,0-0.1,0h-0.1c0,0,0,0-0.1,0h-0.1c0,0,0,0-0.1,0h-0.1l0,0l0,0h-0.1c0,0,0,0-0.1,0
		c0,0,0,0-0.1,0.1c0,0,0,0-0.1,0.1c0,0,0,0,0,0.1c0,0,0,0,0,0.1l0,0l-2.4,4.6l-3.1,6.1c-0.3,0.6,0,1.3,0.6,1.6
		c0.1,0.1,0.3,0.1,0.6,0.1c0.4,0,0.9-0.3,1-0.6l0.9-1.9h6.7l0.9,1.9c0.1,0.4,0.6,0.6,1,0.6c0.1,0,0.3,0,0.6-0.1
		c0.6-0.3,0.9-1,0.6-1.6L3.5,21.2z M-2,24.2l1.5-3l0.7-1.5L1,21.2l1.5,3H-2z"/>
	<path id="XMLID_150_" class="st0" d="M18.7,50.8c1.6,0,3.3-0.6,4.5-1.8c0.4-0.4,0.4-1.2,0-1.6c-0.4-0.4-1.2-0.4-1.6,0
		c-0.7,0.7-1.8,1.2-2.8,1.2c-2.4,0-4.2-1.9-4.2-4.2c0-2.4,1.9-4.2,4.2-4.2c1,0,2.1,0.4,2.8,1c0.4,0.4,1.2,0.4,1.6-0.1
		c0.4-0.4,0.4-1.2-0.1-1.6c-1.2-1-2.8-1.6-4.3-1.6c-3.6,0-6.6,3-6.6,6.6C12,47.9,15,50.8,18.7,50.8z"/>
	<path id="XMLID_151_" class="st0" d="M-1.8,479.9h0.1c0.6-0.1,1-0.7,0.9-1.3c-0.4-2.5,1.2-4.9,3.7-5.4c0.6-0.1,1-0.7,1-1.3
		c-0.1-0.6-0.7-1-1.3-1c-3.7,0.7-6.3,4.3-5.7,8.1C-2.9,479.5-2.4,479.9-1.8,479.9z"/>
	<path id="XMLID_180_" class="st0" d="M-263.8,473.2c11.2,0,20.3-9.1,20.3-20.3c0-10.6-8.1-25.1-18-26.8c-0.3,0-0.7,0-1,0.3
		c-0.3,0.3-0.4,0.6-0.4,0.9v4.3c0,0.4,0.3,0.9,0.7,1.2c1.9,0.7,3.3,2.5,3.3,4.6c0,2.7-2.2,4.8-4.8,4.8c-2.7,0-4.8-2.2-4.8-4.8
		c0-2.1,1.3-3.9,3.3-4.6c0.4-0.1,0.7-0.6,0.7-1.2v-4.3c0-0.3-0.1-0.7-0.4-0.9c-0.3-0.3-0.6-0.3-1-0.3c-10,1.8-18,16.3-18,26.8
		C-283.9,464.1-275,473.2-263.8,473.2z M-266.9,428.9v1.9c-2.4,1.2-4,3.7-4,6.6c0,4,3.3,7.3,7.3,7.3c4,0,7.3-3.3,7.3-7.3
		c0-2.8-1.6-5.2-4-6.6v-1.9c8.1,2.7,14.6,14.9,14.6,24.2c0,9.8-8.1,17.9-17.9,17.9s-17.9-8.1-17.9-17.9
		C-281.5,443.8-275,431.6-266.9,428.9z"/>
	<path id="XMLID_186_" class="st0" d="M-274.1,457.2l0.1,0.3c1.6,5.4,9.4,9.4,9.7,9.5l0.6,0.3l0.6-0.3c0.3-0.1,8.1-4.2,9.7-9.5
		l0.1-0.3c0.1-0.4,0.1-0.7,0.1-1c0-0.1,0-0.4,0-0.6c0-3.7-3-6.7-6.7-6.7c-1.3,0-2.7,0.4-3.9,1.2c-1-0.7-2.4-1.2-3.9-1.2
		c-3.7,0-6.7,3-6.7,6.7c0,0.1,0,0.4,0,0.6S-274.1,456.8-274.1,457.2z M-267.5,451.1c1,0,2.2,0.4,3,1.2l0.9,0.7l0.9-0.7
		c0.7-0.7,1.9-1.2,3-1.2c2.4,0,4.3,1.9,4.3,4.3c0,0.1,0,0.3,0,0.4c0,0.1,0,0.4-0.1,0.7v0.1l1.2,0.3l-1.2-0.3
		c-1.2,3.7-6.3,6.9-7.9,7.8c-2.2-1.3-6.9-4.5-7.9-7.8v-0.1c0-0.3-0.1-0.4-0.1-0.7c0-0.1,0-0.3,0-0.4
		C-271.8,453.1-269.9,451.1-267.5,451.1z"/>
	<path id="XMLID_193_" class="st0" d="M-229.3,20.9c-1-2.5-3.4-4.2-6.3-4.2c-0.3,0-0.7,0-1,0.1c-0.1,0-0.3,0-0.3-0.1
		c-0.4-0.1-1.2-0.7-0.6-1.3c0.4-0.4,1.3-0.4,1.9-0.3c0.3,0.1,0.7,0.4,0.3,0.6c-0.3,0.1-0.6,0.1-1,0c-0.4-0.1-0.7,0.6-0.3,0.7
		c0.6,0.3,1.3,0.1,1.8-0.1c0.3-0.3,0.6-0.9,0.3-1.3c-0.6-1-2.1-0.9-3.1-0.6c-0.9,0.4-1.5,1.6-0.6,2.5c0.1,0.1,0.1,0.1,0.3,0.3
		c-1.8,0.6-3.3,2.1-4,3.9c-1.2,0.1-2.2,1-2.2,2.4c0,1.2,0.9,2.2,2.2,2.4c1,2.5,3.4,4.2,6.3,4.2c2.8,0,5.2-1.8,6.3-4.2
		c1.2-0.1,2.2-1,2.2-2.4C-227.2,21.9-228.1,20.9-229.3,20.9z M-229.7,24.3l-0.4-0.1l-0.1,0.4c-0.7,2.4-2.8,3.9-5.2,3.9
		s-4.6-1.6-5.2-3.9l-0.1-0.4l-0.4,0.1h-0.1c-0.6,0-1.2-0.4-1.2-1.2c0-0.6,0.4-1.2,1.2-1.2h0.1l0.4,0.1l0.1-0.4
		c0.7-2.2,2.8-3.9,5.2-3.9s4.6,1.6,5.2,3.9l0.1,0.4l0.4-0.1c0.6-0.1,1.3,0.4,1.3,1C-228.4,23.9-229,24.3-229.7,24.3z"/>
	<path id="XMLID_196_" class="st0" d="M-80.3,547.5c-2.5,0-4.8,2.1-4.8,4.8c0,2.5,2.1,4.8,4.8,4.8c2.5,0,4.8-2.1,4.8-4.8
		C-75.7,549.5-77.8,547.5-80.3,547.5z M-80.3,554.5c-1.3,0-2.2-1-2.2-2.2c0-0.4,0.1-0.9,0.4-1.3c-0.1,0.7,0.3,1.5,1.2,1.5
		c1.5,0,1.6-2.1,0.3-2.5c0.1,0,0.3,0,0.3,0c1.3,0,2.2,1,2.2,2.2C-78.1,553.4-79.1,554.5-80.3,554.5z"/>
	<path id="XMLID_199_" class="st0" d="M-96.7,180.9c0-10.6-8.1-25.1-18-26.8c-0.3,0-0.7,0-1,0.3c-0.3,0.3-0.4,0.6-0.4,0.9v4.3
		c0,0.4,0.3,0.9,0.7,1.2c1.9,0.7,3.3,2.5,3.3,4.6c0,2.7-2.2,4.8-4.8,4.8c-2.7,0-4.8-2.2-4.8-4.8c0-2.1,1.3-3.9,3.3-4.6
		c0.4-0.1,0.7-0.6,0.7-1.2v-4.3c0-0.3-0.1-0.7-0.4-0.9c-0.3-0.3-0.6-0.3-1-0.3c-10,1.8-18,16.3-18,26.8c0,11.2,9.1,20.3,20.3,20.3
		C-105.8,201.2-96.7,192.1-96.7,180.9z M-117,198.8c-9.8,0-17.9-8.1-17.9-17.9c0-9.1,6.6-21.5,14.6-24.2v1.9c-2.4,1.2-4,3.7-4,6.6
		c0,4,3.3,7.3,7.3,7.3s7.3-3.3,7.3-7.3c0-2.8-1.6-5.2-4-6.6v-1.9c8.1,2.7,14.6,14.9,14.6,24.2C-99.1,190.7-107.1,198.8-117,198.8z"
		/>
	<path id="XMLID_202_" class="st0" d="M-113.1,176.6c-1.3,0-2.7,0.4-3.9,1.2c-1-0.7-2.4-1.2-3.7-1.2c-3.7,0-6.7,3-6.7,6.7
		c0,0.1,0,0.4,0,0.6c0,0.3,0.1,0.7,0.1,1.2l0.1,0.3c1.6,5.4,9.4,9.4,9.7,9.5l0.6,0.3l0.6-0.3c0.3-0.1,8.1-4.2,9.7-9.4l0.1-0.3
		c0.1-0.4,0.1-0.7,0.1-1c0-0.1,0-0.4,0-0.6C-106.4,179.5-109.4,176.6-113.1,176.6z M-109.1,184.6c-1.2,3.7-6.3,6.9-7.9,7.8
		c-2.2-1.3-6.9-4.5-7.9-7.8v-0.1c0-0.3-0.1-0.4-0.1-0.7c0-0.1,0-0.3,0-0.4c0-2.4,1.9-4.3,4.3-4.3c1,0,2.2,0.4,3,1.2l0.9,0.7l0.9-0.7
		c0.7-0.7,1.9-1.2,3-1.2c2.4,0,4.3,1.9,4.3,4.3c0,0.1,0,0.3,0,0.4s0,0.4-0.1,0.7L-109.1,184.6l1.2,0.3L-109.1,184.6z"/>
	<path id="XMLID_205_" class="st0" d="M-64.6,544.6c0-2.5-2.1-4.8-4.8-4.8c-2.5,0-4.8,2.1-4.8,4.8c0,2.5,2.1,4.8,4.8,4.8
		S-64.6,547.2-64.6,544.6z M-71.6,544.6c0-0.3,0-0.4,0.1-0.6c0,0.6,0.4,1.2,1.2,1.2c1.6,0,1.6-2.5,0-2.5c0,0,0,0-0.1,0
		c0.3-0.1,0.7-0.3,1-0.3c1.3,0,2.2,1,2.2,2.2c0,1.3-1,2.2-2.2,2.2C-70.6,546.9-71.6,546-71.6,544.6z"/>
	<path id="XMLID_206_" class="st0" d="M-107.6,244.1h-0.4c-1.8,0-3.3,1.5-3.3,3.3v8.1c0,1.8,1.5,3.3,3.3,3.3h0.4
		c1.8,0,3.3-1.5,3.3-3.3v-8.1C-104.4,245.5-105.8,244.1-107.6,244.1z"/>
	<path id="XMLID_207_" class="st0" d="M-127.1,261.4c-1.8,0-3.1,0.6-4.2,1.6c-1,1-1.6,2.5-1.6,4.2v32.4c0,1.8,0.6,3.1,1.6,4.2
		c1,1,2.4,1.6,4.2,1.6c1.8,0,3.1-0.6,4.2-1.6c1-1,1.6-2.5,1.6-4.2v-32.4C-121.1,263.4-123.2,261.4-127.1,261.4z"/>
	<path id="XMLID_210_" class="st0" d="M-209.7,365.8c0-3.6-1.5-5.2-4.6-5.4h-1.2v10.9h1.2C-211.2,371-209.7,369.4-209.7,365.8z
		 M-213.3,363c0.7,0.3,1,1,1,2.8c0,1.8-0.3,2.5-1,2.8V363z"/>
	<path id="XMLID_213_" class="st0" d="M-66.9,561.9c2.5,0,4.8-2.1,4.8-4.8c0-2.5-2.1-4.8-4.8-4.8c-2.5,0-4.8,2.1-4.8,4.8
		C-71.5,559.8-69.4,561.9-66.9,561.9z M-69.1,556.7c0.1,0.4,0.4,0.9,1.2,0.9c1.5,0,1.6-2.2,0.3-2.5c0.3-0.1,0.6-0.1,0.7-0.1
		c1.3,0,2.2,1,2.2,2.2c0,1.3-1,2.2-2.2,2.2c-1.3,0-2.2-1-2.2-2.2C-69.1,557-69.1,556.9-69.1,556.7z"/>
	<path id="XMLID_214_" class="st0" d="M-122,245.2c-1.3-1.3-3.1-2.1-5.1-2.1c-1.9,0-3.6,0.7-5.1,2.1c-1.3,1.3-2.1,3.1-2.1,5.1
		c0,1.9,0.7,3.6,2.1,5.1c1.3,1.3,3.1,2.1,5.1,2.1c1.9,0,3.6-0.7,5.1-2.1c1.3-1.3,2.1-3.1,2.1-5.1C-120,248.3-120.6,246.7-122,245.2z
		"/>
	<path id="XMLID_215_" class="st0" d="M90,403.2c0.6,0,1,0.1,1.5,0.4c-0.6-0.7-1.6-1.3-2.7-1.3c-1.9,0-3.4,1.5-3.4,3.4
		s1.5,3.4,3.4,3.4c1,0,2.1-0.4,2.7-1.3c-0.4,0.3-0.9,0.4-1.5,0.4c-1.5,0-2.5-1.2-2.5-2.5C87.3,404.4,88.5,403.2,90,403.2z"/>
	<path id="XMLID_216_" class="st0" d="M84.4,401.3h1c0.1,0,0.4-0.1,0.4-0.4c0-0.1-0.1-0.4-0.4-0.4h-1h-0.1c0-0.4-0.1-0.7-0.4-1h0.1
		l0.7-0.7c0.1-0.1,0.1-0.4,0-0.6c-0.1-0.1-0.4-0.1-0.6,0l-0.7,0.7c0,0,0,0,0,0.1c-0.3-0.3-0.7-0.4-1-0.4v-0.1v-1
		c0-0.3-0.1-0.4-0.4-0.4c-0.1,0-0.4,0.1-0.4,0.4v1v0.1c-0.4,0-0.7,0.1-1,0.4v-0.1l-0.7-0.7c-0.1-0.1-0.4-0.1-0.6,0
		c-0.1,0.1-0.1,0.4,0,0.6l0.7,0.7c0,0,0,0,0.1,0.1c-0.3,0.3-0.4,0.7-0.4,1h-0.1h-1c-0.1,0-0.4,0.1-0.4,0.4c0,0.1,0.1,0.4,0.4,0.4h1
		h0.1c0,0.4,0.1,0.7,0.4,1h-0.1l-0.7,0.7c-0.1,0.1-0.1,0.4,0,0.6c0.1,0.1,0.1,0.1,0.3,0.1s0.1,0,0.3-0.1l0.7-0.7c0,0,0,0,0-0.1
		c0.3,0.3,0.7,0.4,1,0.4v0.1v1c0,0.1,0.1,0.4,0.4,0.4c0.1,0,0.4-0.1,0.4-0.4v-1v-0.1c0.4,0,0.7-0.1,1-0.4v0.1l0.7,0.7
		c0.1,0.1,0.1,0.1,0.3,0.1s0.1,0,0.3-0.1c0.1-0.1,0.1-0.4,0-0.6l-0.7-0.7c0,0,0,0-0.1-0.1C83.9,402.1,84.1,401.8,84.4,401.3
		C84.2,401.3,84.2,401.3,84.4,401.3z"/>
	<path id="XMLID_217_" class="st0" d="M97.3,398.9h-1.5l-0.4-1.5c-0.3-0.7-0.7-0.7-0.9,0c-0.3,0.7-0.4,1.5-0.4,1.5h-1.5
		c-0.9,0-1,0.4-0.3,0.9c0.7,0.4,1.2,0.9,1.2,0.9l-0.4,1.5c-0.3,0.7,0.1,1,0.7,0.6c0.7-0.4,1.2-0.9,1.2-0.9l1.2,0.9
		c0.7,0.4,1,0.3,0.7-0.6c-0.3-0.7-0.4-1.5-0.4-1.5l1.2-0.9C98.2,399.4,98.1,398.9,97.3,398.9z"/>
	<path id="XMLID_218_" class="st0" d="M-24.1,255.5c1.9,0,3.6,0.7,4.9,2.1c1.3,1.3,2.1,3,2.1,4.9v43.4c0,5.2,1.8,9.7,5.4,13.3
		c3.6,3.6,8.1,5.4,13.3,5.4h0.3c1.8,0,3.1-0.6,4.2-1.6c1-1,1.6-2.5,1.6-4.2c0-1.8-0.6-3.1-1.6-4.2c-1-1-2.5-1.6-4.2-1.6H1.6
		c-1.9,0-3.6-0.7-4.9-2.1c-1.3-1.3-2.1-3-2.1-4.9v-43.4c0-5.2-1.8-9.7-5.4-13.3c-3.6-3.6-7.9-5.4-13.3-5.4c-4.6,0-8.6,1.5-12.1,4.6
		c-3.6-3-7.6-4.6-12.1-4.6c-5.2,0-9.7,1.8-13.3,5.4c-3.6,3.6-5.4,8.1-5.4,13.3v37.3c0,1.8,0.6,3.1,1.6,4.2c1,1,2.5,1.6,4.2,1.6
		c1.8,0,3.1-0.6,4.2-1.6c1-1,1.6-2.5,1.6-4.2v-37.3c0-1.9,0.7-3.6,2.1-4.9s3-2.1,4.9-2.1s3.6,0.7,4.9,2.1c1.3,1.3,2.1,3,2.1,4.9
		v37.3c0,1.8,0.6,3.1,1.6,4.2c1,1,2.4,1.6,4.2,1.6c1.8,0,3.1-0.6,4.2-1.6c1-1,1.6-2.5,1.6-4.2v-41.5
		C-28.2,256.3-26.3,255.5-24.1,255.5z"/>
	<path id="XMLID_219_" class="st0" d="M93.9,395.3c0,0.4,0.3,0.7,0.7,0.7c0.4,0,0.7-0.3,0.7-0.7v-2.8h1.2c0.4,0,0.7-0.3,0.7-0.7
		c0-0.4-0.3-0.7-0.7-0.7H78.8c-0.4,0-0.7,0.3-0.7,0.7c0,0.4,0.3,0.7,0.7,0.7h1.9v2.8c0,0.4,0.3,0.7,0.7,0.7c0.4,0,0.7-0.3,0.7-0.7
		v-2.8h4.5v8.5c0,0.4,0.3,0.7,0.7,0.7s0.7-0.3,0.7-0.7v-8.5h5.2v2.8H93.9z"/>
	<path id="XMLID_222_" class="st0" d="M-75.5,400.7c1,3.1,5.2,5.4,5.7,5.7l0.6,0.3l0.6-0.3c0.4-0.3,4.6-2.5,5.7-5.5v-0.1v-0.1
		c0-0.3,0.1-0.4,0.1-0.7c0-0.1,0-0.3,0-0.4c0-2.4-1.9-4.3-4.3-4.3c-0.7,0-1.5,0.1-2.1,0.6c-0.6-0.3-1.3-0.6-2.1-0.6
		c-2.4,0-4.3,1.9-4.3,4.3c0,0.1,0,0.3,0,0.4c0,0.3,0,0.4,0.1,0.7C-75.7,400.6-75.7,400.7-75.5,400.7L-75.5,400.7z M-73.3,399.7v-0.1
		c0-1,0.9-1.9,1.9-1.9c0.4,0,0.9,0.1,1.3,0.4l0.9,0.7l0.9-0.7c0.3-0.3,0.7-0.4,1.3-0.4c1,0,1.9,0.9,1.9,1.9v0.1c0,0.1,0,0.1,0,0.3
		v0.1c-0.4,1.6-2.7,3.1-3.9,3.9c-1.2-0.7-3.4-2.2-3.9-3.9l-1.2,0.3l1.2-0.4C-73.3,399.8-73.3,399.7-73.3,399.7z"/>
	<path id="XMLID_223_" class="st0" d="M15.5,283.5c0,1.6,0.6,3,1.8,4.2c1.2,1.2,2.5,1.8,4.2,1.8c1.5,0,2.8-0.6,4-1.8l11-10.9
		c1.6-1.3,2.5-2.8,2.5-4.8c0-1.5-0.6-2.8-1.8-4c-4.3-4.5-9.7-6.7-16-6.7s-11.5,2.1-15.7,6.4c-4.2,4.2-6.4,9.5-6.4,15.7
		c0,6.3,2.1,11.5,6.4,15.7c4.2,4.3,9.4,6.4,15.7,6.4h7.6c1.8,0,3.1-0.6,4.2-1.6c1-1,1.6-2.5,1.6-4.2c0-1.8-0.6-3.1-1.6-4.2
		c-1-1-2.4-1.6-4.2-1.6h-7.6c-2.8,0-5.4-1-7.3-3.1c-2.1-2.1-3-4.5-3-7.5c0-2.8,1-5.4,3-7.3c1.9-2.1,4.5-3,7.3-3
		c0.7,0,1.5,0.1,2.2,0.3l-6.1,6.1C16.1,280.7,15.5,282,15.5,283.5z"/>
	<path id="XMLID_224_" class="st0" d="M-237,6.1h2.8c0.6,0,1.2-0.6,1.2-1.2s-0.6-1.2-1.2-1.2h-2.8c-0.6,0-1.2,0.6-1.2,1.2
		S-237.8,6.1-237,6.1z"/>
	<path id="XMLID_227_" class="st0" d="M-223.8,36.5c0.3-6,0.6-17-0.3-23.6c-0.6-5.1-3.4-7.8-5.8-9.1v-4.2c0-3.3-2.7-6.1-5.8-6.1
		c-3.3,0-5.8,2.7-5.8,6.1V4c-2.4,1.3-5.2,3.9-5.8,8.9c-0.7,6.6-0.4,17.6-0.3,23.6c0.1,3.3,3.1,6,6.7,6h10.4
		C-226.9,42.5-223.9,39.8-223.8,36.5z M-226.1,36.4c-0.1,2.1-1.9,3.7-4.2,3.7h-10.4c-2.2,0-4.2-1.6-4.2-3.7
		c-0.3-6-0.4-16.7,0.1-23.3c0.4-3.6,2.1-6.1,5.1-7.5l0.7-0.3v-5.8c0-2.1,1.5-3.7,3.4-3.7s3.4,1.6,3.4,3.7v5.8l0.7,0.3
		c3,1.3,4.8,3.9,5.2,7.5C-225.7,19.7-226,30.4-226.1,36.4z"/>
	<path id="XMLID_230_" class="st0" d="M-197.7,304.8c5.4,5.4,14,5.4,19.4,0s5.4-14,0-19.4c-5.4-5.4-14-5.4-19.4,0
		C-203,290.8-203,299.6-197.7,304.8z M-184.7,291.1c0-1,0.9-1.8,1.9-1.8c1,0,1.9,0.9,1.9,1.8v1.3c0,1-0.9,1.8-1.8,1.8
		c-1,0-1.9-0.9-1.9-1.8v-1.3H-184.7z M-181.1,298v1c0,3.7-3.1,6.7-6.9,6.7c-3.7,0-6.9-3-6.9-6.7v-1H-181.1z M-195.4,291.1
		c0-1,1-1.8,2.1-1.8c1,0,2.1,0.9,2.1,1.8v1.3c0,1-1,1.8-2.1,1.8c-1,0-2.1-0.9-2.1-1.8V291.1z"/>
	<path id="XMLID_235_" class="st0" d="M65.4,334c0,2.8,2.4,5.2,5.2,5.2h36.7c2.8,0,5.2-2.4,5.2-5.2v-36.7c0-2.8-2.4-5.2-5.2-5.2
		H70.6c-2.8,0-5.2,2.4-5.2,5.2V334z M67.8,297.4c0-1.5,1.2-2.8,2.8-2.8h36.7c1.5,0,2.8,1.2,2.8,2.8v4.5h-7c-0.4-1.6-1.9-2.7-3.7-2.7
		s-3.3,1.2-3.7,2.7h-9.4c-0.4-1.6-1.9-2.7-3.7-2.7c-1,0-2.1,0.4-2.8,1.2c-0.7-0.7-1.6-1.2-2.8-1.2c-1.8,0-3.3,1.2-3.7,2.7h-5.4
		V297.4z M100.9,303c0,0.4-0.3,0.9-0.6,1.2c-0.3,0.1-0.6,0.3-0.9,0.3c-0.3,0-0.7-0.1-0.9-0.3c-0.3-0.3-0.6-0.7-0.6-1.2
		s0.3-0.9,0.6-1.2c0.3-0.1,0.6-0.3,0.9-0.3c0.3,0,0.7,0.1,0.9,0.3C100.6,302.1,100.9,302.6,100.9,303z M84.1,303
		c0,0.4-0.3,0.9-0.6,1.2c-0.3,0.1-0.6,0.3-0.9,0.3c-0.3,0-0.7-0.1-0.9-0.3c-0.3-0.3-0.6-0.7-0.6-1.2s0.3-0.9,0.6-1.2
		c0.3-0.1,0.6-0.3,0.9-0.3c0.3,0,0.7,0.1,0.9,0.3C83.8,302.1,84.1,302.6,84.1,303z M78.4,303c0,0.4-0.3,0.9-0.6,1.2
		c-0.3,0.1-0.6,0.3-0.9,0.3c-0.3,0-0.7-0.1-0.9-0.3c-0.3-0.3-0.6-0.7-0.6-1.2s0.3-0.9,0.6-1.2c0.3-0.1,0.6-0.3,0.9-0.3
		c0.3,0,0.7,0.1,0.9,0.3C78.2,302.1,78.4,302.6,78.4,303z M67.8,304.4h5.4c0.4,1.6,1.9,2.7,3.7,2.7c1,0,2.1-0.4,2.8-1.2
		c0.7,0.7,1.6,1.2,2.8,1.2c1.8,0,3.3-1.2,3.7-2.7h9.4c0.4,1.6,1.9,2.7,3.7,2.7s3.3-1.2,3.7-2.7h7v10.1h-7.9
		c-0.6-1.5-1.9-2.5-3.6-2.5c-1,0-1.9,0.4-2.7,1c-0.7-0.7-1.8-1.3-2.8-1.3c-1,0-2.1,0.4-2.8,1.2c-0.7-0.7-1.6-1.2-2.8-1.2
		c-1.8,0-3.3,1.2-3.7,2.7H67.9v-10H67.8z M100.2,316c0,0.3-0.1,0.7-0.3,0.9c-0.3,0.3-0.7,0.6-1.2,0.6s-0.9-0.3-1.2-0.6
		c-0.1-0.3-0.3-0.6-0.3-0.9c0-0.7,0.4-1.3,1.2-1.5c0.1,0,0.3,0,0.4,0c0.1,0,0.3,0,0.4,0C99.6,314.7,100.2,315.3,100.2,316z
		 M94.6,315.7c0,0.4-0.3,0.9-0.6,1.2c-0.3,0.1-0.6,0.3-0.9,0.3c-0.3,0-0.7-0.1-0.9-0.3c-0.3-0.3-0.6-0.7-0.6-1.2
		c0-0.4,0.3-0.9,0.6-1.2c0.3-0.1,0.6-0.3,0.9-0.3c0.3,0,0.7,0.1,0.9,0.3C94.3,314.8,94.6,315.1,94.6,315.7z M89,315.7
		c0,0.4-0.3,0.9-0.6,1.2c-0.3,0.1-0.6,0.3-0.9,0.3c-0.3,0-0.7-0.1-0.9-0.3c-0.3-0.3-0.6-0.7-0.6-1.2c0-0.4,0.3-0.9,0.6-1.2
		c0.3-0.1,0.6-0.3,0.9-0.3c0.3,0,0.7,0.1,0.9,0.3C88.7,314.8,89,315.1,89,315.7z M67.8,316.9h15.8c0.4,1.6,1.9,2.7,3.7,2.7
		c1,0,2.1-0.4,2.8-1.2c0.7,0.7,1.6,1.2,2.8,1.2c1,0,1.9-0.4,2.7-1c0.7,0.7,1.8,1.3,2.8,1.3c1.8,0,3.4-1.3,3.9-3h7.8V327h-2.1
		c-0.4-1.8-1.9-3-3.9-3c-1,0-2.1,0.4-2.8,1.2c-0.7-0.7-1.6-1.2-2.8-1.2c-1.8,0-3.4,1.3-3.9,3H79.9c-0.4-1.8-1.9-3-3.9-3
		c-1.8,0-3.4,1.3-3.9,3h-4.5v-10.1H67.8z M105.7,327.9c0,0.7-0.4,1.3-1.2,1.5c-0.1,0-0.3,0-0.4,0c-0.1,0-0.3,0-0.4,0
		c-0.6-0.1-1.2-0.7-1.2-1.5c0-0.3,0.1-0.7,0.3-0.9c0.3-0.3,0.7-0.6,1.2-0.6s0.9,0.3,1.2,0.6C105.5,327.3,105.7,327.6,105.7,327.9z
		 M100.2,327.9c0,0.7-0.4,1.3-1.2,1.5c-0.1,0-0.3,0-0.4,0c-0.1,0-0.3,0-0.4,0c-0.6-0.1-1.2-0.7-1.2-1.5c0-0.3,0.1-0.7,0.3-0.9
		c0.3-0.3,0.7-0.6,1.2-0.6c0.4,0,0.9,0.3,1.2,0.6C100,327.3,100.2,327.6,100.2,327.9z M77.6,327.9c0,0.7-0.4,1.3-1.2,1.5
		c-0.1,0-0.3,0-0.4,0c-0.1,0-0.3,0-0.4,0c-0.6-0.1-1.2-0.7-1.2-1.5c0-0.3,0.1-0.7,0.3-0.9c0.3-0.3,0.7-0.6,1.2-0.6s0.9,0.3,1.2,0.6
		C77.5,327.3,77.6,327.6,77.6,327.9z M67.8,329.4h4.6c0.6,1.5,1.9,2.5,3.6,2.5c1.6,0,3.1-1,3.6-2.5h15.4c0.6,1.5,1.9,2.5,3.6,2.5
		c1,0,2.1-0.4,2.8-1.2c0.7,0.7,1.6,1.2,2.8,1.2c1.6,0,3.1-1,3.6-2.5h2.2v4.5c0,1.5-1.2,2.8-2.8,2.8H70.5c-1.5,0-2.8-1.2-2.8-2.8
		v-4.5H67.8z"/>
	<path id="XMLID_248_" class="st0" d="M-233.9,22.8c-0.7,0-0.7,1,0,1C-233.3,23.9-233.3,22.8-233.9,22.8z"/>
	<path id="XMLID_249_" class="st0" d="M-195.6,281.3l7.5-3.7l7.6,3.7c0.9,0.4,1.8,0,1.8-1v-9.8c0-1-0.7-1.6-1.8-1l-7.6,3.7l-7.5-3.7
		c-0.9-0.4-1.8,0-1.8,1v9.7C-197.4,281.3-196.6,281.9-195.6,281.3z"/>
	<path id="XMLID_252_" class="st0" d="M-177.7,490.8c-0.1,0.1-0.1,0.3-0.1,0.6c0.7,6.3,6.1,10.9,12.4,10.9c6.9,0,12.4-5.5,12.4-12.4
		c0-6.9-5.5-12.4-12.4-12.4c-6.9,0-12.4,5.5-12.4,12.4c0,0.1,0,0.3,0,0.4C-177.8,490.5-177.7,490.6-177.7,490.8z M-175.7,491.2
		l1.8-0.7c0.3-0.1,0.6-0.4,0.7-0.9l0.6-3.6c0-0.3,0-0.7,0-0.9l-0.6-1.8c0-0.1-0.1-0.3-0.1-0.3c0.9-0.9,1.8-1.8,3-2.4
		c0.1,0,0.1,0,0.1-0.1c0.1,0,0.1,0,0.3,0l2.8-0.3c0.3,0,0.6-0.1,0.9-0.1l1.2-0.4c0.1,0,0.1-0.1,0.1-0.1s0.1,0,0.3,0
		c1.6,0.1,3.3,0.7,4.8,1.6c0.1,0,0.1,0.1,0.1,0.1s0,0.1,0.1,0.1l0.7,1c0.1,0.1,0.3,0.4,0.4,0.7l2.7,3.3c0,0.1,0.1,0.1,0.1,0.1
		l0.1,0.1c0.3,0.7,0.3,1.5,0.4,2.2c-0.1,0-0.3,0-0.4,0l-2.8,0.7c-0.3,0.1-0.6,0.4-0.7,0.7l-1.6,4.8c-0.1,0.3,0,0.7,0.3,1l1.5,1.3
		c-1.9,1.5-4.2,2.4-6.6,2.4c-0.6,0-1,0-1.5-0.1c0.1,0,0.1-0.1,0.3-0.1l2.4-2.5c0.3-0.3,0.3-0.7,0-1.2l-3.3-3.7
		c-0.1-0.3-0.6-0.4-0.9-0.4l-4.5,0.6c-0.1,0-0.4,0.1-0.6,0.3c-0.1,0.1-0.1,0.4-0.1,0.6l0.6,3.4
		C-174.4,495.6-175.4,493.6-175.7,491.2C-175.7,491.4-175.7,491.2-175.7,491.2z"/>
	<path id="XMLID_255_" class="st0" d="M-197.8,245.2c-5.4,5.4-5.4,14,0,19.4c5.4,5.4,14,5.4,19.4,0c5.4-5.4,5.4-14,0-19.4
		C-183.6,239.8-192.4,239.8-197.8,245.2z M-195.4,249.3c0-1,1-1.8,2.1-1.8c1,0,2.1,0.9,2.1,1.8v1.3c0,1-1,1.8-2.1,1.8
		c-1,0-2.1-0.9-2.1-1.8V249.3z M-181.1,259.5c0,3.7-3.1,6.7-6.9,6.7c-3.7,0-6.9-3-6.9-6.7v-1h13.7V259.5z M-180.7,250.7
		c0,1-1,1.8-2.1,1.8c-1,0-2.1-0.9-2.1-1.8v-1.3c0-1,1-1.8,2.1-1.8c1,0,2.1,0.9,2.1,1.8V250.7z"/>
	<path id="XMLID_258_" class="st0" d="M-167.1,489c0.1,0.3,0.6,0.4,0.9,0.4h0.1l5.1-1c0.4,0,0.7-0.4,0.7-0.9l0.1-4.3
		c0-0.4-0.3-0.7-0.6-0.9l-4.6-1.6c-0.3-0.1-0.7,0-1,0.1l-3.3,3.1c-0.3,0.3-0.3,0.7-0.1,1.2L-167.1,489z"/>
	<path id="XMLID_259_" class="st0" d="M-250,263.2l-0.7-0.9c-1.3,1.2-2.2,3-2.2,4.9c0,3.6,3,6.6,6.6,6.6c3.6,0,6.6-3,6.6-6.6
		c0-3.6-2.8-6.4-6.3-6.6c-0.6-2.1-1.3-3.9-2.2-5.5c1.6-2.2,2.8-4.6,4.2-7.2c0.3-0.6,0.1-1.8-0.7-1.9c-1.9-0.3-3.7-0.4-5.7-0.3
		c-1.6,0.1-1.6,2.7,0,2.5c1-0.1,2.2-0.1,3.3,0c-0.7,1.5-1.6,3-2.5,4.3c-4.2-5.7-10.3-9.1-14.6-11c-1.8-0.7-3.3-1.2-4.2-1.5
		c1.2-3.3,2.8-6.3,4.9-8.1c1.5-1.3,3.1-1.9,5.1-1.8c0.1,0,0.3,0,0.4,0c0.6,0,1.2-0.4,1.3-1c0-0.6-0.4-1.2-1-1.3
		c-2.7-0.3-5.2,0.4-7.3,2.4c-3.6,3.1-5.8,8.9-7.2,14.6c-0.3,0-0.6,0-0.7,0c-8.1,0-14.6,6.6-14.6,14.6c0,8.1,6.6,14.6,14.6,14.6
		s14.6-6.6,14.6-14.6c0-5.7-3.3-10.6-8.1-13l-0.6,1l-0.6,1c4,1.9,6.7,6.1,6.7,10.9c0,6.7-5.5,12.2-12.2,12.2s-12.2-5.5-12.2-12.2
		c0-6.7,5.5-12.2,12.2-12.2c0.1,0,0.1,0,0.3,0c-1.2,6.3-1.5,11.6-1.5,12.1c0,0.6,0.4,1.2,1.2,1.2l0,0c0.6,0,1.2-0.4,1.2-1.2
		c0,0,0-1.2,0.1-2.8c0.1-2.2,0.6-5.5,1.3-9.1c0.1-0.4,0.1-0.7,0.3-1.2c0.1-0.4,0.1-0.7,0.3-1.2c0.1-0.9,0.4-1.8,0.7-2.7
		c0.1,0,0.4,0.1,0.7,0.3c0.9,0.3,1.9,0.6,3.1,1.2c5.7,2.4,14.3,7.6,17.2,17.2c0.1,0.4,0.3,0.7,0.3,1.2c0.1,0.4,0.1,0.7,0.3,1.2
		c0.1,0.7,0.3,1.6,0.3,2.5c0,0.4,0,0.9,0,1.3c0,0.6,0.6,1.2,1.2,1.2s1.2-0.6,1.2-1.2c0-1.5-0.1-2.8-0.3-4.2c1.9,0.4,3.3,2.1,3.3,4.2
		c0,2.4-1.9,4.2-4.2,4.2c-2.4,0-4.2-1.9-4.2-4.2c0-1.2,0.6-2.4,1.3-3.1L-250,263.2z"/>
	<path id="XMLID_262_" class="st0" d="M-237.8,385.9h17.9c3.6,0,6.6-2.5,6.6-5.7V377c4.8-0.7,8.5-5.5,8.5-11c0-5.7-3.7-10.3-8.4-11
		v-5.2c0-1.8-1.3-3.1-3.1-3.1h-3.7c-3.4,0-5.2-1-5.4-1.5l-0.3-1.2c-0.3-1.2-1.8-2.1-3.4-2.1h-6c-1.6,0-3.1,0.9-3.4,2.1l-0.3,1.2
		c-0.1,0.7-1.2,1.5-2.1,1.5h-0.6c-1.8,0-3.1,1.3-3.1,3.1v5.1c-4.8,0.7-8.5,5.4-8.5,11s3.7,10.4,8.6,11v3.3
		C-244.5,383.4-241.5,385.9-237.8,385.9z M-242.1,349.6c0-0.4,0.3-0.7,0.7-0.7h0.6c2.1,0,4-1.5,4.5-3.3l0.3-1.2c0-0.1,0.4-0.3,1-0.3
		h6c0.6,0,1,0.3,1,0.3l0.3,1.2c0.4,1.9,3.6,3.3,7.6,3.3h3.7c0.4,0,0.7,0.3,0.7,0.7v3.6h-26.5C-242.1,353.1-242.1,349.6-242.1,349.6z
		 M-250.6,365.8c0-4.8,3.3-8.8,7.5-8.8h1.2v-1.3h26.4v1.3h1.2c4,0,7.3,4,7.3,8.8c0,4.8-3.3,8.6-7.3,8.8h-1.2v5.7
		c0,1.8-1.9,3.3-4.2,3.3h-17.9c-2.4,0-4.2-1.5-4.2-3.3v-5.7h-1.2C-247.3,374.6-250.6,370.7-250.6,365.8z"/>
	<path id="XMLID_266_" class="st0" d="M-242.1,371.2v-10.7h-1.2c-3.3,0-4.8,1.6-4.8,5.4s1.5,5.4,4.8,5.4H-242.1z M-244.5,368.6
		c-0.9-0.3-1.2-0.9-1.2-2.8s0.4-2.7,1.2-2.8V368.6z"/>
	<path id="XMLID_269_" class="st0" d="M-237.5,369.1l0.1,0.3c1.3,4.5,7.8,7.8,8.1,7.9l0.6,0.3l0.6-0.3c0.3-0.1,6.6-3.4,8.1-7.9v-0.3
		c0.1-0.3,0.1-0.6,0.1-0.9c0-0.1,0-0.4,0-0.6c0-3.1-2.5-5.7-5.7-5.7c-1,0-2.2,0.3-3.1,0.9c-0.9-0.6-1.9-0.9-3.1-0.9
		c-3.1,0-5.7,2.5-5.7,5.7c0,0.1,0,0.3,0,0.6C-237.6,368.3-237.6,368.8-237.5,369.1z M-235.2,368.3c0-0.1-0.1-0.4-0.1-0.6
		s0-0.1,0-0.3c0-1.8,1.5-3.3,3.3-3.3c0.9,0,1.6,0.3,2.2,0.9l0.9,0.7l0.9-0.7c0.6-0.6,1.5-0.9,2.2-0.9c1.8,0,3.3,1.5,3.3,3.3
		c0,0.1,0,0.1,0,0.3s0,0.3-0.1,0.6v0.1c-0.7,2.7-4.5,5.1-6.3,6.1C-230.8,373.7-234.3,371.2-235.2,368.3l-1.2,0.4L-235.2,368.3z"/>
	<path id="XMLID_272_" class="st0" d="M-165.7,506.4c11.6,0,21-9.4,21-21c0-11-8.4-25.9-18.8-27.9c-0.3,0-0.7,0-1,0.3
		c-0.3,0.3-0.4,0.6-0.4,0.9v4.5c0,0.4,0.3,0.9,0.7,1.2c2.1,0.7,3.4,2.7,3.4,4.8c0,2.8-2.2,5.1-5.1,5.1s-5.1-2.2-5.1-5.1
		c0-2.1,1.3-4,3.4-4.8c0.4-0.1,0.7-0.6,0.7-1.2v-4.5c0-0.3-0.1-0.7-0.4-0.9c-0.3-0.3-0.6-0.3-1-0.3c-10.4,1.9-18.8,16.9-18.8,27.9
		C-186.8,496.9-177.4,506.4-165.7,506.4z M-169,460.2v2.2c-2.5,1.2-4.2,3.9-4.2,6.7c0,4.2,3.4,7.5,7.5,7.5c4.2,0,7.5-3.4,7.5-7.5
		c0-2.8-1.6-5.5-4.2-6.7v-2.2c8.4,2.7,15.4,15.7,15.4,25.2c0,10.3-8.4,18.6-18.6,18.6s-18.6-8.4-18.6-18.6
		C-184.4,475.7-177.4,462.9-169,460.2z"/>
	<path id="XMLID_273_" class="st0" d="M-237.3,22.8c-0.7,0-0.7,1,0,1C-236.6,24-236.6,22.8-237.3,22.8z"/>
	<path id="XMLID_274_" class="st0" d="M-234.5,24.6c-0.1,0-0.4,0.1-0.4,0.3c-0.1,0-0.3,0.1-0.7,0.1c-0.3,0-0.6,0-0.7-0.1
		c0-0.1-0.3-0.3-0.4-0.3c-0.3,0-0.4,0.3-0.4,0.4c0,0.6,0.6,0.9,1.6,0.9c1,0,1.6-0.4,1.6-0.9C-233.9,24.9-234.2,24.6-234.5,24.6z"/>
	<path id="XMLID_277_" class="st0" d="M-228.1,158.2c0.1,0.4,0.6,0.7,1,0.7c0.1,0,0.3,0,0.3,0c0.6-0.1,0.9-0.7,0.9-1.3l-5.1-29.5
		l1.5-6c0.4-0.1,0.6-0.6,0.6-1c0-0.3-0.1-0.4-0.1-0.7l1.8-6.9c0.1-0.6-0.1-1.3-0.9-1.5c-0.6-0.1-1.3,0.1-1.5,0.9l-1.8,6.9h-16.6
		c-0.6,0-1.2,0.6-1.2,1.2c0,0.6,0.6,1.2,1.2,1.2h1.6v4.6h-0.9c-0.6,0-1,0.4-1.2,1l-5.2,29.8c-0.1,0.6,0.3,1.2,0.9,1.3
		c0.6,0.1,1.2-0.1,1.5-0.7l3.6-8.2h16L-228.1,158.2z M-230,147.6L-230,147.6l-5.2-11.9l0,0l-2.8-6.6h4.9L-230,147.6z M-243.9,122.1
		h12.1l-1.3,4.6H-244v-4.6H-243.9z M-249.4,147.6L-249.4,147.6l3.1-18.3h4.8l-2.8,6.6l0,0L-249.4,147.6z M-246.9,147.6l4.3-10.3h5.4
		l4.3,10.3H-246.9z"/>
</g>
</svg>
