<?xml version="1.0" encoding="utf-8"?>
<!-- Generator: Adobe Illustrator 16.0.0, SVG Export Plug-In . SVG Version: 6.00 Build 0)  -->
<!DOCTYPE svg PUBLIC "-//W3C//DTD SVG 1.1//EN" "http://www.w3.org/Graphics/SVG/1.1/DTD/svg11.dtd">
<svg version="1.1" id="Layer_1" xmlns="http://www.w3.org/2000/svg" xmlns:xlink="http://www.w3.org/1999/xlink" x="0px" y="0px"
	 width="736px" height="233px" viewBox="0 0 736 233" enable-background="new 0 0 736 233" xml:space="preserve">
<g id="Grid" display="none">
</g>
<g id="Layer_1_1_">
</g>
<g id="Desktop">
</g>
<g id="Guides">
</g>
<g>
	<polygon fill="#231F20" points="121.211,121.357 177.238,121.357 177.238,33.454 89.333,33.454 89.333,92.379 121.211,92.379 	"/>
	<polygon fill="#231F20" points="102.857,166.761 102.857,197.672 164.679,197.672 164.679,135.85 121.211,135.85 121.211,166.761 	
		"/>
	<polygon fill="#231F20" points="89.333,121.357 89.333,92.379 46.83,92.379 46.83,166.761 102.857,166.761 102.857,135.85 
		121.211,135.85 121.211,121.357 	"/>
</g>
<g>
	<g>
		<path fill="#231F20" d="M216.529,70.686v64.955h-4.763V70.686h-6.409v-4.417h17.321v4.417H216.529L216.529,70.686z
			 M251.519,135.641v-27.194h-8.661v27.194h-4.59v-27.194h-3.551v-4.33h3.551V66.269h4.59v37.847h8.661V66.269h4.59v69.372H251.519
			L251.519,135.641z M272.477,135.641v-27.194h-4.244v-4.33h4.244V66.269h16.195v4.417h-11.519v33.43h11.865v4.33h-11.865v22.95
			h11.865v4.244H272.477L272.477,135.641z"/>
		<path fill="#231F20" d="M534.066,81.599v-7.794c0-0.924-0.404-1.732-1.214-2.426c-0.809-0.692-1.788-1.039-2.944-1.039
			c-1.212,0-2.236,0.289-3.074,0.866c-0.837,0.577-1.256,1.414-1.256,2.512v27.453c0,1.328,0.404,2.295,1.213,2.902
			c0.809,0.604,1.818,0.908,3.031,0.908c2.192,0,4.069,0.549,5.629,1.646c1.56,1.098,2.339,2.858,2.339,5.283v15.849
			c0,2.079-0.837,3.897-2.512,5.456c-1.675,1.561-3.725,2.339-6.149,2.339c-2.481,0-4.531-0.778-6.147-2.339
			c-1.617-1.559-2.426-3.349-2.426-5.369v-8.228h4.503v8.141c0,1.039,0.376,1.905,1.126,2.599c0.751,0.692,1.732,1.039,2.944,1.039
			c1.155,0,2.151-0.359,2.988-1.082c0.838-0.723,1.256-1.603,1.256-2.642V111.91c0-0.981-0.346-1.688-1.039-2.121
			c-0.693-0.434-1.53-0.65-2.512-0.65c-2.311,0-4.359-0.577-6.148-1.732c-1.791-1.154-2.686-3.232-2.686-6.235V73.718
			c0-2.482,0.938-4.374,2.813-5.673c1.877-1.299,3.912-1.948,6.105-1.948c2.426,0,4.461,0.707,6.105,2.121
			c1.646,1.415,2.468,3.248,2.468,5.5v7.881H534.066L534.066,81.599z M561.866,70.513v64.954h-4.763V70.513h-6.409v-4.416h17.32
			v4.416H561.866L561.866,70.513z M589.406,135.38c-2.713,0-4.879-0.577-6.495-1.731s-2.425-3.205-2.425-6.148V73.544
			c0-2.136,0.881-3.94,2.641-5.412c1.762-1.473,3.884-2.209,6.367-2.209c2.424,0,4.474,0.722,6.148,2.165
			c1.674,1.443,2.512,3.263,2.512,5.456v54.042c0,3.002-0.81,5.052-2.426,6.148C594.112,134.832,592.005,135.38,589.406,135.38
			L589.406,135.38z M593.477,73.544c0-0.981-0.402-1.775-1.212-2.381c-0.808-0.606-1.73-0.91-2.771-0.91
			c-1.098,0-2.079,0.304-2.945,0.91c-0.866,0.605-1.299,1.371-1.299,2.295v54.041c0,2.483,1.385,3.724,4.156,3.724
			c2.714,0,4.07-1.212,4.07-3.637V73.544L593.477,73.544z M627.254,127.557v-15.805c0-0.924-0.275-1.761-0.838-2.483
			s-1.4-1.082-2.525-1.082h-5.125v27.454h-4.504v-27.454h-3.981v-4.244h3.981V66.097h9.787c2.137,0,3.955,0.722,5.456,2.165
			c1.501,1.443,2.252,3.262,2.252,5.456v27.453c0,1.964-0.606,3.609-1.819,4.937c0.578,0.578,1.025,1.328,1.344,2.252
			c0.317,0.924,0.477,2.079,0.477,3.464v15.763c0,1.501,0.521,2.425,1.56,2.771c1.04,0.348,2.106,0.55,3.204,0.606v4.677
			c-2.801,0-5.052-0.549-6.74-1.646C628.09,132.884,627.254,130.747,627.254,127.557L627.254,127.557z M627.254,73.718
			c0-0.866-0.289-1.617-0.867-2.252c-0.576-0.635-1.328-0.953-2.252-0.953h-5.369v33.43h5.023c2.309,0,3.465-0.924,3.465-2.771
			V73.718L627.254,73.718z M652.455,135.467v-27.194h-4.244v-4.33h4.244V66.097h16.195v4.416h-11.52v33.43h11.864v4.33h-11.864
			v22.95h11.864v4.244H652.455L652.455,135.467z"/>
		<path fill="#231F20" d="M337.148,135.51h-5.847L320.909,31.454h6.886l7.21,71.06l9.808-71.06h6.886L337.148,135.51L337.148,135.51
			z M391.515,135.51H376.77V94.719h-6.625v-6.495h6.625v-56.77h14.29c3.118,0,5.804,1.039,8.056,3.117
			c2.252,2.079,3.378,4.851,3.378,8.313v41.312c0,2.857-1.039,5.239-3.118,7.146c1.212,0.865,2.122,1.948,2.728,3.247
			c0.607,1.299,0.91,3.118,0.91,5.456v23.645c0,3.203-1.17,5.976-3.528,8.313C397.145,134.341,394.48,135.51,391.515,135.51
			L391.515,135.51z M395.605,42.886c0-1.386-0.476-2.555-1.429-3.507c-0.953-0.953-1.992-1.43-3.118-1.43h-7.403v50.274h7.925
			c0.952,0,1.861-0.434,2.728-1.299c0.866-0.866,1.3-1.819,1.3-2.858v-41.18H395.605z M396.256,100.175
			c0-1.212-0.389-2.295-1.189-3.247c-0.779-0.953-1.905-1.688-3.399-2.209h-8.011v34.426h7.751c1.299,0,2.446-0.584,3.398-1.754
			c0.975-1.168,1.45-2.402,1.45-3.701V100.175L396.256,100.175z M433.41,135.641c-3.812,0-6.863-0.867-9.158-2.599
			s-3.443-4.765-3.443-9.094V42.886c0-3.637,1.234-6.452,3.703-8.444c2.469-1.991,5.392-2.987,8.77-2.987s6.365,1.104,8.964,3.313
			c2.598,2.208,3.896,4.915,3.896,8.119v12.471h-6.494V42.886c0-1.386-0.606-2.555-1.818-3.507c-1.213-0.953-2.729-1.43-4.547-1.43
			c-2.252,0-3.745,0.477-4.481,1.43c-0.735,0.952-1.104,2.121-1.104,3.507v81.192c0,1.732,0.585,3.053,1.753,3.962
			c1.17,0.909,2.533,1.364,4.093,1.364c1.646,0,3.14-0.498,4.481-1.494c1.343-0.996,2.014-2.359,2.014-4.092v-12.081h6.756v12.211
			c0,3.118-1.343,5.846-4.027,8.184C440.078,134.471,436.961,135.641,433.41,135.641L433.41,135.641z M465.107,135.51V31.454h6.885
			v97.69h17.147v6.364L465.107,135.51L465.107,135.51z"/>
	</g>
	
		<line fill="none" stroke="#231F20" stroke-width="4" stroke-miterlimit="2.4142" x1="200.09" y1="153.109" x2="673.052" y2="153.109"/>
	<path fill="#231F20" d="M286.508,170.595h-2.838v20.943c1.403,0.67,3.443,1.089,5.324,1.089c4.781,0,7.65-2.904,7.65-7.751
		c0-4.112-2.613-7.142-6.184-7.142c-1.436,0-2.71,0.416-3.953,1.308L286.508,170.595L286.508,170.595z M286.508,181.752
		c1.211-1.084,2.072-1.467,3.252-1.467c2.391,0,3.984,1.977,3.984,5.005c0,2.71-1.816,4.653-4.367,4.653
		c-0.828,0-2.041-0.19-2.869-0.445V181.752L286.508,181.752z M319.692,189.785c-0.639,0.479-1.212,0.765-1.499,0.765
		c-0.351,0-0.541-0.19-0.541-0.731v-7.364c0-3.252-2.295-4.718-5.196-4.718c-2.072,0-3.634,0.638-4.75,1.943v3.092
		c1.371-1.625,2.965-2.357,4.526-2.357c1.722,0,2.582,0.732,2.582,2.52v0.765l-2.519,0.893c-2.295,0.829-4.877,1.689-4.877,4.526
		c0,1.85,1.402,3.512,3.506,3.512c1.308,0,2.614-0.482,3.857-1.471c0.255,1.02,0.924,1.471,2.168,1.471
		c0.893,0,1.434-0.255,2.741-1.12L319.692,189.785L319.692,189.785z M314.814,189.436c-0.766,0.732-1.595,1.179-2.486,1.179
		c-1.18,0-2.039-0.828-2.039-2.009c0-1.688,2.104-2.519,4.525-3.347V189.436L314.814,189.436z M334.388,175.059l-5.322,5.195v0.318
		h2.485v7.555c0,2.582,1.563,4.5,4.654,4.5c0.924,0,2.454-0.419,3.443-0.961v-2.646c-1.148,0.702-2.2,1.054-3.222,1.054
		c-0.828,0-2.04-0.479-2.04-2.168v-7.332h4.526v-2.55h-4.526L334.388,175.059L334.388,175.059z M353.322,170.595h-2.836v21.74h2.836
		V182.07c1.34-1.498,2.328-2.071,3.569-2.071c1.724,0,2.808,1.37,2.808,3.476v8.86h2.836v-8.767c0-3.92-2.071-5.834-4.877-5.834
		c-1.594,0-3.188,0.798-4.271,2.169h-0.063L353.322,170.595L353.322,170.595z M387.305,188.191
		c-1.658,1.082-3.283,1.721-5.005,1.721c-2.741,0-4.368-1.466-4.813-4.303h10.071c0-5.293-2.422-7.875-6.215-7.875
		c-3.953,0-6.694,2.934-6.694,7.27c0,3.952,2.485,7.623,6.948,7.623c2.424,0,3.985-0.547,5.707-1.693V188.191L387.305,188.191z
		 M377.55,183.729c0.382-2.264,1.689-3.537,3.856-3.537c2.009,0,3.252,1.369,3.348,3.537H377.55L377.55,183.729z M415.676,178.021
		h-2.838v14.313h2.838V178.021L415.676,178.021z M415.963,173.688c0-0.925-0.766-1.689-1.688-1.689c-0.927,0-1.69,0.766-1.69,1.689
		c0,0.925,0.765,1.689,1.69,1.689C415.197,175.377,415.963,174.611,415.963,173.688L415.963,173.688z M431.391,178.021h-2.837
		v14.313h2.837V182.07c1.34-1.498,2.328-2.071,3.57-2.071c1.722,0,2.806,1.37,2.806,3.476v8.86h2.837v-8.83
		c0-3.921-2.168-5.771-4.877-5.771c-1.594,0-3.188,0.798-4.271,2.169h-0.064L431.391,178.021L431.391,178.021z M469.611,170.595
		h-2.836v21.74h2.836V170.595L469.611,170.595z M494.477,192.335v-14.313h-2.838v10.232c-0.924,1.307-2.135,2.009-3.41,2.009
		c-1.943,0-2.934-1.147-2.934-3.155v-9.086h-2.836v8.895c0,3.634,2.039,5.711,4.941,5.711c1.401,0,3.06-0.834,4.237-2.107v1.815
		H494.477L494.477,192.335z M520.871,178.021h-3.635l-4.08,4.91l-4.24-4.91h-3.57l6.025,7.045l-6.025,7.269h3.57l4.24-5.132
		l4.495,5.132h3.634l-6.313-7.269L520.871,178.021L520.871,178.021z M544.078,192.335v-14.313h-2.838v10.232
		c-0.924,1.307-2.137,2.009-3.41,2.009c-1.945,0-2.934-1.147-2.934-3.155v-9.086h-2.837v8.895c0,3.634,2.039,5.711,4.939,5.711
		c1.403,0,3.061-0.834,4.24-2.107v1.815H544.078L544.078,192.335z M557.146,178.021v14.313h2.838v-7.491
		c0-2.453,1.529-4.397,3.475-4.397c0.67,0,1.785,0.573,2.646,1.401l1.498-2.455c-1.181-1.115-2.265-1.656-3.412-1.656
		c-1.338,0-2.709,1.052-4.145,3.57h-0.063v-3.283h-2.838V178.021z M591.352,178.021h-3.188l-3.697,8.064l-3.856-8.064h-3.221
		l5.546,11.252l-4.877,10.398h3.156L591.352,178.021L591.352,178.021z"/>
</g>
</svg>
