<?xml version="1.0" encoding="utf-8"?>
<!-- Generator: Adobe Illustrator 16.0.0, SVG Export Plug-In . SVG Version: 6.00 Build 0)  -->
<!DOCTYPE svg PUBLIC "-//W3C//DTD SVG 1.1//EN" "http://www.w3.org/Graphics/SVG/1.1/DTD/svg11.dtd">
<svg version="1.1" id="Layer_1" xmlns="http://www.w3.org/2000/svg" xmlns:xlink="http://www.w3.org/1999/xlink" x="0px" y="0px"
	 width="306.141px" height="134.007px" viewBox="0 0 306.141 134.007" enable-background="new 0 0 306.141 134.007"
	 xml:space="preserve">
<g>
	<path fill-rule="evenodd" clip-rule="evenodd" fill="#2D2D2D" d="M2.67,117.117l-0.221-0.902c0.055-0.184,0.113-0.371,0.164-0.563
		c0.057-0.188,0.109-0.375,0.156-0.563c0.051-0.125,0.146-0.227,0.283-0.297c0.135-0.066,0.313-0.102,0.529-0.102
		c0.086,0,0.215-0.02,0.383-0.055c0.172-0.039,0.293-0.059,0.369-0.059c0.08,0,0.189,0.07,0.33,0.195
		c0.137,0.129,0.236,0.207,0.289,0.223c0.066-0.047,0.145-0.129,0.246-0.234c0.094-0.109,0.211-0.262,0.35-0.445
		c0.123-0.148,0.236-0.266,0.346-0.359c0.113-0.094,0.23-0.156,0.363-0.195c0.145,0.078,0.273,0.133,0.387,0.18
		c0.063,0.039,0.109,0.082,0.133,0.125c0.023,0.047,0.033,0.113,0.033,0.191c0,0.051-0.025,0.148-0.072,0.297
		c-0.041,0.16-0.113,0.363-0.207,0.621c-0.098,0.273-0.18,0.504-0.23,0.691c-0.059,0.184-0.094,0.332-0.115,0.43
		c-0.137,0.211-0.244,0.406-0.326,0.578c-0.074,0.168-0.113,0.328-0.113,0.477c0,0.184,0.053,0.457,0.166,0.82
		c0.109,0.367,0.27,0.816,0.482,1.367c0.297,0.738,0.596,1.508,0.902,2.313c0.275,0.883,0.568,1.742,0.871,2.563
		c0.301,0.828,0.623,1.621,0.953,2.379c0.34,0.797,0.625,1.383,0.848,1.773c0.221,0.387,0.387,0.578,0.496,0.578
		c0.094,0,0.16-0.051,0.203-0.156c0.035-0.105,0.059-0.277,0.059-0.508c0-0.09,0.01-0.215,0.035-0.359
		c0.023-0.145,0.063-0.309,0.117-0.488c0.086-0.242,0.16-0.527,0.238-0.84c0.09-0.48,0.18-0.902,0.254-1.262
		c0.082-0.359,0.148-0.668,0.203-0.926c0.033-0.164,0.074-0.52,0.123-1.055s0.096-1.262,0.137-2.176c0-0.086,0.02-0.219,0.053-0.383
		c0.027-0.168,0.061-0.359,0.09-0.57c0.033-0.211,0.061-0.395,0.082-0.547c0.016-0.152,0.027-0.285,0.027-0.41
		c0-0.211-0.025-0.527-0.072-0.945c-0.041-0.422-0.066-0.738-0.066-0.953c0.139-0.578,0.266-1.148,0.389-1.699
		c0.098-0.484,0.199-0.879,0.289-1.199c0.094-0.32,0.168-0.559,0.234-0.727c0.148-0.332,0.326-0.621,0.539-0.867
		c0.211-0.242,0.449-0.445,0.709-0.602h0.109c0.094,0,0.154,0.02,0.189,0.059c0.031,0.035,0.047,0.094,0.047,0.176
		c-0.047,0.195-0.09,0.344-0.123,0.445c0.023,0.168,0.053,0.34,0.08,0.527c-0.027,0.23-0.057,0.426-0.094,0.578
		c-0.02,0.098-0.039,0.258-0.059,0.465c-0.018,0.207-0.027,0.457-0.027,0.758c0,0.105-0.014,0.348-0.043,0.711
		s-0.074,0.852-0.15,1.461c-0.057,0.867-0.123,1.73-0.199,2.59c-0.08,0.855-0.16,1.719-0.244,2.574
		c-0.072,1.035-0.182,1.977-0.316,2.832c-0.139,0.855-0.305,1.617-0.504,2.293c-0.041,0.406-0.127,0.855-0.254,1.359
		c-0.123,0.496-0.285,1.039-0.477,1.617l-0.432,0.691c-0.021,0.035-0.314,0.156-0.869,0.355c-0.553,0.195-0.863,0.297-0.926,0.297
		c-0.141,0-0.352-0.184-0.625-0.547c-0.277-0.363-0.605-0.922-0.98-1.668c-0.359-0.672-0.65-1.23-0.863-1.672
		c-0.211-0.438-0.344-0.766-0.398-0.984c-0.02-0.086-0.043-0.191-0.082-0.32c-0.039-0.133-0.082-0.277-0.129-0.445
		c-0.184-0.402-0.414-0.91-0.699-1.508c-0.277-0.602-0.604-1.313-0.973-2.133c-0.066-0.203-0.146-0.398-0.242-0.586
		c-0.098-0.191-0.215-0.395-0.354-0.605l-0.096,0.043c-0.064,0.184-0.133,0.414-0.191,0.691c-0.066,0.277-0.143,0.605-0.223,0.996
		c-0.094,0.25-0.189,0.473-0.293,0.664c-0.137,0.535-0.293,1.117-0.469,1.746s-0.367,1.305-0.566,2.023
		c-0.059,0.238-0.113,0.484-0.172,0.746c-0.051,0.262-0.117,0.523-0.191,0.805l-0.246,0.457c-0.037,0.273-0.082,0.547-0.129,0.816
		c-0.061,0.207-0.141,0.469-0.242,0.766c-0.094,0.305-0.211,0.656-0.352,1.074c-0.025,0.211-0.096,0.375-0.199,0.477
		c-0.109,0.109-0.25,0.164-0.436,0.176c-0.018,0.039-0.057,0.078-0.115,0.117c-0.055,0.043-0.145,0.078-0.273,0.117
		c-0.094,0.02-0.164-0.027-0.207-0.145C0.023,133.25,0,133.078,0,132.859c0-0.129,0.023-0.332,0.07-0.613
		c0.043-0.273,0.113-0.621,0.207-1.047c0.102-0.484,0.182-0.855,0.242-1.133c0.057-0.27,0.1-0.441,0.119-0.516
		c0.037-0.223,0.074-0.512,0.123-0.875c0.047-0.359,0.1-0.777,0.15-1.246c0.02-0.121,0.053-0.266,0.092-0.449
		c0.041-0.184,0.094-0.391,0.16-0.633c0.047-0.184,0.137-0.684,0.277-1.5c0.137-0.82,0.316-1.953,0.539-3.414
		C2.215,120.003,2.449,118.566,2.67,117.117z M14.25,128.312c0.109,0.199,0.211,0.414,0.301,0.633
		c0.098,0.215,0.176,0.43,0.25,0.641c0.086-0.094,0.145-0.176,0.18-0.25c0.039-0.07,0.074-0.129,0.102-0.168
		c0.32-0.258,0.57-0.457,0.746-0.594s0.283-0.207,0.33-0.207c0.076,0,0.133,0.023,0.174,0.063c0.045,0.043,0.063,0.094,0.063,0.16
		s-0.051,0.277-0.148,0.645c-0.105,0.363-0.158,0.66-0.158,0.879c0,0.547,0.213,1.039,0.639,1.48
		c0.426,0.445,0.902,0.668,1.426,0.668c0.086,0,0.191-0.02,0.328-0.059c0.133-0.039,0.221-0.051,0.27-0.051
		c0.156,0,0.33-0.031,0.52-0.094c0.188-0.059,0.396-0.141,0.627-0.258c0.396-0.164,0.762-0.371,1.088-0.625
		c0.324-0.258,0.605-0.535,0.836-0.844c0.086,0.184,0.195,0.332,0.336,0.434c0.137,0.102,0.313,0.152,0.523,0.152
		c0.186,0,0.375-0.043,0.564-0.117c0.188-0.082,0.387-0.207,0.6-0.383c0.176-0.129,0.34-0.266,0.496-0.402
		c0.16-0.137,0.32-0.285,0.488-0.43c-0.092-0.211-0.182-0.426-0.271-0.641c-0.088-0.219-0.178-0.434-0.268-0.633
		c-0.109,0.094-0.209,0.16-0.285,0.207c-0.082,0.047-0.156,0.07-0.232,0.07c-0.068,0-0.131-0.027-0.178-0.082
		c-0.043-0.047-0.086-0.133-0.125-0.25c0.09-0.082,0.191-0.211,0.299-0.402c0.104-0.184,0.205-0.41,0.299-0.691
		c0.08-0.25,0.141-0.48,0.18-0.688c0.037-0.211,0.057-0.395,0.057-0.555c0-0.832-0.17-1.453-0.506-1.863
		c-0.34-0.414-0.842-0.617-1.516-0.617c-0.07,0-0.215,0.039-0.447,0.109c-0.23,0.078-0.549,0.191-0.953,0.348l-0.082-0.125
		c0.1-0.211,0.193-0.426,0.291-0.633c-0.012-0.094-0.066-0.164-0.176-0.219c-0.105-0.055-0.26-0.078-0.465-0.078
		c-0.184,0-0.352,0.039-0.508,0.113c-0.158,0.074-0.313,0.176-0.459,0.305c-0.129,0.129-0.256,0.266-0.379,0.402
		c-0.127,0.137-0.26,0.273-0.396,0.418c-0.109,0.098-0.232,0.203-0.359,0.309c-0.129,0.105-0.262,0.219-0.387,0.336
		c-0.148,0.137-0.277,0.266-0.385,0.398c-0.104,0.133-0.18,0.25-0.225,0.355c-0.398,0.348-0.73,0.648-1,0.887
		c-0.264,0.246-0.461,0.445-0.594,0.602l-1.063,0.734c-0.098,0.129-0.176,0.246-0.248,0.352
		C14.383,128.16,14.316,128.246,14.25,128.312z M20.908,125.781c0.295,0.039,0.521,0.07,0.676,0.102
		c0.162,0.039,0.26,0.066,0.309,0.094c0.076,0.035,0.146,0.137,0.221,0.297c0.07,0.16,0.152,0.383,0.236,0.656l-0.25,0.793
		c-0.049,0.18-0.094,0.336-0.137,0.461c-0.047,0.129-0.109,0.219-0.182,0.27c-0.129,0.16-0.268,0.324-0.414,0.5
		c-0.316,0.465-0.652,0.824-1.008,1.059c-0.352,0.238-0.74,0.355-1.166,0.355c-0.27,0-0.467-0.066-0.596-0.191
		c-0.133-0.137-0.195-0.328-0.195-0.582c0-0.145,0.023-0.316,0.068-0.52c0.047-0.199,0.123-0.441,0.221-0.73
		c0.104-0.32,0.203-0.574,0.309-0.742c0.098-0.172,0.197-0.262,0.287-0.27c0.146-0.027,0.279-0.07,0.396-0.133
		c0.113-0.055,0.223-0.141,0.326-0.254c0.166-0.254,0.313-0.477,0.439-0.691c0.086-0.133,0.172-0.242,0.258-0.324
		C20.795,125.839,20.861,125.792,20.908,125.781z M24.26,128.312c0.066-0.066,0.133-0.152,0.197-0.258
		c0.072-0.105,0.152-0.223,0.246-0.352l1.064-0.734c0.131-0.156,0.33-0.355,0.596-0.602c0.27-0.238,0.6-0.539,0.996-0.887
		c0.047-0.105,0.123-0.223,0.227-0.355c0.109-0.133,0.236-0.262,0.383-0.398c0.129-0.117,0.262-0.23,0.389-0.336
		s0.25-0.211,0.357-0.309c0.139-0.145,0.271-0.281,0.398-0.418c0.123-0.137,0.25-0.273,0.379-0.402
		c0.145-0.129,0.301-0.23,0.457-0.305s0.328-0.113,0.51-0.113c0.205,0,0.361,0.023,0.465,0.078c0.107,0.055,0.166,0.125,0.174,0.219
		c-0.094,0.207-0.188,0.422-0.287,0.633l0.08,0.125c0.406-0.156,0.723-0.27,0.953-0.348c0.234-0.07,0.379-0.109,0.445-0.109
		c0.676,0,1.178,0.203,1.518,0.617c0.334,0.41,0.506,1.031,0.506,1.863c0,0.16-0.02,0.344-0.059,0.555
		c-0.037,0.207-0.098,0.438-0.178,0.688c-0.096,0.281-0.193,0.508-0.297,0.691c-0.111,0.191-0.209,0.32-0.299,0.402
		c0.037,0.117,0.08,0.203,0.123,0.25c0.049,0.055,0.107,0.082,0.178,0.082c0.078,0,0.152-0.023,0.234-0.07
		c0.074-0.047,0.174-0.113,0.281-0.207c0.092,0.199,0.18,0.414,0.27,0.633c0.09,0.215,0.18,0.43,0.271,0.641
		c-0.166,0.145-0.326,0.293-0.486,0.43c-0.156,0.137-0.324,0.273-0.498,0.402c-0.213,0.176-0.41,0.301-0.6,0.383
		c-0.189,0.074-0.379,0.117-0.563,0.117c-0.211,0-0.387-0.051-0.523-0.152c-0.143-0.102-0.252-0.25-0.338-0.434
		c-0.232,0.309-0.51,0.586-0.836,0.844c-0.326,0.254-0.689,0.461-1.088,0.625c-0.23,0.117-0.438,0.199-0.627,0.258
		c-0.189,0.063-0.365,0.094-0.521,0.094c-0.047,0-0.137,0.012-0.268,0.051c-0.139,0.039-0.242,0.059-0.326,0.059
		c-0.525,0-1.004-0.223-1.43-0.668c-0.424-0.441-0.637-0.934-0.637-1.48c0-0.219,0.053-0.516,0.156-0.879
		c0.1-0.367,0.152-0.578,0.152-0.645s-0.02-0.117-0.063-0.16c-0.043-0.039-0.102-0.063-0.176-0.063c-0.047,0-0.154,0.07-0.33,0.207
		c-0.174,0.137-0.426,0.336-0.746,0.594c-0.029,0.039-0.063,0.098-0.1,0.168c-0.037,0.074-0.094,0.156-0.18,0.25
		c-0.076-0.211-0.156-0.426-0.25-0.641C24.473,128.726,24.369,128.511,24.26,128.312z M30.918,125.781
		c-0.047,0.012-0.113,0.059-0.201,0.148c-0.088,0.082-0.17,0.191-0.258,0.324c-0.127,0.215-0.271,0.438-0.438,0.691
		c-0.104,0.113-0.213,0.199-0.328,0.254c-0.115,0.063-0.248,0.105-0.396,0.133c-0.09,0.008-0.188,0.098-0.289,0.27
		c-0.102,0.168-0.203,0.422-0.305,0.742c-0.1,0.289-0.176,0.531-0.223,0.73c-0.043,0.203-0.066,0.375-0.066,0.52
		c0,0.254,0.063,0.445,0.193,0.582c0.127,0.125,0.326,0.191,0.596,0.191c0.426,0,0.813-0.117,1.168-0.355
		c0.354-0.234,0.688-0.594,1.008-1.059c0.145-0.176,0.281-0.34,0.414-0.5c0.07-0.051,0.133-0.141,0.18-0.27
		c0.043-0.125,0.09-0.281,0.137-0.461l0.25-0.793c-0.084-0.273-0.164-0.496-0.236-0.656c-0.074-0.16-0.146-0.262-0.221-0.297
		c-0.047-0.027-0.148-0.055-0.309-0.094C31.438,125.851,31.211,125.82,30.918,125.781z M34.27,128.316
		c0.109,0.223,0.211,0.434,0.303,0.645c0.094,0.203,0.174,0.414,0.252,0.625c0.082-0.09,0.141-0.176,0.18-0.246
		c0.035-0.074,0.064-0.133,0.084-0.172c0.303-0.199,0.549-0.391,0.732-0.566c0.184-0.172,0.316-0.328,0.402-0.465
		c0.137-0.078,0.313-0.219,0.523-0.43c0.213-0.215,0.453-0.488,0.723-0.82c0.246-0.301,0.492-0.559,0.732-0.758
		c0.24-0.203,0.459-0.359,0.662-0.473c0.309,0.035,0.535,0.184,0.686,0.441c0.154,0.262,0.232,0.633,0.232,1.121
		c0,0.398-0.055,0.844-0.16,1.348c-0.105,0.496-0.262,1.035-0.465,1.617c-0.047,0.133-0.104,0.258-0.166,0.379
		c-0.064,0.125-0.127,0.25-0.178,0.371c-0.076,0.156-0.133,0.305-0.176,0.434c-0.043,0.133-0.061,0.25-0.061,0.355
		c0,0.258,0.094,0.441,0.287,0.559c0.195,0.117,0.488,0.172,0.875,0.172c0.24-0.074,0.453-0.168,0.637-0.293
		c0.701-0.418,1.305-0.797,1.805-1.121c0.508-0.332,0.914-0.609,1.227-0.844c0.15-0.129,0.273-0.238,0.383-0.344
		c0.102-0.102,0.197-0.191,0.281-0.266c-0.088-0.234-0.188-0.461-0.285-0.676c-0.105-0.211-0.191-0.41-0.266-0.594
		c-0.148,0.117-0.273,0.203-0.375,0.254c-0.104,0.051-0.395,0.316-0.887,0.801c-0.195,0.184-0.375,0.324-0.539,0.434
		c-0.166,0.102-0.309,0.16-0.43,0.16c-0.059,0-0.1-0.016-0.133-0.043s-0.047-0.066-0.047-0.113c0-0.352,0.141-0.867,0.43-1.555
		c0.283-0.691,0.43-1.219,0.43-1.59c0-0.699-0.094-1.293-0.279-1.785c-0.186-0.488-0.463-0.867-0.832-1.148
		c-0.043-0.039-0.117-0.09-0.221-0.152c-0.203-0.203-0.412-0.395-0.629-0.578c-0.219-0.188-0.482-0.281-0.793-0.281
		c-0.301,0-0.682,0.156-1.16,0.473c-0.477,0.313-0.773,0.586-0.891,0.82l0.137,0.66c-0.195,0.445-0.504,0.922-0.934,1.43
		c-0.428,0.516-0.982,1.051-1.652,1.605C34.563,127.917,34.416,128.121,34.27,128.316z M60.41,128.312l0.553,1.273
		c-0.127,0.105-0.412,0.191-0.85,0.266c-0.441,0.07-1.012,0.137-1.711,0.195c-0.816,0.793-1.621,1.453-2.43,1.98
		s-1.607,0.914-2.402,1.164c-0.184,0.055-0.395,0.113-0.637,0.18c-0.146,0-0.309-0.031-0.482-0.09
		c-0.178-0.059-0.373-0.145-0.586-0.258c-0.217-0.137-0.393-0.27-0.51-0.402c-0.119-0.129-0.18-0.258-0.18-0.402
		c0-0.273,0.133-0.543,0.402-0.797c0.268-0.262,0.66-0.508,1.176-0.738c1.035-0.477,2.051-0.965,3.059-1.449
		c0.146,0,0.254,0.027,0.32,0.09c0.061,0.055,0.094,0.129,0.094,0.227c0,0.25-0.18,0.457-0.533,0.625
		c-0.354,0.172-0.533,0.297-0.533,0.371c0.066,0.094,0.121,0.137,0.17,0.137c0.119,0,0.381-0.18,0.795-0.539
		c0.41-0.359,0.609-0.586,0.598-0.68l-0.064-0.32l0.027-0.055c0.236-0.211,0.416-0.402,0.529-0.566
		c0.121-0.168,0.176-0.297,0.176-0.402c0-0.23-0.115-0.539-0.346-0.926c-0.232-0.387-0.576-0.855-1.041-1.398
		c-0.348-0.426-0.697-0.805-1.053-1.145c-0.35-0.336-0.686-0.633-1.006-0.895c-0.133-0.109-0.242-0.215-0.336-0.324
		c-0.09-0.105-0.164-0.203-0.223-0.301c-0.098-0.184-0.18-0.332-0.24-0.449c-0.061-0.125-0.115-0.199-0.16-0.238
		c-0.045-0.055-0.104-0.125-0.186-0.199c-0.08-0.078-0.176-0.168-0.281-0.273c-0.195-0.203-0.348-0.48-0.453-0.84
		c-0.107-0.367-0.158-0.809-0.158-1.352c0-0.348,0.047-0.688,0.146-1.012c0.094-0.328,0.234-0.621,0.42-0.883
		c0.029-0.055,0.057-0.113,0.086-0.188c0.027-0.078,0.057-0.16,0.092-0.254c0.215-0.434,0.574-0.902,1.086-1.402
		c0.504-0.508,1.172-1.039,1.988-1.598c0.113-0.059,0.246-0.133,0.402-0.227c0.16-0.09,0.336-0.211,0.529-0.363
		c0.107-0.09,0.232-0.172,0.365-0.242c0.137-0.078,0.291-0.148,0.477-0.207c0.248-0.105,0.533-0.215,0.844-0.34
		c0.465-0.234,0.848-0.41,1.148-0.523c0.309-0.105,0.535-0.164,0.695-0.164c0.305,0,0.531,0.094,0.686,0.277
		c0.15,0.184,0.227,0.449,0.227,0.801c0,0.391-0.027,0.703-0.09,0.949c-0.061,0.246-0.143,0.41-0.24,0.492
		c-1.09,0.867-1.965,1.52-2.633,1.961c-0.66,0.438-1.129,0.656-1.398,0.656c-0.129,0-0.227-0.039-0.301-0.105
		c-0.078-0.078-0.109-0.191-0.109-0.34c0-0.25,0.201-0.523,0.617-0.82c0.416-0.305,0.619-0.531,0.609-0.684l-0.123-0.086
		c-0.045,0-0.096,0.012-0.158,0.043c-0.063,0.027-0.125,0.063-0.186,0.105c-0.813,0.66-1.428,1.25-1.834,1.77
		c-0.41,0.52-0.619,0.977-0.619,1.367c0,0.301,0.053,0.613,0.16,0.926c0.104,0.313,0.26,0.637,0.463,0.969
		c0.148,0.23,0.365,0.523,0.643,0.879c0.285,0.352,0.639,0.781,1.072,1.277c0.602,0.695,1.064,1.23,1.387,1.609
		c0.32,0.375,0.504,0.578,0.539,0.594c0.184,0.242,0.344,0.484,0.473,0.719c0.127,0.242,0.217,0.477,0.264,0.695
		c0.045,0.176,0.076,0.395,0.096,0.652c0.018,0.254,0.027,0.574,0.027,0.941c0,0.207,0.031,0.324,0.1,0.359
		c0.061,0.031,0.17,0.047,0.314,0.047c0.059,0,0.102-0.008,0.135-0.031C60.34,128.375,60.373,128.347,60.41,128.312z
		 M60.396,128.312c0.107,0.199,0.213,0.414,0.303,0.633c0.094,0.215,0.174,0.43,0.25,0.641c0.086-0.094,0.141-0.176,0.18-0.25
		c0.037-0.07,0.07-0.129,0.098-0.168c0.324-0.258,0.574-0.457,0.748-0.594s0.283-0.207,0.33-0.207c0.076,0,0.133,0.023,0.176,0.063
		c0.043,0.043,0.061,0.094,0.061,0.16s-0.053,0.277-0.15,0.645c-0.104,0.363-0.156,0.66-0.156,0.879c0,0.547,0.213,1.039,0.637,1.48
		c0.426,0.445,0.902,0.668,1.43,0.668c0.084,0,0.188-0.02,0.324-0.059c0.135-0.039,0.223-0.051,0.27-0.051
		c0.156,0,0.332-0.031,0.52-0.094c0.191-0.059,0.398-0.141,0.631-0.258c0.396-0.164,0.76-0.371,1.086-0.625
		c0.326-0.258,0.605-0.535,0.838-0.844c0.084,0.184,0.191,0.332,0.334,0.434c0.137,0.102,0.311,0.152,0.525,0.152
		c0.184,0,0.373-0.043,0.563-0.117c0.189-0.082,0.387-0.207,0.6-0.383c0.174-0.129,0.34-0.266,0.494-0.402
		c0.162-0.137,0.324-0.285,0.488-0.43c-0.09-0.211-0.18-0.426-0.268-0.641c-0.092-0.219-0.182-0.434-0.271-0.633
		c-0.109,0.094-0.207,0.16-0.283,0.207c-0.08,0.047-0.154,0.07-0.23,0.07c-0.072,0-0.133-0.027-0.18-0.082
		c-0.045-0.047-0.086-0.133-0.123-0.25c0.09-0.082,0.188-0.211,0.297-0.402c0.105-0.184,0.203-0.41,0.299-0.691
		c0.08-0.25,0.143-0.48,0.182-0.688c0.035-0.211,0.055-0.395,0.055-0.555c0-0.832-0.172-1.453-0.508-1.863
		c-0.338-0.414-0.84-0.617-1.516-0.617c-0.066,0-0.213,0.039-0.445,0.109c-0.23,0.078-0.547,0.191-0.953,0.348l-0.082-0.125
		c0.102-0.211,0.195-0.426,0.289-0.633c-0.008-0.094-0.066-0.164-0.176-0.219c-0.102-0.055-0.26-0.078-0.461-0.078
		c-0.186,0-0.355,0.039-0.512,0.113s-0.313,0.176-0.457,0.305c-0.129,0.129-0.256,0.266-0.379,0.402
		c-0.129,0.137-0.26,0.273-0.396,0.418c-0.109,0.098-0.232,0.203-0.359,0.309s-0.26,0.219-0.389,0.336
		c-0.145,0.137-0.273,0.266-0.383,0.398c-0.104,0.133-0.18,0.25-0.227,0.355c-0.398,0.348-0.727,0.648-0.998,0.887
		c-0.264,0.246-0.463,0.445-0.596,0.602l-1.063,0.734c-0.094,0.129-0.176,0.246-0.244,0.352S60.461,128.246,60.396,128.312z
		 M67.055,125.781c0.293,0.039,0.52,0.07,0.678,0.102c0.158,0.039,0.258,0.066,0.307,0.094c0.074,0.035,0.145,0.137,0.223,0.297
		c0.07,0.16,0.15,0.383,0.234,0.656l-0.25,0.793c-0.047,0.18-0.094,0.336-0.137,0.461c-0.047,0.129-0.109,0.219-0.18,0.27
		c-0.133,0.16-0.27,0.324-0.416,0.5c-0.318,0.465-0.652,0.824-1.006,1.059c-0.355,0.238-0.742,0.355-1.168,0.355
		c-0.27,0-0.469-0.066-0.596-0.191c-0.131-0.137-0.193-0.328-0.193-0.582c0-0.145,0.023-0.316,0.066-0.52
		c0.047-0.199,0.121-0.441,0.223-0.73c0.104-0.32,0.203-0.574,0.307-0.742c0.1-0.172,0.197-0.262,0.287-0.27
		c0.148-0.027,0.277-0.07,0.398-0.133c0.113-0.055,0.223-0.141,0.326-0.254c0.164-0.254,0.311-0.477,0.439-0.691
		c0.086-0.133,0.168-0.242,0.254-0.324C66.941,125.839,67.008,125.792,67.055,125.781z"/>
	<path fill-rule="evenodd" clip-rule="evenodd" fill="#2D2D2D" d="M70.406,128.312c0.039-0.066,0.086-0.137,0.146-0.215
		c0.057-0.082,0.133-0.176,0.213-0.285c0.094-0.074,0.213-0.18,0.359-0.32c0.15-0.137,0.316-0.297,0.5-0.48
		c0.168-0.184,0.369-0.418,0.609-0.688c0.238-0.273,0.531-0.598,0.871-0.988c0.152-0.16,0.336-0.359,0.551-0.605
		c0.223-0.242,0.488-0.531,0.789-0.879c0.262-0.301,0.541-0.527,0.834-0.672c0.299-0.148,0.609-0.223,0.939-0.223
		c0.336,0,0.578,0.102,0.738,0.313c0.156,0.207,0.23,0.508,0.23,0.902c0,0.215-0.074,0.621-0.23,1.223
		c-0.16,0.602-0.402,1.395-0.738,2.383c-0.078,0.184-0.16,0.359-0.23,0.523c-0.057,0.117-0.094,0.227-0.115,0.316
		c-0.018,0.094-0.029,0.164-0.029,0.207c0,0.059,0.035,0.129,0.102,0.211c0.047-0.031,0.09-0.063,0.133-0.109
		c0.039-0.047,0.09-0.105,0.141-0.168c0.076-0.141,0.189-0.281,0.34-0.438c0.152-0.152,0.336-0.316,0.549-0.508
		c0.08-0.152,0.189-0.313,0.326-0.461c0.133-0.152,0.285-0.293,0.449-0.422c0.039-0.039,0.086-0.098,0.148-0.176
		c0.055-0.09,0.131-0.172,0.211-0.27c0.123-0.117,0.266-0.246,0.43-0.371c0.166-0.129,0.359-0.266,0.582-0.402
		c0.25-0.129,0.473-0.23,0.672-0.309c0.197-0.07,0.371-0.105,0.52-0.105c0.287,0,0.539,0.07,0.76,0.207
		c0.225,0.137,0.412,0.352,0.568,0.652c0.184,0.57,0.363,1.098,0.529,1.586c0.1,0.289,0.213,0.504,0.334,0.641
		c0.129,0.137,0.27,0.207,0.426,0.207c0.117,0,0.227-0.023,0.326-0.07c0.096-0.047,0.186-0.113,0.27-0.207l0.553,1.273
		c-0.156,0.129-0.316,0.266-0.486,0.402c-0.166,0.137-0.326,0.27-0.482,0.402c-0.211,0.195-0.41,0.328-0.594,0.406
		c-0.186,0.078-0.371,0.117-0.555,0.117c-0.213,0-0.414-0.047-0.609-0.137c-0.193-0.094-0.359-0.23-0.5-0.418
		c-0.072-0.074-0.166-0.207-0.275-0.402c-0.113-0.199-0.24-0.449-0.389-0.742c-0.121-0.121-0.258-0.281-0.41-0.477
		c-0.152-0.199-0.33-0.434-0.533-0.699l-0.123-0.047c-0.176,0.059-0.352,0.145-0.52,0.254c-0.17,0.105-0.355,0.254-0.549,0.43
		c-0.412,0.367-0.713,0.602-0.898,0.688c-0.186,0.094-0.307,0.199-0.373,0.324c-0.129,0.219-0.35,0.504-0.668,0.852
		c-0.311,0.359-0.703,0.766-1.176,1.25c-0.117,0.117-0.24,0.238-0.359,0.352c-0.117,0.117-0.242,0.23-0.359,0.336
		c-0.121,0.105-0.254,0.176-0.41,0.223c-0.152,0.039-0.316,0.059-0.5,0.059c-0.375,0-0.572-0.129-0.605-0.383
		c-0.035-0.25-0.063-0.512-0.09-0.766c0.137-0.387,0.297-0.875,0.473-1.457c0.176-0.578,0.377-1.258,0.609-2.035
		c0-0.043,0.016-0.109,0.047-0.184c0.031-0.082,0.07-0.184,0.119-0.313c0.041-0.121,0.076-0.223,0.094-0.313
		c0.02-0.086,0.029-0.164,0.029-0.227c0-0.066-0.023-0.117-0.072-0.156c-0.041-0.035-0.119-0.051-0.217-0.051
		c-0.096,0-0.219,0.051-0.369,0.164c-0.15,0.109-0.338,0.285-0.549,0.523c-0.26,0.277-0.467,0.496-0.623,0.652
		c-0.154,0.156-0.26,0.25-0.316,0.277c-0.096,0.063-0.201,0.156-0.326,0.277c-0.123,0.121-0.266,0.254-0.422,0.398
		c-0.018,0.039-0.047,0.098-0.082,0.168c-0.039,0.074-0.098,0.156-0.184,0.25c-0.037-0.137-0.098-0.309-0.191-0.516
		C70.676,128.867,70.553,128.617,70.406,128.312z M83.645,128.312c0.146,0.305,0.27,0.555,0.359,0.758
		c0.094,0.207,0.156,0.379,0.191,0.516c0.098-0.137,0.176-0.254,0.242-0.344c0.07-0.098,0.125-0.172,0.162-0.238
		c1.17-1.094,2.084-1.922,2.74-2.477c0.656-0.551,1.045-0.824,1.164-0.824c0.121,0,0.207,0.027,0.254,0.09
		c0.051,0.055,0.076,0.148,0.076,0.266c0,0.168-0.006,0.41-0.025,0.723c-0.018,0.316-0.059,0.684-0.125,1.105
		c-0.063,0.488-0.133,0.863-0.199,1.113c-0.07,0.258-0.137,0.383-0.203,0.383c-0.063,0-0.129-0.07-0.186-0.219
		c-0.061-0.141-0.16-0.211-0.299-0.211c-0.268,0-0.508,0.09-0.723,0.27c-0.211,0.18-0.314,0.41-0.314,0.684
		c0,0.051,0.033,0.191,0.098,0.434c-0.01,0.063-0.018,0.137-0.029,0.219c-0.008,0.082-0.012,0.16-0.012,0.238
		c0,0.398,0.041,0.754,0.123,1.078c0.084,0.32,0.193,0.609,0.33,0.859c-0.01,0.145,0.01,0.266,0.057,0.359
		c0.047,0.09,0.123,0.152,0.221,0.18c0.168-0.059,0.322-0.109,0.473-0.16c0.146-0.047,0.295-0.105,0.441-0.156
		c0.094-0.039,0.199-0.105,0.313-0.195c0.117-0.094,0.24-0.227,0.367-0.406l0.266-0.051c0.293-0.25,0.557-0.473,0.795-0.672
		c0.234-0.203,0.42-0.367,0.561-0.512c0.303-0.191,0.582-0.371,0.836-0.535c0.256-0.168,0.479-0.316,0.672-0.445
		c0.084-0.109,0.176-0.215,0.27-0.305c0.098-0.094,0.207-0.176,0.326-0.25c-0.066-0.184-0.143-0.383-0.236-0.59
		c-0.09-0.207-0.193-0.434-0.303-0.684c-0.047,0.027-0.162,0.117-0.346,0.277c-0.184,0.156-0.439,0.383-0.766,0.68
		c-0.273,0.254-0.496,0.434-0.66,0.563c-0.164,0.125-0.285,0.188-0.346,0.188c-0.076-0.035-0.123-0.074-0.143-0.113
		c0.113-0.367,0.209-0.68,0.285-0.938c0.078-0.262,0.156-0.48,0.23-0.652c0.332-1.07,0.523-1.707,0.582-1.91
		c0.051-0.203,0.146-0.77,0.273-1.703c0.039-0.324,0.07-0.59,0.104-0.805c0.033-0.211,0.049-0.363,0.049-0.457
		c0-0.367-0.105-0.652-0.309-0.852c-0.207-0.195-0.52-0.297-0.934-0.297c-0.105,0-0.211,0.016-0.313,0.047
		c-0.109,0.035-0.223,0.078-0.34,0.133c-0.361,0.324-0.688,0.633-0.975,0.938c-0.293,0.297-0.555,0.574-0.785,0.82
		c-0.203,0.203-0.385,0.371-0.533,0.496c-0.152,0.129-0.289,0.238-0.406,0.316c-0.078,0.133-0.148,0.246-0.223,0.352
		c-0.076,0.102-0.141,0.176-0.207,0.215c-0.188,0.188-0.352,0.348-0.498,0.477c-0.15,0.129-0.273,0.23-0.377,0.301
		c-0.023,0.059-0.082,0.137-0.168,0.234c-0.031,0.059-0.137,0.145-0.311,0.266c-0.17,0.117-0.406,0.277-0.709,0.469
		c-0.23,0.145-0.412,0.297-0.535,0.445c-0.127,0.148-0.207,0.281-0.238,0.414L83.645,128.312z M101.281,129.363
		c0-0.516,0.023-0.949,0.063-1.309c0.043-0.352,0.09-0.633,0.146-0.836c-0.018-0.156-0.041-0.316-0.072-0.48
		c0-0.195,0.025-0.52,0.072-0.969c0.049-0.457,0.113-1.047,0.209-1.773c0.078-0.707,0.15-1.246,0.211-1.629
		c0.063-0.387,0.105-0.613,0.133-0.703c-0.018-0.156-0.037-0.324-0.063-0.508c-0.023-0.184-0.059-0.391-0.117-0.609l-0.307-0.223
		l-0.066-0.168c0.018-0.258,0.033-0.52,0.049-0.777c0.012-0.266,0.041-0.531,0.088-0.801c0.02-0.328,0.061-0.621,0.133-0.867
		c0.072-0.25,0.143-0.469,0.213-0.656c0.027-0.043,0.057-0.113,0.09-0.191c0.033-0.086,0.074-0.168,0.133-0.266
		c0.084-0.332,0.164-0.66,0.25-0.996c0.08-0.332,0.17-0.652,0.266-0.969c0.137-0.313,0.332-0.566,0.594-0.762
		c0.258-0.191,0.572-0.316,0.941-0.375c0.254-0.133,0.477-0.238,0.662-0.309c0.184-0.07,0.334-0.105,0.443-0.105
		c0.127,0,0.232,0.051,0.309,0.152c0.07,0.102,0.107,0.246,0.107,0.43c0,0.078-0.037,0.332-0.107,0.77
		c-0.076,0.434-0.189,1.047-0.352,1.82c-0.023,0.262-0.07,0.566-0.137,0.922c-0.066,0.352-0.152,0.777-0.264,1.266
		c-0.139,0.543-0.275,1.141-0.408,1.793c-0.131,0.652-0.254,1.371-0.363,2.156c-0.047,0.328-0.098,0.656-0.156,0.98
		c-0.051,0.32-0.104,0.648-0.152,0.984c-0.055,0.375-0.102,0.734-0.145,1.07c-0.039,0.336-0.063,0.637-0.063,0.91
		c0,0.098,0.01,0.199,0.023,0.285c0.016,0.098,0.02,0.18,0.02,0.266c0.02,0.102,0.014,0.238-0.004,0.402
		c-0.023,0.164-0.053,0.363-0.082,0.598c-0.031,0.223-0.064,0.418-0.094,0.598c-0.027,0.184-0.043,0.316-0.043,0.41
		c0,0.469,0.016,0.852,0.039,1.141c0.02,0.293,0.047,0.48,0.074,0.578c0.063,0.25,0.129,0.516,0.195,0.805
		c0,0.152-0.207,0.383-0.625,0.695c-0.414,0.309-0.719,0.465-0.902,0.465c-0.109,0-0.207-0.039-0.297-0.121
		c-0.086-0.078-0.176-0.191-0.27-0.352c-0.063-0.148-0.113-0.281-0.152-0.398c-0.037-0.121-0.055-0.23-0.055-0.332
		c0-0.059,0.018-0.145,0.055-0.266c0.039-0.121,0.057-0.207,0.057-0.262c-0.074-0.281-0.156-0.508-0.248-0.695
		c-0.02,0.098-0.031,0.074-0.031-0.051C101.281,129.968,101.281,129.722,101.281,129.363z M105.398,128.312
		c0.146,0.305,0.27,0.555,0.359,0.758c0.094,0.207,0.156,0.379,0.193,0.516c0.086-0.094,0.143-0.176,0.182-0.25
		c0.037-0.07,0.066-0.129,0.084-0.168c0.156-0.145,0.299-0.277,0.42-0.398c0.125-0.121,0.232-0.215,0.328-0.277
		c0.055-0.027,0.16-0.121,0.316-0.277s0.363-0.375,0.621-0.652c0.215-0.238,0.398-0.414,0.551-0.523
		c0.15-0.113,0.273-0.164,0.367-0.164c0.1,0,0.176,0.016,0.217,0.051c0.049,0.039,0.072,0.09,0.072,0.156
		c0,0.063-0.012,0.141-0.027,0.227c-0.02,0.09-0.053,0.191-0.096,0.313c-0.049,0.129-0.086,0.23-0.119,0.313
		c-0.031,0.074-0.047,0.141-0.047,0.184c-0.23,0.777-0.434,1.457-0.609,2.035c-0.174,0.582-0.336,1.07-0.473,1.457
		c0.027,0.254,0.057,0.516,0.09,0.766c0.033,0.254,0.232,0.383,0.605,0.383c0.184,0,0.35-0.02,0.5-0.059
		c0.156-0.047,0.289-0.117,0.412-0.223c0.119-0.105,0.24-0.219,0.357-0.336c0.119-0.113,0.242-0.234,0.359-0.352
		c0.473-0.484,0.867-0.891,1.178-1.25c0.318-0.348,0.541-0.633,0.666-0.852c0.066-0.125,0.191-0.23,0.375-0.324
		c0.184-0.086,0.486-0.32,0.896-0.688c0.193-0.176,0.379-0.324,0.549-0.43c0.17-0.109,0.344-0.195,0.52-0.254l0.123,0.047
		c0.203,0.266,0.383,0.5,0.533,0.699c0.152,0.195,0.289,0.355,0.412,0.477c0.146,0.293,0.275,0.543,0.389,0.742
		c0.107,0.195,0.203,0.328,0.273,0.402c0.141,0.188,0.309,0.324,0.5,0.418c0.195,0.09,0.398,0.137,0.609,0.137
		c0.186,0,0.369-0.039,0.555-0.117c0.184-0.078,0.383-0.211,0.594-0.406c0.156-0.133,0.316-0.266,0.482-0.402
		c0.17-0.137,0.33-0.273,0.486-0.402l-0.551-1.273c-0.086,0.094-0.176,0.16-0.27,0.207c-0.1,0.047-0.209,0.07-0.328,0.07
		c-0.156,0-0.297-0.07-0.426-0.207c-0.121-0.137-0.234-0.352-0.332-0.641c-0.168-0.488-0.348-1.016-0.531-1.586
		c-0.156-0.301-0.344-0.516-0.566-0.652s-0.473-0.207-0.762-0.207c-0.146,0-0.322,0.035-0.52,0.105
		c-0.199,0.078-0.42,0.18-0.672,0.309c-0.223,0.137-0.414,0.273-0.582,0.402c-0.164,0.125-0.305,0.254-0.43,0.371
		c-0.078,0.098-0.156,0.18-0.211,0.27c-0.063,0.078-0.109,0.137-0.148,0.176c-0.164,0.129-0.316,0.27-0.449,0.422
		c-0.137,0.148-0.244,0.309-0.324,0.461c-0.215,0.191-0.398,0.355-0.551,0.508c-0.148,0.156-0.262,0.297-0.34,0.438
		c-0.051,0.063-0.102,0.121-0.141,0.168c-0.043,0.047-0.086,0.078-0.133,0.109c-0.066-0.082-0.098-0.152-0.098-0.211
		c0-0.043,0.008-0.113,0.027-0.207c0.02-0.09,0.057-0.199,0.113-0.316c0.07-0.164,0.152-0.34,0.23-0.523
		c0.336-0.988,0.578-1.781,0.738-2.383c0.156-0.602,0.232-1.008,0.232-1.223c0-0.395-0.076-0.695-0.232-0.902
		c-0.16-0.211-0.402-0.313-0.738-0.313c-0.328,0-0.641,0.074-0.938,0.223c-0.295,0.145-0.574,0.371-0.834,0.672
		c-0.303,0.348-0.564,0.637-0.789,0.879c-0.217,0.246-0.4,0.445-0.553,0.605c-0.34,0.391-0.633,0.715-0.871,0.988
		c-0.238,0.27-0.443,0.504-0.609,0.688c-0.184,0.184-0.348,0.344-0.5,0.48c-0.146,0.141-0.266,0.246-0.359,0.32
		c-0.08,0.109-0.156,0.203-0.213,0.285C105.484,128.175,105.438,128.246,105.398,128.312z M118.637,128.312l0.059-0.109
		c0.051-0.078,0.121-0.172,0.211-0.281c0.086-0.109,0.189-0.238,0.313-0.387c0.652-0.609,1.289-1.336,1.914-2.18
		c0.625-0.848,1.238-1.813,1.848-2.91c0.076-0.105,0.16-0.238,0.25-0.402c0.094-0.164,0.195-0.371,0.307-0.625
		c0-0.055-0.014-0.098-0.041-0.121c-0.027-0.027-0.074-0.043-0.141-0.043c-0.053,0-0.145,0.016-0.273,0.047
		c-0.121,0.035-0.215,0.047-0.281,0.047h-1.73c-0.074,0-0.193-0.004-0.367-0.012c-0.172-0.012-0.295-0.016-0.363-0.016
		c-0.096-0.043-0.18-0.082-0.256-0.117c-0.08-0.027-0.156-0.066-0.232-0.098c-0.109-0.039-0.193-0.094-0.254-0.152
		c-0.063-0.059-0.09-0.129-0.09-0.215c0-0.59,0.061-1.039,0.188-1.355c0.123-0.313,0.313-0.469,0.572-0.469s0.502,0.012,0.729,0.035
		c0.227,0.02,0.426,0.051,0.605,0.09c0.137-0.031,0.264-0.059,0.387-0.086c0.246,0,0.457,0.008,0.633,0.027s0.313,0.043,0.402,0.074
		c0.121-0.031,0.242-0.055,0.354-0.078c0.115-0.023,0.242-0.047,0.385-0.078l0.453,0.141c0.326-0.039,0.668-0.488,1.035-1.359
		c0.363-0.863,0.754-1.297,1.17-1.297c0.219,0,0.395,0.066,0.512,0.207c0.119,0.137,0.178,0.34,0.178,0.609
		c0,0.215-0.059,0.492-0.188,0.836c-0.123,0.344-0.193,0.605-0.213,0.781c0.02,0.035,0.043,0.074,0.076,0.117s0.08,0.09,0.146,0.148
		c0.057,0.031,0.096,0.098,0.119,0.184c0.023,0.09,0.031,0.195,0.031,0.324c0,0.555-0.023,0.984-0.074,1.281
		c-0.051,0.305-0.133,0.453-0.242,0.465l-0.945,0.191c-0.018,0.098-0.041,0.207-0.066,0.34c-0.027,0.133-0.066,0.289-0.113,0.465
		c-0.156,0.465-0.33,1.047-0.523,1.758c-0.195,0.707-0.41,1.551-0.652,2.52c-0.145,0.777-0.262,1.402-0.34,1.879
		c-0.082,0.484-0.117,0.805-0.117,0.969c0,0.148,0.023,0.262,0.07,0.332c0.047,0.074,0.113,0.113,0.207,0.113
		c0.053,0,0.256-0.133,0.598-0.398c0.352-0.27,0.836-0.668,1.453-1.191l0.539,1.273c-0.094,0.102-0.223,0.223-0.387,0.359
		c-0.168,0.137-0.365,0.289-0.598,0.445c-0.094,0.098-0.207,0.215-0.344,0.336c-0.141,0.125-0.293,0.273-0.459,0.438
		c-0.166,0.188-0.33,0.367-0.49,0.555c-0.162,0.184-0.328,0.363-0.492,0.539c-0.223,0.238-0.441,0.414-0.652,0.52
		c-0.215,0.109-0.41,0.16-0.596,0.16c-0.406,0-0.709-0.117-0.908-0.359s-0.297-0.605-0.297-1.098c0-0.531,0.02-0.996,0.057-1.387
		c0.037-0.395,0.096-0.711,0.182-0.953c0.035-0.07,0.064-0.137,0.078-0.191c0-0.094,0.016-0.219,0.043-0.375s0.063-0.34,0.098-0.551
		c0.055-0.359,0.113-0.719,0.18-1.086c0.102-0.215,0.211-0.453,0.316-0.703c0-0.043-0.035-0.09-0.105-0.121l-0.139,0.078
		c-0.141,0.223-0.322,0.457-0.543,0.699c-0.223,0.246-0.484,0.504-0.791,0.773c-0.467,0.449-0.949,0.906-1.436,1.371
		c-0.029,0.047-0.08,0.109-0.15,0.207c-0.076,0.09-0.156,0.207-0.25,0.344c-0.049-0.109-0.105-0.25-0.176-0.426
		c-0.066-0.168-0.137-0.363-0.213-0.586c-0.018-0.055-0.043-0.109-0.072-0.156C118.709,128.375,118.676,128.339,118.637,128.312z
		 M126.309,128.312c0.145,0.305,0.27,0.555,0.359,0.758c0.094,0.207,0.154,0.379,0.191,0.516c0.109-0.137,0.215-0.238,0.305-0.309
		c0.094-0.074,0.18-0.109,0.25-0.109c0.094,0,0.176,0.051,0.25,0.148c0.076,0.094,0.152,0.246,0.236,0.449
		c0.1,0.25,0.197,0.461,0.287,0.645c0.096,0.184,0.186,0.313,0.281,0.41c0.172,0.191,0.391,0.34,0.656,0.445
		c0.264,0.098,0.566,0.152,0.906,0.152c0.262,0,0.482-0.02,0.672-0.063s0.359-0.109,0.504-0.203c0.361,0,0.758-0.137,1.188-0.391
		c0.43-0.27,0.906-0.66,1.434-1.176c-0.059-0.156-0.129-0.34-0.223-0.551c-0.09-0.215-0.199-0.457-0.316-0.723
		c-0.105,0.082-0.203,0.148-0.309,0.199c-0.098,0.055-0.176,0.09-0.217,0.121c-0.232,0.125-0.496,0.242-0.793,0.332
		c-0.295,0.094-0.625,0.152-0.986,0.176c-0.219-0.039-0.408-0.094-0.574-0.148c-0.16-0.051-0.279-0.109-0.35-0.168
		c-0.131-0.074-0.232-0.184-0.299-0.332c-0.07-0.145-0.104-0.316-0.104-0.512c0-0.109,0.02-0.215,0.064-0.313
		c0.051-0.094,0.105-0.176,0.168-0.242c0.766-0.746,1.375-1.414,1.828-1.996c0.453-0.578,0.742-1.09,0.875-1.535l0.125-0.441
		c0.063-0.223,0.109-0.383,0.145-0.484c0.031-0.105,0.047-0.129,0.047-0.07c-0.039-0.223-0.07-0.426-0.094-0.609
		c-0.059-0.211-0.113-0.391-0.176-0.535c-0.061-0.148-0.123-0.262-0.189-0.34c-0.09-0.105-0.209-0.188-0.35-0.23
		c-0.145-0.047-0.332-0.07-0.563-0.07c-0.164,0-0.316,0.016-0.457,0.043c-0.139,0.027-0.262,0.055-0.375,0.094
		c-0.117,0.094-0.238,0.176-0.359,0.25c-0.117,0.074-0.23,0.152-0.33,0.234c-0.213,0.262-0.426,0.516-0.637,0.766
		c-0.213,0.258-0.416,0.492-0.611,0.703c-0.23,0.379-0.414,0.723-0.563,1.023c-0.141,0.309-0.254,0.559-0.336,0.762
		c-0.074,0.203-0.141,0.391-0.203,0.57c-0.061,0.176-0.102,0.324-0.133,0.453c-0.008,0.188-0.027,0.371-0.051,0.551
		c-0.027,0.18-0.055,0.363-0.086,0.547c-0.268,0.215-0.486,0.418-0.66,0.617C126.563,127.921,126.416,128.117,126.309,128.312z
		 M130.736,123.816c0.064,0,0.115,0.023,0.146,0.074c0.033,0.051,0.047,0.121,0.047,0.203c0,0.129-0.027,0.258-0.086,0.387
		c-0.051,0.129-0.137,0.258-0.244,0.391c-0.096,0.098-0.189,0.199-0.283,0.305c-0.1,0.109-0.199,0.211-0.299,0.301
		c-0.057,0.094-0.119,0.191-0.178,0.297c-0.066,0.105-0.148,0.16-0.252,0.16c-0.076,0-0.123-0.008-0.146-0.035
		c-0.023-0.023-0.035-0.059-0.035-0.117c0-0.25,0.172-0.637,0.512-1.172C130.262,124.082,130.533,123.816,130.736,123.816z
		 M133.273,128.316c0.146-0.195,0.293-0.398,0.445-0.609c0.67-0.555,1.225-1.09,1.652-1.605c0.432-0.508,0.738-0.984,0.934-1.43
		l-0.139-0.66c0.119-0.234,0.416-0.508,0.893-0.82c0.48-0.316,0.861-0.473,1.16-0.473c0.311,0,0.574,0.094,0.793,0.281
		c0.219,0.184,0.426,0.375,0.629,0.578c0.102,0.063,0.18,0.113,0.223,0.152c0.367,0.281,0.648,0.66,0.83,1.148
		c0.186,0.492,0.279,1.086,0.279,1.785c0,0.371-0.145,0.898-0.43,1.59c-0.289,0.688-0.43,1.203-0.43,1.555
		c0,0.047,0.014,0.086,0.047,0.113s0.076,0.043,0.131,0.043c0.123,0,0.266-0.059,0.432-0.16c0.166-0.109,0.344-0.25,0.539-0.434
		c0.492-0.484,0.785-0.75,0.889-0.801c0.098-0.051,0.227-0.137,0.373-0.254c0.074,0.184,0.16,0.383,0.266,0.594
		c0.098,0.215,0.199,0.441,0.287,0.676c-0.084,0.074-0.18,0.164-0.283,0.266c-0.109,0.105-0.23,0.215-0.383,0.344
		c-0.313,0.234-0.719,0.512-1.225,0.844c-0.502,0.324-1.107,0.703-1.807,1.121c-0.184,0.125-0.395,0.219-0.637,0.293
		c-0.387,0-0.68-0.055-0.875-0.172c-0.193-0.117-0.287-0.301-0.287-0.559c0-0.105,0.018-0.223,0.061-0.355
		c0.043-0.129,0.1-0.277,0.176-0.434c0.051-0.121,0.113-0.246,0.18-0.371c0.061-0.121,0.117-0.246,0.164-0.379
		c0.203-0.582,0.359-1.121,0.465-1.617c0.107-0.504,0.16-0.949,0.16-1.348c0-0.488-0.076-0.859-0.23-1.121
		c-0.152-0.258-0.379-0.406-0.688-0.441c-0.203,0.113-0.42,0.27-0.66,0.473c-0.242,0.199-0.488,0.457-0.732,0.758
		c-0.271,0.332-0.51,0.605-0.725,0.82c-0.211,0.211-0.387,0.352-0.523,0.43c-0.086,0.137-0.219,0.293-0.402,0.465
		c-0.184,0.176-0.43,0.367-0.732,0.566c-0.02,0.039-0.049,0.098-0.086,0.172c-0.037,0.07-0.094,0.156-0.178,0.246
		c-0.076-0.211-0.156-0.422-0.252-0.625C133.488,128.75,133.383,128.539,133.273,128.316z"/>
	<path fill-rule="evenodd" clip-rule="evenodd" fill="#2D2D2D" d="M142.508,128.312c0.039-0.066,0.086-0.137,0.148-0.215
		c0.057-0.082,0.133-0.176,0.211-0.285c0.096-0.074,0.215-0.18,0.359-0.32c0.152-0.137,0.316-0.297,0.502-0.48
		c0.166-0.184,0.369-0.418,0.609-0.688c0.236-0.273,0.529-0.598,0.869-0.988c0.152-0.16,0.336-0.359,0.555-0.605
		c0.223-0.242,0.486-0.531,0.789-0.879c0.258-0.301,0.539-0.527,0.83-0.672c0.299-0.148,0.611-0.223,0.941-0.223
		c0.336,0,0.576,0.102,0.738,0.313c0.154,0.207,0.229,0.508,0.229,0.902c0,0.215-0.074,0.621-0.229,1.223
		c-0.162,0.602-0.402,1.395-0.738,2.383c-0.08,0.184-0.16,0.359-0.232,0.523c-0.057,0.117-0.094,0.227-0.113,0.316
		c-0.018,0.094-0.027,0.164-0.027,0.207c0,0.059,0.031,0.129,0.098,0.211c0.049-0.031,0.09-0.063,0.133-0.109
		c0.039-0.047,0.09-0.105,0.143-0.168c0.076-0.141,0.189-0.281,0.34-0.438c0.152-0.152,0.338-0.316,0.549-0.508
		c0.078-0.152,0.189-0.313,0.326-0.461c0.131-0.152,0.283-0.293,0.449-0.422c0.037-0.039,0.084-0.098,0.146-0.176
		c0.057-0.09,0.133-0.172,0.211-0.27c0.125-0.117,0.266-0.246,0.432-0.371c0.166-0.129,0.357-0.266,0.582-0.402
		c0.248-0.129,0.471-0.23,0.67-0.309c0.199-0.07,0.375-0.105,0.52-0.105c0.289,0,0.539,0.07,0.762,0.207
		c0.221,0.137,0.41,0.352,0.566,0.652c0.184,0.57,0.363,1.098,0.529,1.586c0.1,0.289,0.213,0.504,0.336,0.641
		c0.127,0.137,0.27,0.207,0.424,0.207c0.121,0,0.229-0.023,0.328-0.07c0.094-0.047,0.184-0.113,0.27-0.207l0.553,1.273
		c-0.154,0.129-0.318,0.266-0.486,0.402c-0.166,0.137-0.328,0.27-0.482,0.402c-0.213,0.195-0.412,0.328-0.596,0.406
		c-0.186,0.078-0.369,0.117-0.555,0.117c-0.211,0-0.414-0.047-0.609-0.137c-0.191-0.094-0.357-0.23-0.5-0.418
		c-0.07-0.074-0.164-0.207-0.273-0.402c-0.113-0.199-0.242-0.449-0.387-0.742c-0.125-0.121-0.262-0.281-0.414-0.477
		c-0.148-0.199-0.328-0.434-0.531-0.699l-0.123-0.047c-0.176,0.059-0.35,0.145-0.521,0.254c-0.172,0.105-0.355,0.254-0.547,0.43
		c-0.412,0.367-0.715,0.602-0.898,0.688c-0.184,0.094-0.309,0.199-0.373,0.324c-0.127,0.219-0.35,0.504-0.666,0.852
		c-0.313,0.359-0.705,0.766-1.178,1.25c-0.119,0.117-0.242,0.238-0.359,0.352c-0.119,0.117-0.24,0.23-0.359,0.336
		c-0.123,0.105-0.256,0.176-0.412,0.223c-0.148,0.039-0.316,0.059-0.5,0.059c-0.373,0-0.572-0.129-0.605-0.383
		c-0.033-0.25-0.061-0.512-0.09-0.766c0.137-0.387,0.299-0.875,0.473-1.457c0.176-0.578,0.379-1.258,0.609-2.035
		c0-0.043,0.016-0.109,0.049-0.184c0.033-0.082,0.072-0.184,0.117-0.313c0.045-0.121,0.076-0.223,0.096-0.313
		c0.02-0.086,0.027-0.164,0.027-0.227c0-0.066-0.023-0.117-0.07-0.156c-0.043-0.035-0.119-0.051-0.219-0.051
		c-0.094,0-0.215,0.051-0.367,0.164c-0.152,0.109-0.336,0.285-0.547,0.523c-0.262,0.277-0.469,0.496-0.625,0.652
		s-0.262,0.25-0.316,0.277c-0.096,0.063-0.205,0.156-0.328,0.277c-0.121,0.121-0.264,0.254-0.418,0.398
		c-0.02,0.039-0.049,0.098-0.086,0.168c-0.039,0.074-0.094,0.156-0.18,0.25c-0.039-0.137-0.1-0.309-0.195-0.516
		C142.777,128.867,142.656,128.617,142.508,128.312z M156.191,127.703c-0.094,0.152-0.176,0.285-0.242,0.395
		c-0.07,0.105-0.121,0.176-0.16,0.215c0.086,0.18,0.16,0.359,0.227,0.516c0.072,0.168,0.133,0.313,0.189,0.441
		c0.033,0.066,0.066,0.121,0.092,0.168c0.023,0.055,0.031,0.102,0.031,0.148c0,0.074-0.008,0.172-0.027,0.293
		c-0.213,0.207-0.375,0.43-0.477,0.656c-0.109,0.23-0.162,0.465-0.162,0.715c0,0.449,0.104,0.785,0.316,1
		c0.213,0.219,0.545,0.328,0.984,0.328c0.064,0,0.17-0.027,0.307-0.09s0.303-0.141,0.496-0.242c0.309-0.164,0.582-0.328,0.828-0.484
		c0.242-0.16,0.457-0.313,0.643-0.469c0.094-0.094,0.25-0.246,0.471-0.461c0.223-0.211,0.492-0.484,0.816-0.816
		c0.238-0.191,0.451-0.359,0.629-0.492c0.18-0.145,0.332-0.258,0.451-0.355c0.074-0.078,0.137-0.145,0.193-0.195
		c0.057-0.055,0.109-0.098,0.152-0.148c0.074,0.094,0.121,0.188,0.145,0.27c0.023,0.09,0.039,0.176,0.039,0.258
		c0.051,0.695,0.24,1.207,0.566,1.555c0.322,0.34,0.785,0.512,1.385,0.512c0.256,0,0.514-0.055,0.775-0.16
		c0.254-0.105,0.523-0.27,0.805-0.48c0.225-0.184,0.447-0.383,0.656-0.59c0.207-0.203,0.414-0.406,0.627-0.602
		c-0.047-0.156-0.111-0.34-0.197-0.547c-0.09-0.211-0.199-0.449-0.328-0.727c-0.064,0.063-0.131,0.117-0.201,0.164
		c-0.066,0.047-0.119,0.078-0.156,0.098c-0.066,0.074-0.127,0.148-0.189,0.223c-0.063,0.078-0.121,0.152-0.184,0.238
		c-0.086,0.074-0.166,0.129-0.246,0.18c-0.074,0.047-0.156,0.07-0.242,0.07c-0.277,0-0.5-0.121-0.67-0.355s-0.25-0.5-0.24-0.793
		c0-0.426,0.004-0.871,0.023-1.336c-0.02-0.301-0.076-0.527-0.18-0.684c-0.102-0.152-0.246-0.227-0.445-0.227
		c-0.313,0-0.652,0.121-1.02,0.367c-0.375,0.242-0.773,0.621-1.195,1.129c-0.082,0.055-0.156,0.102-0.219,0.141
		c-0.066,0.031-0.133,0.07-0.195,0.105c-0.082,0.059-0.227,0.176-0.426,0.355c-0.195,0.18-0.451,0.414-0.764,0.699
		c-0.268,0.258-0.514,0.465-0.732,0.625c-0.223,0.156-0.436,0.266-0.637,0.332l-0.102-0.121c0.27-0.387,0.488-0.688,0.652-0.922
		c0.166-0.23,0.285-0.375,0.344-0.441c0.521-0.449,0.934-0.836,1.246-1.164c0.305-0.32,0.504-0.586,0.6-0.789
		c0.213-0.156,0.381-0.293,0.51-0.414c0.133-0.121,0.219-0.203,0.266-0.25c0.066-0.09,0.141-0.195,0.234-0.32
		c0.285-0.211,0.535-0.426,0.746-0.641c0.215-0.219,0.395-0.422,0.539-0.617c0.271-0.199,0.521-0.387,0.754-0.551
		c0.145-0.105,0.256-0.227,0.32-0.375c0.072-0.148,0.105-0.32,0.105-0.512c0-0.188-0.059-0.328-0.17-0.43
		c-0.119-0.102-0.295-0.156-0.535-0.156c-0.436,0-0.969,0.203-1.598,0.598c-0.633,0.398-1.371,0.992-2.213,1.789
		c-0.184,0.172-0.354,0.316-0.51,0.418c-0.156,0.109-0.287,0.191-0.387,0.246c-0.213,0.184-0.389,0.344-0.525,0.484
		c-0.141,0.133-0.246,0.254-0.32,0.344c-0.137,0.063-0.262,0.141-0.363,0.219c-0.109,0.09-0.195,0.188-0.262,0.309
		c-0.08,0.148-0.156,0.262-0.223,0.336c-0.061,0.082-0.117,0.145-0.164,0.191L156.191,127.703z M166.395,128.312l0.059-0.109
		c0.051-0.078,0.121-0.172,0.211-0.281c0.086-0.109,0.189-0.238,0.313-0.387c0.652-0.609,1.291-1.336,1.914-2.18
		c0.625-0.848,1.238-1.813,1.848-2.91c0.074-0.105,0.16-0.238,0.25-0.402c0.096-0.164,0.195-0.371,0.309-0.625
		c0-0.055-0.016-0.098-0.043-0.121c-0.029-0.027-0.074-0.043-0.143-0.043c-0.053,0-0.143,0.016-0.27,0.047
		c-0.121,0.035-0.217,0.047-0.283,0.047h-1.73c-0.074,0-0.191-0.004-0.367-0.012c-0.172-0.012-0.293-0.016-0.363-0.016
		c-0.096-0.043-0.18-0.082-0.256-0.117c-0.08-0.027-0.156-0.066-0.232-0.098c-0.109-0.039-0.191-0.094-0.254-0.152
		s-0.092-0.129-0.092-0.215c0-0.59,0.064-1.039,0.189-1.355c0.123-0.313,0.313-0.469,0.572-0.469s0.502,0.012,0.729,0.035
		c0.227,0.02,0.426,0.051,0.605,0.09c0.137-0.031,0.264-0.059,0.387-0.086c0.246,0,0.459,0.008,0.633,0.027
		c0.176,0.02,0.313,0.043,0.402,0.074c0.123-0.031,0.242-0.055,0.355-0.078c0.111-0.023,0.24-0.047,0.383-0.078l0.453,0.141
		c0.324-0.039,0.672-0.488,1.035-1.359c0.363-0.863,0.754-1.297,1.172-1.297c0.217,0,0.391,0.066,0.51,0.207
		c0.119,0.137,0.182,0.34,0.182,0.609c0,0.215-0.063,0.492-0.191,0.836c-0.121,0.344-0.193,0.605-0.211,0.781
		c0.018,0.035,0.041,0.074,0.074,0.117s0.082,0.09,0.146,0.148c0.057,0.031,0.094,0.098,0.119,0.184
		c0.023,0.09,0.033,0.195,0.033,0.324c0,0.555-0.025,0.984-0.076,1.281c-0.051,0.305-0.133,0.453-0.242,0.465l-0.945,0.191
		c-0.018,0.098-0.043,0.207-0.066,0.34c-0.027,0.133-0.066,0.289-0.113,0.465c-0.154,0.465-0.328,1.047-0.523,1.758
		c-0.193,0.707-0.41,1.551-0.652,2.52c-0.148,0.777-0.26,1.402-0.34,1.879c-0.082,0.484-0.117,0.805-0.117,0.969
		c0,0.148,0.021,0.262,0.07,0.332c0.047,0.074,0.113,0.113,0.207,0.113c0.053,0,0.254-0.133,0.602-0.398
		c0.348-0.27,0.832-0.668,1.449-1.191l0.539,1.273c-0.094,0.102-0.223,0.223-0.387,0.359c-0.166,0.137-0.363,0.289-0.596,0.445
		c-0.096,0.098-0.209,0.215-0.346,0.336c-0.143,0.125-0.293,0.273-0.457,0.438c-0.166,0.188-0.332,0.367-0.492,0.555
		c-0.16,0.184-0.326,0.363-0.492,0.539c-0.223,0.238-0.439,0.414-0.652,0.52c-0.213,0.109-0.41,0.16-0.596,0.16
		c-0.406,0-0.709-0.117-0.908-0.359c-0.197-0.242-0.297-0.605-0.297-1.098c0-0.531,0.02-0.996,0.057-1.387
		c0.039-0.395,0.096-0.711,0.182-0.953c0.035-0.07,0.064-0.137,0.078-0.191c0-0.094,0.016-0.219,0.043-0.375s0.063-0.34,0.1-0.551
		c0.053-0.359,0.115-0.719,0.18-1.086c0.098-0.215,0.209-0.453,0.316-0.703c0-0.043-0.037-0.09-0.107-0.121l-0.137,0.078
		c-0.145,0.223-0.324,0.457-0.545,0.699c-0.221,0.246-0.482,0.504-0.791,0.773c-0.465,0.449-0.949,0.906-1.438,1.371
		c-0.025,0.047-0.078,0.109-0.148,0.207c-0.076,0.09-0.156,0.207-0.252,0.344c-0.047-0.109-0.104-0.25-0.174-0.426
		c-0.066-0.168-0.137-0.363-0.213-0.586c-0.018-0.055-0.041-0.109-0.072-0.156C166.467,128.375,166.434,128.339,166.395,128.312z
		 M174.066,128.312c0.037,0.027,0.07,0.063,0.094,0.105c0.029,0.047,0.051,0.102,0.07,0.156c0.078,0.223,0.148,0.418,0.215,0.582
		c0.07,0.168,0.125,0.313,0.174,0.43c0.359-0.395,0.666-0.695,0.912-0.891c0.25-0.203,0.449-0.301,0.596-0.301
		c0.057,0,0.127,0.055,0.207,0.16c0.086,0.105,0.18,0.266,0.295,0.48c0.088,0.133,0.172,0.254,0.25,0.355
		c0.07,0.102,0.127,0.191,0.164,0.266c0.303,0.883,0.582,1.422,0.832,1.617c0.246,0.195,0.793,0.293,1.631,0.293
		c0.143,0,0.346-0.066,0.609-0.199c0.27-0.137,0.592-0.34,0.967-0.617c0.348-0.25,0.641-0.469,0.883-0.656
		c0.244-0.191,0.441-0.363,0.59-0.508L182,128.312c-0.145,0.117-0.297,0.238-0.449,0.367c-0.156,0.121-0.297,0.246-0.438,0.363
		c-0.186,0.152-0.365,0.25-0.539,0.313c-0.176,0.059-0.344,0.086-0.512,0.086c-0.141,0-0.254-0.016-0.348-0.059
		c-0.09-0.043-0.16-0.105-0.209-0.199c-0.041-0.055-0.111-0.27-0.209-0.641c-0.09-0.375-0.168-0.652-0.23-0.836
		c-0.039-0.297-0.084-0.586-0.143-0.879c-0.051-0.289-0.113-0.578-0.178-0.867c-0.074-0.32-0.223-0.566-0.445-0.727
		c-0.219-0.164-0.492-0.242-0.813-0.242c-0.125,0-0.242,0.035-0.363,0.094c-0.119,0.066-0.223,0.176-0.316,0.32
		c-0.242,0.34-0.678,0.785-1.301,1.336c-0.629,0.547-1.068,0.992-1.318,1.332l-0.037,0.141L174.066,128.312z M179.852,117.386
		c0.23,0,0.402,0.051,0.506,0.137c0.107,0.098,0.16,0.23,0.16,0.402c-0.057,0.258-0.1,0.477-0.139,0.652
		c-0.094,0.332-0.174,0.605-0.246,0.82c-0.064,0.211-0.117,0.363-0.156,0.449c-0.084,0.207-0.195,0.387-0.34,0.535
		c-0.141,0.156-0.316,0.289-0.518,0.414c-0.213,0.145-0.389,0.25-0.537,0.309c-0.141,0.059-0.238,0.086-0.297,0.078
		c-0.156-0.02-0.307-0.039-0.449-0.051c-0.141-0.012-0.281-0.02-0.418-0.02c-0.125-0.066-0.219-0.191-0.285-0.375
		c-0.07-0.184-0.104-0.434-0.104-0.746c0-0.277,0.166-0.629,0.506-1.043c0.336-0.422,0.633-0.648,0.895-0.676
		c0.152-0.195,0.34-0.414,0.553-0.664c0.088-0.066,0.211-0.117,0.357-0.16C179.486,117.41,179.656,117.386,179.852,117.386z
		 M181.988,128.312c0.064-0.066,0.131-0.152,0.195-0.258c0.074-0.105,0.152-0.223,0.248-0.352l1.063-0.734
		c0.133-0.156,0.33-0.355,0.596-0.602c0.27-0.238,0.602-0.539,0.996-0.887c0.049-0.105,0.125-0.223,0.229-0.355
		c0.107-0.133,0.236-0.262,0.383-0.398c0.127-0.117,0.26-0.23,0.387-0.336s0.25-0.211,0.359-0.309
		c0.137-0.145,0.271-0.281,0.398-0.418c0.123-0.137,0.25-0.273,0.377-0.402c0.148-0.129,0.303-0.23,0.459-0.305
		c0.154-0.074,0.326-0.113,0.51-0.113c0.203,0,0.359,0.023,0.463,0.078c0.111,0.055,0.166,0.125,0.176,0.219
		c-0.096,0.207-0.189,0.422-0.289,0.633l0.08,0.125c0.406-0.156,0.725-0.27,0.955-0.348c0.232-0.07,0.377-0.109,0.445-0.109
		c0.674,0,1.174,0.203,1.518,0.617c0.334,0.41,0.504,1.031,0.504,1.863c0,0.16-0.018,0.344-0.057,0.555
		c-0.037,0.207-0.1,0.438-0.178,0.688c-0.096,0.281-0.195,0.508-0.301,0.691c-0.105,0.191-0.207,0.32-0.295,0.402
		c0.037,0.117,0.08,0.203,0.123,0.25c0.047,0.055,0.105,0.082,0.18,0.082s0.15-0.023,0.23-0.07c0.074-0.047,0.176-0.113,0.285-0.207
		c0.09,0.199,0.178,0.414,0.266,0.633c0.09,0.215,0.182,0.43,0.271,0.641c-0.166,0.145-0.326,0.293-0.486,0.43
		c-0.156,0.137-0.324,0.273-0.498,0.402c-0.211,0.176-0.41,0.301-0.6,0.383c-0.188,0.074-0.379,0.117-0.563,0.117
		c-0.213,0-0.387-0.051-0.523-0.152c-0.143-0.102-0.252-0.25-0.336-0.434c-0.23,0.309-0.512,0.586-0.836,0.844
		c-0.328,0.254-0.691,0.461-1.088,0.625c-0.232,0.117-0.439,0.199-0.629,0.258c-0.189,0.063-0.363,0.094-0.52,0.094
		c-0.047,0-0.139,0.012-0.27,0.051c-0.137,0.039-0.24,0.059-0.326,0.059c-0.523,0-1.002-0.223-1.426-0.668
		c-0.426-0.441-0.641-0.934-0.641-1.48c0-0.219,0.053-0.516,0.156-0.879c0.102-0.367,0.152-0.578,0.152-0.645
		s-0.02-0.117-0.063-0.16c-0.043-0.039-0.098-0.063-0.176-0.063c-0.045,0-0.154,0.07-0.328,0.207
		c-0.176,0.137-0.426,0.336-0.746,0.594c-0.031,0.039-0.063,0.098-0.102,0.168c-0.037,0.074-0.094,0.156-0.178,0.25
		c-0.076-0.211-0.158-0.426-0.252-0.641C182.199,128.726,182.094,128.511,181.988,128.312z M188.645,125.781
		c-0.045,0.012-0.113,0.059-0.203,0.148c-0.082,0.082-0.168,0.191-0.254,0.324c-0.127,0.215-0.273,0.438-0.439,0.691
		c-0.104,0.113-0.213,0.199-0.326,0.254c-0.117,0.063-0.25,0.105-0.396,0.133c-0.092,0.008-0.189,0.098-0.287,0.27
		c-0.105,0.168-0.205,0.422-0.309,0.742c-0.098,0.289-0.176,0.531-0.223,0.73c-0.043,0.203-0.066,0.375-0.066,0.52
		c0,0.254,0.063,0.445,0.193,0.582c0.127,0.125,0.326,0.191,0.596,0.191c0.426,0,0.813-0.117,1.168-0.355
		c0.355-0.234,0.691-0.594,1.008-1.059c0.145-0.176,0.283-0.34,0.414-0.5c0.072-0.051,0.133-0.141,0.18-0.27
		c0.043-0.125,0.09-0.281,0.139-0.461l0.25-0.793c-0.084-0.273-0.166-0.496-0.236-0.656c-0.076-0.16-0.146-0.262-0.223-0.297
		c-0.047-0.027-0.146-0.055-0.305-0.094C189.168,125.851,188.939,125.82,188.645,125.781z M191.996,128.312
		c0.148,0.305,0.27,0.555,0.359,0.758c0.096,0.207,0.156,0.379,0.195,0.516c0.084-0.094,0.141-0.176,0.18-0.25
		c0.037-0.07,0.066-0.129,0.084-0.168c0.154-0.145,0.299-0.277,0.42-0.398c0.125-0.121,0.232-0.215,0.328-0.277
		c0.055-0.027,0.16-0.121,0.316-0.277s0.363-0.375,0.625-0.652c0.211-0.238,0.395-0.414,0.547-0.523
		c0.15-0.113,0.273-0.164,0.367-0.164c0.1,0,0.176,0.016,0.219,0.051c0.047,0.039,0.07,0.09,0.07,0.156
		c0,0.063-0.01,0.141-0.027,0.227c-0.02,0.09-0.051,0.191-0.096,0.313c-0.045,0.129-0.084,0.23-0.119,0.313
		c-0.031,0.074-0.047,0.141-0.047,0.184c-0.23,0.777-0.434,1.457-0.609,2.035c-0.174,0.582-0.334,1.07-0.473,1.457
		c0.031,0.254,0.057,0.516,0.09,0.766c0.035,0.254,0.232,0.383,0.605,0.383c0.184,0,0.35-0.02,0.5-0.059
		c0.156-0.047,0.289-0.117,0.412-0.223c0.119-0.105,0.242-0.219,0.361-0.336c0.117-0.113,0.238-0.234,0.355-0.352
		c0.473-0.484,0.867-0.891,1.18-1.25c0.314-0.348,0.539-0.633,0.666-0.852c0.064-0.125,0.188-0.23,0.373-0.324
		c0.184-0.086,0.486-0.32,0.898-0.688c0.191-0.176,0.377-0.324,0.547-0.43c0.172-0.109,0.346-0.195,0.52-0.254l0.125,0.047
		c0.201,0.266,0.383,0.5,0.533,0.699c0.15,0.195,0.287,0.355,0.412,0.477c0.145,0.293,0.273,0.543,0.387,0.742
		c0.109,0.195,0.203,0.328,0.273,0.402c0.141,0.188,0.307,0.324,0.502,0.418c0.193,0.09,0.396,0.137,0.607,0.137
		c0.186,0,0.369-0.039,0.555-0.117c0.184-0.078,0.383-0.211,0.594-0.406c0.158-0.133,0.318-0.266,0.484-0.402
		c0.168-0.137,0.33-0.273,0.484-0.402l-0.551-1.273c-0.086,0.094-0.174,0.16-0.27,0.207c-0.1,0.047-0.209,0.07-0.328,0.07
		c-0.154,0-0.297-0.07-0.426-0.207c-0.121-0.137-0.234-0.352-0.334-0.641c-0.166-0.488-0.346-1.016-0.529-1.586
		c-0.156-0.301-0.346-0.516-0.566-0.652c-0.223-0.137-0.473-0.207-0.762-0.207c-0.145,0-0.32,0.035-0.52,0.105
		c-0.199,0.078-0.422,0.18-0.672,0.309c-0.221,0.137-0.414,0.273-0.58,0.402c-0.166,0.125-0.307,0.254-0.432,0.371
		c-0.078,0.098-0.154,0.18-0.211,0.27c-0.063,0.078-0.109,0.137-0.146,0.176c-0.166,0.129-0.318,0.27-0.449,0.422
		c-0.139,0.148-0.248,0.309-0.326,0.461c-0.213,0.191-0.398,0.355-0.549,0.508c-0.15,0.156-0.264,0.297-0.34,0.438
		c-0.053,0.063-0.104,0.121-0.143,0.168c-0.043,0.047-0.084,0.078-0.133,0.109c-0.066-0.082-0.098-0.152-0.098-0.211
		c0-0.043,0.008-0.113,0.027-0.207c0.02-0.09,0.059-0.199,0.113-0.316c0.072-0.164,0.152-0.34,0.232-0.523
		c0.334-0.988,0.576-1.781,0.736-2.383c0.156-0.602,0.23-1.008,0.23-1.223c0-0.395-0.074-0.695-0.23-0.902
		c-0.16-0.211-0.402-0.313-0.736-0.313c-0.33,0-0.643,0.074-0.939,0.223c-0.293,0.145-0.574,0.371-0.832,0.672
		c-0.303,0.348-0.568,0.637-0.791,0.879c-0.217,0.246-0.402,0.445-0.553,0.605c-0.34,0.391-0.633,0.715-0.869,0.988
		c-0.24,0.27-0.443,0.504-0.609,0.688c-0.186,0.184-0.35,0.344-0.502,0.48c-0.146,0.141-0.264,0.246-0.359,0.32
		c-0.078,0.109-0.156,0.203-0.211,0.285C192.082,128.175,192.035,128.246,191.996,128.312z M205.68,127.703l1.258-0.828
		c0.047-0.047,0.102-0.109,0.164-0.191c0.066-0.074,0.143-0.188,0.223-0.336c0.066-0.121,0.152-0.219,0.26-0.309
		c0.104-0.078,0.227-0.156,0.365-0.219c0.074-0.09,0.18-0.211,0.32-0.344c0.137-0.141,0.313-0.301,0.525-0.484
		c0.098-0.055,0.23-0.137,0.387-0.246c0.156-0.102,0.326-0.246,0.51-0.418c0.842-0.797,1.578-1.391,2.211-1.789
		c0.629-0.395,1.164-0.598,1.6-0.598c0.24,0,0.416,0.055,0.535,0.156c0.111,0.102,0.168,0.242,0.168,0.43
		c0,0.191-0.031,0.363-0.104,0.512c-0.064,0.148-0.176,0.27-0.32,0.375c-0.23,0.164-0.482,0.352-0.754,0.551
		c-0.145,0.195-0.324,0.398-0.539,0.617c-0.211,0.215-0.461,0.43-0.746,0.641c-0.094,0.125-0.168,0.23-0.234,0.32
		c-0.049,0.047-0.133,0.129-0.266,0.25c-0.129,0.121-0.297,0.258-0.51,0.414c-0.096,0.203-0.293,0.469-0.602,0.789
		c-0.311,0.328-0.721,0.715-1.242,1.164c-0.063,0.066-0.18,0.211-0.346,0.441c-0.164,0.234-0.383,0.535-0.652,0.922l0.1,0.121
		c0.203-0.066,0.416-0.176,0.639-0.332c0.219-0.16,0.463-0.367,0.732-0.625c0.313-0.285,0.566-0.52,0.766-0.699
		c0.197-0.18,0.34-0.297,0.424-0.355c0.063-0.035,0.129-0.074,0.195-0.105c0.061-0.039,0.137-0.086,0.217-0.141
		c0.426-0.508,0.822-0.887,1.197-1.129c0.367-0.246,0.707-0.367,1.02-0.367c0.199,0,0.346,0.074,0.445,0.227
		c0.102,0.156,0.16,0.383,0.18,0.684c-0.02,0.465-0.023,0.91-0.023,1.336c-0.012,0.293,0.07,0.559,0.242,0.793
		c0.168,0.234,0.389,0.355,0.668,0.355c0.086,0,0.168-0.023,0.242-0.07c0.082-0.051,0.16-0.105,0.246-0.18
		c0.061-0.086,0.121-0.16,0.184-0.238c0.063-0.074,0.123-0.148,0.189-0.223c0.037-0.02,0.09-0.051,0.156-0.098
		c0.07-0.047,0.137-0.102,0.203-0.164c0.127,0.277,0.236,0.516,0.326,0.727c0.086,0.207,0.15,0.391,0.199,0.547
		c-0.215,0.195-0.422,0.398-0.629,0.602c-0.209,0.207-0.432,0.406-0.656,0.59c-0.281,0.211-0.551,0.375-0.805,0.48
		c-0.262,0.105-0.52,0.16-0.777,0.16c-0.598,0-1.063-0.172-1.383-0.512c-0.326-0.348-0.516-0.859-0.566-1.555
		c0-0.082-0.016-0.168-0.039-0.258c-0.023-0.082-0.07-0.176-0.145-0.27c-0.045,0.051-0.098,0.094-0.152,0.148
		c-0.059,0.051-0.119,0.117-0.195,0.195c-0.117,0.098-0.27,0.211-0.449,0.355c-0.178,0.133-0.391,0.301-0.629,0.492
		c-0.324,0.332-0.594,0.605-0.816,0.816c-0.223,0.215-0.377,0.367-0.473,0.461c-0.184,0.156-0.396,0.309-0.643,0.469
		c-0.244,0.156-0.52,0.32-0.826,0.484c-0.195,0.102-0.359,0.18-0.496,0.242s-0.242,0.09-0.307,0.09
		c-0.441,0-0.771-0.109-0.986-0.328c-0.211-0.215-0.314-0.551-0.314-1c0-0.25,0.051-0.484,0.162-0.715
		c0.102-0.227,0.262-0.449,0.477-0.656c0.02-0.121,0.027-0.219,0.027-0.293c0-0.047-0.008-0.094-0.031-0.148
		c-0.023-0.047-0.059-0.102-0.092-0.168c-0.055-0.129-0.119-0.273-0.189-0.441c-0.066-0.156-0.141-0.336-0.227-0.516
		c0.039-0.039,0.09-0.109,0.16-0.215C205.504,127.988,205.584,127.855,205.68,127.703z"/>
	<path fill-rule="evenodd" clip-rule="evenodd" fill="#2D2D2D" d="M215.883,128.312c0.086-0.094,0.166-0.203,0.252-0.344
		c0.078-0.129,0.193-0.277,0.33-0.434l0.91-0.797c0.039-0.031,0.059-0.07,0.063-0.117c0.006-0.039,0.012-0.105,0.012-0.188
		c-0.012-0.121-0.025-0.215-0.043-0.293c0-0.211,0.043-0.566,0.121-1.07c0.086-0.492,0.16-0.789,0.223-0.898l-0.082-0.262
		c0.119-0.613,0.289-1.289,0.508-2.027c0.219-0.73,0.461-1.527,0.736-2.387c0.096-0.145,0.189-0.336,0.295-0.563
		c0.098-0.227,0.217-0.48,0.344-0.766c0.156-0.484,0.363-0.984,0.623-1.512s0.549-1.063,0.873-1.617
		c0.432-0.73,0.82-1.281,1.154-1.648c0.338-0.371,0.639-0.555,0.908-0.555c0.535,0,0.902,0.105,1.1,0.313
		c0.201,0.207,0.301,0.598,0.301,1.168c0,0.152-0.025,0.379-0.076,0.688s-0.076,0.543-0.076,0.699c0,0.16-0.053,0.375-0.15,0.664
		c-0.105,0.285-0.156,0.551-0.156,0.789c-0.01,0.074-0.035,0.148-0.066,0.223l0.014,0.191c-0.037,0.133-0.096,0.285-0.17,0.473
		c-0.07,0.184-0.168,0.402-0.287,0.664c-0.068,0.23-0.146,0.496-0.252,0.805c-0.098,0.301-0.223,0.637-0.359,0.996
		c-0.055,0.09-0.129,0.203-0.211,0.34c-0.092,0.133-0.184,0.285-0.285,0.449c-0.027,0.117-0.078,0.258-0.141,0.414
		s-0.152,0.344-0.26,0.555c-0.059,0.109-0.133,0.23-0.223,0.359c-0.096,0.129-0.203,0.293-0.338,0.496
		c-0.051,0.094-0.111,0.207-0.178,0.352c-0.061,0.137-0.137,0.293-0.223,0.465c-0.1,0.156-0.232,0.352-0.4,0.582
		c-0.166,0.23-0.355,0.508-0.57,0.816c-0.281,0.512-0.578,0.992-0.881,1.457c0,0.895,0.174,1.57,0.533,2.027
		c0.355,0.457,0.889,0.688,1.598,0.688c0.047,0,0.184-0.035,0.414-0.102c0.234-0.059,0.551-0.164,0.957-0.305
		c0.117-0.07,0.264-0.176,0.43-0.313c0.166-0.133,0.355-0.297,0.566-0.477l0.539,1.273c-0.242,0.215-0.48,0.43-0.717,0.652
		c-0.244,0.223-0.486,0.438-0.74,0.652c-0.281,0.238-0.574,0.422-0.867,0.543c-0.299,0.129-0.586,0.191-0.875,0.191
		c-0.148,0-0.373-0.016-0.676-0.051c-0.307-0.031-0.535-0.051-0.695-0.051c-0.516,0-0.939-0.207-1.281-0.617
		c-0.334-0.418-0.57-1.043-0.707-1.871c-0.02-0.086-0.049-0.156-0.08-0.223c-0.029-0.066-0.092-0.137-0.17-0.223
		c-0.125,0.117-0.262,0.262-0.422,0.43c-0.166,0.164-0.359,0.355-0.59,0.566L215.883,128.312z M222.484,117.445l-0.092-0.051
		c-0.521,0.492-0.908,0.969-1.174,1.41c-0.26,0.441-0.393,0.871-0.393,1.285c0,0.066-0.033,0.176-0.09,0.328
		c-0.061,0.148-0.15,0.344-0.27,0.586c-0.15,0.289-0.303,0.602-0.457,0.938c-0.176,0.523-0.313,0.941-0.402,1.266
		c-0.096,0.32-0.137,0.551-0.137,0.688l0.08,0.117c0.084-0.012,0.184-0.098,0.309-0.254c0.117-0.152,0.254-0.387,0.414-0.688
		c0.074-0.164,0.18-0.359,0.316-0.582c0.139-0.223,0.295-0.488,0.473-0.789c0.148-0.203,0.385-0.727,0.703-1.566
		c0.324-0.84,0.498-1.375,0.527-1.605c0.008-0.184,0.037-0.371,0.074-0.547C222.41,117.8,222.447,117.625,222.484,117.445z
		 M234.082,116.57c-0.037-0.129-0.121-0.305-0.254-0.52c-0.133-0.211-0.303-0.492-0.504-0.824c-0.213-0.301-0.371-0.539-0.473-0.711
		s-0.152-0.289-0.152-0.355c0-0.254,0.297-0.68,0.893-1.277c0.596-0.594,1.029-0.891,1.311-0.891
		c0.203,0.082,0.348,0.164,0.443,0.25h0.416c0.246,0.125,0.506,0.246,0.766,0.359c0.266,0.105,0.52,0.227,0.77,0.344
		c0.746,0.34,1.215,0.613,1.398,0.82c0.186,0.211,0.48,0.445,0.887,0.703c0.055,0.074,0.168,0.199,0.334,0.367
		s0.393,0.383,0.676,0.645c0.037,0.027,0.084,0.078,0.143,0.148c0.051,0.078,0.113,0.156,0.18,0.238
		c0.395,0.473,0.73,0.906,1.004,1.305c0.273,0.395,0.477,0.766,0.615,1.105c0.178,0.414,0.309,0.859,0.393,1.328
		c0.092,0.473,0.133,0.984,0.133,1.535c0,1.027-0.137,1.891-0.416,2.59c-0.273,0.699-0.703,1.223-1.285,1.566
		c-0.057,0.047-0.137,0.098-0.236,0.16c-0.104,0.055-0.203,0.125-0.309,0.199l-0.18,0.18c-0.154,0.172-0.414,0.363-0.777,0.563
		c-0.363,0.195-0.844,0.41-1.434,0.641c-0.785,0.309-1.611,0.637-2.48,1c-0.242,0.117-0.445,0.215-0.613,0.289
		c-0.172,0.074-0.305,0.109-0.396,0.109c-0.266,0-0.432,0.02-0.484,0.055c-0.057,0.039-0.107,0.41-0.15,1.109
		c-0.027,0.453-0.059,0.898-0.084,1.332c0,0.156,0.045,0.336,0.146,0.543c0.094,0.207,0.244,0.438,0.447,0.672
		c-0.084,0.188-0.178,0.367-0.283,0.543c-0.109,0.176-0.236,0.363-0.396,0.566c-0.166,0.25-0.336,0.438-0.51,0.559
		c-0.176,0.129-0.342,0.191-0.498,0.191c-0.307,0-0.529-0.164-0.674-0.488s-0.215-0.805-0.215-1.449
		c0-0.207,0.033-0.461,0.102-0.773c0.059-0.309,0.16-0.688,0.287-1.137l-0.072-0.805c-0.117-0.055-0.234-0.117-0.348-0.18
		c-0.119-0.066-0.232-0.137-0.342-0.207c-0.164-0.078-0.283-0.156-0.354-0.25c-0.072-0.094-0.104-0.188-0.104-0.281
		c0-0.109,0.221-0.273,0.67-0.488s0.672-0.504,0.672-0.867c0-0.102-0.02-0.246-0.063-0.441c-0.043-0.191-0.061-0.34-0.061-0.426
		c0.08-0.543,0.174-1.078,0.275-1.625c0.016-0.055,0.039-0.223,0.07-0.5c0.027-0.273,0.066-0.672,0.107-1.191
		c0.029-0.156,0.072-0.355,0.127-0.594c0.059-0.234,0.113-0.516,0.18-0.828l-0.098-0.5L234.082,116.57z M235.223,114.925
		c-0.057,0-0.094,0.016-0.117,0.039c-0.023,0.027-0.039,0.07-0.039,0.125c1.09,1.137,1.635,1.977,1.635,2.52
		c0,0.168-0.18,0.887-0.533,2.156c-0.355,1.266-0.596,2.039-0.723,2.305l0.109,0.578c-0.252,0.934-0.436,1.734-0.563,2.406
		c-0.125,0.664-0.186,1.199-0.186,1.598c0,0.105,0.021,0.176,0.061,0.223c0.043,0.047,0.102,0.07,0.176,0.07
		c0.09,0,0.256-0.043,0.496-0.129c0.242-0.078,0.549-0.227,0.928-0.43c0.24-0.129,0.48-0.246,0.721-0.359
		c0.242-0.105,0.484-0.227,0.734-0.344c0.104-0.059,0.217-0.129,0.354-0.215c0.133-0.09,0.279-0.191,0.436-0.309
		c0.223-0.172,0.396-0.305,0.523-0.414c0.133-0.102,0.215-0.168,0.25-0.195c0.398-0.281,0.701-0.625,0.902-1.043
		c0.205-0.418,0.305-0.91,0.305-1.48c0-0.344-0.039-0.688-0.117-1.035c-0.082-0.352-0.195-0.715-0.355-1.086l-0.023-0.328
		c-0.02-0.051-0.053-0.102-0.102-0.164c-0.045-0.055-0.098-0.125-0.148-0.199c-0.059-0.055-0.119-0.129-0.18-0.219
		c-0.066-0.098-0.129-0.211-0.18-0.359c-0.152-0.289-0.418-0.645-0.805-1.07c-0.387-0.422-0.906-0.91-1.555-1.465
		c-0.07-0.066-0.156-0.141-0.246-0.23c-0.094-0.086-0.195-0.18-0.307-0.285c-0.174-0.078-0.381-0.172-0.623-0.281
		C235.813,115.199,235.533,115.074,235.223,114.925z M243.324,128.312c0.037-0.078,0.121-0.199,0.256-0.379
		c0.131-0.18,0.324-0.406,0.572-0.672c0.258-0.262,0.471-0.5,0.646-0.727c0.17-0.23,0.293-0.426,0.363-0.602
		c0.113-0.215,0.24-0.48,0.396-0.805c0.15-0.32,0.32-0.695,0.506-1.117c0.029-0.051,0.227-0.199,0.596-0.449
		c0.369-0.258,0.602-0.383,0.691-0.383c0.123,0,0.211,0.082,0.268,0.254c0.063,0.172,0.09,0.43,0.09,0.785
		c0,0.512-0.006,0.945-0.018,1.293c-0.016,0.344-0.049,0.625-0.105,0.836c0.02,0.051,0.039,0.102,0.057,0.168
		c0.02,0.066,0.039,0.137,0.066,0.223c-0.018,0.09-0.037,0.188-0.066,0.289c0,1.098,0.039,1.918,0.123,2.453
		c0.086,0.547,0.195,0.813,0.332,0.813c0.176,0,0.424-0.234,0.75-0.695c0.32-0.469,0.715-1.172,1.178-2.113
		c0.459-0.914,0.813-1.664,1.051-2.25c0.24-0.586,0.377-1.027,0.414-1.324c0.088-0.516,0.225-0.906,0.412-1.172
		c0.188-0.262,0.445-0.391,0.766-0.391c0.094,0,0.156,0.023,0.195,0.074c0.035,0.051,0.055,0.129,0.055,0.227
		c0,0.375-0.047,0.746-0.148,1.129c-0.092,0.383-0.242,0.77-0.447,1.145c0,0.25-0.057,0.531-0.174,0.848
		c-0.113,0.313-0.293,0.656-0.531,1.031c-0.084,0.254-0.152,0.5-0.191,0.738c-0.02,0.121-0.234,0.543-0.635,1.273
		s-0.658,1.152-0.766,1.273c0,0.223-0.107,0.488-0.322,0.797c-0.213,0.313-0.539,0.66-0.982,1.055
		c-0.09,0.125-0.189,0.238-0.287,0.352c-0.105,0.109-0.199,0.223-0.293,0.332c-0.102,0.129-0.213,0.227-0.344,0.297
		c-0.121,0.07-0.268,0.105-0.434,0.105c-0.496,0-0.873-0.191-1.133-0.57c-0.26-0.375-0.389-0.945-0.389-1.703
		c0.029-0.137,0.049-0.258,0.057-0.359c-0.047-0.109-0.094-0.254-0.141-0.434c-0.049-0.18-0.076-0.383-0.094-0.602
		c0-0.297-0.004-0.539-0.01-0.723s-0.02-0.309-0.049-0.375l0.094-0.316l-0.137-0.086c-0.063,0.031-0.234,0.188-0.51,0.473
		c-0.279,0.285-0.67,0.707-1.176,1.258c-0.066-0.203-0.143-0.406-0.236-0.609C243.549,128.773,243.441,128.55,243.324,128.312z
		 M252.449,128.312c0.039,0.027,0.072,0.063,0.096,0.105c0.029,0.047,0.051,0.102,0.07,0.156c0.076,0.223,0.146,0.418,0.213,0.586
		c0.07,0.176,0.127,0.316,0.176,0.426c0.094-0.137,0.174-0.254,0.25-0.344c0.07-0.098,0.121-0.16,0.148-0.207
		c0.488-0.465,0.973-0.922,1.439-1.371c0.307-0.27,0.568-0.527,0.789-0.773c0.221-0.242,0.4-0.477,0.545-0.699l0.135-0.078
		c0.072,0.031,0.109,0.078,0.109,0.121c-0.109,0.25-0.217,0.488-0.318,0.703c-0.063,0.367-0.125,0.727-0.178,1.086
		c-0.037,0.211-0.072,0.395-0.1,0.551s-0.043,0.281-0.043,0.375c-0.014,0.055-0.043,0.121-0.08,0.191
		c-0.084,0.242-0.141,0.559-0.178,0.953c-0.039,0.391-0.059,0.855-0.059,1.387c0,0.492,0.1,0.855,0.299,1.098
		c0.197,0.242,0.5,0.359,0.908,0.359c0.184,0,0.381-0.051,0.594-0.16c0.215-0.105,0.43-0.281,0.652-0.52
		c0.166-0.176,0.332-0.355,0.492-0.539c0.16-0.188,0.326-0.367,0.492-0.555c0.164-0.164,0.316-0.313,0.457-0.438
		c0.137-0.121,0.25-0.238,0.344-0.336c0.234-0.156,0.43-0.309,0.598-0.445c0.164-0.137,0.291-0.258,0.387-0.359l-0.539-1.273
		c-0.619,0.523-1.102,0.922-1.449,1.191c-0.348,0.266-0.549,0.398-0.602,0.398c-0.094,0-0.16-0.039-0.207-0.113
		c-0.049-0.07-0.072-0.184-0.072-0.332c0-0.164,0.037-0.484,0.119-0.969c0.078-0.477,0.195-1.102,0.34-1.879
		c0.24-0.969,0.459-1.813,0.652-2.52c0.193-0.711,0.371-1.293,0.525-1.758c0.045-0.176,0.084-0.332,0.111-0.465
		c0.023-0.133,0.049-0.242,0.066-0.34l0.945-0.191c0.109-0.012,0.191-0.16,0.242-0.465c0.051-0.297,0.076-0.727,0.076-1.281
		c0-0.129-0.01-0.234-0.033-0.324c-0.025-0.086-0.063-0.152-0.117-0.184c-0.068-0.059-0.117-0.105-0.146-0.148
		c-0.037-0.043-0.059-0.082-0.076-0.117c0.018-0.176,0.09-0.438,0.211-0.781c0.129-0.344,0.191-0.621,0.191-0.836
		c0-0.27-0.063-0.473-0.18-0.609c-0.121-0.141-0.295-0.207-0.512-0.207c-0.418,0-0.809,0.434-1.172,1.297
		c-0.363,0.871-0.711,1.32-1.035,1.359l-0.453-0.141c-0.143,0.031-0.27,0.055-0.383,0.078c-0.115,0.023-0.232,0.047-0.355,0.078
		c-0.09-0.031-0.227-0.055-0.402-0.074c-0.174-0.02-0.387-0.027-0.633-0.027c-0.123,0.027-0.25,0.055-0.387,0.086
		c-0.18-0.039-0.379-0.07-0.605-0.09c-0.227-0.023-0.469-0.035-0.73-0.035c-0.258,0-0.447,0.156-0.57,0.469
		c-0.127,0.316-0.188,0.766-0.188,1.355c0,0.086,0.027,0.156,0.09,0.215c0.061,0.059,0.145,0.113,0.254,0.152
		c0.076,0.031,0.152,0.07,0.232,0.098c0.076,0.035,0.16,0.074,0.256,0.117c0.07,0,0.193,0.004,0.363,0.016
		c0.176,0.008,0.293,0.012,0.367,0.012h1.73c0.066,0,0.162-0.012,0.285-0.047c0.127-0.031,0.215-0.047,0.27-0.047
		c0.064,0,0.111,0.016,0.141,0.043c0.027,0.023,0.043,0.066,0.043,0.121c-0.113,0.254-0.213,0.461-0.309,0.625
		c-0.09,0.164-0.176,0.297-0.25,0.402c-0.609,1.098-1.223,2.063-1.848,2.91c-0.623,0.844-1.262,1.57-1.914,2.18
		c-0.121,0.148-0.227,0.277-0.313,0.387c-0.09,0.109-0.16,0.203-0.211,0.281L252.449,128.312z M264.645,131.527
		c0,0.129-0.035,0.254-0.105,0.375s-0.176,0.234-0.313,0.344c-0.047,0.141-0.102,0.242-0.17,0.313s-0.158,0.105-0.273,0.105
		c-0.377,0-0.699-0.133-0.969-0.402c-0.264-0.27-0.477-0.668-0.633-1.191l0.094-0.098l-0.137-0.359
		c0.049-0.148,0.088-0.289,0.123-0.43c0.037-0.137,0.076-0.277,0.113-0.418c0.047-0.172,0.123-0.297,0.227-0.379
		c0.109-0.078,0.227-0.117,0.369-0.117c0.236,0,0.463,0.066,0.67,0.195c0.209,0.129,0.395,0.324,0.559,0.594
		c0.156,0.242,0.27,0.48,0.34,0.73C264.609,131.031,264.645,131.277,264.645,131.527z M282.385,128.312
		c0.369,0.801,0.553,1.227,0.553,1.273c-0.117,0.164-0.23,0.34-0.33,0.527c-0.104,0.188-0.213,0.375-0.334,0.57
		c-0.109,0.164-0.252,0.305-0.426,0.43c-0.18,0.117-0.385,0.215-0.609,0.305c-0.336,0.125-0.648,0.254-0.945,0.379
		c-0.295,0.125-0.563,0.25-0.805,0.363c-0.266,0.137-0.553,0.219-0.865,0.262c-0.307,0.035-0.604,0.082-0.893,0.117
		c-0.203,0.055-0.402,0.09-0.6,0.105c-0.199,0.016-0.385,0.02-0.549,0.02c-0.137,0-0.25-0.004-0.346-0.02
		c-0.092-0.016-0.17-0.043-0.236-0.082c-0.08-0.051-0.16-0.109-0.24-0.164c-0.08-0.051-0.156-0.102-0.229-0.152
		c-0.16-0.09-0.277-0.16-0.361-0.207c-0.109-0.066-0.189-0.25-0.242-0.551c-0.053-0.309-0.076-0.75-0.076-1.328
		c0-0.41,0.113-1.059,0.348-1.945c0.23-0.883,0.348-1.473,0.348-1.77c0-0.063-0.012-0.152-0.029-0.273
		c-0.018-0.113-0.025-0.207-0.025-0.281c0-0.258,0.09-0.848,0.268-1.762c0.18-0.922,0.268-1.563,0.268-1.922
		c0-0.176-0.064-0.301-0.199-0.379c-0.131-0.074-0.201-0.195-0.201-0.355c0-0.219,0.02-0.469,0.057-0.75
		c0.039-0.27,0.105-0.578,0.193-0.91c0.076-0.27,0.143-0.539,0.209-0.813c0.066-0.27,0.125-0.535,0.193-0.797
		c0.064-0.301,0.131-0.613,0.203-0.926c0.066-0.313,0.123-0.617,0.17-0.914c0.057-0.203,0.141-0.449,0.266-0.746
		c0.117-0.293,0.26-0.633,0.43-1.012c0.08-0.184,0.156-0.355,0.223-0.523c0.061-0.16,0.131-0.328,0.201-0.516
		c0.076-0.148,0.186-0.281,0.322-0.395s0.309-0.215,0.512-0.313c0.166-0.063,0.316-0.109,0.443-0.145s0.219-0.047,0.264-0.047
		c0.246,0,0.43,0.086,0.545,0.254c0.119,0.172,0.174,0.434,0.174,0.785c0,0.109-0.004,0.234-0.02,0.375
		c-0.014,0.148-0.051,0.309-0.102,0.492c-0.039,0.195-0.078,0.367-0.105,0.504c-0.031,0.137-0.063,0.25-0.074,0.328
		c-0.01,0.223-0.023,0.43-0.043,0.609c-0.02,0.188-0.043,0.355-0.07,0.512c-0.059,0.113-0.129,0.246-0.223,0.402
		c-0.063,0.434-0.121,0.801-0.156,1.086c-0.043,0.293-0.066,0.5-0.066,0.621c0,0.387-0.1,0.875-0.297,1.457
		c-0.199,0.586-0.299,1.035-0.299,1.34c0,0.129-0.023,0.297-0.066,0.508c-0.047,0.207-0.119,0.453-0.209,0.734
		c-0.104,0.395-0.182,0.691-0.244,0.902c-0.059,0.215-0.1,0.34-0.111,0.387c-0.021,0.137-0.045,0.301-0.07,0.488
		c-0.018,0.188-0.055,0.398-0.104,0.648c-0.213,1.008-0.367,1.836-0.475,2.5c-0.105,0.664-0.156,1.156-0.156,1.488
		c0,0.309,0.027,0.539,0.094,0.711c0.066,0.164,0.16,0.246,0.293,0.246c0.582,0,1.168-0.063,1.762-0.195
		c0.598-0.129,1.219-0.316,1.863-0.566c0.074-0.008,0.145-0.027,0.219-0.059c0.063-0.027,0.137-0.059,0.211-0.086
		c0.113-0.125,0.193-0.25,0.25-0.359c0.119-0.074,0.227-0.148,0.316-0.23C282.244,128.476,282.32,128.394,282.385,128.312z
		 M282.371,128.312c0.039,0.027,0.07,0.063,0.094,0.105c0.031,0.047,0.055,0.102,0.07,0.156c0.076,0.223,0.148,0.418,0.213,0.586
		c0.072,0.176,0.131,0.316,0.174,0.426c0.098-0.137,0.176-0.254,0.254-0.344c0.07-0.098,0.121-0.16,0.15-0.207
		c0.486-0.465,0.969-0.922,1.436-1.371c0.309-0.27,0.568-0.527,0.791-0.773c0.221-0.242,0.4-0.477,0.543-0.699l0.137-0.078
		c0.072,0.031,0.111,0.078,0.111,0.121c-0.111,0.25-0.221,0.488-0.316,0.703c-0.068,0.367-0.131,0.727-0.184,1.086
		c-0.037,0.211-0.07,0.395-0.098,0.551c-0.029,0.156-0.043,0.281-0.043,0.375c-0.014,0.055-0.043,0.121-0.08,0.191
		c-0.084,0.242-0.141,0.559-0.178,0.953c-0.039,0.391-0.059,0.855-0.059,1.387c0,0.492,0.098,0.855,0.297,1.098
		s0.502,0.359,0.908,0.359c0.186,0,0.381-0.051,0.596-0.16c0.213-0.105,0.43-0.281,0.652-0.52c0.166-0.176,0.33-0.355,0.492-0.539
		c0.16-0.188,0.324-0.367,0.49-0.555c0.166-0.164,0.318-0.313,0.459-0.438c0.137-0.121,0.25-0.238,0.348-0.336
		c0.229-0.156,0.428-0.309,0.594-0.445c0.164-0.137,0.293-0.258,0.387-0.359l-0.539-1.273c-0.619,0.523-1.102,0.922-1.451,1.191
		c-0.346,0.266-0.549,0.398-0.6,0.398c-0.094,0-0.16-0.039-0.207-0.113c-0.051-0.07-0.072-0.184-0.072-0.332
		c0-0.164,0.039-0.484,0.119-0.969c0.078-0.477,0.193-1.102,0.34-1.879c0.242-0.969,0.457-1.813,0.652-2.52
		c0.191-0.711,0.367-1.293,0.523-1.758c0.047-0.176,0.086-0.332,0.113-0.465c0.023-0.133,0.047-0.242,0.066-0.34l0.945-0.191
		c0.109-0.012,0.189-0.16,0.242-0.465c0.051-0.297,0.074-0.727,0.074-1.281c0-0.129-0.01-0.234-0.031-0.324
		c-0.025-0.086-0.063-0.152-0.119-0.184c-0.066-0.059-0.113-0.105-0.146-0.148c-0.035-0.043-0.057-0.082-0.076-0.117
		c0.02-0.176,0.09-0.438,0.213-0.781c0.129-0.344,0.188-0.621,0.188-0.836c0-0.27-0.059-0.473-0.178-0.609
		c-0.119-0.141-0.293-0.207-0.51-0.207c-0.416,0-0.809,0.434-1.174,1.297c-0.363,0.871-0.709,1.32-1.033,1.359l-0.455-0.141
		c-0.143,0.031-0.27,0.055-0.381,0.078c-0.115,0.023-0.234,0.047-0.355,0.078c-0.09-0.031-0.227-0.055-0.402-0.074
		c-0.174-0.02-0.387-0.027-0.633-0.027c-0.123,0.027-0.25,0.055-0.389,0.086c-0.178-0.039-0.377-0.07-0.604-0.09
		c-0.229-0.023-0.469-0.035-0.727-0.035c-0.262,0-0.451,0.156-0.574,0.469c-0.127,0.316-0.189,0.766-0.189,1.355
		c0,0.086,0.029,0.156,0.092,0.215c0.061,0.059,0.145,0.113,0.254,0.152c0.076,0.031,0.152,0.07,0.232,0.098
		c0.076,0.035,0.16,0.074,0.252,0.117c0.074,0,0.195,0.004,0.367,0.016c0.174,0.008,0.293,0.012,0.367,0.012h1.73
		c0.066,0,0.16-0.012,0.285-0.047c0.125-0.031,0.215-0.047,0.268-0.047c0.066,0,0.113,0.016,0.143,0.043
		c0.027,0.023,0.043,0.066,0.043,0.121c-0.115,0.254-0.213,0.461-0.309,0.625c-0.09,0.164-0.174,0.297-0.25,0.402
		c-0.609,1.098-1.223,2.063-1.848,2.91c-0.623,0.844-1.262,1.57-1.914,2.18c-0.123,0.148-0.227,0.277-0.313,0.387
		c-0.092,0.109-0.16,0.203-0.211,0.281L282.371,128.312z"/>
	<path fill-rule="evenodd" clip-rule="evenodd" fill="#2D2D2D" d="M290.043,128.312l0.082-0.098l0.041-0.141
		c0.164-0.199,0.311-0.359,0.428-0.473c0.125-0.117,0.213-0.207,0.281-0.27c0.041-0.047,0.145-0.109,0.301-0.18
		c0.156-0.074,0.369-0.164,0.639-0.277l0.18-0.109c0.064-0.105,0.18-0.25,0.346-0.445c0.164-0.191,0.363-0.414,0.594-0.66
		c0.047-0.059,0.115-0.121,0.209-0.184c0.092-0.063,0.189-0.148,0.287-0.25c0.223-0.211,0.445-0.434,0.668-0.652
		c0.223-0.227,0.43-0.457,0.623-0.68c0.08-0.078,0.256-0.23,0.51-0.449c0.262-0.215,0.609-0.516,1.055-0.906
		c0.063-0.043,0.18-0.113,0.346-0.199c0.164-0.09,0.383-0.191,0.65-0.313c0.119-0.055,0.211-0.145,0.27-0.266
		c0.059-0.129,0.092-0.285,0.092-0.48c0.068-0.121,0.146-0.27,0.211-0.438c0.072-0.172,0.139-0.371,0.205-0.602
		c0.09-0.289,0.16-0.52,0.211-0.699c0.053-0.18,0.09-0.301,0.119-0.367c0.154-0.418,0.369-0.902,0.639-1.461
		c0.264-0.559,0.584-1.195,0.953-1.922c0.184-0.375,0.402-0.797,0.648-1.254c0.16-0.23,0.336-0.406,0.527-0.52
		c0.195-0.117,0.398-0.176,0.609-0.176c0.166,0,0.289,0.066,0.367,0.195c0.078,0.125,0.117,0.313,0.117,0.566
		c0,0.398-0.027,0.773-0.086,1.133c-0.051,0.363-0.156,0.699-0.301,1.012c-0.029,0.066-0.055,0.168-0.072,0.293
		c-0.014,0.129-0.033,0.281-0.053,0.473c-0.008,0.125-0.047,0.25-0.104,0.371c-0.061,0.121-0.137,0.23-0.23,0.336
		c0,0.063-0.004,0.141-0.025,0.223c-0.018,0.094-0.037,0.195-0.055,0.313l-0.195,0.25c-0.02,0.059-0.027,0.125-0.027,0.199
		c0,0.082,0,0.164,0,0.246c0,0.051-0.033,0.164-0.094,0.324c-0.066,0.164-0.166,0.391-0.293,0.688
		c-0.148,0.313-0.266,0.563-0.355,0.746c-0.086,0.184-0.133,0.297-0.141,0.344c-0.039,0.051-0.088,0.125-0.148,0.223
		c-0.063,0.105-0.133,0.219-0.211,0.348l0.037,0.305l-0.885,3.184c0,0.352,0.004,0.652,0.016,0.902
		c0.008,0.246,0.037,0.441,0.086,0.594c0.039,0.156,0.121,0.344,0.225,0.574c0.104,0.227,0.24,0.465,0.404,0.723
		c0.105,0.18,0.225,0.301,0.367,0.383c0.137,0.078,0.283,0.117,0.439,0.117c0.18,0,0.355-0.051,0.533-0.148
		c0.18-0.09,0.363-0.246,0.547-0.445c0.109,0.238,0.215,0.465,0.313,0.68c0.098,0.211,0.178,0.41,0.242,0.594
		c-0.047,0.031-0.145,0.125-0.297,0.285s-0.355,0.391-0.602,0.684c-0.152,0.172-0.332,0.301-0.547,0.383
		c-0.219,0.074-0.484,0.121-0.801,0.121c-0.688,0-1.25-0.188-1.686-0.547s-0.738-0.895-0.912-1.617
		c-0.037-0.145-0.072-0.277-0.1-0.387c-0.029-0.113-0.057-0.211-0.08-0.305c-0.066-0.176-0.18-0.363-0.338-0.563
		c-0.061,0.09-0.111,0.16-0.15,0.207c-0.109,0.07-0.23,0.18-0.367,0.316c-0.133,0.137-0.27,0.313-0.406,0.523
		c-0.031,0.094-0.082,0.207-0.152,0.344c-0.074,0.129-0.176,0.293-0.307,0.477c-0.293,0.34-0.596,0.684-0.896,1.027
		c-0.309,0.352-0.613,0.688-0.914,1.023c-0.416,0.457-0.799,0.797-1.152,1.016c-0.352,0.219-0.652,0.324-0.912,0.324
		c-0.465,0-0.805-0.105-1.025-0.324c-0.223-0.219-0.332-0.559-0.332-1.023c0-0.207,0.082-0.508,0.236-0.891
		c0.156-0.383,0.236-0.668,0.236-0.852l-0.086-0.223L290.043,128.312z M297.004,124.355c0-0.047-0.02-0.113-0.051-0.211
		c-0.145,0.141-0.313,0.305-0.516,0.488c-0.205,0.184-0.441,0.387-0.721,0.609c-0.064,0.148-0.211,0.379-0.443,0.703
		c-0.23,0.313-0.553,0.711-0.969,1.18c-0.117,0.137-0.277,0.375-0.48,0.715c-0.205,0.336-0.453,0.75-0.754,1.234
		c-0.098,0.195-0.207,0.434-0.314,0.711c0,0.051,0.037,0.113,0.107,0.18c0.279-0.086,0.619-0.324,1.023-0.727
		c0.398-0.402,0.877-0.961,1.43-1.672c0.57-0.754,0.996-1.402,1.271-1.93C296.867,125.105,297.004,124.675,297.004,124.355z
		 M306.141,131.527c0,0.129-0.035,0.254-0.105,0.375s-0.176,0.234-0.313,0.344c-0.045,0.141-0.104,0.242-0.168,0.313
		c-0.07,0.07-0.164,0.105-0.275,0.105c-0.379,0-0.699-0.133-0.969-0.402c-0.264-0.27-0.479-0.668-0.633-1.191l0.094-0.098
		l-0.137-0.359c0.049-0.148,0.09-0.289,0.123-0.43c0.037-0.137,0.074-0.277,0.113-0.418c0.047-0.172,0.123-0.297,0.227-0.379
		c0.109-0.078,0.227-0.117,0.367-0.117c0.238,0,0.465,0.066,0.672,0.195s0.391,0.324,0.559,0.594c0.156,0.242,0.27,0.48,0.34,0.73
		C306.105,131.031,306.141,131.277,306.141,131.527z"/>
	<path fill-rule="evenodd" clip-rule="evenodd" fill="#2D2D2D" d="M121.699,28.257c-2.887-2.477-6.543-4.895-8.109-7.191
		c-1.715-3.078,1.471-4.09,2.98-1.656C118.082,21.843,120.801,26.246,121.699,28.257z"/>
	<path fill-rule="evenodd" clip-rule="evenodd" fill="#2D2D2D" d="M116.555,32.589c-2.777-1.906-5.27-2.762-6.865-4.637
		c-1.803-2.551,0.906-3.742,2.467-1.742S115.572,30.902,116.555,32.589z"/>
	<path fill-rule="evenodd" clip-rule="evenodd" fill="#2D2D2D" d="M185.125,32.589c2.777-1.906,5.27-2.762,6.865-4.637
		c1.803-2.551-0.908-3.742-2.467-1.742C187.961,28.21,186.107,30.902,185.125,32.589z"/>
	<path fill-rule="evenodd" clip-rule="evenodd" fill="#2D2D2D" d="M179.996,28.257c2.887-2.477,6.543-4.895,8.107-7.191
		c1.715-3.078-1.471-4.09-2.979-1.656C183.615,21.843,180.895,26.246,179.996,28.257z"/>
	<path fill-rule="evenodd" clip-rule="evenodd" fill="#2D2D2D" d="M127.465,24.988c-2.207-3.316-4.563-5.348-5.488-8.105
		c-0.855-3.594,2.643-3.707,3.473-0.824C126.281,18.937,127.131,22.703,127.465,24.988z"/>
	<path fill-rule="evenodd" clip-rule="evenodd" fill="#2D2D2D" d="M174.141,24.824c2.711-2.742,5.328-4.242,6.715-6.691
		c1.475-3.254-1.828-4.012-3.148-1.426C176.383,19.292,174.883,22.718,174.141,24.824z"/>
	<path fill-rule="evenodd" clip-rule="evenodd" fill="#2D2D2D" d="M143.48,21.656c-1.148-5.008-2.813-8.449-2.896-12.281
		c0.225-4.859,3.607-3.719,3.564,0.234S143.824,18.644,143.48,21.656z"/>
	<path fill-rule="evenodd" clip-rule="evenodd" fill="#2D2D2D" d="M159.715,22.324c1.459-5.012,3.348-8.402,3.658-12.281
		c0.057-4.941-3.436-3.984-3.625,0.023C159.557,14.078,159.543,19.246,159.715,22.324z"/>
	<path fill-rule="evenodd" clip-rule="evenodd" fill="#2D2D2D" d="M135.203,23.246c-2.586-6.262-5.359-10.324-6.428-15.328
		c-0.975-6.434,3.186-5.848,4.139-0.652S134.832,19.199,135.203,23.246z"/>
	<path fill-rule="evenodd" clip-rule="evenodd" fill="#2D2D2D" d="M167.695,22.554c3.066-5.406,6.117-8.805,7.609-13.223
		c1.531-5.727-2.523-5.605-3.924-1.004C169.98,12.933,168.426,18.933,167.695,22.554z"/>
	<path fill-rule="evenodd" clip-rule="evenodd" fill="#2D2D2D" d="M151.945,21.804c-0.828-7.09-2.453-12-2.125-17.383
		c0.816-6.813,4.77-5.043,4.277,0.504S152.697,17.589,151.945,21.804z"/>
	<polygon fill="#2D2D2D" points="169.572,57.566 175.258,64.464 175.262,76.988 169.418,82.929 132.293,82.929 126.938,77.003 
		126.938,64.472 132.641,57.718 131.693,56.917 125.695,64.019 125.699,77.484 131.742,84.171 169.938,84.171 176.502,77.496 
		176.5,64.019 170.531,56.781 	"/>
	<polygon fill="#2D2D2D" points="150.75,72.617 151.145,73.097 188.512,42.281 174.02,27.953 128.014,27.953 113.693,42.281 
		150.746,73.425 151.145,73.097 150.75,72.617 151.15,72.14 115.527,42.199 128.529,29.195 173.508,29.195 186.664,42.199 
		150.355,72.14 150.75,72.617 151.15,72.14 	"/>
	<polyline fill="#2D2D2D" points="114.813,42.753 187.387,42.753 187.387,41.507 114.813,41.507 	"/>
	<polygon fill="#2D2D2D" points="120.656,36.953 130.441,43.117 151.219,29.207 150.523,28.167 130.42,41.628 121.32,35.894 	"/>
	<polygon fill="#2D2D2D" points="120.656,36.953 130.441,43.117 150.877,29.433 171.422,42.765 181.371,36.55 180.711,35.488 
		171.434,41.285 150.865,27.937 130.42,41.628 121.32,35.894 	"/>
	<polyline fill="#2D2D2D" points="128.082,29.074 150.664,42.82 151.313,41.753 128.73,28.007 	"/>
	<polygon fill="#2D2D2D" points="179.48,41.753 170.59,54.597 172.148,42.339 171.113,41.792 158.291,53.121 150.848,41.402 
		143.816,53.125 130.893,42.226 129.869,42.781 131.418,54.875 122.539,41.757 121.504,42.46 131.855,57.746 132.99,57.316 
		131.313,44.21 144.133,55.027 150.879,43.781 158.023,55.031 170.699,43.824 169.027,56.972 170.16,57.406 180.508,42.464 
		179.48,41.753 	"/>
	<polygon fill="#2D2D2D" points="138.691,42.027 150.168,72.605 151.334,72.617 163.41,42.628 162.25,42.16 150.773,70.664 
		139.861,41.589 138.691,42.027 	"/>
	<polyline fill="#2D2D2D" points="173.246,28.007 150.664,41.753 151.313,42.82 173.895,29.074 	"/>
	<polygon fill="#2D2D2D" points="173.195,54.554 180.254,63.046 180.221,78.343 171.111,87.261 130.836,87.261 121.945,78.492 
		121.957,63.125 129.143,54.585 128.191,53.789 120.719,62.671 120.703,79.011 130.328,88.503 171.617,88.503 181.461,78.863 
		181.496,62.597 174.15,53.761 	"/>
	<polygon fill="#2D2D2D" points="176.533,51.265 184.922,61.902 184.926,79.496 172.875,91.425 128.742,91.429 117.275,79.937 
		117.273,61.917 125.695,51.957 124.742,51.152 116.023,61.46 116.027,80.453 128.223,92.679 173.389,92.675 186.172,80.019 
		186.172,61.472 177.512,50.492 	"/>
	<polygon fill="#2D2D2D" points="180.875,48.371 190.523,60.195 190.527,80.722 174.258,96.64 126.613,96.64 111.672,80.742 
		111.67,60.207 121.559,48.464 120.609,47.667 110.43,59.753 110.434,81.234 126.078,97.882 174.766,97.882 191.768,81.246 
		191.766,59.753 181.836,47.585 	"/>
	<polyline fill="#2D2D2D" points="131.723,83.273 125.336,97.429 126.469,97.941 132.854,83.785 	"/>
	<polyline fill="#2D2D2D" points="169.164,83.753 174.436,97.546 175.594,97.101 170.322,83.312 	"/>
	<polyline fill="#2D2D2D" points="126.18,76.875 111.223,81.285 111.572,82.476 126.531,78.07 	"/>
	<polyline fill="#2D2D2D" points="175.59,77.89 191.102,81.71 191.396,80.503 175.887,76.687 	"/>
	<polyline fill="#2D2D2D" points="110.66,60.597 126.082,64.761 126.404,63.562 110.98,59.402 	"/>
	<polyline fill="#2D2D2D" points="191.088,59.187 175.391,63.562 175.723,64.757 191.42,60.382 	"/>
	<path fill-rule="evenodd" clip-rule="evenodd" fill="#2D2D2D" d="M193.797,38.847c0.533,0,1.053,0.137,1.559,0.406
		c0.508,0.273,0.902,0.664,1.184,1.172s0.426,1.039,0.426,1.59c0,0.547-0.141,1.07-0.422,1.57c-0.277,0.508-0.668,0.898-1.168,1.172
		c-0.504,0.281-1.027,0.422-1.578,0.422c-0.547,0-1.072-0.141-1.574-0.422c-0.504-0.273-0.893-0.664-1.172-1.172
		c-0.281-0.5-0.422-1.023-0.422-1.57c0-0.551,0.143-1.082,0.426-1.59c0.285-0.508,0.68-0.898,1.188-1.172
		C192.748,38.984,193.268,38.847,193.797,38.847z M193.797,39.371c-0.443,0-0.877,0.113-1.297,0.344
		c-0.422,0.227-0.75,0.555-0.988,0.977s-0.357,0.863-0.357,1.324c0,0.457,0.117,0.895,0.35,1.313
		c0.234,0.418,0.563,0.742,0.98,0.977c0.422,0.234,0.857,0.352,1.313,0.352c0.457,0,0.895-0.117,1.316-0.352
		c0.418-0.234,0.744-0.559,0.977-0.977s0.348-0.855,0.348-1.313c0-0.461-0.117-0.902-0.355-1.324
		c-0.234-0.422-0.564-0.75-0.988-0.977C194.672,39.484,194.24,39.371,193.797,39.371z M192.41,43.761h0.549v-1.445h0.322
		c0.195,0,0.34,0.039,0.441,0.121c0.146,0.105,0.336,0.367,0.576,0.789l0.301,0.535h0.672l-0.416-0.664
		c-0.199-0.316-0.367-0.539-0.504-0.676c-0.072-0.07-0.168-0.129-0.289-0.18c0.293-0.023,0.531-0.129,0.709-0.309
		c0.178-0.188,0.264-0.402,0.264-0.652c0-0.176-0.051-0.344-0.156-0.5c-0.107-0.156-0.25-0.27-0.43-0.332s-0.469-0.09-0.871-0.09
		h-1.168V43.761z M192.959,41.847h0.668c0.318,0,0.535-0.047,0.652-0.145c0.115-0.094,0.174-0.219,0.174-0.379
		c0-0.098-0.027-0.188-0.084-0.27c-0.057-0.078-0.133-0.137-0.232-0.176s-0.283-0.059-0.553-0.059h-0.625V41.847z"/>
</g>
</svg>
