<?xml version="1.0" encoding="utf-8"?>
<!-- Generator: Adobe Illustrator 16.0.0, SVG Export Plug-In . SVG Version: 6.00 Build 0)  -->
<!DOCTYPE svg PUBLIC "-//W3C//DTD SVG 1.1//EN" "http://www.w3.org/Graphics/SVG/1.1/DTD/svg11.dtd">
<svg version="1.1" id="Layer_1" xmlns="http://www.w3.org/2000/svg" xmlns:xlink="http://www.w3.org/1999/xlink" x="0px" y="0px"
	 width="70.242px" height="70.242px" viewBox="0 0 70.242 70.242" enable-background="new 0 0 70.242 70.242" xml:space="preserve">
<g>
	<g>
		<path d="M35.121,17.266c3.396,0,6.147,2.755,6.147,6.148c0,3.395-2.751,6.148-6.147,6.148c-3.395,0-6.146-2.754-6.146-6.148
			C28.976,20.021,31.727,17.266,35.121,17.266 M35.121,43.607c8.694,0,17.855,4.275,17.855,6.148v3.221H17.27v-3.221
			C17.27,47.883,26.43,43.607,35.121,43.607 M35.121,11.707c-6.468,0-11.707,5.238-11.707,11.707s5.239,11.707,11.707,11.707
			s11.707-5.238,11.707-11.707S41.589,11.707,35.121,11.707z M35.121,38.048c-7.813,0-23.413,3.923-23.413,11.708v8.779h46.826
			v-8.779C58.534,41.971,42.937,38.048,35.121,38.048z"/>
	</g>
	<g>
		<path fill="none" d="M0,0h70.242v70.242H0V0z"/>
	</g>
</g>
</svg>
