<?xml version="1.0" encoding="utf-8"?>
<!-- Generator: Adobe Illustrator 16.0.0, SVG Export Plug-In . SVG Version: 6.00 Build 0)  -->
<!DOCTYPE svg PUBLIC "-//W3C//DTD SVG 1.1//EN" "http://www.w3.org/Graphics/SVG/1.1/DTD/svg11.dtd">
<svg version="1.1" id="Layer_1" xmlns="http://www.w3.org/2000/svg" xmlns:xlink="http://www.w3.org/1999/xlink" x="0px" y="0px"
	 width="427.42px" height="309.678px" viewBox="0 0 427.42 309.678" enable-background="new 0 0 427.42 309.678"
	 xml:space="preserve">
<g>
	<path fill="#333333" d="M83.616,127.419H43.078c-3.081,0-5.027-2.107-5.027-5.351c0-0.974,0.162-2.108,0.811-3.081l40.053-78.97
		c1.459-2.757,3.729-3.892,6.162-3.892c2.595,0,6.648,2.107,6.648,5.351c0,0.812-0.162,1.46-0.648,2.271l-35.513,70.699h28.053
		V87.205c0-3.242,3.405-4.702,6.811-4.702s6.811,1.46,6.811,4.702v27.242h8.595c3.243,0,4.864,3.243,4.864,6.486
		s-2.107,6.486-4.864,6.486h-8.595v22.377c0,3.244-3.405,4.865-6.811,4.865s-6.811-1.621-6.811-4.865V127.419z"/>
	<path fill="#333333" d="M362.287,127.419h-40.538c-3.081,0-5.027-2.107-5.027-5.351c0-0.974,0.162-2.108,0.811-3.081l40.053-78.97
		c1.459-2.757,3.729-3.892,6.162-3.892c2.595,0,6.648,2.107,6.648,5.351c0,0.812-0.162,1.46-0.648,2.271l-35.513,70.699h28.053
		V87.205c0-3.242,3.405-4.702,6.811-4.702s6.811,1.46,6.811,4.702v27.242h8.595c3.243,0,4.864,3.243,4.864,6.486
		s-2.107,6.486-4.864,6.486h-8.595v22.377c0,3.244-3.405,4.865-6.811,4.865s-6.811-1.621-6.811-4.865V127.419z"/>
	<path fill="#CE0649" d="M234.94,138.846c0,2.057-0.604,2.631-0.808,2.818c-1.727,1.643-7.457,1.354-13.006,1.078
		c-2.631-0.137-5.619-0.283-8.687-0.283c-3.069,0-6.058,0.146-8.69,0.283c-5.543,0.275-11.277,0.564-13.004-1.078
		c-0.197-0.188-0.807-0.764-0.807-2.818c0-3.857,2.195-7.561,6.176-10.424c2.309-1.658,5.045-2.918,8.035-3.729v4.01
		c0,1.855,1.504,3.359,3.36,3.359s3.36-1.504,3.36-3.359v-5.051c0.521-0.025,1.041-0.041,1.569-0.041
		c6.205,0,12.007,1.709,16.321,4.811C232.748,131.285,234.94,134.988,234.94,138.846z"/>
	<path fill="#F9C5EE" d="M278.025,98.77c5.159,1.471,8.955,6.219,8.955,11.846c0,5.621-3.796,10.373-8.955,11.842V98.77z"/>
	<path fill="#F9C5EE" d="M146.854,98.77v23.686c-5.16-1.465-8.949-6.219-8.949-11.84C137.904,104.988,141.693,100.238,146.854,98.77
		z"/>
	<path fill="#FCD9EB" d="M271.305,89.066v35.031c0,14.75-5.398,24.953-16.51,31.193c-9.487,5.328-23.345,7.92-42.354,7.92
		c-9.504,0-17.725-0.648-24.749-1.961c-7.027-1.316-12.863-3.297-17.608-5.959c-11.111-6.24-16.51-16.443-16.51-31.193V89.066
		c0-26.584,17.716-49.102,41.954-56.389c18.466,0.236,28.305,13.566,28.305,23.223c0,7.389-6.018,13.406-13.409,13.406
		c-5.544,0-10.052-4.512-10.052-10.057c0-4.064,3.305-7.373,7.367-7.373c1.855,0,3.359-1.504,3.359-3.359
		c0-1.852-1.504-3.361-3.359-3.361c-7.768,0-14.088,6.324-14.088,14.094c0,9.25,7.524,16.773,16.772,16.773
		c11.097,0,20.129-9.025,20.129-20.123c0-6.977-3.505-14.475-9.374-20.068c-2.347-2.238-5.017-4.119-7.93-5.623
		C245.336,30.643,271.305,56.877,271.305,89.066z M257.401,111.236c1.315-1.312,1.315-3.439,0-4.752
		c-2.473-2.475-5.765-3.838-9.265-3.838c-3.502,0-6.797,1.363-9.271,3.838c-1.312,1.312-1.312,3.439,0,4.752
		c1.313,1.311,3.437,1.311,4.753,0c1.205-1.211,2.808-1.873,4.518-1.873c1.703,0,3.313,0.662,4.517,1.873
		c0.657,0.654,1.515,0.982,2.377,0.982C255.889,112.219,256.748,111.891,257.401,111.236z M238.765,146.537
		c1.917-1.828,2.89-4.412,2.89-7.691c0-6.076-3.186-11.717-8.971-15.879c-5.449-3.916-12.639-6.074-20.243-6.074
		s-14.797,2.158-20.247,6.074c-5.785,4.162-8.971,9.803-8.971,15.879c0,3.277,0.973,5.863,2.895,7.689
		c2.668,2.535,6.532,3.146,11.322,3.146c2.053,0,4.272-0.113,6.646-0.232c2.682-0.135,5.453-0.271,8.354-0.271
		s5.675,0.137,8.351,0.271C228.703,149.85,234.947,150.16,238.765,146.537z M186.016,111.234c1.307-1.314,1.307-3.439,0-4.75
		c-5.113-5.113-13.43-5.113-18.539,0c-1.312,1.311-1.312,3.438,0,4.75c1.309,1.312,3.438,1.312,4.748,0
		c2.494-2.492,6.545-2.492,9.039,0c0.656,0.656,1.51,0.984,2.373,0.984C184.499,112.219,185.36,111.891,186.016,111.234z"/>
	<path fill="#333333" d="M278.025,91.887c8.896,1.594,15.672,9.381,15.672,18.729c0,9.426-6.893,17.27-15.9,18.768
		c-1.268,14.449-7.882,25.121-19.715,31.766c-10.518,5.908-25.447,8.779-45.642,8.779c-20.192,0-35.123-2.871-45.645-8.779
		c-11.834-6.643-18.442-17.314-19.712-31.766c-9.01-1.498-15.902-9.342-15.902-18.768c0-9.35,6.775-17.135,15.672-18.729v-2.82
		c0-36.164,29.423-65.588,65.587-65.588c36.161,0,65.585,29.424,65.585,65.588V91.887z M286.98,110.615
		c0-5.627-3.796-10.375-8.955-11.846v23.688C283.185,120.988,286.98,116.236,286.98,110.615z M271.305,124.098V89.066
		c0-32.189-25.969-58.424-58.057-58.857c2.913,1.504,5.583,3.385,7.93,5.623c5.869,5.594,9.374,13.092,9.374,20.068
		c0,11.098-9.032,20.123-20.129,20.123c-9.248,0-16.772-7.523-16.772-16.773c0-7.77,6.32-14.094,14.088-14.094
		c1.855,0,3.359,1.51,3.359,3.361c0,1.855-1.504,3.359-3.359,3.359c-4.062,0-7.367,3.309-7.367,7.373
		c0,5.545,4.508,10.057,10.052,10.057c7.392,0,13.409-6.018,13.409-13.406c0-9.656-9.839-22.986-28.305-23.223
		c-24.238,7.287-41.954,29.805-41.954,56.389v35.031c0,14.75,5.398,24.953,16.51,31.193c4.745,2.662,10.581,4.643,17.608,5.959
		c7.024,1.312,15.245,1.961,24.749,1.961c19.01,0,32.867-2.592,42.354-7.92C265.906,149.051,271.305,138.848,271.305,124.098z
		 M146.854,122.455V98.77c-5.16,1.469-8.949,6.219-8.949,11.846C137.904,116.236,141.693,120.99,146.854,122.455z"/>
	<path fill="#333333" d="M257.401,106.484c1.315,1.312,1.315,3.439,0,4.752c-0.653,0.654-1.513,0.982-2.371,0.982
		c-0.862,0-1.72-0.328-2.377-0.982c-1.203-1.211-2.813-1.873-4.517-1.873c-1.71,0-3.312,0.662-4.518,1.873
		c-1.316,1.311-3.439,1.311-4.753,0c-1.312-1.312-1.312-3.439,0-4.752c2.474-2.475,5.769-3.838,9.271-3.838
		C251.637,102.646,254.929,104.01,257.401,106.484z"/>
	<path fill="#333333" d="M186.016,106.484c1.307,1.311,1.307,3.436,0,4.75c-0.655,0.656-1.517,0.984-2.379,0.984
		c-0.863,0-1.717-0.328-2.373-0.984c-2.494-2.492-6.545-2.492-9.039,0c-1.31,1.312-3.439,1.312-4.748,0
		c-1.312-1.312-1.312-3.439,0-4.75C172.586,101.371,180.902,101.371,186.016,106.484z"/>
	<path fill="#333333" d="M232.684,122.967c-5.449-3.916-12.639-6.074-20.243-6.074c-1.847,0-3.662,0.125-5.44,0.379
		c-5.554,0.77-10.68,2.729-14.807,5.695c-5.785,4.162-8.971,9.803-8.971,15.879c0,3.277,0.973,5.863,2.895,7.689
		c2.668,2.535,6.532,3.146,11.322,3.146c2.053,0,4.272-0.113,6.646-0.232c2.682-0.135,5.453-0.271,8.354-0.271
		s5.675,0.137,8.351,0.271c7.912,0.4,14.156,0.711,17.974-2.912c1.917-1.828,2.89-4.412,2.89-7.691
		C241.654,132.77,238.469,127.129,232.684,122.967z M234.133,141.664c-1.727,1.643-7.457,1.354-13.006,1.078
		c-2.631-0.137-5.619-0.283-8.687-0.283c-3.069,0-6.058,0.146-8.69,0.283c-5.543,0.275-11.277,0.564-13.004-1.078
		c-0.197-0.188-0.807-0.764-0.807-2.818c0-3.857,2.195-7.561,6.176-10.424c2.309-1.658,5.045-2.922,8.035-3.732
		c2.129-0.578,4.387-0.932,6.721-1.043c0.521-0.023,1.041-0.035,1.569-0.035c6.205,0,12.007,1.709,16.321,4.811
		c3.986,2.863,6.179,6.566,6.179,10.424C234.94,140.902,234.336,141.477,234.133,141.664z"/>
	<path fill="#FFFFFF" d="M210.871,123.646v5.057c0,1.855-1.504,3.359-3.36,3.359s-3.36-1.504-3.36-3.359v-4.014
		C206.279,124.111,208.537,123.758,210.871,123.646z"/>
	<path fill="#333333" d="M155.119,261.378c-2.205-9.806-17.258-1.759-19.924-13.614c-1.611-7.17,3.863-10.4,8.693-11.486
		c3.463-0.779,8.768-0.895,9.262,1.301c0.176,0.781-0.131,2.387-1.252,2.64c-1.121,0.252-2.953-1.284-7.197-0.329
		c-3.611,0.811-6.34,2.808-5.496,6.563c1.855,8.245,16.939,0.343,19.924,13.614c1.568,6.977-2.184,11.253-8.379,12.646
		c-6.293,1.414-11.111-1.09-11.582-3.188c-0.221-0.977,0.371-2.443,1.299-2.651c1.463-0.329,3.475,3.371,9.23,2.077
		C153.795,268.029,156.029,265.426,155.119,261.378z"/>
	<path fill="#333333" d="M167.146,254.186v-15.051c0-7.951,4.7-10.9,10.751-10.9c6.05,0,10.801,2.949,10.801,10.9v15.051
		c0,7.949-4.751,10.9-10.801,10.9C171.847,265.086,167.146,262.135,167.146,254.186z M184.498,239.135
		c0-4.852-2.5-7.102-6.601-7.102s-6.552,2.25-6.552,7.102v15.051c0,4.85,2.451,7.1,6.552,7.1s6.601-2.25,6.601-7.1V239.135z"/>
	<path fill="#333333" d="M198.946,237.623c0-0.75,0.601-1.4,1.501-1.449h9.15c6.049,0,11.101,2.398,11.101,10
		c0,6.1-3.251,8.9-7.45,9.75l7.4,14.051c0.148,0.25,0.199,0.5,0.199,0.701c0,1.1-1.3,2.148-2.5,2.148c-0.85,0-1.45-0.799-1.9-1.648
		l-7.55-14.652h-5.751v14.701c0,1-1.05,1.5-2.1,1.5c-1.049,0-2.101-0.5-2.101-1.5V237.623z M203.146,239.973v13.051h6.451
		c4.15,0,6.9-1.799,6.9-6.551c0-4.699-2.75-6.5-6.9-6.5H203.146z"/>
	<path fill="#333333" d="M249.998,271.225c0,1-1.051,1.5-2.101,1.5s-2.101-0.5-2.101-1.5v-14.701h-5.75l-7.551,14.652
		c-0.449,0.85-1.05,1.648-1.899,1.648c-1.2,0-2.5-1.049-2.5-2.148c0-0.201,0.05-0.451,0.199-0.701l7.4-14.051
		c-4.2-0.85-7.45-3.65-7.45-9.75c0-7.602,5.051-10,11.1-10h9.152c0.899,0.049,1.5,0.699,1.5,1.449V271.225z M239.346,239.973
		c-4.15,0-6.899,1.801-6.899,6.5c0,4.752,2.749,6.551,6.899,6.551h6.451v-13.051H239.346z"/>
	<path fill="#333333" d="M266.02,252.949c0.011-0.197-0.03-0.352-0.123-0.507l-9.252-19.851c-0.131-0.357-0.164-0.66-0.152-0.859
		c0.059-1.049,1.545-1.666,2.595-1.607c0.698,0.039,1.077,0.41,1.437,1.182l7.824,17.617l9.699-16.633
		c0.441-0.727,0.91-1.051,1.559-1.015c1.1,0.062,2.457,0.839,2.398,1.888c-0.012,0.199-0.078,0.496-0.248,0.838l-11.416,18.689
		c-0.107,0.145-0.115,0.295-0.127,0.494l-0.709,12.63c-0.057,0.999-1.133,1.438-2.182,1.38s-2.068-0.617-2.012-1.615L266.02,252.949
		z"/>
	<path fill="#333333" d="M299.391,273.439c0,1.77-1.51,3.41-3.346,3.41c-1.968,0-3.476-1.641-3.476-3.41
		c0-1.904,1.508-3.478,3.476-3.478C297.881,269.962,299.391,271.535,299.391,273.439z M298.145,263.205
		c0,1.182-1.312,1.771-2.165,1.771c-1.114,0-2.165-0.59-2.165-1.771c0-10.232-0.787-22.367-0.787-32.536
		c0-1.835,1.246-2.821,2.952-2.821c1.573,0,2.95,0.986,2.95,2.821C298.93,240.838,298.145,252.973,298.145,263.205z"/>
</g>
</svg>
