<?xml version="1.0" encoding="utf-8"?>
<!-- Generator: Adobe Illustrator 19.0.0, SVG Export Plug-In . SVG Version: 6.00 Build 0)  -->
<svg version="1.1" id="Layer_1" xmlns="http://www.w3.org/2000/svg" xmlns:xlink="http://www.w3.org/1999/xlink" x="0px" y="0px"
	 viewBox="0 0 400 400" style="enable-background:new 0 0 400 400;" xml:space="preserve">
<style type="text/css">
	.st0{fill:#CCCCCC;}
</style>
<g id="XMLID_14_">
	<path id="XMLID_18_" class="st0" d="M372.9,52.6c-1.2,0.5-2.9,0.8-4.8,0.7c-1.9,0-3.7-0.3-5-0.7c-0.5-0.2-1-0.4-1.3-0.6
		c-0.6-0.4-0.4-0.6-0.4-0.8c0.7-1.3,0.9-2.3,0.5-3c-0.5-1.1-1.8-1.4-3.1-1.6c-0.9-0.2-1.9-0.4-2.4-0.9c-0.3-0.3-0.2-0.4-0.2-0.5
		c0.1-0.6,1.4-1.3,2.3-1.6c0.3-0.1,0.5-0.4,0.5-0.7c0-0.1,0-0.2,0-0.3c-0.2-0.4-0.6-0.6-1-0.5c-0.5,0.2-3,1.1-3.3,2.8
		c-0.1,0.5-0.1,1.2,0.6,1.9c0.8,0.9,2.1,1.1,3.3,1.3c0.8,0.2,1.8,0.3,1.9,0.7c0,0.1,0.1,0.5-0.5,1.6c-0.4,0.8-0.4,1.6,0.1,2.2
		c-1.8,0.1-3.2,1.7-3.2,3.5v15.6c0,1.9,1.6,3.5,3.5,3.5h15.6c1.9,0,3.5-1.6,3.5-3.5V56.1c0-1.9-1.6-3.5-3.5-3.5h-0.5
		c0.6-0.9,1-2.4-0.8-4.7c-2.2-2.8-1.9-3.5-1.9-3.5c0.3-0.4,2.6-0.1,4.7,0.6c0.4,0.2,0.9-0.1,1-0.5c0.2-0.4-0.1-0.9-0.5-1
		c-1.2-0.4-5.3-1.8-6.6,0c-0.1,0.1-0.1,0.2-0.2,0.3c-0.5,1.1,0.1,2.7,2.1,5.1c1.5,1.9,0.8,2.7,0.6,2.9
		C373.8,52.1,373.4,52.4,372.9,52.6z M376.1,54.2c1,0,1.9,0.8,1.9,1.9v15.6c0,1-0.8,1.9-1.9,1.9h-15.6c-1,0-1.9-0.8-1.9-1.9V56.1
		c0-1,0.8-1.9,1.9-1.9h2.4c1.5,0.5,3.5,0.7,5.4,0.7c1.8,0,3.5-0.2,4.9-0.7H376.1z"/>
	<path id="XMLID_21_" class="st0" d="M387.4,265.6c0-0.7-0.1-1.3-0.4-1.9c0.5-0.6,0.7-1.4,0.7-2.2c0-1.9-1.6-3.5-3.5-3.5
		c-1.2,0-2.3,0.6-2.9,1.6c-0.5-0.1-1.1-0.1-1.6,0c-0.6-1-1.7-1.6-2.9-1.6c-1.9,0-3.5,1.6-3.5,3.5c0,0.8,0.3,1.6,0.8,2.2
		c-0.2,0.6-0.4,1.3-0.4,1.9c0,3.3,3.1,6,6.8,6C384.3,271.7,387.4,269,387.4,265.6z M375.4,265.6c0-0.6,0.1-1.2,0.4-1.7l0.3-0.6
		l-0.5-0.4c-0.4-0.4-0.6-0.9-0.6-1.4c0-1,0.8-1.9,1.9-1.9c0.8,0,1.4,0.5,1.7,1.2l0.2,0.6l0.6-0.1c0.7-0.1,1.5-0.1,2.2,0l0.6,0.1
		l0.2-0.6c0.3-0.7,1-1.2,1.7-1.2c1,0,1.9,0.8,1.9,1.9c0,0.5-0.2,1-0.6,1.4l-0.5,0.4l0.3,0.6c0.3,0.5,0.4,1.1,0.4,1.7
		c0,2.4-2.3,4.4-5.2,4.4C377.7,270,375.4,268.1,375.4,265.6z"/>
	<path id="XMLID_24_" class="st0" d="M370.3,330.3c-1,0-1.8,0.6-1.8,1.3v7.9c0,0.8,0.8,1.3,1.8,1.3h8.6c1,0,1.8-0.6,1.8-1.3v-7.9
		c0-0.8-0.8-1.3-1.8-1.3H370.3z M379.1,339.2c0,0-0.1,0-0.2,0h-8.6c-0.1,0-0.1,0-0.2,0v-7.3c0.1,0,0.1,0,0.2,0h8.6
		c0.1,0,0.1,0,0.2,0V339.2z"/>
	<path id="XMLID_27_" class="st0" d="M215.4,397.4c0,1-0.4,1.9-1,2.6h2c0.4-0.7,0.7-1.6,0.7-2.5l0.9-4.9c2.1-2.1-4.1-3.5-5.2-3.6
		c-3-0.2-6.1,0.4-9.2,0.6c-4.1,0.3-8-1.1-12-1.8c-0.1,0-0.3,0-0.4,0c-1.5-0.4-3-0.7-4.5-0.8c-0.9-0.1-1.1,1-0.6,1.5
		c0,0.1,0,0.2,0,0.3l1.1,8.8c0,0.9,0.3,1.8,0.7,2.5h2c-0.6-0.7-1-1.6-1-2.6l-1-8.6c6.9,1,13.1,4.5,20.1,5.2c2.1,0.2,5.8,0.4,8.3-0.4
		l-0.7,3.7L215.4,397.4z M214.2,392c-3.7,0.5-7.4,0.3-11.1-0.6c-0.2,0-0.4-0.1-0.5-0.1c1.1,0,2.3,0,3.4-0.1c1.3-0.1,2.6-0.3,3.8-0.3
		c1-0.1,1.9-0.1,2.9-0.1c1,0,2,0.2,2.9,0.6c0.2,0.1,0.3,0.1,0.5,0.2C216.2,391.6,214.5,392,214.2,392z"/>
	<path id="XMLID_30_" class="st0" d="M129.7,386c0-1.4-1.1-2.5-2.5-2.5c-1.4,0-2.5,1.1-2.5,2.5c0,1.1,0.7,2.1,1.7,2.4v1.8h-25.7
		v-1.8c1-0.3,1.7-1.3,1.7-2.4c0-1.4-1.1-2.5-2.5-2.5c-1.4,0-2.5,1.1-2.5,2.5c0,1.1,0.7,2.1,1.7,2.4V400h1.6v-8.3h5v8.3h1.6v-8.3h5.4
		v8.3h1.6v-8.3h5.4v8.3h1.6v-8.3h5v8.3h1.6v-11.6C128.9,388,129.7,387.1,129.7,386z M99.8,386.9c-0.5,0-0.9-0.4-0.9-0.9
		c0-0.5,0.4-0.9,0.9-0.9c0.5,0,0.9,0.4,0.9,0.9C100.7,386.5,100.3,386.9,99.8,386.9z M127.1,386.9c-0.5,0-0.9-0.4-0.9-0.9
		c0-0.5,0.4-0.9,0.9-0.9c0.5,0,0.9,0.4,0.9,0.9C128.1,386.5,127.6,386.9,127.1,386.9z"/>
	<path id="XMLID_34_" class="st0" d="M384.8,275.4c2.4,0,6.5,0,6.5-4.2v-21.9c0-3.6-2.9-6.5-6.5-6.5h-8.3c-3.6,0-6.5,2.9-6.5,6.5
		v21.9c0,4.2,4.1,4.2,6.5,4.2H384.8z M371.6,271.2v-21.9c0-2.7,2.2-4.9,4.9-4.9h8.3c2.7,0,4.9,2.2,4.9,4.9v21.9c0,2-1.1,2.6-4.9,2.6
		h-8.3C372.7,273.8,371.6,273.2,371.6,271.2z"/>
	<path id="XMLID_35_" class="st0" d="M359,326.6c0,0.4,0.4,0.8,0.8,0.8h1.6v1c0,0.4,0.4,0.8,0.8,0.8c0.4,0,0.8-0.4,0.8-0.8v-1h16
		c0.4,0,0.8-0.4,0.8-0.8c0-0.4-0.4-0.8-0.8-0.8h-19.2C359.3,325.8,359,326.1,359,326.6z"/>
	<path id="XMLID_36_" class="st0" d="M300.8,395.7c0-1.9,1.4-3.7,3.5-4.4l0.3-0.1l0.1-0.3c0.5-1,1-1.6,1.6-1.7
		c1.4-0.3,1.9-0.4,2.6-0.4c-0.1,0.3-0.2,0.8-0.6,1.6l-0.3,0.6l0.7,0.2c1.5,0.5,2.6,1.6,3.1,2.9l0.2,0.6l0.6-0.2
		c1.1-0.3,1.3-0.5,1.4-0.5c0.2-0.1,0.4-0.3,0.6-0.6c0.2-0.3,0.5-0.6,0.9-0.9c-0.2,1-0.5,2.1-0.9,2.5l-0.5,0.5l0.5,0.5
		c0.5,0.4,0.8,1.5,0.9,2.5c-0.4-0.2-0.6-0.6-0.9-0.9c-0.2-0.3-0.4-0.5-0.6-0.6c-0.1-0.1-0.4-0.2-1.4-0.5l-0.6-0.2l-0.2,0.6
		c-0.5,1.2-1.5,2.2-2.9,2.8h2.5c0.6-0.5,1-1.1,1.4-1.8c0.4,0.1,0.5,0.2,0.5,0.2c0,0,0.1,0.2,0.2,0.3c0.3,0.4,0.7,0.9,1.4,1.3h2
		l0-0.3c0-0.3-0.2-2.6-1.1-4c0.9-1.4,1-3.7,1.1-4l0-0.8l-0.8,0.1c-1.4,0.2-2.1,1.1-2.6,1.7c-0.1,0.1-0.2,0.2-0.2,0.2
		c0,0-0.2,0.1-0.6,0.2c-0.6-1.2-1.7-2.2-3-2.8c0.6-1.6,0.5-2.2,0.3-2.5c-0.2-0.3-0.5-0.4-0.8-0.4c-1,0-1.6,0.1-3.3,0.5
		c-0.9,0.2-1.7,1-2.4,2.2c-2.6,1-4.2,3.1-4.2,5.6c0,1.6,0.7,3.2,2,4.3h2.5C302.1,399.2,300.8,397.6,300.8,395.7z"/>
	<path id="XMLID_37_" class="st0" d="M316,384.4h-0.5c0.6-0.9,1-2.4-0.8-4.7c-2.2-2.8-1.9-3.5-1.9-3.5c0.3-0.4,2.6-0.1,4.7,0.6
		c0.4,0.2,0.9-0.1,1-0.5c0.2-0.4-0.1-0.9-0.5-1c-1.2-0.4-5.3-1.8-6.6,0c-0.1,0.1-0.1,0.2-0.2,0.3c-0.5,1.1,0.1,2.7,2.1,5.1
		c1.5,1.9,0.8,2.7,0.6,2.9c-0.3,0.3-0.7,0.5-1.1,0.7c-1.2,0.5-2.9,0.8-4.8,0.7c-1.9,0-3.7-0.3-5-0.7c-0.5-0.2-1-0.4-1.3-0.6
		c-0.6-0.4-0.4-0.6-0.4-0.8c0.7-1.3,0.9-2.3,0.5-3c-0.5-1.1-1.8-1.3-3.1-1.6c-0.9-0.2-1.9-0.4-2.4-0.9c-0.3-0.3-0.2-0.4-0.2-0.5
		c0.1-0.6,1.4-1.3,2.3-1.6c0.3-0.1,0.5-0.4,0.5-0.7c0-0.1,0-0.2,0-0.3c-0.2-0.4-0.6-0.6-1-0.5c-0.5,0.2-3,1.1-3.3,2.8
		c-0.1,0.5-0.1,1.2,0.6,1.9c0.8,0.9,2.1,1.1,3.3,1.3c0.8,0.2,1.8,0.3,1.9,0.7c0,0.1,0.1,0.5-0.5,1.6c-0.4,0.8-0.4,1.6,0.1,2.2
		c-1.8,0.1-3.2,1.6-3.2,3.5V400h1.6v-12.1c0-1,0.8-1.9,1.9-1.9h2.4c1.5,0.5,3.5,0.7,5.4,0.7c1.8,0,3.5-0.2,4.9-0.7h2.9
		c1,0,1.9,0.8,1.9,1.9V400h1.6v-12.1C319.5,386,317.9,384.4,316,384.4z"/>
	<path id="XMLID_40_" class="st0" d="M365.1,330.3h-4.7c-0.7,0-1.3,0.6-1.3,1.3v7.9c0,0.7,0.6,1.3,1.3,1.3h4.7
		c0.7,0,1.3-0.6,1.3-1.3v-7.9C366.4,330.9,365.8,330.3,365.1,330.3z M364.8,339.3h-4.1v-3.7c1.4,0.3,2.7,0.4,4.1,0.2V339.3z
		 M364.8,334.2c-0.1,0-0.1,0-0.2,0c-1.3,0.3-2.6,0.1-3.9-0.2v-2h4.1V334.2z"/>
	<path id="XMLID_44_" class="st0" d="M358.6,321.1h-0.4c-1.9,0-3.5,1.6-3.5,3.5v15.2c0,1.9,1.6,3.5,3.5,3.5h22.4
		c1.9,0,3.5-1.6,3.5-3.5v-15.2c0-1.9-1.6-3.5-3.5-3.5H379c-1.1-5.4-4-10.4-10.3-10.4C363.5,310.8,359.7,316.1,358.6,321.1z
		 M376.8,324c0.1,0.3,0.4,0.6,0.8,0.6c0.2,0,0.5,0,0.7,0c0.5,0.2,1.2,0,1.1-0.7v0c0,0,0-0.1,0-0.1c0-0.4-0.1-0.7-0.1-1.1h1.3
		c1,0,1.9,0.8,1.9,1.9v15.2h0c0,1-0.8,1.9-1.9,1.9h-22.4c-1,0-1.9-0.8-1.9-1.9v-15.2c0-1,0.8-1.9,1.9-1.9h0.2c0,0.3,0,0.5-0.1,0.8
		c-0.1,0.2,0.8,1.4,1.3,1.1c0.8-0.3,1.3-1,1.5-1.8h15.6C376.7,323.1,376.8,323.5,376.8,324z M376.4,321.1h-15.1
		c0-0.4,0.1-0.9,0.1-1.3c3.4-4.7,11.1-5,14.6-0.6C376.2,319.8,376.3,320.4,376.4,321.1z M376,316.8c-3.9-3.2-10.1-3.1-14,0.1
		c1.6-2.5,3.9-4.4,6.8-4.7C372.3,312,374.6,314.1,376,316.8z"/>
	<path id="XMLID_47_" class="st0" d="M303.8,393.7c-1.2,0-1.2,1.9,0,1.9C305,395.6,305,393.7,303.8,393.7z"/>
	<path id="XMLID_50_" class="st0" d="M329.2,154.8c1.9-1.5,4.5-1.7,3.9-4.8c-0.2-1.1-1.9-0.6-1.7,0.5c0.4,1.9-3.3,2.4-4.1,3.9
		c-0.4,0.7-0.3,1.8,0.2,2.5c0.6,0.9,2.1,1.7,1.1,2.7c-0.1,0-4.9,2-11.7,2c-4,0-7.9-0.7-11.6-2c0,0,0,0,0,0c-1-0.7-2.3-1.8-2.2-3
		c0.1-1.3,1.1-1.9,2.2-2.3c1.4-0.5,2.9-0.9,3.9-2.1c0.7-0.9-0.5-2.1-1.2-1.2c-1.6,1.8-5,1.4-6.1,3.8c-1.2,2.6,0.4,4.6,2.4,6.2v6.2
		c0,6.3,5.1,11.3,11.3,11.3h2.8c6.3,0,11.3-5.1,11.3-11.3v-6.2c0.8-0.7,1.5-1.6,1-2.7C330.2,157.2,328,155.7,329.2,154.8z
		 M328.1,167.1c0,5.4-4.4,9.7-9.7,9.7h-2.8c-5.4,0-9.7-4.4-9.7-9.7v-5.7c3.5,1.1,7.2,1.7,11,1.7c5.3,0,9.3-1.1,11.2-1.7V167.1z"/>
	<path id="XMLID_51_" class="st0" d="M374.6,334c-0.4,0-0.8,0.1-1.1,0.4c-0.6,0.6-0.6,1.6,0,2.2c0.3,0.3,0.7,0.4,1.1,0.4
		c0.4,0,0.8-0.2,1.1-0.4c0.6-0.6,0.6-1.6,0-2.2C375.4,334.2,375,334,374.6,334z"/>
	<path id="XMLID_52_" class="st0" d="M376.7,1c0,0,0.1,0,0.1,0c0.4,0,0.7-0.3,0.8-0.7c0-0.1,0-0.2,0-0.4h-1.6c0,0,0,0,0,0.1
		C376,0.5,376.3,0.9,376.7,1z"/>
	<path id="XMLID_55_" class="st0" d="M32.1,378.7c0.3-0.1,0.4-0.4,0.4-0.7c0-0.2-0.1-0.3-0.1-0.5l1.2-4.6c0.1-0.4-0.1-0.9-0.6-1
		c-0.4-0.1-0.9,0.1-1,0.6l-1.2,4.6H19.7c-0.4,0-0.8,0.4-0.8,0.8c0,0.4,0.4,0.8,0.8,0.8h1.1v3.1h-0.6c-0.4,0-0.7,0.3-0.8,0.7l-3,17.4
		h2.4l1.1-2.5h10.9l1.1,2.5h2.4l-3-17.3L32.1,378.7z M22.4,378.8h8.1l-0.8,3.1h-7.3V378.8z M18.7,395.9L18.7,395.9l2.1-12.3H24
		l-1.9,4.4c0,0,0,0,0,0L18.7,395.9z M20.4,395.9l2.9-6.9H27l2.9,6.9H20.4z M31.7,395.9L31.7,395.9l-3.5-8l0,0l-1.9-4.4h3.2
		L31.7,395.9z"/>
	<path id="XMLID_59_" class="st0" d="M382.7,0.4c0.1,0.4,0.4,0.7,0.8,0.7c0,0,0.1,0,0.1,0c0.4-0.1,0.7-0.5,0.6-0.9c0,0,0,0,0-0.1
		h-1.6C382.7,0.1,382.7,0.2,382.7,0.4z"/>
	<path id="XMLID_62_" class="st0" d="M302.8,33.2c0,2.2,1.6,4.1,3.7,4.5c-0.5,0.7-0.7,1.6-0.7,2.5c0,1.2,0.5,2.4,1.3,3.2
		c0.9,0.9,2,1.3,3.2,1.3c0.9,0,1.8-0.3,2.5-0.7c0.4,2.1,2.3,3.7,4.5,3.7c2.2,0,4.1-1.6,4.5-3.7c0.7,0.5,1.6,0.7,2.5,0.7
		c1.2,0,2.4-0.5,3.2-1.3c0.9-0.9,1.3-2,1.3-3.2c0-0.9-0.3-1.8-0.7-2.5c2.1-0.4,3.7-2.3,3.7-4.5c0-2.2-1.6-4-3.6-4.5
		c1.1-1.5,0.9-3-0.6-4.6l-0.2-0.2h-0.6c0.3-3.2,1.5-6.5,4.6-8.1c1-0.5,0.1-2-0.9-1.5c-3.7,1.8-5.1,5.7-5.5,9.6h-15
		c-0.4-3.8-1.8-7.8-5.5-9.6c-1-0.5-1.9,1-0.9,1.5c3.1,1.5,4.3,4.8,4.6,8.1h-0.9l-0.2,0.2c-1.5,1.5-1.8,3.1-0.6,4.6
		C304.3,29.2,302.8,31,302.8,33.2z M311.6,25.5h11.3V33c0,2.8-2.3,5.1-5.1,5.1h-1.2c-2.8,0-5.1-2.3-5.1-5.1V25.5z M307.4,30.3
		c0.2,0,0.4,0,0.6,0.1l0.7,0.1l0.6-1.3l-0.5-0.4c-0.2-0.1-0.3-0.2-0.4-0.4c-1.1-1.1-1.2-1.8-0.2-2.8h2.1V33c0,3.7,3,6.7,6.7,6.7h1.2
		c3.7,0,6.7-3,6.7-6.7v-7.5h2.1c0.9,1,0.9,1.7-0.2,2.8c-0.1,0.1-0.3,0.2-0.4,0.4l-0.5,0.4l0.6,1.4l0.7-0.1c0.2,0,0.4-0.1,0.6-0.1
		c1.6,0,3,1.3,3,3c0,1.6-1.3,3-3,3c-0.2,0-0.4,0-0.6-0.1l-0.7-0.1l-0.6,1.3l0.5,0.4c0.2,0.1,0.3,0.2,0.4,0.4
		c0.6,0.6,0.9,1.3,0.9,2.1c0,0.8-0.3,1.5-0.9,2.1c-0.6,0.6-1.3,0.9-2.1,0.9c-0.8,0-1.5-0.3-2.1-0.9c-0.1-0.1-0.2-0.3-0.4-0.4
		l-0.4-0.5l-1.4,0.6l0.1,0.7c0,0.2,0.1,0.4,0.1,0.6c0,1.6-1.3,3-3,3c-1.6,0-3-1.3-3-3c0-0.2,0-0.4,0.1-0.6l0.1-0.7l-1.3-0.6
		l-0.4,0.5c-0.1,0.2-0.2,0.3-0.4,0.4c-0.6,0.6-1.3,0.9-2.1,0.9c-0.8,0-1.5-0.3-2.1-0.9c-0.6-0.6-0.9-1.3-0.9-2.1
		c0-0.8,0.3-1.5,0.9-2.1c0.1-0.1,0.3-0.2,0.4-0.4l0.5-0.4l-0.6-1.4l-0.7,0.1c-0.2,0-0.4,0.1-0.6,0.1c-1.6,0-3-1.3-3-3
		C304.4,31.6,305.7,30.3,307.4,30.3z"/>
	<path id="XMLID_64_" class="st0" d="M363.9,61.9c-1.2,0-1.2,1.9,0,1.9C365.1,63.8,365.1,61.9,363.9,61.9z"/>
	<path id="XMLID_67_" class="st0" d="M313.1,31.8c0.7,2.1,3.5,3.6,3.8,3.8l0.4,0.2l0.4-0.2c0.3-0.2,3.1-1.7,3.8-3.7l0-0.1
		c0,0,0-0.1,0-0.1c0-0.2,0.1-0.3,0.1-0.5c0-0.1,0-0.2,0-0.3c0-1.6-1.3-2.9-2.9-2.9c-0.5,0-1,0.1-1.4,0.4c-0.4-0.2-0.9-0.4-1.4-0.4
		c-1.6,0-2.9,1.3-2.9,2.9c0,0.1,0,0.2,0,0.3c0,0.2,0,0.3,0.1,0.5C313.1,31.7,313.1,31.7,313.1,31.8L313.1,31.8z M314.6,31
		c0,0,0-0.1,0-0.1c0-0.7,0.6-1.3,1.3-1.3c0.3,0,0.6,0.1,0.9,0.3l0.6,0.5l0.6-0.5c0.2-0.2,0.5-0.3,0.9-0.3c0.7,0,1.3,0.6,1.3,1.3
		c0,0,0,0.1,0,0.1c0,0.1,0,0.1,0,0.2l0,0.1c-0.3,1.1-1.8,2.1-2.6,2.6c-0.8-0.5-2.3-1.5-2.6-2.6l-0.8,0.2l0.8-0.3
		C314.6,31.2,314.6,31.1,314.6,31z"/>
	<path id="XMLID_70_" class="st0" d="M369.9,58.6c0.6-1.6,0.5-2.2,0.3-2.5c-0.2-0.3-0.5-0.4-0.8-0.4c-1,0-1.6,0.1-3.3,0.5
		c-0.9,0.2-1.7,1-2.4,2.2c-2.6,1-4.2,3.1-4.2,5.6c0,2.5,1.6,4.6,4.2,5.6c0.6,1.2,1.4,1.9,2.4,2.1c1.7,0.4,2.3,0.5,3.3,0.5
		c0.3,0,0.6-0.1,0.8-0.4c0.2-0.3,0.3-0.9-0.3-2.5c1.3-0.6,2.3-1.6,2.9-2.8c0.4,0.1,0.5,0.2,0.5,0.2c0,0,0.1,0.2,0.2,0.3
		c0.4,0.5,1.2,1.5,2.6,1.7l0.8,0.1l0-0.8c0-0.3-0.2-2.6-1.1-4c0.9-1.3,1-3.7,1.1-4l0-0.8l-0.8,0.1c-1.4,0.2-2.1,1.1-2.6,1.7
		c-0.1,0.1-0.2,0.2-0.2,0.2c0,0-0.2,0.1-0.6,0.2C372.3,60.2,371.2,59.2,369.9,58.6z M374.1,62.3c0.2-0.1,0.4-0.3,0.6-0.6
		c0.2-0.3,0.5-0.6,0.9-0.9c-0.2,1-0.5,2.1-0.9,2.5l-0.5,0.5l0.5,0.5c0.5,0.4,0.8,1.5,0.9,2.5c-0.4-0.2-0.6-0.6-0.9-0.9
		c-0.2-0.3-0.4-0.5-0.6-0.6c-0.1-0.1-0.4-0.2-1.4-0.5l-0.6-0.2l-0.2,0.6c-0.5,1.3-1.6,2.3-3.1,2.9l-0.7,0.2l0.3,0.6
		c0.4,0.8,0.5,1.3,0.6,1.6c-0.7,0-1.2-0.1-2.6-0.4c-0.6-0.1-1.1-0.7-1.6-1.7l-0.1-0.3l-0.3-0.1c-2.2-0.7-3.6-2.5-3.6-4.4
		c0-1.9,1.4-3.7,3.5-4.4l0.3-0.1l0.1-0.3c0.5-1,1-1.6,1.6-1.7c1.4-0.3,1.9-0.4,2.6-0.4c-0.1,0.3-0.2,0.8-0.6,1.6l-0.3,0.6l0.7,0.2
		c1.5,0.5,2.6,1.6,3.1,2.9l0.2,0.6l0.6-0.2C373.8,62.5,374,62.4,374.1,62.3z"/>
	<path id="XMLID_71_" class="st0" d="M382.4,266.2c1.1,0,1.1-1.7,0-1.7C381.3,264.5,381.3,266.2,382.4,266.2z"/>
	<path id="XMLID_74_" class="st0" d="M376.9,334.6c-0.1,0-0.1,0-0.2,0c0,0,0,0,0,0c0,0,0.1-0.1,0.1-0.1c0.4-0.4,0.4-0.9,0-1.3
		c-0.4-0.4-0.9-0.4-1.3,0c0,0-0.1,0.1-0.1,0.1c0,0,0,0,0,0c0-0.1,0-0.1,0-0.2c0-0.5-0.4-0.9-0.9-0.9c-0.5,0-0.9,0.4-0.9,0.9
		c0,0.1,0,0.1,0,0.2c0,0,0,0,0,0c0,0-0.1-0.1-0.1-0.1c-0.4-0.4-0.9-0.4-1.3,0c-0.4,0.4-0.4,0.9,0,1.3c0,0,0.1,0.1,0.1,0.1
		c0,0,0,0,0,0c-0.1,0-0.1,0-0.2,0c-0.5,0-0.9,0.4-0.9,0.9c0,0.5,0.4,0.9,0.9,0.9c0.1,0,0.1,0,0.2,0c0,0,0,0,0,0c0,0-0.1,0.1-0.1,0.1
		c-0.4,0.4-0.4,0.9,0,1.3c0.4,0.4,0.9,0.4,1.3,0c0,0,0.1-0.1,0.1-0.1c0,0,0,0,0,0c0,0.1,0,0.1,0,0.2c0,0.5,0.4,0.9,0.9,0.9
		c0.5,0,0.9-0.4,0.9-0.9c0-0.1,0-0.1,0-0.2c0,0,0,0,0,0c0,0,0.1,0.1,0.1,0.1c0.4,0.4,0.9,0.4,1.3,0c0.4-0.4,0.4-0.9,0-1.3
		c0,0-0.1-0.1-0.1-0.1c0,0,0,0,0,0c0.1,0,0.1,0,0.2,0c0.5,0,0.9-0.4,0.9-0.9C377.8,335,377.4,334.6,376.9,334.6z M375.9,336.9
		c-0.4,0.4-0.8,0.6-1.4,0.6c-0.5,0-1-0.2-1.4-0.6c-0.4-0.4-0.6-0.8-0.6-1.4c0-0.5,0.2-1,0.6-1.4c0.4-0.4,0.8-0.6,1.4-0.6
		c0.5,0,1,0.2,1.4,0.6c0.4,0.4,0.6,0.8,0.6,1.4C376.5,336.1,376.3,336.6,375.9,336.9z"/>
	<path id="XMLID_77_" class="st0" d="M329.5,306c0.4,0,0.8-0.4,0.8-0.8v-20.4c0-0.4-0.4-0.8-0.8-0.8c-0.4,0-0.8,0.4-0.8,0.8v2h-29.3
		v-2c0-0.4-0.4-0.8-0.8-0.8c-0.4,0-0.8,0.4-0.8,0.8v20.4c0,0.4,0.4,0.8,0.8,0.8c0.4,0,0.8-0.4,0.8-0.8v-1.2h29.3v1.2
		C328.7,305.6,329,306,329.5,306z M322.7,288.4h5.9v10.8h-5.9V288.4z M314.8,288.4h6.3v10.8h-6.3V288.4z M306.9,288.4h6.3v10.8h-6.3
		V288.4z M299.3,288.4h5.9v10.8h-5.9V288.4z M299.3,302.3v-1.5h29.3v1.5H299.3z"/>
	<path id="XMLID_82_" class="st0" d="M378.8,264.6c-1.1,0-1.1,1.7,0,1.7C379.9,266.3,379.9,264.6,378.8,264.6z"/>
	<path id="XMLID_85_" class="st0" d="M380.7,254.6c3.8,0,6.9-2,6.9-4.6c0-2.6-3-4.6-6.9-4.6c-3.8,0-6.9,2-6.9,4.6
		C373.8,252.6,376.8,254.6,380.7,254.6z M380.7,247.1c2.8,0,5.2,1.4,5.2,3c0,1.6-2.4,3-5.2,3s-5.2-1.4-5.2-3
		C375.4,248.4,377.8,247.1,380.7,247.1z"/>
	<path id="XMLID_88_" class="st0" d="M298.1,92.1c0,8.8,7.2,16,16,16c8.8,0,16-7.2,16-16c0-8.8-7.2-16-16-16
		C305.2,76.1,298.1,83.3,298.1,92.1z M327.9,92.1c0,5.5-3.2,10.2-7.9,12.5c2.1-2.9,3.5-7.4,3.5-12.5c0-5.1-1.3-9.6-3.5-12.5
		C324.7,81.9,327.9,86.6,327.9,92.1z M314.1,78.3c4,0,7.3,6.3,7.3,13.9c0,7.5-3.4,13.8-7.3,13.8c-4,0-7.3-6.3-7.3-13.8
		C306.7,84.6,310.1,78.3,314.1,78.3z M308.1,79.6c-2.1,2.9-3.5,7.4-3.5,12.5c0,5.1,1.3,9.6,3.5,12.5c-4.6-2.2-7.9-7-7.9-12.5
		C300.2,86.6,303.4,81.9,308.1,79.6z"/>
	<path id="XMLID_93_" class="st0" d="M221.3,281.1c0-2.2-1.6-4-3.6-4.5c1.1-1.5,0.9-3-0.6-4.6l-0.2-0.2h-0.6
		c0.3-3.2,1.5-6.5,4.6-8.1c1-0.5,0.1-2-0.9-1.5c-3.7,1.8-5.1,5.7-5.5,9.6h-15c-0.4-3.8-1.8-7.8-5.5-9.6c-1-0.5-1.9,1-0.9,1.5
		c3.1,1.5,4.3,4.8,4.6,8.1h-0.9l-0.2,0.2c-1.5,1.5-1.8,3.1-0.6,4.6c-2.1,0.4-3.6,2.3-3.6,4.5c0,2.2,1.6,4.1,3.7,4.5
		c-0.5,0.7-0.8,1.6-0.8,2.5c0,1.2,0.5,2.4,1.3,3.2c0.9,0.9,2,1.3,3.2,1.3c0.9,0,1.8-0.3,2.5-0.7c0.4,2.1,2.3,3.7,4.5,3.7
		c2.2,0,4.1-1.6,4.5-3.7c0.7,0.5,1.6,0.7,2.5,0.7c1.2,0,2.4-0.5,3.2-1.3c0.9-0.9,1.3-2,1.3-3.2c0-0.9-0.3-1.8-0.7-2.5
		C219.7,285.1,221.3,283.3,221.3,281.1z M201.2,273.4h11.3v7.5c0,2.8-2.3,5.1-5.1,5.1h-1.2c-2.8,0-5.1-2.3-5.1-5.1V273.4z
		 M216.7,284.1c-0.2,0-0.4,0-0.6-0.1l-0.7-0.1l-0.6,1.3l0.5,0.4c0.2,0.1,0.3,0.2,0.4,0.4c0.6,0.6,0.9,1.3,0.9,2.1
		c0,0.8-0.3,1.5-0.9,2.1c-0.6,0.6-1.3,0.9-2.1,0.9c-0.8,0-1.5-0.3-2.1-0.9c-0.1-0.1-0.2-0.3-0.4-0.4l-0.4-0.5l-1.4,0.6l0.1,0.7
		c0,0.2,0.1,0.4,0.1,0.6c0,1.6-1.3,3-3,3c-1.6,0-3-1.3-3-3c0-0.2,0-0.4,0.1-0.6l0.1-0.7l-1.3-0.6l-0.4,0.5c-0.1,0.2-0.2,0.3-0.4,0.4
		c-0.6,0.6-1.3,0.9-2.1,0.9c-0.8,0-1.5-0.3-2.1-0.9c-0.6-0.6-0.9-1.3-0.9-2.1c0-0.8,0.3-1.5,0.9-2.1c0.1-0.1,0.3-0.2,0.4-0.4
		l0.5-0.4l-0.6-1.4l-0.7,0.1c-0.2,0-0.4,0.1-0.6,0.1c-1.6,0-3-1.3-3-3c0-1.6,1.3-3,3-3c0.2,0,0.4,0,0.6,0.1l0.7,0.1l0.6-1.3
		l-0.5-0.4c-0.2-0.1-0.3-0.2-0.4-0.4c-1.1-1.1-1.2-1.8-0.2-2.8h2.1v7.5c0,3.7,3,6.7,6.7,6.7h1.2c3.7,0,6.7-3,6.7-6.7v-7.5h2.1
		c0.9,1,0.9,1.7-0.2,2.8c-0.1,0.1-0.3,0.2-0.4,0.4l-0.5,0.4l0.6,1.4l0.7-0.1c0.2,0,0.4-0.1,0.6-0.1c1.6,0,3,1.3,3,3
		C219.7,282.7,218.4,284.1,216.7,284.1z"/>
	<path id="XMLID_97_" class="st0" d="M263.1,104.2c0.6,0.6,1.5,1,2.4,1c0.9,0,1.7-0.3,2.4-1c1.3-1.3,1.3-3.4,0-4.7
		c-0.6-0.6-1.5-1-2.4-1c-0.9,0-1.7,0.3-2.4,1C261.8,100.7,261.8,102.9,263.1,104.2z M265.5,99.3c0.7,0,1.3,0.3,1.8,0.7
		c1,1,1,2.6,0,3.6c-0.5,0.5-1.1,0.7-1.8,0.7c-0.7,0-1.3-0.3-1.8-0.7c-1-1-1-2.6,0-3.6C264.2,99.5,264.8,99.3,265.5,99.3z"/>
	<path id="XMLID_100_" class="st0" d="M242.1,337.4c1.4,0,2.7-0.5,3.9-1.3c1.7,0.5,3.6,0.6,5.3,0.1c1.1,0.8,2.4,1.2,3.7,1.2
		c3.5,0,6.4-2.9,6.4-6.4c0-1.8-0.8-3.6-2.2-4.8v0c0-3.5-1.8-6.7-4.7-8.7c0.7-1.1,1.1-2.4,1.1-3.7c0-0.3,0-0.6-0.1-0.9
		c1.5-0.6,2.5-2,2.5-3.6c0-2.2-1.8-3.9-3.9-3.9c-1.4,0-2.6,0.7-3.3,1.9c-1.3-0.4-2.6-0.4-3.9,0c-0.7-1.2-2-1.9-3.3-1.9
		c-2.2,0-3.9,1.8-3.9,3.9c0,1.6,1,3,2.5,3.6c0,0.3-0.1,0.6-0.1,0.9c0,1.3,0.4,2.6,1.1,3.7c-2.8,1.8-4.5,4.9-4.7,8.2
		c-1.7,1.2-2.8,3.2-2.8,5.3C235.7,334.5,238.6,337.4,242.1,337.4z M239.7,326.8c0.2-0.1,0.4-0.4,0.4-0.7c0-3.2,1.8-6.2,4.6-7.7
		c0.2-0.1,0.4-0.3,0.4-0.6c0-0.2,0-0.5-0.2-0.7c-0.8-1-1.3-2.2-1.3-3.4c0-0.4,0.1-0.8,0.2-1.3c0.1-0.2,0-0.4-0.1-0.6
		c-0.1-0.2-0.3-0.3-0.5-0.4c-1.1-0.2-1.9-1.1-1.9-2.3c0-1.3,1-2.3,2.3-2.3c1,0,1.8,0.6,2.2,1.6c0.1,0.2,0.2,0.4,0.4,0.5
		c0.2,0.1,0.4,0.1,0.6,0c1.3-0.6,2.8-0.6,4.1,0c0.2,0.1,0.4,0.1,0.6,0c0.2-0.1,0.4-0.3,0.4-0.5c0.3-0.9,1.2-1.6,2.2-1.6
		c1.3,0,2.3,1,2.3,2.3c0,1.1-0.8,2.1-1.9,2.3c-0.2,0-0.4,0.2-0.5,0.4c-0.1,0.2-0.2,0.4-0.1,0.6c0.1,0.4,0.2,0.8,0.2,1.3
		c0,1.3-0.5,2.5-1.3,3.4c-0.2,0.2-0.2,0.4-0.2,0.7c0,0.2,0.2,0.5,0.4,0.6c2.8,1.5,4.6,4.5,4.6,7.7c0,0.1,0,0.1,0,0.2l0,0.2
		c0,0.3,0.1,0.5,0.3,0.7c1.2,0.9,1.9,2.3,1.9,3.8c0,2.6-2.1,4.8-4.8,4.8c-1.1,0-2.1-0.4-3-1.1c-0.1-0.1-0.3-0.2-0.5-0.2
		c-0.1,0-0.1,0-0.2,0c-1.7,0.5-3.5,0.4-5.2-0.1c-0.3-0.1-0.6,0-0.8,0.2c-0.9,0.8-2,1.2-3.1,1.2c-2.6,0-4.8-2.1-4.8-4.8
		C237.3,329.3,238.2,327.7,239.7,326.8z"/>
	<path id="XMLID_101_" class="st0" d="M160.1,214.7c0.7-0.7,1.1-1.6,1.1-2.8c0-1.2-0.4-2.1-1.1-2.8c-0.7-0.7-1.7-1.1-2.8-1.1l-2.5,0
		c-1.3,0-2.4-0.5-3.3-1.4c-0.9-0.9-1.4-2-1.4-3.3l0-25c0-1.2-0.4-2.1-1.1-2.8c-0.7-0.7-1.7-1.1-2.8-1.1c-1.2,0-2.1,0.4-2.8,1.1
		c-0.7,0.7-1.1,1.7-1.1,2.8l0,25c0,3.6,1.2,6.5,3.6,8.9c2.4,2.4,5.4,3.6,8.9,3.6l2.5,0C158.4,215.7,159.3,215.4,160.1,214.7z"/>
	<path id="XMLID_102_" class="st0" d="M248.5,315.4h1.2c1,0,1-1.6,0-1.6h-1.2C247.4,313.8,247.4,315.4,248.5,315.4z"/>
	<path id="XMLID_103_" class="st0" d="M242.2,328.2c0.8,0.1,1.5,0.6,2,1.3c0.5,0.7,0.6,1.5,0.5,2.3c-0.1,0.4,0.2,0.9,0.6,0.9
		c0,0,0.1,0,0.1,0c0.4,0,0.7-0.3,0.8-0.7c0.2-1.2,0-2.5-0.8-3.5c-0.7-1-1.8-1.7-3-1.9c-0.4-0.1-0.9,0.2-0.9,0.7
		C241.5,327.7,241.8,328.1,242.2,328.2z"/>
	<path id="XMLID_106_" class="st0" d="M6.3,158.2V175c0,1,0.8,1.9,1.9,1.9H23c1,0,1.9-0.8,1.9-1.9v-16.8c0-1-0.8-1.9-1.9-1.9H8.2
		C7.2,156.3,6.3,157.1,6.3,158.2z M23.3,158.2V175c0,0.1-0.1,0.3-0.3,0.3H8.2c-0.1,0-0.3-0.1-0.3-0.3v-2.9h6.7
		c0.4,0,0.8-0.4,0.8-0.8c0-0.4-0.4-0.8-0.8-0.8H7.9v-2.2h6.7c0.4,0,0.8-0.4,0.8-0.8c0-0.4-0.4-0.8-0.8-0.8H7.9v-2.2h6.7
		c0.4,0,0.8-0.4,0.8-0.8c0-0.4-0.4-0.8-0.8-0.8H7.9v-4.8c0-0.1,0.1-0.3,0.3-0.3H23C23.1,157.9,23.3,158,23.3,158.2z"/>
	<path id="XMLID_109_" class="st0" d="M263.5,97.2c-0.7-0.4-1.8-0.3-2.4,0.3c-0.6,0.6-0.7,1.6-0.3,2.4c-0.8,0.2-1.5,1-1.5,1.9
		c0,0.9,0.6,1.7,1.5,1.9c-0.4,0.7-0.3,1.7,0.3,2.4c0.6,0.6,1.6,0.7,2.4,0.3c0.2,0.8,1,1.5,1.9,1.5c0.9,0,1.7-0.6,1.9-1.5
		c0.7,0.4,1.8,0.3,2.4-0.3c0.6-0.6,0.7-1.6,0.3-2.4c0.8-0.2,1.5-1,1.5-1.9c0-0.9-0.6-1.7-1.5-1.9c0.4-0.7,0.3-1.7-0.3-2.4
		c-0.6-0.6-1.6-0.7-2.4-0.3c-0.2-0.8-1-1.5-1.9-1.5C264.5,95.7,263.8,96.3,263.5,97.2z M266.6,97.7c0,0.1,0,0.2,0,0.2l0,0.3l0.6,0.3
		l0.2-0.3c0-0.1,0.1-0.1,0.1-0.2c0.4-0.4,1.2-0.4,1.6,0c0.5,0.4,0.5,1.2,0,1.6c-0.1,0.1-0.1,0.1-0.2,0.1l-0.2,0.2l0.3,0.6l0.3-0.1
		c0.1,0,0.1,0,0.2,0c0.6,0,1.2,0.5,1.2,1.2c0,0.6-0.5,1.2-1.2,1.2c-0.1,0-0.2,0-0.2,0l-0.3-0.1l-0.1,0.3l0.4,0.2l-0.4-0.1l-0.1,0.3
		l0.3,0.2c0.1,0,0.1,0.1,0.2,0.1c0.5,0.4,0.5,1.2,0,1.6c-0.4,0.4-1.2,0.4-1.6,0c-0.1-0.1-0.1-0.1-0.1-0.2l-0.2-0.3l-0.6,0.3l0.1,0.3
		c0,0.1,0,0.1,0,0.2c0,0.6-0.5,1.2-1.2,1.2c-0.6,0-1.2-0.5-1.2-1.2c0-0.1,0-0.1,0-0.2l0.1-0.3l-0.3-0.1l-0.2,0.4l0.1-0.4l-0.3-0.1
		l-0.2,0.3c0,0.1-0.1,0.1-0.1,0.2c-0.4,0.4-1.2,0.4-1.6,0c-0.4-0.4-0.4-1.2,0-1.6c0.1-0.1,0.1-0.1,0.2-0.1l0.3-0.2l-0.3-0.6
		l-0.3,0.1c-0.1,0-0.1,0-0.2,0c-0.6,0-1.2-0.5-1.2-1.2c0-0.6,0.5-1.1,1.2-1.1c0.1,0,0.1,0,0.2,0l0.3,0.1l0.1-0.3l-0.4-0.2l0.4,0.1
		l0.1-0.3l-0.3-0.2c-0.1,0-0.1-0.1-0.2-0.1c-0.4-0.5-0.4-1.2,0-1.6c0.4-0.4,1.2-0.4,1.6,0c0.1,0.1,0.1,0.1,0.1,0.2l0.2,0.3l0.7-0.3
		l-0.1-0.3c0-0.1,0-0.1,0-0.2c0-0.6,0.5-1.2,1.2-1.2C266.1,96.5,266.6,97,266.6,97.7z"/>
	<path id="XMLID_112_" class="st0" d="M280.6,86.5c-1.1-2.4-4.6-1.9-6.1-3.8c-0.7-0.9-2,0.4-1.2,1.2c1,1.2,2.4,1.6,3.9,2.1
		c1.1,0.4,2.1,0.9,2.2,2.3c0.1,1.2-1.2,2.3-2.2,3c0,0,0,0,0,0c-3.6,1.3-7.5,2-11.5,2c-6.8,0-11.6-1.9-11.7-2c-0.9-1,0.5-1.8,1.1-2.7
		c0.5-0.7,0.6-1.7,0.2-2.5c-0.8-1.5-4.5-2.1-4.1-3.9c0.2-1.1-1.5-1.6-1.7-0.5c-0.6,3,2,3.3,3.9,4.8c1.2,0.9-1,2.5-1.5,3.4
		c-0.5,1.1,0.2,2,1,2.7v6.2c0,6.2,5.1,11.3,11.3,11.3h2.8c6.2,0,11.3-5.1,11.3-11.3v-6.2C280.2,91.1,281.8,89.1,280.6,86.5z
		 M276.6,98.9c0,5.4-4.4,9.7-9.7,9.7h-2.8c-5.4,0-9.7-4.4-9.7-9.7v-5.6c1.9,0.6,5.9,1.7,11.2,1.7c3.8,0,7.5-0.6,11-1.7V98.9z"/>
	<path id="XMLID_115_" class="st0" d="M9.2,154.5l-0.7,1.2h13.9l-0.7-1.2c0-0.1-1.1-1.9-2.8-2.3c0,0-0.2-0.4,0.2-1.8
		c0.4-0.6,0.6-1.4,0.6-2.1c0-2.3-1.9-4.1-4.1-4.1c-2.3,0-4.1,1.9-4.1,4.1c0,0.5,0.1,1,0.2,1.4c0.7,2.1,0.4,2.5,0.4,2.5
		C10.3,152.6,9.3,154.4,9.2,154.5z M12.4,153.8c0.5-0.1,0.8-0.4,1-0.8c0.6-1,0.2-2.5-0.2-3.8c-0.1-0.3-0.2-0.6-0.2-0.9
		c0-1.4,1.1-2.5,2.5-2.5c1.4,0,2.5,1.1,2.5,2.5c0,0.5-0.1,1-0.4,1.4l-0.1,0.1l0,0.1c-0.4,1.5-0.4,2.5,0,3.1c0.2,0.4,0.6,0.6,1,0.7
		c0.2,0.1,0.5,0.2,0.7,0.3h-7.5C12,153.9,12.2,153.8,12.4,153.8z"/>
	<path id="XMLID_118_" class="st0" d="M188.8,71.1v16.8c0,1,0.8,1.9,1.9,1.9h14.8c1,0,1.9-0.8,1.9-1.9V71.1c0-1-0.8-1.9-1.9-1.9
		h-14.8C189.7,69.3,188.8,70.1,188.8,71.1z M205.8,71.1v16.8c0,0.1-0.1,0.3-0.3,0.3h-14.8c-0.1,0-0.3-0.1-0.3-0.3v-2.9h6.7
		c0.4,0,0.8-0.4,0.8-0.8c0-0.4-0.4-0.8-0.8-0.8h-6.7v-2.2h6.7c0.4,0,0.8-0.4,0.8-0.8c0-0.4-0.4-0.8-0.8-0.8h-6.7v-2.2h6.7
		c0.4,0,0.8-0.4,0.8-0.8c0-0.4-0.4-0.8-0.8-0.8h-6.7v-4.8c0-0.1,0.1-0.3,0.3-0.3h14.8C205.6,70.9,205.8,71,205.8,71.1z"/>
	<path id="XMLID_119_" class="st0" d="M188.1,214.7c0.7,0.7,1.6,1.1,2.8,1.1c1.2,0,2.1-0.4,2.8-1.1c0.7-0.7,1.1-1.6,1.1-2.8l0-33.4
		c0-2.6-1.3-3.9-3.9-3.9c-1.2,0-2.1,0.4-2.8,1.1c-0.7,0.7-1.1,1.6-1.1,2.8l0,33.4C187,213,187.3,213.9,188.1,214.7z"/>
	<path id="XMLID_122_" class="st0" d="M191.7,67.5l-0.7,1.2H205l-0.7-1.2c0-0.1-1.1-1.9-2.8-2.3c0,0-0.2-0.4,0.2-1.8
		c0.4-0.6,0.6-1.4,0.6-2.1c0-2.3-1.9-4.1-4.1-4.1c-2.3,0-4.1,1.9-4.1,4.1c0,0.5,0.1,1,0.2,1.4c0.7,2.1,0.4,2.5,0.4,2.5
		C192.8,65.6,191.8,67.4,191.7,67.5z M194.9,66.8c0.5-0.1,0.8-0.4,1-0.8c0.6-1,0.2-2.5-0.2-3.8c-0.1-0.3-0.2-0.6-0.2-0.9
		c0-1.4,1.1-2.5,2.5-2.5c1.4,0,2.5,1.1,2.5,2.5c0,0.5-0.1,1-0.4,1.4l-0.1,0.1l0,0.1c-0.4,1.5-0.4,2.5,0,3.1c0.2,0.4,0.6,0.6,1,0.7
		c0.2,0.1,0.5,0.2,0.7,0.3h-7.5C194.5,66.9,194.7,66.8,194.9,66.8z"/>
	<path id="XMLID_125_" class="st0" d="M239.5,43.5c0,0.1,0,0.1,0,0.2c0,0.1,0.1,0.1,0.1,0.2l3.3,3.5h13.4v-2.4l2.2,2.4h13.4V34.2
		l0-0.3h-0.1c0,0,0,0-0.1-0.1l-3.3-3l0,0c-0.1,0-0.1-0.1-0.2-0.1c-0.1,0-0.1,0-0.1,0l-7.9,0V19.8l0-0.3h-0.1c0,0,0,0-0.1-0.1l-3.3-3
		l0,0c-0.1,0-0.1-0.1-0.2-0.1c-0.1,0-0.1,0-0.1,0l-12.9,0v12.8c0,0.1,0,0.1,0,0.2c0,0.1,0.1,0.1,0.1,0.2l1.1,1.1l-5,0L239.5,43.5z
		 M254.9,46h-10.7V35.4h10.7V46z M258.6,45.7l-2.2-2.5l-0.2-0.2v-9.1v-1.2l0.1,0.1l0.2,0.3l2.1,2.4V45.7z M270.5,46h-10.7V35.4h10.7
		V46z M260.1,33.1v-1h7.6l2,1.8h-10.3l-0.9-0.9H260.1z M258.7,25.1v6.8H248v-1.2v-5.6h0V21h10.7L258.7,25.1L258.7,25.1z M255.8,17.7
		l2,1.8h-10.3l-1.8-1.8H255.8z M244.3,28.5V18.2l2.4,2.8v10.3l-0.2-0.3l-0.2-0.3L244.3,28.5z M245.8,32.1l0.9,1h6.4l0.9,0.9h-10.3
		l-1.8-1.8H245.8z M240.5,32.7l2.4,2.8v10.3l-2.4-2.7V32.7z"/>
	<path id="XMLID_136_" class="st0" d="M167.4,36.2c0,0.4,0.4,0.8,0.8,0.8c0.4,0,0.8-0.4,0.8-0.8V13.9c1-0.3,1.7-1.3,1.7-2.4
		c0-1.4-1.1-2.5-2.5-2.5c-1.4,0-2.5,1.1-2.5,2.5c0,1.1,0.7,2.1,1.7,2.4v1.8h-25.7v-1.8c1-0.3,1.7-1.3,1.7-2.4c0-1.4-1.1-2.5-2.5-2.5
		c-1.4,0-2.5,1.1-2.5,2.5c0,1.1,0.7,2.1,1.7,2.4v22.4c0,0.4,0.4,0.8,0.8,0.8c0.4,0,0.8-0.4,0.8-0.8v-1.5h25.7V36.2z M167.2,11.5
		c0-0.5,0.4-0.9,0.9-0.9c0.5,0,0.9,0.4,0.9,0.9c0,0.5-0.4,0.9-0.9,0.9C167.7,12.4,167.2,12,167.2,11.5z M162.3,17.2h5v12.4h-5V17.2z
		 M155.3,17.2h5.4v12.4h-5.4V17.2z M148.3,17.2h5.4v12.4h-5.4V17.2z M146.7,17.2v12.4h-5V17.2H146.7z M140.8,12.4
		c-0.5,0-0.9-0.4-0.9-0.9c0-0.5,0.4-0.9,0.9-0.9c0.5,0,0.9,0.4,0.9,0.9C141.8,12,141.4,12.4,140.8,12.4z M141.7,33.1v-1.9h25.7v1.9
		H141.7z"/>
	<path id="XMLID_145_" class="st0" d="M248.2,45.2h1.9c1.6,0,2.9-1.3,2.9-2.9c0-1.1-0.6-2-1.5-2.5c0.3-0.4,0.4-0.9,0.4-1.4
		c0-1.3-1.1-2.4-2.4-2.4h-1.3c-0.6,0-1.1,0.4-1.2,0.9c0,0.1-0.1,0.2-0.1,0.3v6.8c0,0.1,0,0.1,0,0.2C247,44.7,247.6,45.2,248.2,45.2z
		 M248.5,37.5h1c0.4,0,0.8,0.4,0.8,0.8s-0.4,0.8-0.8,0.8h-1V37.5z M248.5,40.9h1.5c0.7,0,1.3,0.6,1.3,1.3c0,0.7-0.6,1.3-1.3,1.3
		h-1.5V40.9z"/>
	<path id="XMLID_149_" class="st0" d="M255.7,25.1l-1.6-3.1c0,0,0,0,0,0c0,0,0-0.1,0-0.1c0,0,0,0,0-0.1c0,0,0,0-0.1-0.1
		c0,0,0,0-0.1-0.1c0,0,0,0-0.1,0c0,0,0,0-0.1,0c0,0,0,0,0,0c0,0,0,0-0.1,0c0,0-0.1,0-0.1,0c0,0-0.1,0-0.1,0c0,0,0,0-0.1,0
		c0,0-0.1,0-0.1,0c0,0,0,0-0.1,0c0,0-0.1,0-0.1,0c0,0,0,0-0.1,0c0,0-0.1,0-0.1,0c0,0,0,0,0,0c0,0,0,0,0,0c0,0-0.1,0-0.1,0
		c0,0,0,0-0.1,0c0,0,0,0-0.1,0.1c0,0,0,0-0.1,0.1c0,0,0,0,0,0.1c0,0,0,0,0,0.1c0,0,0,0,0,0l-1.6,3.1l-2.1,4.1
		c-0.2,0.4,0,0.9,0.4,1.1c0.1,0.1,0.2,0.1,0.4,0.1c0.3,0,0.6-0.2,0.7-0.4l0.6-1.3h4.5l0.6,1.3c0.1,0.3,0.4,0.4,0.7,0.4
		c0.1,0,0.2,0,0.4-0.1c0.4-0.2,0.6-0.7,0.4-1.1L255.7,25.1z M252,27.1l1-2l0.5-1l0.5,1l1,2H252z"/>
	<path id="XMLID_150_" class="st0" d="M265.9,45c1.1,0,2.2-0.4,3-1.2c0.3-0.3,0.3-0.8,0-1.1c-0.3-0.3-0.8-0.3-1.1,0
		c-0.5,0.5-1.2,0.8-1.9,0.8c-1.6,0-2.8-1.3-2.8-2.8c0-1.6,1.3-2.8,2.8-2.8c0.7,0,1.4,0.3,1.9,0.7c0.3,0.3,0.8,0.3,1.1-0.1
		c0.3-0.3,0.3-0.8-0.1-1.1c-0.8-0.7-1.9-1.1-2.9-1.1c-2.4,0-4.4,2-4.4,4.4C261.4,43,263.4,45,265.9,45z"/>
	<path id="XMLID_151_" class="st0" d="M252.1,332.7c0,0,0.1,0,0.1,0c0.4-0.1,0.7-0.5,0.6-0.9c-0.3-1.7,0.8-3.3,2.5-3.6
		c0.4-0.1,0.7-0.5,0.7-0.9c-0.1-0.4-0.5-0.7-0.9-0.7c-2.5,0.5-4.2,2.9-3.8,5.4C251.4,332.4,251.7,332.7,252.1,332.7z"/>
	<path id="XMLID_154_" class="st0" d="M21.1,95.7c8.8,0,16-7.2,16-16c0-8.8-7.2-16-16-16c-8.8,0-16,7.2-16,16
		C5.1,88.5,12.3,95.7,21.1,95.7z M34.9,79.7c0,5.5-3.2,10.2-7.9,12.5c2.1-2.9,3.5-7.4,3.5-12.5c0-5.1-1.3-9.6-3.5-12.5
		C31.7,69.4,34.9,74.2,34.9,79.7z M21.1,65.8c4,0,7.3,6.3,7.3,13.9c0,7.5-3.4,13.8-7.3,13.8c-4,0-7.3-6.3-7.3-13.8
		C13.8,72.2,17.1,65.8,21.1,65.8z M15.1,67.2c-2.1,2.9-3.5,7.4-3.5,12.5c0,5.1,1.3,9.6,3.5,12.5c-4.6-2.2-7.9-7-7.9-12.5
		C7.2,74.2,10.4,69.4,15.1,67.2z"/>
	<path id="XMLID_157_" class="st0" d="M25.8,5c3.7,0,6.9-2,8.5-5h-1.9c-1.5,2.1-3.9,3.4-6.6,3.4c-2.7,0-5.1-1.3-6.6-3.4h-1.9
		C19,3,22.2,5,25.8,5z"/>
	<path id="XMLID_158_" class="st0" d="M43.1,0.6c0,0.4,0.4,0.8,0.8,0.8c0.4,0,0.8-0.4,0.8-0.8c0-0.2,0-0.4,0-0.6h-1.6
		C43.1,0.2,43.1,0.4,43.1,0.6z"/>
	<path id="XMLID_159_" class="st0" d="M386.6,125.2l-3.1-1.1c-0.2-0.1-0.5,0-0.7,0.1l-2.2,2.1c-0.2,0.2-0.2,0.5-0.1,0.8l1.8,2.6
		c0.1,0.2,0.4,0.3,0.6,0.3c0,0,0.1,0,0.1,0l3.4-0.7c0.3-0.1,0.5-0.3,0.5-0.6l0.1-2.9C387,125.6,386.8,125.3,386.6,125.2z"/>
	<path id="XMLID_160_" class="st0" d="M46.8,0.6c0,1.6-1.3,2.8-2.8,2.8c-1.6,0-2.8-1.3-2.8-2.8c0-0.2,0-0.4,0.1-0.6h-1.6
		c0,0.2-0.1,0.4-0.1,0.6c0,2.4,2,4.4,4.4,4.4c2.4,0,4.4-2,4.4-4.4c0-0.2,0-0.4-0.1-0.6h-1.6C46.7,0.2,46.8,0.4,46.8,0.6z"/>
	<path id="XMLID_161_" class="st0" d="M386.4,4.1c-1.1,0-2.1-0.4-3-1.1c-0.1-0.1-0.3-0.2-0.5-0.2c-0.1,0-0.1,0-0.2,0
		c-1.7,0.5-3.5,0.4-5.2-0.1c-0.3-0.1-0.6,0-0.8,0.2c-0.9,0.8-2,1.2-3.1,1.2c-2.4,0-4.4-1.8-4.7-4.1h-1.6c0.4,3.2,3.1,5.7,6.4,5.7
		c1.4,0,2.7-0.5,3.9-1.3c1.7,0.5,3.6,0.6,5.3,0.1c1.1,0.8,2.4,1.2,3.7,1.2c3.3,0,6-2.5,6.4-5.7h-1.6C390.8,2.3,388.8,4.1,386.4,4.1z
		"/>
	<path id="XMLID_164_" class="st0" d="M384.7,108.5c-0.2,0-0.5,0-0.7,0.2c-0.2,0.2-0.3,0.4-0.3,0.6v3c0,0.3,0.2,0.6,0.5,0.8
		c1.4,0.5,2.3,1.8,2.3,3.2c0,1.9-1.5,3.4-3.4,3.4c-1.9,0-3.4-1.5-3.4-3.4c0-1.4,0.9-2.7,2.3-3.2c0.3-0.1,0.5-0.4,0.5-0.8v-3
		c0-0.2-0.1-0.5-0.3-0.6c-0.2-0.2-0.4-0.2-0.7-0.2c-7,1.3-12.6,11.3-12.6,18.7c0,7.8,6.3,14.1,14.1,14.1c7.8,0,14.1-6.3,14.1-14.1
		C397.3,119.8,391.7,109.8,384.7,108.5z M383.2,139.7c-6.9,0-12.5-5.6-12.5-12.5c0-6.4,4.7-15,10.3-16.9v1.5
		c-1.7,0.8-2.8,2.6-2.8,4.5c0,2.8,2.3,5,5,5c2.8,0,5-2.3,5-5c0-1.9-1.1-3.7-2.8-4.5v-1.5c5.6,1.8,10.3,10.5,10.3,16.9
		C395.7,134.1,390.1,139.7,383.2,139.7z"/>
	<path id="XMLID_167_" class="st0" d="M26.7,249.1h2c1.7,0,3.2-1.4,3.2-3.2c0-1.2-0.7-2.3-1.7-2.8c0.3-0.4,0.5-1,0.5-1.5
		c0-1.4-1.2-2.6-2.6-2.6h-1.4c-0.6,0-1.1,0.4-1.3,0.9c0,0.1-0.1,0.2-0.1,0.3v7.5c0,0.1,0,0.1,0,0.2C25.5,248.6,26,249.1,26.7,249.1z
		 M27,240.7h1.2c0.5,0,1,0.4,1,1c0,0.5-0.4,1-1,1H27V240.7z M27,244.4h1.8c0.9,0,1.5,0.7,1.5,1.5c0,0.9-0.7,1.5-1.5,1.5H27V244.4z"
		/>
	<path id="XMLID_171_" class="st0" d="M383.4,121.9c-4.6,0-8.3,3.7-8.3,8.3c0,0.1,0,0.2,0,0.3c0,0.1,0.1,0.2,0.1,0.3
		c-0.1,0.1-0.1,0.2-0.1,0.4c0.5,4.2,4.1,7.3,8.3,7.3c4.6,0,8.3-3.7,8.3-8.3C391.8,125.6,388,121.9,383.4,121.9z M390.1,128.1
		c0,0,0.1,0.1,0.1,0.1c0.2,0.5,0.2,1,0.3,1.5c-0.1,0-0.2,0-0.3,0l-1.9,0.5c-0.2,0.1-0.5,0.3-0.5,0.5l-1.1,3.2
		c-0.1,0.2,0,0.5,0.2,0.7l1,0.9c-1.3,1-2.8,1.6-4.4,1.6c-0.4,0-0.7,0-1-0.1c0.1,0,0.1-0.1,0.2-0.1l1.6-1.7c0.2-0.2,0.2-0.5,0-0.8
		l-2.2-2.5c-0.1-0.2-0.4-0.3-0.6-0.3l-3,0.4c-0.1,0-0.3,0.1-0.4,0.2c-0.1,0.1-0.1,0.3-0.1,0.4l0.4,2.3c-1-1-1.7-2.4-1.9-3.9
		c0,0,0-0.1,0-0.1l1.2-0.5c0.2-0.1,0.4-0.3,0.5-0.6l0.4-2.4c0-0.2,0-0.5,0-0.6l-0.4-1.2c0-0.1-0.1-0.2-0.1-0.2
		c0.6-0.6,1.2-1.2,2-1.6c0.1,0,0.1,0,0.1-0.1c0.1,0,0.1,0,0.2,0l1.9-0.2c0.2,0,0.4-0.1,0.6-0.1l0.8-0.3c0.1,0,0.1-0.1,0.1-0.1
		c0,0,0.1,0,0.2,0c1.1,0.1,2.2,0.5,3.2,1.1c0.1,0,0.1,0.1,0.1,0.1c0,0,0,0.1,0.1,0.1l0.5,0.7c0.1,0.1,0.2,0.3,0.3,0.5l1.8,2.2
		C390,128.1,390,128.1,390.1,128.1z"/>
	<path id="XMLID_174_" class="st0" d="M42.3,219.6H32.1c-1.5,0-2.7,1.2-2.7,2.7v10.2c0,1.5,1.2,2.7,2.7,2.7h10.2
		c1.5,0,2.7-1.2,2.7-2.7v-10.2C45,220.8,43.8,219.6,42.3,219.6z M43.4,232.5c0,0.6-0.5,1.1-1.1,1.1H32.1c-0.6,0-1.1-0.5-1.1-1.1
		v-10.2c0-0.6,0.5-1.1,1.1-1.1h10.2c0.6,0,1.1,0.5,1.1,1.1V232.5z"/>
	<path id="XMLID_177_" class="st0" d="M37.9,223C37.9,223,37.9,223,37.9,223C37.9,223,37.9,223,37.9,223c-0.1-0.1-0.1-0.1-0.1-0.2
		c0,0,0,0-0.1-0.1c0,0,0,0-0.1-0.1c0,0,0,0-0.1,0c0,0-0.1,0-0.1,0c0,0,0,0,0,0c0,0,0,0,0,0c0,0-0.1,0-0.1,0c0,0-0.1,0-0.1,0
		c0,0-0.1,0-0.1,0c0,0-0.1,0-0.1,0c0,0,0,0-0.1,0c0,0-0.1,0-0.1,0c0,0,0,0-0.1,0c0,0-0.1,0-0.1,0c0,0,0,0,0,0c0,0,0,0,0,0
		c0,0-0.1,0-0.1,0c0,0,0,0-0.1,0c0,0,0,0-0.1,0.1c0,0,0,0,0,0.1c0,0,0,0,0,0.1c0,0,0,0,0,0.1c0,0,0,0,0,0l-4,8.1
		c-0.2,0.4,0,0.9,0.4,1.1c0.1,0.1,0.2,0.1,0.4,0.1c0.3,0,0.6-0.2,0.7-0.4l0.7-1.5h5.1l0.7,1.5c0.1,0.3,0.4,0.4,0.7,0.4
		c0.1,0,0.2,0,0.4-0.1c0.4-0.2,0.6-0.7,0.4-1.1L37.9,223z M35.5,228.7l1.7-3.5l1.7,3.5H35.5z"/>
	<path id="XMLID_180_" class="st0" d="M42,328.2c7.5,0,13.6-6.1,13.6-13.6c0-7.1-5.4-16.8-12.1-18c-0.2,0-0.5,0-0.7,0.2
		c-0.2,0.2-0.3,0.4-0.3,0.6v2.9c0,0.3,0.2,0.6,0.5,0.8c1.3,0.5,2.2,1.7,2.2,3.1c0,1.8-1.5,3.2-3.2,3.2c-1.8,0-3.2-1.5-3.2-3.2
		c0-1.4,0.9-2.6,2.2-3.1c0.3-0.1,0.5-0.4,0.5-0.8v-2.9c0-0.2-0.1-0.5-0.3-0.6c-0.2-0.2-0.4-0.2-0.7-0.2c-6.7,1.2-12.1,10.9-12.1,18
		C28.5,322.1,34.5,328.2,42,328.2z M39.9,298.5v1.3c-1.6,0.8-2.7,2.5-2.7,4.4c0,2.7,2.2,4.9,4.9,4.9c2.7,0,4.9-2.2,4.9-4.9
		c0-1.9-1.1-3.5-2.7-4.4v-1.3c5.4,1.8,9.8,10,9.8,16.2c0,6.6-5.4,12-12,12c-6.6,0-12-5.4-12-12C30.1,308.5,34.5,300.3,39.9,298.5z"
		/>
	<path id="XMLID_183_" class="st0" d="M23.5,251.9h10.2c1.5,0,2.7-1.2,2.7-2.7V239c0-1.5-1.2-2.7-2.7-2.7H23.5
		c-1.5,0-2.7,1.2-2.7,2.7v10.2C20.8,250.7,22,251.9,23.5,251.9z M22.4,239c0-0.6,0.5-1.1,1.1-1.1h10.2c0.6,0,1.1,0.5,1.1,1.1v10.2
		c0,0.6-0.5,1.1-1.1,1.1H23.5c-0.6,0-1.1-0.5-1.1-1.1V239z"/>
	<path id="XMLID_186_" class="st0" d="M35.1,317.5l0.1,0.2c1.1,3.6,6.3,6.3,6.5,6.4l0.4,0.2l0.4-0.2c0.2-0.1,5.4-2.8,6.5-6.4
		l0.1-0.2c0.1-0.3,0.1-0.5,0.1-0.7c0-0.1,0-0.3,0-0.4c0-2.5-2-4.5-4.5-4.5c-0.9,0-1.8,0.3-2.6,0.8c-0.7-0.5-1.6-0.8-2.6-0.8
		c-2.5,0-4.5,2-4.5,4.5c0,0.1,0,0.3,0,0.4C35,316.9,35.1,317.2,35.1,317.5z M39.5,313.4c0.7,0,1.5,0.3,2,0.8l0.6,0.5l0.6-0.5
		c0.5-0.5,1.3-0.8,2-0.8c1.6,0,2.9,1.3,2.9,2.9c0,0.1,0,0.2,0,0.3c0,0.1,0,0.3-0.1,0.5l0,0.1l0.8,0.2l-0.8-0.2
		c-0.8,2.5-4.2,4.6-5.3,5.2c-1.5-0.9-4.6-3-5.3-5.2l0-0.1c0-0.2-0.1-0.3-0.1-0.5c0-0.1,0-0.2,0-0.3
		C36.6,314.7,37.9,313.4,39.5,313.4z"/>
	<path id="XMLID_189_" class="st0" d="M37.8,239v10.2c0,1.5,1.2,2.7,2.7,2.7h10.2c1.5,0,2.7-1.2,2.7-2.7V239c0-1.5-1.2-2.7-2.7-2.7
		H40.4C39,236.3,37.8,237.5,37.8,239z M51.7,239v10.2c0,0.6-0.5,1.1-1.1,1.1H40.4c-0.6,0-1.1-0.5-1.1-1.1V239c0-0.6,0.5-1.1,1.1-1.1
		h10.2C51.3,237.9,51.7,238.4,51.7,239z"/>
	<path id="XMLID_190_" class="st0" d="M46.2,248.9c1.2,0,2.4-0.5,3.3-1.3c0.3-0.3,0.3-0.8,0-1.1c-0.3-0.3-0.8-0.3-1.1,0
		c-0.6,0.6-1.4,0.9-2.2,0.9c-1.8,0-3.2-1.4-3.2-3.2c0-1.8,1.4-3.2,3.2-3.2c0.8,0,1.5,0.3,2.1,0.8c0.3,0.3,0.8,0.3,1.1-0.1
		c0.3-0.3,0.3-0.8-0.1-1.1c-0.9-0.8-2-1.2-3.2-1.2c-2.7,0-4.8,2.2-4.8,4.8C41.4,246.7,43.5,248.9,46.2,248.9z"/>
	<path id="XMLID_193_" class="st0" d="M99.6,24.9c-0.7-1.7-2.3-2.8-4.2-2.8c-0.2,0-0.5,0-0.7,0.1c-0.1,0-0.2,0-0.2-0.1
		c-0.3-0.1-0.8-0.5-0.4-0.9c0.3-0.3,0.9-0.3,1.3-0.2c0.2,0.1,0.5,0.3,0.2,0.4c-0.2,0.1-0.4,0.1-0.7,0c-0.3-0.1-0.5,0.4-0.2,0.5
		c0.4,0.2,0.9,0.1,1.2-0.1c0.2-0.2,0.4-0.6,0.2-0.9c-0.4-0.7-1.4-0.6-2.1-0.4c-0.6,0.3-1,1.1-0.4,1.7c0.1,0.1,0.1,0.1,0.2,0.2
		c-1.2,0.4-2.2,1.4-2.7,2.6c-0.8,0.1-1.5,0.7-1.5,1.6c0,0.8,0.6,1.5,1.5,1.6c0.7,1.7,2.3,2.8,4.2,2.8c1.9,0,3.5-1.2,4.2-2.8
		c0.8-0.1,1.5-0.7,1.5-1.6C101,25.6,100.4,24.9,99.6,24.9z M99.3,27.2L99,27.1l-0.1,0.3C98.4,29,97,30,95.4,30
		c-1.6,0-3.1-1.1-3.5-2.6l-0.1-0.3l-0.3,0.1c0,0-0.1,0-0.1,0c-0.4,0-0.8-0.3-0.8-0.8c0-0.4,0.3-0.8,0.8-0.8c0,0,0.1,0,0.1,0l0.3,0.1
		l0.1-0.3c0.5-1.5,1.9-2.6,3.5-2.6c1.6,0,3.1,1.1,3.5,2.6l0.1,0.3l0.3-0.1c0.4-0.1,0.9,0.3,0.9,0.7C100.2,26.9,99.8,27.2,99.3,27.2z
		"/>
	<path id="XMLID_196_" class="st0" d="M199.5,378c-1.7,0-3.2,1.4-3.2,3.2c0,1.7,1.4,3.2,3.2,3.2c1.7,0,3.2-1.4,3.2-3.2
		C202.6,379.4,201.2,378,199.5,378z M199.5,382.7c-0.9,0-1.5-0.7-1.5-1.5c0-0.3,0.1-0.6,0.3-0.9c-0.1,0.5,0.2,1,0.8,1
		c1,0,1.1-1.4,0.2-1.7c0.1,0,0.2,0,0.2,0c0.9,0,1.5,0.7,1.5,1.5C201,382,200.3,382.7,199.5,382.7z"/>
	<path id="XMLID_199_" class="st0" d="M188.5,132.2c0-7.1-5.4-16.8-12.1-18c-0.2,0-0.5,0-0.7,0.2c-0.2,0.2-0.3,0.4-0.3,0.6v2.9
		c0,0.3,0.2,0.6,0.5,0.8c1.3,0.5,2.2,1.7,2.2,3.1c0,1.8-1.5,3.2-3.2,3.2c-1.8,0-3.2-1.5-3.2-3.2c0-1.4,0.9-2.6,2.2-3.1
		c0.3-0.1,0.5-0.4,0.5-0.8V115c0-0.2-0.1-0.5-0.3-0.6c-0.2-0.2-0.4-0.2-0.7-0.2c-6.7,1.2-12.1,10.9-12.1,18
		c0,7.5,6.1,13.6,13.6,13.6C182.4,145.8,188.5,139.7,188.5,132.2z M174.9,144.2c-6.6,0-12-5.4-12-12c0-6.1,4.4-14.4,9.8-16.2v1.3
		c-1.6,0.8-2.7,2.5-2.7,4.4c0,2.7,2.2,4.9,4.9,4.9c2.7,0,4.9-2.2,4.9-4.9c0-1.9-1.1-3.5-2.7-4.4V116c5.4,1.8,9.8,10,9.8,16.2
		C186.9,138.8,181.5,144.2,174.9,144.2z"/>
	<path id="XMLID_202_" class="st0" d="M177.5,129.3c-0.9,0-1.8,0.3-2.6,0.8c-0.7-0.5-1.6-0.8-2.5-0.8c-2.5,0-4.5,2-4.5,4.5
		c0,0.1,0,0.3,0,0.4c0,0.2,0.1,0.5,0.1,0.8l0.1,0.2c1.1,3.6,6.3,6.3,6.5,6.4l0.4,0.2l0.4-0.2c0.2-0.1,5.4-2.8,6.5-6.3l0.1-0.2
		c0.1-0.3,0.1-0.5,0.1-0.7c0-0.1,0-0.3,0-0.4C182,131.3,180,129.3,177.5,129.3z M180.2,134.7c-0.8,2.5-4.2,4.6-5.3,5.2
		c-1.5-0.9-4.6-3-5.3-5.2l0-0.1c0-0.2-0.1-0.3-0.1-0.5c0-0.1,0-0.2,0-0.3c0-1.6,1.3-2.9,2.9-2.9c0.7,0,1.5,0.3,2,0.8l0.6,0.5
		l0.6-0.5c0.5-0.5,1.3-0.8,2-0.8c1.6,0,2.9,1.3,2.9,2.9c0,0.1,0,0.2,0,0.3c0,0.1,0,0.3-0.1,0.5L180.2,134.7l0.8,0.2L180.2,134.7z"/>
	<path id="XMLID_205_" class="st0" d="M210,376.1c0-1.7-1.4-3.2-3.2-3.2c-1.7,0-3.2,1.4-3.2,3.2c0,1.7,1.4,3.2,3.2,3.2
		C208.6,379.3,210,377.8,210,376.1z M205.3,376.1c0-0.2,0-0.3,0.1-0.4c0,0.4,0.3,0.8,0.8,0.8c1.1,0,1.1-1.7,0-1.7c0,0,0,0-0.1,0
		c0.2-0.1,0.5-0.2,0.7-0.2c0.9,0,1.5,0.7,1.5,1.5c0,0.9-0.7,1.5-1.5,1.5C206,377.6,205.3,377,205.3,376.1z"/>
	<path id="XMLID_206_" class="st0" d="M181.2,174.6h-0.3c-1.2,0-2.2,1-2.2,2.2l0,5.4c0,1.2,1,2.2,2.2,2.2h0.3c1.2,0,2.2-1,2.2-2.2
		l0-5.4C183.3,175.5,182.4,174.6,181.2,174.6z"/>
	<path id="XMLID_207_" class="st0" d="M168.1,186.2c-1.2,0-2.1,0.4-2.8,1.1c-0.7,0.7-1.1,1.7-1.1,2.8l0,21.7c0,1.2,0.4,2.1,1.1,2.8
		c0.7,0.7,1.6,1.1,2.8,1.1c1.2,0,2.1-0.4,2.8-1.1c0.7-0.7,1.1-1.7,1.1-2.8l0-21.7C172.1,187.5,170.7,186.2,168.1,186.2z"/>
	<path id="XMLID_210_" class="st0" d="M131.1,271c0-2.4-1-3.5-3.1-3.6l-0.8,0v7.3l0.8,0C130.1,274.5,131.1,273.4,131.1,271z
		 M128.7,269.1c0.5,0.2,0.7,0.7,0.7,1.9c0,1.2-0.2,1.7-0.7,1.9V269.1z"/>
	<path id="XMLID_213_" class="st0" d="M208.5,387.7c1.7,0,3.2-1.4,3.2-3.2c0-1.7-1.4-3.2-3.2-3.2c-1.7,0-3.2,1.4-3.2,3.2
		C205.4,386.3,206.8,387.7,208.5,387.7z M207,384.2c0.1,0.3,0.3,0.6,0.8,0.6c1,0,1.1-1.5,0.2-1.7c0.2-0.1,0.4-0.1,0.5-0.1
		c0.9,0,1.5,0.7,1.5,1.5c0,0.9-0.7,1.5-1.5,1.5c-0.9,0-1.5-0.7-1.5-1.5C207,384.4,207,384.3,207,384.2z"/>
	<path id="XMLID_214_" class="st0" d="M171.5,175.3c-0.9-0.9-2.1-1.4-3.4-1.4c-1.3,0-2.4,0.5-3.4,1.4c-0.9,0.9-1.4,2.1-1.4,3.4
		c0,1.3,0.5,2.4,1.4,3.4c0.9,0.9,2.1,1.4,3.4,1.4c1.3,0,2.4-0.5,3.4-1.4c0.9-0.9,1.4-2.1,1.4-3.4
		C172.9,177.4,172.5,176.3,171.5,175.3z"/>
	<path id="XMLID_215_" class="st0" d="M313.7,281.3c0.4,0,0.7,0.1,1,0.3c-0.4-0.5-1.1-0.9-1.8-0.9c-1.3,0-2.3,1-2.3,2.3
		c0,1.3,1,2.3,2.3,2.3c0.7,0,1.4-0.3,1.8-0.9c-0.3,0.2-0.6,0.3-1,0.3c-1,0-1.7-0.8-1.7-1.7C311.9,282.1,312.7,281.3,313.7,281.3z"/>
	<path id="XMLID_216_" class="st0" d="M309.9,280h0.7c0.1,0,0.3-0.1,0.3-0.3c0-0.1-0.1-0.3-0.3-0.3h-0.7c0,0-0.1,0-0.1,0
		c0-0.3-0.1-0.5-0.3-0.7c0,0,0.1,0,0.1,0l0.5-0.5c0.1-0.1,0.1-0.3,0-0.4c-0.1-0.1-0.3-0.1-0.4,0l-0.5,0.5c0,0,0,0,0,0.1
		c-0.2-0.2-0.5-0.3-0.7-0.3c0,0,0-0.1,0-0.1v-0.7c0-0.2-0.1-0.3-0.3-0.3c-0.1,0-0.3,0.1-0.3,0.3v0.7c0,0,0,0.1,0,0.1
		c-0.3,0-0.5,0.1-0.7,0.3c0,0,0-0.1,0-0.1l-0.5-0.5c-0.1-0.1-0.3-0.1-0.4,0c-0.1,0.1-0.1,0.3,0,0.4l0.5,0.5c0,0,0,0,0.1,0.1
		c-0.2,0.2-0.3,0.5-0.3,0.7c0,0-0.1,0-0.1,0h-0.7c-0.1,0-0.3,0.1-0.3,0.3c0,0.1,0.1,0.3,0.3,0.3h0.7c0,0,0.1,0,0.1,0
		c0,0.3,0.1,0.5,0.3,0.7c0,0-0.1,0-0.1,0l-0.5,0.5c-0.1,0.1-0.1,0.3,0,0.4c0.1,0.1,0.1,0.1,0.2,0.1c0.1,0,0.1,0,0.2-0.1l0.5-0.5
		c0,0,0,0,0-0.1c0.2,0.2,0.5,0.3,0.7,0.3c0,0,0,0.1,0,0.1v0.7c0,0.1,0.1,0.3,0.3,0.3c0.1,0,0.3-0.1,0.3-0.3v-0.7c0,0,0-0.1,0-0.1
		c0.3,0,0.5-0.1,0.7-0.3c0,0,0,0.1,0,0.1l0.5,0.5c0.1,0.1,0.1,0.1,0.2,0.1s0.1,0,0.2-0.1c0.1-0.1,0.1-0.3,0-0.4l-0.5-0.5
		c0,0,0,0-0.1-0.1C309.6,280.5,309.7,280.3,309.9,280C309.8,280,309.8,280,309.9,280z"/>
	<path id="XMLID_217_" class="st0" d="M318.6,278.4h-1l-0.3-1c-0.2-0.5-0.5-0.5-0.6,0c-0.2,0.5-0.3,1-0.3,1h-1
		c-0.6,0-0.7,0.3-0.2,0.6c0.5,0.3,0.8,0.6,0.8,0.6l-0.3,1c-0.2,0.5,0.1,0.7,0.5,0.4c0.5-0.3,0.8-0.6,0.8-0.6l0.8,0.6
		c0.5,0.3,0.7,0.2,0.5-0.4c-0.2-0.5-0.3-1-0.3-1l0.8-0.6C319.2,278.7,319.1,278.4,318.6,278.4z"/>
	<path id="XMLID_218_" class="st0" d="M237.2,182.2c1.3,0,2.4,0.5,3.3,1.4c0.9,0.9,1.4,2,1.4,3.3l0,29.1c0,3.5,1.2,6.5,3.6,8.9
		c2.4,2.4,5.4,3.6,8.9,3.6h0.2c1.2,0,2.1-0.4,2.8-1.1c0.7-0.7,1.1-1.7,1.1-2.8c0-1.2-0.4-2.1-1.1-2.8c-0.7-0.7-1.7-1.1-2.8-1.1h-0.2
		c-1.3,0-2.4-0.5-3.3-1.4c-0.9-0.9-1.4-2-1.4-3.3l0-29.1c0-3.5-1.2-6.5-3.6-8.9c-2.4-2.4-5.3-3.6-8.9-3.6c-3.1,0-5.8,1-8.1,3.1
		c-2.4-2-5.1-3.1-8.1-3.1c-3.5,0-6.5,1.2-8.9,3.6c-2.4,2.4-3.6,5.4-3.6,8.9l0,25c0,1.2,0.4,2.1,1.1,2.8c0.7,0.7,1.7,1.1,2.8,1.1
		c1.2,0,2.1-0.4,2.8-1.1c0.7-0.7,1.1-1.7,1.1-2.8l0-25c0-1.3,0.5-2.4,1.4-3.3c0.9-0.9,2-1.4,3.3-1.4c1.3,0,2.4,0.5,3.3,1.4
		c0.9,0.9,1.4,2,1.4,3.3l0,25c0,1.2,0.4,2.1,1.1,2.8c0.7,0.7,1.6,1.1,2.8,1.1c1.2,0,2.1-0.4,2.8-1.1c0.7-0.7,1.1-1.7,1.1-2.8l0-27.8
		C234.4,182.8,235.7,182.2,237.2,182.2z"/>
	<path id="XMLID_219_" class="st0" d="M316.3,276c0,0.3,0.2,0.5,0.5,0.5c0.3,0,0.5-0.2,0.5-0.5v-1.9h0.8c0.3,0,0.5-0.2,0.5-0.5
		c0-0.3-0.2-0.5-0.5-0.5h-11.9c-0.3,0-0.5,0.2-0.5,0.5c0,0.3,0.2,0.5,0.5,0.5h1.3v1.9c0,0.3,0.2,0.5,0.5,0.5c0.3,0,0.5-0.2,0.5-0.5
		v-1.9h3v5.7c0,0.3,0.2,0.5,0.5,0.5c0.3,0,0.5-0.2,0.5-0.5v-5.7h3.5V276z"/>
	<path id="XMLID_222_" class="st0" d="M202.7,279.6c0.7,2.1,3.5,3.6,3.8,3.8l0.4,0.2l0.4-0.2c0.3-0.2,3.1-1.7,3.8-3.7l0-0.1
		c0,0,0-0.1,0-0.1c0-0.2,0.1-0.3,0.1-0.5c0-0.1,0-0.2,0-0.3c0-1.6-1.3-2.9-2.9-2.9c-0.5,0-1,0.1-1.4,0.4c-0.4-0.2-0.9-0.4-1.4-0.4
		c-1.6,0-2.9,1.3-2.9,2.9c0,0.1,0,0.2,0,0.3c0,0.2,0,0.3,0.1,0.5C202.6,279.5,202.6,279.6,202.7,279.6L202.7,279.6z M204.2,278.9
		c0,0,0-0.1,0-0.1c0-0.7,0.6-1.3,1.3-1.3c0.3,0,0.6,0.1,0.9,0.3l0.6,0.5l0.6-0.5c0.2-0.2,0.5-0.3,0.9-0.3c0.7,0,1.3,0.6,1.3,1.3
		c0,0,0,0.1,0,0.1c0,0.1,0,0.1,0,0.2l0,0.1c-0.3,1.1-1.8,2.1-2.6,2.6c-0.8-0.5-2.3-1.5-2.6-2.6l-0.8,0.2l0.8-0.3
		C204.2,279,204.2,278.9,204.2,278.9z"/>
	<path id="XMLID_223_" class="st0" d="M263.7,201c0,1.1,0.4,2,1.2,2.8c0.8,0.8,1.7,1.2,2.8,1.2c1,0,1.9-0.4,2.7-1.2l7.4-7.3
		c1.1-0.9,1.7-1.9,1.7-3.2c0-1-0.4-1.9-1.2-2.7c-2.9-3-6.5-4.5-10.7-4.5c-4.2,0-7.7,1.4-10.5,4.3c-2.8,2.8-4.3,6.4-4.3,10.5
		c0,4.2,1.4,7.7,4.3,10.5c2.8,2.9,6.3,4.3,10.5,4.3l5.1,0c1.2,0,2.1-0.4,2.8-1.1c0.7-0.7,1.1-1.7,1.1-2.8c0-1.2-0.4-2.1-1.1-2.8
		c-0.7-0.7-1.6-1.1-2.8-1.1l-5.1,0c-1.9,0-3.6-0.7-4.9-2.1c-1.4-1.4-2-3-2-5c0-1.9,0.7-3.6,2-4.9c1.3-1.4,3-2,4.9-2
		c0.5,0,1,0.1,1.5,0.2l-4.1,4.1C264.1,199.1,263.7,200,263.7,201z"/>
	<path id="XMLID_224_" class="st0" d="M94.4,15h1.9c0.4,0,0.8-0.4,0.8-0.8s-0.4-0.8-0.8-0.8h-1.9c-0.4,0-0.8,0.4-0.8,0.8
		S93.9,15,94.4,15z"/>
	<path id="XMLID_227_" class="st0" d="M103.3,35.4c0.2-4,0.4-11.4-0.2-15.8c-0.4-3.4-2.3-5.2-3.9-6.1v-2.8c0-2.2-1.8-4.1-3.9-4.1
		c-2.2,0-3.9,1.8-3.9,4.1v2.9c-1.6,0.9-3.5,2.6-3.9,6C87,24,87.2,31.4,87.3,35.4c0.1,2.2,2.1,4,4.5,4h7
		C101.2,39.4,103.2,37.6,103.3,35.4z M101.7,35.3c-0.1,1.4-1.3,2.5-2.8,2.5h-7c-1.5,0-2.8-1.1-2.8-2.5c-0.2-4-0.3-11.2,0.1-15.6
		c0.3-2.4,1.4-4.1,3.4-5l0.5-0.2v-3.9c0-1.4,1-2.5,2.3-2.5c1.3,0,2.3,1.1,2.3,2.5v3.9l0.5,0.2c2,0.9,3.2,2.6,3.5,5
		C102,24.1,101.8,31.3,101.7,35.3z"/>
	<path id="XMLID_230_" class="st0" d="M120.8,215.3c3.6,3.6,9.4,3.6,13,0c3.6-3.6,3.6-9.4,0-13c-3.6-3.6-9.4-3.6-13,0
		C117.2,205.9,117.2,211.8,120.8,215.3z M129.5,206.1c0-0.7,0.6-1.2,1.3-1.2c0.7,0,1.3,0.6,1.3,1.2l0,0.9c0,0.7-0.6,1.2-1.2,1.2
		c-0.7,0-1.3-0.6-1.3-1.2V206.1z M131.9,210.7v0.7c0,2.5-2.1,4.5-4.6,4.5c-2.5,0-4.6-2-4.6-4.5v-0.7L131.9,210.7z M122.3,206.1
		c0-0.7,0.7-1.2,1.4-1.2c0.7,0,1.4,0.6,1.4,1.2v0.9c0,0.7-0.7,1.2-1.4,1.2c-0.7,0-1.4-0.6-1.4-1.2V206.1z"/>
	<path id="XMLID_235_" class="st0" d="M297.2,234.9c0,1.9,1.6,3.5,3.5,3.5h24.6c1.9,0,3.5-1.6,3.5-3.5v-24.6c0-1.9-1.6-3.5-3.5-3.5
		h-24.6c-1.9,0-3.5,1.6-3.5,3.5V234.9z M298.8,210.3c0-1,0.8-1.9,1.9-1.9h24.6c1,0,1.9,0.8,1.9,1.9v3h-4.7c-0.3-1.1-1.3-1.8-2.5-1.8
		c-1.2,0-2.2,0.8-2.5,1.8h-6.3c-0.3-1.1-1.3-1.8-2.5-1.8c-0.7,0-1.4,0.3-1.9,0.8c-0.5-0.5-1.1-0.8-1.9-0.8c-1.2,0-2.2,0.8-2.5,1.8
		h-3.6V210.3z M321,214.1c0,0.3-0.2,0.6-0.4,0.8c-0.2,0.1-0.4,0.2-0.6,0.2c-0.2,0-0.5-0.1-0.6-0.2c-0.2-0.2-0.4-0.5-0.4-0.8
		c0-0.3,0.2-0.6,0.4-0.8c0.2-0.1,0.4-0.2,0.6-0.2c0.2,0,0.5,0.1,0.6,0.2C320.8,213.5,321,213.8,321,214.1z M309.7,214.1
		c0,0.3-0.2,0.6-0.4,0.8c-0.2,0.1-0.4,0.2-0.6,0.2c-0.2,0-0.5-0.1-0.6-0.2c-0.2-0.2-0.4-0.5-0.4-0.8c0-0.3,0.2-0.6,0.4-0.8
		c0.2-0.1,0.4-0.2,0.6-0.2c0.2,0,0.5,0.1,0.6,0.2C309.5,213.5,309.7,213.8,309.7,214.1z M305.9,214.1c0,0.3-0.2,0.6-0.4,0.8
		c-0.2,0.1-0.4,0.2-0.6,0.2c-0.2,0-0.5-0.1-0.6-0.2c-0.2-0.2-0.4-0.5-0.4-0.8c0-0.3,0.2-0.6,0.4-0.8c0.2-0.1,0.4-0.2,0.6-0.2
		c0.2,0,0.5,0.1,0.6,0.2C305.8,213.5,305.9,213.8,305.9,214.1z M298.8,215h3.6c0.3,1.1,1.3,1.8,2.5,1.8c0.7,0,1.4-0.3,1.9-0.8
		c0.5,0.5,1.1,0.8,1.9,0.8c1.2,0,2.2-0.8,2.5-1.8h6.3c0.3,1.1,1.3,1.8,2.5,1.8c1.2,0,2.2-0.8,2.5-1.8h4.7v6.8h-5.3
		c-0.4-1-1.3-1.7-2.4-1.7c-0.7,0-1.3,0.3-1.8,0.7c-0.5-0.5-1.2-0.9-1.9-0.9c-0.7,0-1.4,0.3-1.9,0.8c-0.5-0.5-1.1-0.8-1.9-0.8
		c-1.2,0-2.2,0.8-2.5,1.8h-10.6V215z M320.5,222.8c0,0.2-0.1,0.5-0.2,0.6c-0.2,0.2-0.5,0.4-0.8,0.4c-0.3,0-0.6-0.2-0.8-0.4
		c-0.1-0.2-0.2-0.4-0.2-0.6c0-0.5,0.3-0.9,0.8-1c0.1,0,0.2,0,0.3,0c0.1,0,0.2,0,0.3,0C320.1,221.9,320.5,222.3,320.5,222.8z
		 M316.8,222.6c0,0.3-0.2,0.6-0.4,0.8c-0.2,0.1-0.4,0.2-0.6,0.2c-0.2,0-0.5-0.1-0.6-0.2c-0.2-0.2-0.4-0.5-0.4-0.8
		c0-0.3,0.2-0.6,0.4-0.8c0.2-0.1,0.4-0.2,0.6-0.2c0.2,0,0.5,0.1,0.6,0.2C316.6,222,316.8,222.2,316.8,222.6z M313,222.6
		c0,0.3-0.2,0.6-0.4,0.8c-0.2,0.1-0.4,0.2-0.6,0.2c-0.2,0-0.5-0.1-0.6-0.2c-0.2-0.2-0.4-0.5-0.4-0.8c0-0.3,0.2-0.6,0.4-0.8
		c0.2-0.1,0.4-0.2,0.6-0.2c0.2,0,0.5,0.1,0.6,0.2C312.8,222,313,222.2,313,222.6z M298.8,223.4h10.6c0.3,1.1,1.3,1.8,2.5,1.8
		c0.7,0,1.4-0.3,1.9-0.8c0.5,0.5,1.1,0.8,1.9,0.8c0.7,0,1.3-0.3,1.8-0.7c0.5,0.5,1.2,0.9,1.9,0.9c1.2,0,2.3-0.9,2.6-2h5.2v6.8h-1.4
		c-0.3-1.2-1.3-2-2.6-2c-0.7,0-1.4,0.3-1.9,0.8c-0.5-0.5-1.1-0.8-1.9-0.8c-1.2,0-2.3,0.9-2.6,2h-9.9c-0.3-1.2-1.3-2-2.6-2
		c-1.2,0-2.3,0.9-2.6,2h-3V223.4z M324.2,230.8c0,0.5-0.3,0.9-0.8,1c-0.1,0-0.2,0-0.3,0c-0.1,0-0.2,0-0.3,0c-0.4-0.1-0.8-0.5-0.8-1
		c0-0.2,0.1-0.5,0.2-0.6c0.2-0.2,0.5-0.4,0.8-0.4c0.3,0,0.6,0.2,0.8,0.4C324.1,230.4,324.2,230.6,324.2,230.8z M320.5,230.8
		c0,0.5-0.3,0.9-0.8,1c-0.1,0-0.2,0-0.3,0c-0.1,0-0.2,0-0.3,0c-0.4-0.1-0.8-0.5-0.8-1c0-0.2,0.1-0.5,0.2-0.6
		c0.2-0.2,0.5-0.4,0.8-0.4c0.3,0,0.6,0.2,0.8,0.4C320.4,230.4,320.5,230.6,320.5,230.8z M305.4,230.8c0,0.5-0.3,0.9-0.8,1
		c-0.1,0-0.2,0-0.3,0c-0.1,0-0.2,0-0.3,0c-0.4-0.1-0.8-0.5-0.8-1c0-0.2,0.1-0.5,0.2-0.6c0.2-0.2,0.5-0.4,0.8-0.4
		c0.3,0,0.6,0.2,0.8,0.4C305.3,230.4,305.4,230.6,305.4,230.8z M298.8,231.8h3.1c0.4,1,1.3,1.7,2.4,1.7c1.1,0,2.1-0.7,2.4-1.7H317
		c0.4,1,1.3,1.7,2.4,1.7c0.7,0,1.4-0.3,1.9-0.8c0.5,0.5,1.1,0.8,1.9,0.8c1.1,0,2.1-0.7,2.4-1.7h1.5v3c0,1-0.8,1.9-1.9,1.9h-24.6
		c-1,0-1.9-0.8-1.9-1.9V231.8z"/>
	<path id="XMLID_248_" class="st0" d="M96.5,26.2c-0.5,0-0.5,0.7,0,0.7C96.9,26.9,96.9,26.2,96.5,26.2z"/>
	<path id="XMLID_249_" class="st0" d="M122.2,199.5l5-2.5l5.1,2.5c0.6,0.3,1.2,0,1.2-0.7l0-6.6c0-0.7-0.5-1.1-1.2-0.7l-5.1,2.5
		l-5-2.5c-0.6-0.3-1.2,0-1.2,0.7l0,6.5C121,199.5,121.5,199.9,122.2,199.5z"/>
	<path id="XMLID_252_" class="st0" d="M134.2,340c-0.1,0.1-0.1,0.2-0.1,0.4c0.5,4.2,4.1,7.3,8.3,7.3c4.6,0,8.3-3.7,8.3-8.3
		c0-4.6-3.7-8.3-8.3-8.3c-4.6,0-8.3,3.7-8.3,8.3c0,0.1,0,0.2,0,0.3C134.1,339.8,134.2,339.9,134.2,340z M135.5,340.3l1.2-0.5
		c0.2-0.1,0.4-0.3,0.5-0.6l0.4-2.4c0-0.2,0-0.5,0-0.6l-0.4-1.2c0-0.1-0.1-0.2-0.1-0.2c0.6-0.6,1.2-1.2,2-1.6c0.1,0,0.1,0,0.1-0.1
		c0.1,0,0.1,0,0.2,0l1.9-0.2c0.2,0,0.4-0.1,0.6-0.1l0.8-0.3c0.1,0,0.1-0.1,0.1-0.1c0,0,0.1,0,0.2,0c1.1,0.1,2.2,0.5,3.2,1.1
		c0.1,0,0.1,0.1,0.1,0.1c0,0,0,0.1,0.1,0.1l0.5,0.7c0.1,0.1,0.2,0.3,0.3,0.5l1.8,2.2c0,0.1,0.1,0.1,0.1,0.1c0,0,0.1,0.1,0.1,0.1
		c0.2,0.5,0.2,1,0.3,1.5c-0.1,0-0.2,0-0.3,0l-1.9,0.5c-0.2,0.1-0.4,0.3-0.5,0.5l-1.1,3.2c-0.1,0.2,0,0.5,0.2,0.7l1,0.9
		c-1.3,1-2.8,1.6-4.4,1.6c-0.4,0-0.7,0-1-0.1c0.1,0,0.1-0.1,0.2-0.1l1.6-1.7c0.2-0.2,0.2-0.5,0-0.8l-2.2-2.5
		c-0.1-0.2-0.4-0.3-0.6-0.3l-3,0.4c-0.1,0-0.3,0.1-0.4,0.2c-0.1,0.1-0.1,0.3-0.1,0.4l0.4,2.3C136.4,343.2,135.7,341.9,135.5,340.3
		C135.5,340.4,135.5,340.3,135.5,340.3z"/>
	<path id="XMLID_255_" class="st0" d="M120.7,175.3c-3.6,3.6-3.6,9.4,0,13c3.6,3.6,9.4,3.6,13,0c3.6-3.6,3.6-9.4,0-13
		C130.2,171.7,124.3,171.7,120.7,175.3z M122.3,178.1c0-0.7,0.7-1.2,1.4-1.2c0.7,0,1.4,0.6,1.4,1.2v0.9c0,0.7-0.7,1.2-1.4,1.2
		c-0.7,0-1.4-0.6-1.4-1.2V178.1z M131.9,184.9c0,2.5-2.1,4.5-4.6,4.5c-2.5,0-4.6-2-4.6-4.5v-0.7l9.2,0V184.9z M132.2,179
		c0,0.7-0.7,1.2-1.4,1.2c-0.7,0-1.4-0.6-1.4-1.2v-0.9c0-0.7,0.7-1.2,1.4-1.2c0.7,0,1.4,0.6,1.4,1.2V179z"/>
	<path id="XMLID_258_" class="st0" d="M141.3,338.8c0.1,0.2,0.4,0.3,0.6,0.3c0,0,0.1,0,0.1,0l3.4-0.7c0.3,0,0.5-0.3,0.5-0.6l0.1-2.9
		c0-0.3-0.2-0.5-0.4-0.6l-3.1-1.1c-0.2-0.1-0.5,0-0.7,0.1l-2.2,2.1c-0.2,0.2-0.2,0.5-0.1,0.8L141.3,338.8z"/>
	<path id="XMLID_259_" class="st0" d="M85.7,187.4l-0.5-0.6c-0.9,0.8-1.5,2-1.5,3.3c0,2.4,2,4.4,4.4,4.4c2.4,0,4.4-2,4.4-4.4
		c0-2.4-1.9-4.3-4.2-4.4c-0.4-1.4-0.9-2.6-1.5-3.7c1.1-1.5,1.9-3.1,2.8-4.8c0.2-0.4,0.1-1.2-0.5-1.3c-1.3-0.2-2.5-0.3-3.8-0.2
		c-1.1,0.1-1.1,1.8,0,1.7c0.7-0.1,1.5-0.1,2.2,0c-0.5,1-1.1,2-1.7,2.9c-2.8-3.8-6.9-6.1-9.8-7.4c-1.2-0.5-2.2-0.8-2.8-1
		c0.8-2.2,1.9-4.2,3.3-5.4c1-0.9,2.1-1.3,3.4-1.2c0.1,0,0.2,0,0.3,0c0.4,0,0.8-0.3,0.9-0.7c0-0.4-0.3-0.8-0.7-0.9
		c-1.8-0.2-3.5,0.3-4.9,1.6c-2.4,2.1-3.9,6-4.8,9.8c-0.2,0-0.4,0-0.5,0c-5.4,0-9.8,4.4-9.8,9.8c0,5.4,4.4,9.8,9.8,9.8
		c5.4,0,9.8-4.4,9.8-9.8c0-3.8-2.2-7.1-5.4-8.7l-0.4,0.7l-0.4,0.7c2.7,1.3,4.5,4.1,4.5,7.3c0,4.5-3.7,8.2-8.2,8.2
		c-4.5,0-8.2-3.7-8.2-8.2c0-4.5,3.7-8.2,8.2-8.2c0.1,0,0.1,0,0.2,0c-0.8,4.2-1,7.8-1,8.1c0,0.4,0.3,0.8,0.8,0.8c0,0,0,0,0,0
		c0.4,0,0.8-0.3,0.8-0.8c0,0,0-0.8,0.1-1.9c0.1-1.5,0.4-3.7,0.9-6.1c0.1-0.3,0.1-0.5,0.2-0.8c0.1-0.3,0.1-0.5,0.2-0.8
		c0.1-0.6,0.3-1.2,0.5-1.8c0.1,0,0.3,0.1,0.5,0.2c0.6,0.2,1.3,0.4,2.1,0.8c3.8,1.6,9.6,5.1,11.5,11.5c0.1,0.3,0.2,0.5,0.2,0.8
		c0.1,0.3,0.1,0.5,0.2,0.8c0.1,0.5,0.2,1.1,0.2,1.7c0,0.3,0,0.6,0,0.9c0,0.4,0.4,0.8,0.8,0.8c0.4,0,0.8-0.4,0.8-0.8
		c0-1-0.1-1.9-0.2-2.8c1.3,0.3,2.2,1.4,2.2,2.8c0,1.6-1.3,2.8-2.8,2.8c-1.6,0-2.8-1.3-2.8-2.8c0-0.8,0.4-1.6,0.9-2.1L85.7,187.4z"/>
	<path id="XMLID_262_" class="st0" d="M112.3,284.5h12c2.4,0,4.4-1.7,4.4-3.8v-2.2c3.2-0.5,5.7-3.7,5.7-7.4c0-3.8-2.5-6.9-5.6-7.4
		v-3.5c0-1.2-0.9-2.1-2.1-2.1h-2.5c-2.3,0-3.5-0.7-3.6-1l-0.2-0.8c-0.2-0.8-1.2-1.4-2.3-1.4h-4c-1.1,0-2.1,0.6-2.3,1.4l-0.2,0.8
		c-0.1,0.5-0.8,1-1.4,1h-0.4c-1.2,0-2.1,0.9-2.1,2.1v3.4c-3.2,0.5-5.7,3.6-5.7,7.4c0,3.8,2.5,7,5.8,7.4v2.2
		C107.8,282.8,109.8,284.5,112.3,284.5z M109.4,260.1c0-0.3,0.2-0.5,0.5-0.5h0.4c1.4,0,2.7-1,3-2.2l0.2-0.8c0-0.1,0.3-0.2,0.7-0.2h4
		c0.4,0,0.7,0.2,0.7,0.2l0.2,0.8c0.3,1.3,2.4,2.2,5.1,2.2h2.5c0.3,0,0.5,0.2,0.5,0.5v2.4h-17.8V260.1z M103.7,271
		c0-3.2,2.2-5.9,5-5.9h0.8v-0.9h17.7v0.9l0.8,0c2.7,0,4.9,2.7,4.9,5.9c0,3.2-2.2,5.8-4.9,5.9l-0.8,0v3.8c0,1.2-1.3,2.2-2.8,2.2h-12
		c-1.6,0-2.8-1-2.8-2.2v-3.8h-0.8C105.9,276.9,103.7,274.3,103.7,271z"/>
	<path id="XMLID_266_" class="st0" d="M109.4,274.6v-7.2h-0.8c-2.2,0-3.2,1.1-3.2,3.6c0,2.5,1,3.6,3.2,3.6H109.4z M107.8,272.9
		c-0.6-0.2-0.8-0.6-0.8-1.9s0.3-1.8,0.8-1.9V272.9z"/>
	<path id="XMLID_269_" class="st0" d="M112.5,273.2l0.1,0.2c0.9,3,5.2,5.2,5.4,5.3l0.4,0.2l0.4-0.2c0.2-0.1,4.4-2.3,5.4-5.3l0-0.2
		c0.1-0.2,0.1-0.4,0.1-0.6c0-0.1,0-0.3,0-0.4c0-2.1-1.7-3.8-3.8-3.8c-0.7,0-1.5,0.2-2.1,0.6c-0.6-0.4-1.3-0.6-2.1-0.6
		c-2.1,0-3.8,1.7-3.8,3.8c0,0.1,0,0.2,0,0.4C112.4,272.7,112.4,273,112.5,273.2z M114,272.7c0-0.1-0.1-0.3-0.1-0.4
		c0-0.1,0-0.1,0-0.2c0-1.2,1-2.2,2.2-2.2c0.6,0,1.1,0.2,1.5,0.6l0.6,0.5l0.6-0.5c0.4-0.4,1-0.6,1.5-0.6c1.2,0,2.2,1,2.2,2.2
		c0,0.1,0,0.1,0,0.2c0,0.1,0,0.2-0.1,0.4l0,0.1c-0.5,1.8-3,3.4-4.2,4.1C117,276.3,114.6,274.6,114,272.7l-0.8,0.3L114,272.7z"/>
	<path id="XMLID_272_" class="st0" d="M142.2,350.5c7.8,0,14.1-6.3,14.1-14.1c0-7.4-5.6-17.4-12.6-18.7c-0.2,0-0.5,0-0.7,0.2
		c-0.2,0.2-0.3,0.4-0.3,0.6v3c0,0.3,0.2,0.6,0.5,0.8c1.4,0.5,2.3,1.8,2.3,3.2c0,1.9-1.5,3.4-3.4,3.4c-1.9,0-3.4-1.5-3.4-3.4
		c0-1.4,0.9-2.7,2.3-3.2c0.3-0.1,0.5-0.4,0.5-0.8v-3c0-0.2-0.1-0.5-0.3-0.6c-0.2-0.2-0.4-0.2-0.7-0.2c-7,1.3-12.6,11.3-12.6,18.7
		C128.1,344.1,134.4,350.5,142.2,350.5z M140,319.5v1.5c-1.7,0.8-2.8,2.6-2.8,4.5c0,2.8,2.3,5,5,5c2.8,0,5-2.3,5-5
		c0-1.9-1.1-3.7-2.8-4.5v-1.5c5.6,1.8,10.3,10.5,10.3,16.9c0,6.9-5.6,12.5-12.5,12.5c-6.9,0-12.5-5.6-12.5-12.5
		C129.7,329.9,134.4,321.3,140,319.5z"/>
	<path id="XMLID_273_" class="st0" d="M94.2,26.2c-0.5,0-0.5,0.7,0,0.7C94.7,27,94.7,26.2,94.2,26.2z"/>
	<path id="XMLID_274_" class="st0" d="M96.1,27.4c-0.1,0-0.3,0.1-0.3,0.2c-0.1,0-0.2,0.1-0.5,0.1c-0.2,0-0.4,0-0.5-0.1
		c0-0.1-0.2-0.2-0.3-0.2c-0.2,0-0.3,0.2-0.3,0.3c0,0.4,0.4,0.6,1.1,0.6c0.7,0,1.1-0.3,1.1-0.6C96.5,27.6,96.3,27.4,96.1,27.4z"/>
	<path id="XMLID_277_" class="st0" d="M100.4,117c0.1,0.3,0.4,0.5,0.7,0.5c0.1,0,0.2,0,0.2,0c0.4-0.1,0.6-0.5,0.6-0.9l-3.4-19.8l1-4
		c0.3-0.1,0.4-0.4,0.4-0.7c0-0.2-0.1-0.3-0.1-0.5L101,87c0.1-0.4-0.1-0.9-0.6-1c-0.4-0.1-0.9,0.1-1,0.6l-1.2,4.6H87.1
		c-0.4,0-0.8,0.4-0.8,0.8c0,0.4,0.4,0.8,0.8,0.8h1.1v3.1h-0.6c-0.4,0-0.7,0.3-0.8,0.7l-3.5,20c-0.1,0.4,0.2,0.8,0.6,0.9
		c0.4,0.1,0.8-0.1,1-0.5l2.4-5.5H98L100.4,117z M99.1,109.9L99.1,109.9l-3.5-8l0,0l-1.9-4.4H97L99.1,109.9z M89.8,92.8h8.1L97,95.9
		h-7.3V92.8z M86.1,109.9L86.1,109.9l2.1-12.3h3.2l-1.9,4.4c0,0,0,0,0,0L86.1,109.9z M87.8,109.9l2.9-6.9h3.6l2.9,6.9H87.8z"/>
</g>
</svg>
