<?xml version="1.0" encoding="utf-8"?>
<!-- Generator: Adobe Illustrator 16.0.0, SVG Export Plug-In . SVG Version: 6.00 Build 0)  -->
<!DOCTYPE svg PUBLIC "-//W3C//DTD SVG 1.1//EN" "http://www.w3.org/Graphics/SVG/1.1/DTD/svg11.dtd">
<svg version="1.1" id="Layer_1" xmlns="http://www.w3.org/2000/svg" xmlns:xlink="http://www.w3.org/1999/xlink" x="0px" y="0px"
	 width="23.998px" height="23.998px" viewBox="0 0 23.998 23.998" enable-background="new 0 0 23.998 23.998" xml:space="preserve">
<path fill="#FFFFFF" d="M7.856,18.213c-1.139,0-2.061,0.933-2.061,2.071s0.922,2.071,2.061,2.071c1.139,0,2.071-0.933,2.071-2.071
	S8.995,18.213,7.856,18.213z M1.643,1.643v2.071h2.071l3.728,7.86l-1.398,2.538c-0.166,0.29-0.259,0.632-0.259,0.994
	c0,1.139,0.933,2.07,2.071,2.07h12.428v-2.07H8.291c-0.146,0-0.259-0.113-0.259-0.26l0.031-0.124l0.932-1.688h7.716
	c0.777,0,1.46-0.425,1.812-1.067l3.708-6.721c0.083-0.146,0.125-0.322,0.125-0.498c0-0.569-0.466-1.035-1.035-1.035H6.002
	L5.028,1.643H1.643z M18.213,18.213c-1.139,0-2.062,0.933-2.062,2.071s0.922,2.071,2.062,2.071c1.139,0,2.071-0.933,2.071-2.071
	S19.352,18.213,18.213,18.213z"/>
<path fill="none" d="M0,0h23.998v23.998H0V0z"/>
</svg>
