<?xml version="1.0" encoding="utf-8"?>
<!-- Generator: Adobe Illustrator 16.0.0, SVG Export Plug-In . SVG Version: 6.00 Build 0)  -->
<!DOCTYPE svg PUBLIC "-//W3C//DTD SVG 1.1//EN" "http://www.w3.org/Graphics/SVG/1.1/DTD/svg11.dtd">
<svg version="1.1" id="Layer_1" xmlns="http://www.w3.org/2000/svg" xmlns:xlink="http://www.w3.org/1999/xlink" x="0px" y="0px"
	 width="23.998px" height="23.998px" viewBox="0 0 23.998 23.998" enable-background="new 0 0 23.998 23.998" xml:space="preserve">
<g>
	<g>
		<g>
			<path fill="#EF6ACA" d="M11.998,22.025l-1.786-1.628C4.966,15.641,1.5,12.498,1.5,8.499C1.5,5.135,4.135,2.5,7.499,2.5
				c1.661,0,3.305,0.683,4.499,1.85c1.194-1.167,2.839-1.85,4.5-1.85c3.364,0,6,2.635,6,5.999c0,4-3.466,7.142-8.713,11.897
				L11.998,22.025z M7.499,3.5C4.696,3.5,2.5,5.696,2.5,8.499c0,3.556,3.335,6.58,8.385,11.159l1.113,1.014l1.114-1.015
				c5.05-4.578,8.386-7.602,8.386-11.158c0-2.803-2.196-4.999-5-4.999c-1.557,0-3.098,0.712-4.121,1.906l-0.379,0.442l-0.379-0.443
				C10.596,4.212,9.056,3.5,7.499,3.5z"/>
		</g>
		<rect fill="none" width="23.998" height="23.998"/>
	</g>
</g>
</svg>
