<?xml version="1.0" encoding="utf-8"?>
<!-- Generator: Adobe Illustrator 16.0.0, SVG Export Plug-In . SVG Version: 6.00 Build 0)  -->
<!DOCTYPE svg PUBLIC "-//W3C//DTD SVG 1.1//EN" "http://www.w3.org/Graphics/SVG/1.1/DTD/svg11.dtd">
<svg version="1.1" id="Layer_1" xmlns="http://www.w3.org/2000/svg" xmlns:xlink="http://www.w3.org/1999/xlink" x="0px" y="0px"
	 width="23.998px" height="23.997px" viewBox="0 0 23.998 23.997" enable-background="new 0 0 23.998 23.997" xml:space="preserve">
<g>
	<path fill="none" d="M0,0h23.998v23.997H0V0z"/>
	<path fill="#FFFFFF" d="M20.498,17.998v1c0,1.099-0.9,2-2,2H4.5c-1.11,0-2-0.901-2-2V4.999c0-1.1,0.89-2,2-2h13.998
		c1.1,0,2,0.9,2,2v1H11.5c-1.111,0-2.001,0.9-2.001,2v7.999c0,1.1,0.89,2,2.001,2H20.498z M11.5,15.998h9.998V7.999H11.5V15.998z
		 M15.498,13.499c-0.829,0-1.5-0.67-1.5-1.5c0-0.831,0.671-1.5,1.5-1.5c0.83,0,1.5,0.669,1.5,1.5
		C16.998,12.829,16.328,13.499,15.498,13.499z"/>
</g>
</svg>
