<?xml version="1.0" encoding="utf-8"?>
<!-- Generator: Adobe Illustrator 16.0.0, SVG Export Plug-In . SVG Version: 6.00 Build 0)  -->
<!DOCTYPE svg PUBLIC "-//W3C//DTD SVG 1.1//EN" "http://www.w3.org/Graphics/SVG/1.1/DTD/svg11.dtd">
<svg version="1.1" id="Layer_1" xmlns="http://www.w3.org/2000/svg" xmlns:xlink="http://www.w3.org/1999/xlink" x="0px" y="0px"
	 width="23.998px" height="23.998px" viewBox="0 0 23.998 23.998" enable-background="new 0 0 23.998 23.998" xml:space="preserve">
<path fill="#FFFFFF" d="M16.435,14.663h-0.933l-0.331-0.318c1.158-1.348,1.855-3.097,1.855-4.998c0-4.242-3.439-7.68-7.68-7.68
	c-4.242,0-7.68,3.438-7.68,7.68c0,4.241,3.438,7.68,7.68,7.68c1.902,0,3.651-0.697,4.999-1.855l0.318,0.331v0.934l5.907,5.896
	l1.761-1.761L16.435,14.663z M9.346,14.663c-2.942,0-5.317-2.375-5.317-5.316c0-2.942,2.375-5.316,5.317-5.316
	c2.942,0,5.317,2.374,5.317,5.316C14.663,12.288,12.288,14.663,9.346,14.663z"/>
<path fill="none" d="M0,0h23.998v23.998H0V0z"/>
</svg>
