<?xml version="1.0" encoding="utf-8"?>
<!-- Generator: Adobe Illustrator 16.0.0, SVG Export Plug-In . SVG Version: 6.00 Build 0)  -->
<!DOCTYPE svg PUBLIC "-//W3C//DTD SVG 1.1//EN" "http://www.w3.org/Graphics/SVG/1.1/DTD/svg11.dtd">
<svg version="1.1" id="Layer_1" xmlns="http://www.w3.org/2000/svg" xmlns:xlink="http://www.w3.org/1999/xlink" x="0px" y="0px"
	 width="23.998px" height="23.997px" viewBox="0 0 23.998 23.997" enable-background="new 0 0 23.998 23.997" xml:space="preserve">
<path fill="#FFFFFF" d="M21.998,15.998V3.999c0-1.1-0.9-1.999-2-1.999H8C6.898,2,6,2.899,6,3.999v11.999c0,1.1,0.898,2,2,2h11.998
	C21.098,17.998,21.998,17.098,21.998,15.998z M10.999,11.998l2.029,2.71l2.97-3.71l4,5H8L10.999,11.998z M2,5.999v13.999
	c0,1.1,0.899,2,2,2h13.998v-2H4V5.999H2z"/>
<path fill="none" d="M0,0h23.998v23.997H0V0z"/>
</svg>
