<?xml version="1.0" encoding="utf-8"?>
<!-- Generator: Adobe Illustrator 16.0.0, SVG Export Plug-In . SVG Version: 6.00 Build 0)  -->
<!DOCTYPE svg PUBLIC "-//W3C//DTD SVG 1.1//EN" "http://www.w3.org/Graphics/SVG/1.1/DTD/svg11.dtd">
<svg version="1.1" id="Layer_1" xmlns="http://www.w3.org/2000/svg" xmlns:xlink="http://www.w3.org/1999/xlink" x="0px" y="0px"
	 width="24px" height="24px" viewBox="0 0 24 24" enable-background="new 0 0 24 24" xml:space="preserve">
<g>
	<path fill="#FFFFFF" d="M2.07,21.026h3.61V10.194H2.07V21.026z M21.93,11.098c0-0.993-0.813-1.806-1.806-1.806h-5.696l0.858-4.125
		l0.027-0.289c0-0.37-0.154-0.713-0.397-0.957l-0.958-0.947L8.019,8.922c-0.334,0.325-0.532,0.776-0.532,1.272v9.027
		c0,0.992,0.812,1.805,1.806,1.805h8.124c0.749,0,1.39-0.451,1.661-1.102l2.726-6.363c0.081-0.207,0.127-0.424,0.127-0.659v-1.724
		l-0.009-0.009L21.93,11.098z"/>
</g>
</svg>
