<?xml version="1.0" encoding="utf-8"?>
<!-- Generator: Adobe Illustrator 16.0.0, SVG Export Plug-In . SVG Version: 6.00 Build 0)  -->
<!DOCTYPE svg PUBLIC "-//W3C//DTD SVG 1.1//EN" "http://www.w3.org/Graphics/SVG/1.1/DTD/svg11.dtd">
<svg version="1.1" id="Layer_1" xmlns="http://www.w3.org/2000/svg" xmlns:xlink="http://www.w3.org/1999/xlink" x="0px" y="0px"
	 width="175.905px" height="66.263px" viewBox="0 0 175.905 66.263" enable-background="new 0 0 175.905 66.263"
	 xml:space="preserve">
<g>
	<path fill="#FFFFFF" d="M145.113,66.261c-5.292,0-9.597-1.436-12.794-4.636c-3.219-3.223-4.947-6.716-5.258-10.833
		c-0.244,0.307-0.509,0.646-0.795,0.926c-1.677,1.629-3.987,2.547-6.513,2.547c-2.468,0-4.659-0.877-6.337-2.555
		c-2.406-2.403-2.406-5.424-2.406-6.419c0,3.204-1.379,5.263-2.536,6.423c-1.687,1.684-3.897,2.572-6.399,2.572
		s-4.965-0.872-6.656-2.521c-1.736-1.691-2.9-3.927-2.9-6.466V19.646c0-4.963,1.99-9.225,5.43-12.668
		c3.434-3.442,7.82-5.188,12.791-5.188c2.984,0,5.821,0.696,8.35,2.074c2.516-1.378,5.323-2.074,8.328-2.074
		c4.922,0,9.168,1.75,12.588,5.2c3.222,3.252,4.905,7.368,4.994,12.241c3.762-3.488,8.376-5.256,13.722-5.256
		c5.699,0,10.606,2.074,14.583,6.165c1.718,1.817,2.602,3.954,2.602,6.229c0,2.75-1.207,5.234-3.41,7.034l-3.759,3.684
		c0.562,0.368,1.13,0.824,1.694,1.389c1.632,1.637,2.565,4.075,2.565,6.695c0,2.438-0.824,4.281-2.521,6.022
		c-2.198,2.254-4.926,2.067-6.392,2.067h-5.359c-2.066,0-3.979-0.028-5.749-0.462c0.914,1.483,1.418,3.396,1.418,5.308
		c0,2.456-0.887,4.428-2.637,6.137c-2.225,2.158-4.842,2.018-6.405,2.018H145.113z M14.592,56.661c-3.864,0-7.498-1.506-10.231-4.24
		c-2.732-2.732-4.238-6.365-4.237-10.229c0-3.262,0.826-6.358,2.803-8.888c-0.106-0.451-0.408-0.924-0.408-1.413V25.17
		c0-0.598,0.33-1.173,0.487-1.713C0.977,20.908,0,17.772,0,14.468c0-3.865,1.567-7.498,4.301-10.23C7.033,1.506,10.698,0,14.563,0
		c3.863,0,7.511,1.504,10.244,4.235c0.542,0.542,1.039,1.117,1.477,1.717c0.397-0.656,0.844-1.185,1.258-1.598
		c1.673-1.675,3.884-2.563,6.384-2.563c2.505,0,4.478,0.872,6.17,2.52c1.747,1.706,2.422,3.941,2.422,6.468v24.481h2.867
		c0.743,0,2.133,0.473,2.133,0.792V22.965c0-1.909,0.679-3.57,1.536-4.958c-1.749-1.863-2.551-4.194-2.551-6.757
		c0-2.677,1.072-5.102,2.983-7.013c1.91-1.91,4.365-2.919,7.042-2.919c2.673,0,5.113,1.008,7.024,2.916
		c0.024,0.025,0.057-0.137,0.082-0.112c1.33-1.63,3.362-2.859,5.625-2.859h0.506c1.901,0,3.634,0.923,4.928,2.125
		c1.497-1.055,3.037-1.509,5.004-1.509c5.425,0,8.823,3.703,8.823,9.076v34.353c0,2.532-0.672,4.768-2.41,6.462
		c-1.694,1.65-3.79,2.521-6.297,2.521c-2.502,0-4.898-0.884-6.577-2.558c-1.161-1.164-2.716-3.212-2.716-6.425V21.527
		c0,0.071-0.33-0.266-0.755-0.266h-0.506c-1.258,0-3.739,0.925-3.739,1.704v22.331c0,2.41-0.742,4.705-2.536,6.463
		c-1.684,1.635-3.886,2.528-6.439,2.528c-2.244,0-4.132-0.892-5.742-2.282c-2.027,1.442-4.159,1.256-5.417,1.256h-2.614
		c-5.267,0-9.406-1.393-12.653-4.643c-0.661-0.662-1.256-1.253-1.787-1.961c-0.699,2.113-1.888,4.097-3.508,5.717
		C22.09,55.108,18.456,56.661,14.592,56.661z"/>
	<path fill="#FFFFFF" d="M145.352,53.261h-0.238c-1.348,0-2.877,0.071-3.808-0.861c-0.932-0.932-1.787-1.532-1.787-2.881V19.645
		c0-3.609-0.839-6.654-3.295-9.134c-2.458-2.479-5.293-3.72-8.898-3.72c-3.17,0-5.845,1.051-8.222,3.15
		c-2.417-2.1-5.145-3.15-8.272-3.15c-3.606,0-6.886,1.24-9.361,3.721c-2.476,2.479-3.951,5.524-3.951,9.135v25.652
		c0,1.189,0.637,2.152,1.391,2.887c0.752,0.732,1.854,1.102,3.043,1.102c1.189,0,1.941-0.369,2.675-1.102
		c0.732-0.734,0.892-1.697,0.892-2.889V19.638c0-1.35,0.739-2.491,1.671-3.423c0.93-0.934,2.207-1.4,3.554-1.4
		c1.309,0,2.418,0.477,3.368,1.43c0.951,0.952,1.407,2.084,1.407,3.394v25.659c0,1.191,0.452,2.154,1.188,2.889
		c0.732,0.732,1.738,1.102,2.925,1.102c1.191,0,2.083-0.369,2.837-1.102c0.753-0.734,1.051-1.697,1.051-2.889V16.721
		c1-1.271,2.318-1.906,3.902-1.906c1.309,0,2.099,0.477,3.03,1.429c0.93,0.952,1.067,2.083,1.067,3.392v29.873
		c0,3.609,1.616,6.104,4.093,8.583s5.896,3.17,9.502,3.17h0.238c1.188,0,2.158,0.183,2.911-0.548
		c0.754-0.736,1.131-1.419,1.131-2.606c0-1.189-0.377-2.563-1.131-3.316C147.51,54.037,146.54,53.261,145.352,53.261z
		 M169.72,23.625c-3.012-3.099-6.68-4.649-10.995-4.649c-4.28,0-7.877,1.458-10.788,4.376c-2.912,2.918-4.368,6.521-4.368,10.81
		s1.456,7.327,4.368,10.266c2.911,2.937,6.508,3.834,10.788,3.834h5.287c1.188,0,2.15,0.194,2.883-0.557
		c0.733-0.753,1.102-1.438,1.102-2.627c0-1.188-0.368-2.564-1.102-3.3c-0.732-0.732-1.694-1.517-2.883-1.517h-5.287
		c-1.982,0-3.667-0.146-5.054-1.559c-1.387-1.411-2.08-2.832-2.08-4.821c0-1.99,0.693-3.541,2.078-4.932
		c1.386-1.394,3.068-2.021,5.048-2.021c0.516,0,1.03,0.093,1.547,0.208l-4.26,4.258c-0.882,0.863-1.322,1.793-1.322,2.771
		c0,1.099,0.406,2.063,1.218,2.888c0.813,0.822,1.773,1.234,2.884,1.234c0.989,0,1.921-0.393,2.793-1.188l7.607-7.452
		c1.148-0.875,1.723-1.967,1.723-3.279C170.906,25.376,170.51,24.461,169.72,23.625z M7.896,35.496
		c-3.698,3.698-3.698,9.692,0,13.39c3.699,3.7,9.691,3.7,13.392,0c3.697-3.697,3.697-9.691,0-13.387
		C17.588,31.8,11.596,31.8,7.896,35.496z M45.386,40.261h-2.614c-1.348,0-2.707,0.034-3.637-0.898
		c-0.932-0.933-1.616-1.573-1.616-2.923v-25.66c0-1.19-0.158-2.152-0.91-2.887c-0.753-0.733-1.614-1.102-2.804-1.102
		c-1.187,0-2.301,0.368-3.034,1.102c-0.734,0.733-1.252,1.695-1.252,2.887v25.652c0,3.65,1.435,6.19,3.891,8.652
		c2.457,2.459,5.714,3.177,9.362,3.177h2.614c1.188,0,2.147,0.146,2.884-0.587c0.731-0.733,1.098-1.437,1.098-2.626
		s-0.366-2.533-1.098-3.285C47.533,41.011,46.574,40.261,45.386,40.261z M56.559,6.316c-1.348,0-2.506,0.485-3.476,1.455
		c-0.972,0.972-1.457,2.131-1.457,3.478c0,1.348,0.485,2.507,1.457,3.477c0.97,0.972,2.128,1.456,3.476,1.456
		s2.505-0.484,3.477-1.456c0.972-0.97,1.457-2.129,1.457-3.477c0-1.347-0.485-2.506-1.457-3.478
		C59.063,6.802,57.906,6.316,56.559,6.316z M56.518,18.976c-1.188,0-2.159,0.368-2.891,1.103c-0.733,0.734-1.108,1.697-1.108,2.887
		v22.331c0,1.19,0.396,2.153,1.129,2.89c0.731,0.732,1.708,1.102,2.896,1.102c1.189,0,2.125-0.369,2.879-1.102
		c0.752-0.736,1.095-1.699,1.095-2.89V22.965C60.519,20.305,59.212,18.976,56.518,18.976z M79.695,6.97
		c-1.189,0-2.246,0.367-2.981,1.1c-0.731,0.733-1.196,1.694-1.196,2.883v34.353c0,1.189,0.574,2.149,1.306,2.883
		c0.735,0.732,1.798,1.1,2.987,1.1c1.188,0,1.992-0.367,2.744-1.1c0.752-0.733,0.963-1.693,0.963-2.883V10.952
		C83.519,8.299,82.391,6.97,79.695,6.97z M71.519,8.509c0-1.242-1.006-2.248-2.247-2.248h-0.506c-1.241,0-2.247,1.006-2.247,2.248
		v5.504c0,1.242,1.006,2.248,2.247,2.248h0.506c1.241,0,2.247-1.006,2.247-2.248V8.509z M21.285,21.164
		c3.7-3.699,3.7-9.693,0.003-13.392c-3.7-3.697-9.692-3.697-13.392,0.003c-3.698,3.695-3.698,9.689,0,13.389
		C11.596,24.861,17.588,24.861,21.285,21.164z M19.531,24.385l-5.108,2.576l-5.424-2.542c-0.664-0.328-1.48,0.01-1.48,0.752v6.721
		c0,0.742,0.872,1.08,1.536,0.752l5.317-2.543l5.078,2.574c0.665,0.328,1.069-0.009,1.069-0.751v-6.786
		C20.519,24.395,20.196,24.057,19.531,24.385z"/>
	<g>
		<path fill="#EF6ACA" d="M132.276,19.464c0-1.309-0.467-2.439-1.396-3.392c-0.932-0.952-2.051-1.429-3.359-1.429
			c-1.585,0-2.853,0.636-3.804,1.906v28.576c0,1.191-0.375,2.154-1.128,2.889c-0.754,0.732-1.723,1.102-2.914,1.102
			c-1.187,0-2.148-0.369-2.881-1.102c-0.735-0.734-1.1-1.697-1.1-2.889V19.467c0-1.31-0.476-2.441-1.427-3.394
			c-0.95-0.953-2.079-1.43-3.388-1.43c-1.347,0-2.487,0.467-3.417,1.4c-0.932,0.932-1.397,2.073-1.397,3.423v25.659
			c0,1.191-0.367,2.154-1.1,2.889c-0.733,0.732-1.693,1.102-2.883,1.102c-1.188,0-2.16-0.369-2.911-1.102
			c-0.754-0.734-1.129-1.697-1.129-2.887V19.476c0-3.61,1.238-6.656,3.714-9.135c2.476-2.48,5.517-3.721,9.123-3.721
			c3.128,0,5.904,1.051,8.321,3.15c2.377-2.1,5.149-3.15,8.319-3.15c3.605,0,6.636,1.24,9.094,3.72
			c2.456,2.479,3.686,5.524,3.686,9.134v29.875c0,1.348,0.465,2.488,1.396,3.42c0.931,0.934,2.069,1.4,3.417,1.4h0.238
			c1.188,0,2.158,0.375,2.911,1.127c0.754,0.754,1.131,1.725,1.131,2.914c0,1.188-0.377,2.146-1.131,2.883
			c-0.753,0.73-1.723,1.098-2.911,1.098h-0.238c-3.605,0-6.646-1.24-9.123-3.719c-2.477-2.48-3.714-5.525-3.714-9.135V19.464z"/>
		<path fill="#EF6ACA" d="M169.184,29.478l-7.607,7.455c-0.872,0.793-1.804,1.188-2.793,1.188c-1.11,0-2.071-0.41-2.884-1.232
			c-0.812-0.824-1.218-1.785-1.218-2.883c0-0.979,0.44-1.899,1.322-2.763l4.26-4.24c-0.517-0.115-1.031-0.174-1.547-0.174
			c-1.979,0-3.662,0.697-5.048,2.091c-1.385,1.392-2.078,3.082-2.078,5.072c0,1.989,0.693,3.69,2.08,5.102s3.071,2.119,5.054,2.119
			h5.287c1.188,0,2.15,0.365,2.883,1.098c0.733,0.736,1.102,1.695,1.102,2.883c0,1.189-0.368,2.16-1.102,2.914
			c-0.732,0.75-1.694,1.127-2.883,1.127h-5.287c-4.28,0-7.877-1.469-10.788-4.404c-2.912-2.939-4.368-6.551-4.368-10.838
			c0-4.288,1.456-7.892,4.368-10.81c2.911-2.918,6.508-4.376,10.788-4.376c4.315,0,7.983,1.551,10.995,4.649
			c0.79,0.836,1.187,1.751,1.187,2.744C170.906,27.511,170.332,28.603,169.184,29.478z"/>
		<circle fill="#EF6ACA" cx="14.592" cy="42.022" r="9.468"/>
		<path fill="#FFFFFF" d="M12.217,40.14c0,0.701-0.567,1.27-1.27,1.27c-0.703,0-1.27-0.568-1.27-1.27v-0.936
			c0-0.703,0.566-1.27,1.27-1.27c0.702,0,1.27,0.566,1.27,1.27V40.14z"/>
		<path fill="#FFFFFF" d="M19.507,40.14c0,0.701-0.569,1.27-1.27,1.27c-0.702,0-1.271-0.568-1.271-1.27v-0.936
			c0-0.703,0.568-1.27,1.271-1.27c0.7,0,1.27,0.566,1.27,1.27V40.14z"/>
		<path fill="#FFFFFF" d="M9.975,43.897v0.738c0,2.549,2.069,4.617,4.617,4.617c2.549,0,4.615-2.068,4.615-4.617v-0.738H9.975z"/>
		<path fill="#27BFE2" d="M45.386,49.116h-2.614c-3.647,0-6.697-1.23-9.154-3.689c-2.456-2.461-3.684-5.516-3.684-9.166V10.609
			c0-1.191,0.365-2.153,1.1-2.887c0.732-0.733,1.694-1.102,2.881-1.102c1.189,0,2.16,0.368,2.913,1.102
			c0.752,0.734,1.129,1.696,1.129,2.887v25.66c0,1.35,0.466,2.492,1.397,3.426c0.93,0.932,2.07,1.398,3.418,1.398h2.614
			c1.188,0,2.147,0.377,2.884,1.129c0.731,0.752,1.098,1.723,1.098,2.912s-0.366,2.15-1.098,2.883
			C47.533,48.749,46.574,49.116,45.386,49.116z"/>
		<path fill="#27BFE2" d="M60.035,7.601c0.972,0.972,1.457,2.131,1.457,3.478c0,1.348-0.485,2.507-1.457,3.477
			c-0.972,0.972-2.129,1.456-3.477,1.456s-2.506-0.484-3.476-1.456c-0.972-0.97-1.457-2.129-1.457-3.477
			c0-1.347,0.485-2.506,1.457-3.478c0.97-0.97,2.128-1.455,3.476-1.455S59.063,6.631,60.035,7.601z M60.601,22.794
			c0-2.66-1.348-3.989-4.042-3.989c-1.188,0-2.15,0.368-2.882,1.103c-0.733,0.734-1.1,1.697-1.1,2.887v22.332
			c0,1.189,0.366,2.152,1.1,2.889c0.731,0.732,1.693,1.102,2.882,1.102c1.189,0,2.159-0.369,2.913-1.102
			c0.752-0.736,1.129-1.699,1.129-2.889V22.794z"/>
		<path fill="#27BFE2" d="M83.958,10.782v34.352c0,1.189-0.379,2.15-1.131,2.883s-1.724,1.1-2.912,1.1
			c-1.189,0-2.148-0.367-2.884-1.1c-0.731-0.732-1.099-1.693-1.099-2.883V10.782c0-1.188,0.367-2.149,1.099-2.883
			c0.735-0.732,1.694-1.1,2.884-1.1C82.61,6.799,83.958,8.128,83.958,10.782z"/>
		<path fill="#27BFE2" d="M72.19,14.583c0,1.236-1.011,2.248-2.247,2.248h-0.338c-1.237,0-2.247-1.012-2.247-2.248V9.08
			c0-1.236,1.01-2.248,2.247-2.248h0.338c1.236,0,2.247,1.012,2.247,2.248V14.583z"/>
		<path fill="#27BFE2" d="M7.896,20.994c-3.698-3.699-3.698-9.693,0-13.389c3.699-3.7,9.691-3.7,13.392-0.003
			c3.697,3.698,3.697,9.692-0.003,13.392C17.588,24.691,11.596,24.691,7.896,20.994z"/>
		<path fill="#FFFFFF" d="M12.217,11.369c0,0.703-0.567,1.271-1.27,1.271c-0.703,0-1.271-0.568-1.271-1.271v-0.937
			c0-0.7,0.568-1.269,1.271-1.269c0.702,0,1.27,0.568,1.27,1.269V11.369z"/>
		<path fill="#FFFFFF" d="M19.507,11.369c0,0.703-0.569,1.271-1.27,1.271c-0.702,0-1.272-0.568-1.272-1.271v-0.937
			c0-0.7,0.57-1.269,1.272-1.269c0.7,0,1.27,0.568,1.27,1.269V11.369z"/>
		<path fill="#FFFFFF" d="M9.975,16.699v0.738c0,2.551,2.066,4.615,4.616,4.615s4.616-2.064,4.616-4.615v-0.738H9.975z"/>
		<path fill="#383838" d="M8.172,25c0-0.742,0.545-1.08,1.209-0.752l7.125,3.516c0.664,0.328,0.664,0.865,0,1.193l-7.125,3.516
			c-0.664,0.328-1.209-0.01-1.209-0.752V25z"/>
		<path fill="#383838" d="M20.963,31.752c0,0.742-0.545,1.079-1.21,0.751l-7.19-3.547c-0.666-0.328-0.666-0.865,0-1.193l7.19-3.549
			c0.665-0.328,1.21,0.01,1.21,0.752V31.752z"/>
	</g>
</g>
</svg>
