<?xml version="1.0" encoding="utf-8"?>
<!-- Generator: Adobe Illustrator 16.0.0, SVG Export Plug-In . SVG Version: 6.00 Build 0)  -->
<!DOCTYPE svg PUBLIC "-//W3C//DTD SVG 1.1//EN" "http://www.w3.org/Graphics/SVG/1.1/DTD/svg11.dtd">
<svg version="1.1" id="Layer_1" xmlns="http://www.w3.org/2000/svg" xmlns:xlink="http://www.w3.org/1999/xlink" x="0px" y="0px"
	 width="300px" height="300px" viewBox="0 0 300 300" enable-background="new 0 0 300 300" xml:space="preserve">
<g>
	<g>
		<path fill="#333333" d="M87.969,271.801c-2.204-9.806-17.257-1.759-19.924-13.614c-1.611-7.17,3.863-10.4,8.694-11.486
			c3.463-0.779,8.768-0.895,9.263,1.301c0.175,0.781-0.132,2.387-1.252,2.64c-1.122,0.252-2.954-1.284-7.198-0.329
			c-3.611,0.811-6.34,2.808-5.496,6.563c1.855,8.245,16.939,0.343,19.923,13.614c1.569,6.977-2.183,11.253-8.378,12.646
			c-6.294,1.414-11.111-1.09-11.583-3.188c-0.221-0.977,0.372-2.443,1.3-2.65c1.462-0.33,3.476,3.37,9.23,2.076
			C86.646,278.452,88.88,275.849,87.969,271.801z"/>
		<path fill="#333333" d="M99.996,264.608v-15.051c0-7.951,4.701-10.9,10.752-10.9c6.049,0,10.801,2.949,10.801,10.9v15.051
			c0,7.949-4.752,10.9-10.801,10.9C104.697,275.509,99.996,272.558,99.996,264.608z M117.349,249.558c0-4.852-2.5-7.102-6.601-7.102
			c-4.102,0-6.553,2.25-6.553,7.102v15.051c0,4.85,2.451,7.1,6.553,7.1c4.101,0,6.601-2.25,6.601-7.1V249.558z"/>
		<path fill="#333333" d="M131.797,248.046c0-0.75,0.601-1.4,1.5-1.449h9.15c6.049,0,11.102,2.398,11.102,10
			c0,6.1-3.252,8.9-7.451,9.75l7.402,14.051c0.146,0.25,0.198,0.5,0.198,0.701c0,1.1-1.3,2.148-2.5,2.148
			c-0.85,0-1.45-0.799-1.901-1.648l-7.549-14.652h-5.752v14.701c0,1-1.049,1.5-2.099,1.5c-1.049,0-2.101-0.5-2.101-1.5V248.046z
			 M135.996,250.396v13.051h6.451c4.15,0,6.901-1.799,6.901-6.551c0-4.699-2.751-6.5-6.901-6.5H135.996z"/>
		<path fill="#333333" d="M182.849,281.647c0,1-1.052,1.5-2.101,1.5c-1.05,0-2.102-0.5-2.102-1.5v-14.701h-5.749l-7.552,14.652
			c-0.448,0.85-1.049,1.648-1.898,1.648c-1.2,0-2.5-1.049-2.5-2.148c0-0.201,0.049-0.451,0.199-0.701l7.4-14.051
			c-4.201-0.85-7.45-3.65-7.45-9.75c0-7.602,5.05-10,11.099-10h9.153c0.899,0.049,1.5,0.699,1.5,1.449V281.647z M172.195,250.396
			c-4.15,0-6.898,1.801-6.898,6.5c0,4.752,2.748,6.551,6.898,6.551h6.451v-13.051H172.195z"/>
		<path fill="#333333" d="M198.87,263.372c0.011-0.197-0.03-0.352-0.123-0.507l-9.252-19.851c-0.132-0.357-0.164-0.66-0.153-0.859
			c0.06-1.049,1.546-1.666,2.596-1.607c0.698,0.039,1.076,0.41,1.438,1.182l7.823,17.617l9.699-16.633
			c0.441-0.727,0.91-1.051,1.559-1.015c1.1,0.062,2.456,0.839,2.397,1.888c-0.011,0.199-0.078,0.496-0.247,0.838l-11.416,18.689
			c-0.106,0.145-0.115,0.295-0.128,0.494l-0.709,12.63c-0.057,0.999-1.133,1.438-2.181,1.38s-2.068-0.617-2.013-1.615
			L198.87,263.372z"/>
		<path fill="#333333" d="M232.241,283.862c0,1.77-1.511,3.41-3.347,3.41c-1.967,0-3.475-1.641-3.475-3.41
			c0-1.904,1.508-3.478,3.475-3.478C230.73,280.385,232.241,281.958,232.241,283.862z M230.995,273.628
			c0,1.182-1.313,1.771-2.165,1.771c-1.114,0-2.164-0.59-2.164-1.771c0-10.232-0.789-22.367-0.789-32.536
			c0-1.835,1.248-2.821,2.953-2.821c1.572,0,2.949,0.986,2.949,2.821C231.779,251.261,230.995,263.396,230.995,273.628z"/>
	</g>
	<g>
		<g id="group-132svg">
			<path id="path-1_37_" fill="#27BFE2" d="M128.191,168.894H110.16c-3.476,0-6.295,1.557-6.295,3.478
				c0,1.923,2.819,3.478,6.295,3.478H111c3.477,0,6.295,1.555,6.295,3.475c0,1.922-2.818,3.476-6.295,3.476l-38.766,0.002
				c-3.477,0-6.294,1.555-6.294,3.475c0,1.922,2.817,3.479,6.294,3.479l46.589-0.002l95.22,0.002c3.475,0,6.293-1.557,6.293-3.478
				s-2.818-3.475-6.293-3.475h-10.76c-3.479,0-6.297-1.559-6.297-3.479c0-1.921,2.818-3.478,6.297-3.478h42.252
				c3.475,0,6.295-1.558,6.295-3.477s-2.82-3.477-6.295-3.477h-3.154H128.191z"/>
			<path id="path-2_37_" fill="#27BFE2" d="M67.388,172.85c-2.913,0-5.278-0.832-5.278-1.861c0-1.028,2.365-1.862,5.278-1.862
				h16.175c2.914,0,5.277,0.834,5.277,1.862c0,1.029-2.363,1.861-5.277,1.861H67.388z"/>
			<path id="path-3_37_" fill="#27BFE2" d="M243.943,140.301h3.206c0.616,0,1.115,0.86,1.115,1.922c0,1.06-0.499,1.923-1.115,1.923
				h-0.153c-0.616,0-1.116,0.859-1.116,1.921c0,1.06,0.5,1.924,1.116,1.924h6.885c0.619,0,1.119,0.858,1.119,1.92
				c0,1.063-0.5,1.925-1.119,1.925h-8.273h-16.908c-0.617,0-1.119-0.861-1.119-1.925c0-1.062,0.502-1.92,1.119-1.92h1.911
				c0.616,0,1.116-0.864,1.116-1.924c0-1.062-0.5-1.921-1.116-1.921h-9.093c-0.617,0-1.119-0.863-1.119-1.923
				c0-1.062,0.502-1.922,1.119-1.922h2.15H243.943z"/>
			<path id="path-4_37_" fill="#27BFE2" d="M85.402,136.1h2.174c0.418,0,0.76,0.366,0.76,0.816c0,0.452-0.342,0.819-0.76,0.819
				h-0.103c-0.415,0-0.757,0.365-0.757,0.816c0,0.453,0.342,0.818,0.757,0.818l4.68,0.001c0.417,0,0.759,0.366,0.759,0.816
				c0,0.453-0.342,0.817-0.759,0.817h-5.622H75.047c-0.419,0-0.761-0.365-0.761-0.817c0-0.45,0.342-0.817,0.761-0.817h1.298
				c0.419,0,0.76-0.365,0.76-0.818c0-0.451-0.341-0.816-0.76-0.816h-6.177c-0.42,0-0.758-0.367-0.758-0.819
				c0-0.45,0.338-0.816,0.758-0.816h1.459H85.402z"/>
			<path id="path-5_37_" fill="#27BFE2" d="M219.658,151.835c1.152,0,2.086-0.715,2.086-1.592c0-0.879-0.934-1.593-2.086-1.593
				h-6.393c-1.151,0-2.084,0.714-2.084,1.593c0,0.877,0.933,1.592,2.084,1.592H219.658z"/>
			<path id="path-6_37_" fill="#27BFE2" d="M162.079,150.242c1.154,0,2.089-0.711,2.089-1.591c0-0.879-0.935-1.592-2.089-1.592
				h-6.39c-1.151,0-2.085,0.713-2.085,1.592c0,0.88,0.934,1.591,2.085,1.591H162.079z"/>
			<path id="path-7_37_" fill="#333333" d="M143.54,145.216c0-9.685-7.925-17.536-17.701-17.536
				c-9.778,0-17.702,7.852-17.702,17.536c0,9.686,7.924,17.539,17.702,17.539C135.615,162.755,143.54,154.901,143.54,145.216z"/>
			<path id="path-8_37_" fill="#333333" d="M211.914,145.215c0-10.335-8.455-18.71-18.887-18.71s-18.891,8.377-18.891,18.711
				s8.459,18.712,18.891,18.712C203.459,163.926,211.914,155.55,211.914,145.215z"/>
			<path id="path-9_34_" opacity="0.35" fill="#010101" enable-background="new    " d="M135.248,130.332
				c1.717,2.704,2.727,5.894,2.727,9.323c0,9.682-7.928,17.535-17.702,17.535c-3.462,0-6.683-1.002-9.409-2.702
				c3.133,4.929,8.662,8.214,14.976,8.214c9.776,0,17.701-7.851,17.701-17.538C143.54,138.911,140.225,133.435,135.248,130.332z"/>
			<path id="path-10_32_" opacity="0.35" fill="#010101" enable-background="new    " d="M198.338,127.215
				c4.629,3.413,7.638,8.854,7.638,15.01c0,10.335-8.454,18.713-18.888,18.712c-1.842,0-3.623-0.273-5.31-0.76
				c3.147,2.313,7.026,3.703,11.249,3.703c10.432-0.004,18.887-8.379,18.887-18.716C211.914,136.661,206.18,129.491,198.338,127.215
				z"/>
			<path id="path-11_28_" fill="#333333" d="M92.08,78.32c-0.902,0-1.801-0.305-2.486-0.988L67.869,55.607H48.494
				c-1.933,0-3.494-1.931-3.494-3.844c0-1.912,1.562-3.841,3.494-3.841h22.293L94.566,72.08c1.361,1.36,1.346,3.724-0.026,5.069
				C93.859,77.816,92.969,78.32,92.08,78.32z"/>
			<path id="path-12_24_" fill="#FBB713" d="M191.757,12.728h-32.411v60.115l72.932-0.001v-19.59
				C232.277,30.871,214.136,12.726,191.757,12.728z"/>
			<path id="path-13_19_" opacity="0.25" fill="#010101" enable-background="new    " d="M191.525,12.728h-26.93
				c26.24,0,47.509,21.068,47.509,47.06v13.055h20.173V59.787C235.08,35.874,217.762,12.726,191.525,12.728z"/>
			<path id="path-14_15_" fill="#2476FF" d="M86.408,71.429v22.607c0,18.479,15.121,33.458,33.775,33.458l78.32-0.002
				c18.652,0,33.773-14.977,33.773-33.457V71.427L86.408,71.429z"/>
			<path id="path-15_13_" opacity="0.35" fill="#010101" enable-background="new    " d="M211.914,71.427l0.19,6.622
				c0,18.479-15.12,33.459-33.776,33.459l-78.32-0.003c-3.271,0-6.422-0.482-9.412-1.343c5.746,10.329,16.837,17.332,29.588,17.332
				l78.32-0.002c18.652,0,33.773-14.977,33.773-33.457l-0.188-22.608H211.914L211.914,71.427z"/>
		</g>
	</g>
</g>
</svg>
