<?xml version="1.0" encoding="utf-8"?>
<!-- Generator: Adobe Illustrator 16.0.0, SVG Export Plug-In . SVG Version: 6.00 Build 0)  -->
<!DOCTYPE svg PUBLIC "-//W3C//DTD SVG 1.1//EN" "http://www.w3.org/Graphics/SVG/1.1/DTD/svg11.dtd">
<svg version="1.1" id="Layer_1" xmlns="http://www.w3.org/2000/svg" xmlns:xlink="http://www.w3.org/1999/xlink" x="0px" y="0px"
	 width="19px" height="24.337px" viewBox="0 0 19 24.337" enable-background="new 0 0 19 24.337" xml:space="preserve">
<g>
	<g>
		<path fill="#FFFFFF" d="M9.683,11.068c-3.052,0-5.534-2.482-5.534-5.534S6.631,0,9.683,0s5.534,2.482,5.534,5.534
			S12.734,11.068,9.683,11.068z M9.683,3C8.285,3,7.148,4.137,7.148,5.534s1.137,2.534,2.534,2.534s2.534-1.137,2.534-2.534
			S11.08,3,9.683,3z"/>
	</g>
	<g>
		<path fill="#FFFFFF" d="M19,24.337H0v-2.084c0-5.282,4.51-9.916,9.65-9.916h0.234c5.026,0,9.115,4.448,9.115,9.916V24.337z
			 M3.067,21.337h12.872c-0.397-3.046-2.73-6-6.055-6H9.65C6.466,15.337,3.542,18.096,3.067,21.337z"/>
	</g>
</g>
</svg>
