<?xml version="1.0" encoding="utf-8"?>
<!-- Generator: Adobe Illustrator 16.0.0, SVG Export Plug-In . SVG Version: 6.00 Build 0)  -->
<!DOCTYPE svg PUBLIC "-//W3C//DTD SVG 1.1//EN" "http://www.w3.org/Graphics/SVG/1.1/DTD/svg11.dtd">
<svg version="1.1" id="Layer_1" xmlns="http://www.w3.org/2000/svg" xmlns:xlink="http://www.w3.org/1999/xlink" x="0px" y="0px"
	 width="714.517px" height="456.454px" viewBox="0 0 714.517 456.454" enable-background="new 0 0 714.517 456.454"
	 xml:space="preserve">
<g>
	<path fill="#CE0649" d="M361.249,282.329h17.588c-1.584,8.531-9.082,15.01-18.062,15.01c-8.984,0-16.483-6.479-18.066-15.01h11.823
		v3.178c0,1.856,1.503,3.359,3.358,3.359c1.856,0,3.359-1.503,3.359-3.359V282.329z"/>
	<path fill="#F9C5EE" d="M295.194,247.279v23.685c-5.16-1.466-8.952-6.219-8.952-11.841
		C286.242,253.497,290.034,248.749,295.194,247.279z"/>
	<path fill="#F9C5EE" d="M426.352,247.279c5.159,1.47,8.955,6.218,8.955,11.844c0,5.622-3.796,10.375-8.955,11.841V247.279z"/>
	<path fill="#FCD9EB" d="M419.634,237.576v35.029c0,14.749-5.4,24.951-16.509,31.19c-9.489,5.328-23.344,7.918-42.351,7.918
		c-9.506,0-17.723-0.646-24.746-1.96c-7.028-1.314-12.864-3.296-17.608-5.958c-11.109-6.239-16.509-16.441-16.509-31.19v-35.029
		c0-26.58,17.714-49.097,41.951-56.382c18.466,0.235,28.303,13.565,28.303,23.218c0,7.39-6.017,13.406-13.41,13.406
		c-5.542,0-10.051-4.509-10.051-10.056c0-4.064,3.304-7.372,7.368-7.372c1.855,0,3.358-1.503,3.358-3.359
		c0-1.852-1.503-3.358-3.358-3.358c-7.768,0-14.087,6.323-14.087,14.09c0,9.25,7.524,16.773,16.77,16.773
		c11.097,0,20.128-9.027,20.128-20.124c0-6.974-3.506-14.472-9.371-20.064c-2.348-2.237-5.021-4.118-7.936-5.622
		C393.666,179.158,419.634,205.39,419.634,237.576z M401.114,261.86c0-3.564-2.893-6.452-6.453-6.452
		c-3.564,0-6.453,2.888-6.453,6.452c0,3.565,2.889,6.454,6.453,6.454C398.222,268.314,401.114,265.425,401.114,261.86z
		 M385.86,278.969c0-1.855-1.503-3.358-3.358-3.358h-43.459c-1.855,0-3.358,1.503-3.358,3.358c0,13.835,11.256,25.086,25.09,25.086
		S385.86,292.804,385.86,278.969z M333.341,261.86c0-3.564-2.893-6.452-6.453-6.452c-3.564,0-6.453,2.888-6.453,6.452
		c0,3.565,2.889,6.454,6.453,6.454C330.448,268.314,333.341,265.425,333.341,261.86z"/>
	<path fill="#333333" d="M426.352,240.398c8.896,1.591,15.673,9.379,15.673,18.725c0,9.426-6.895,17.269-15.899,18.769
		c-1.269,14.446-7.882,25.119-19.713,31.762c-10.517,5.907-25.447,8.779-45.638,8.779s-35.121-2.872-45.643-8.779
		c-11.831-6.643-18.439-17.315-19.708-31.762c-9.009-1.5-15.899-9.343-15.899-18.769c0-9.346,6.772-17.134,15.67-18.725v-2.822
		c0-36.161,29.418-65.581,65.58-65.581c36.158,0,65.577,29.42,65.577,65.581V240.398z M435.307,259.123
		c0-5.626-3.796-10.374-8.955-11.844v23.685C431.511,269.498,435.307,264.745,435.307,259.123z M419.634,272.605v-35.029
		c0-32.186-25.968-58.418-58.058-58.851c2.914,1.504,5.588,3.385,7.936,5.622c5.865,5.593,9.371,13.091,9.371,20.064
		c0,11.097-9.031,20.124-20.128,20.124c-9.245,0-16.77-7.523-16.77-16.773c0-7.767,6.319-14.09,14.087-14.09
		c1.855,0,3.358,1.507,3.358,3.358c0,1.856-1.503,3.359-3.358,3.359c-4.064,0-7.368,3.308-7.368,7.372
		c0,5.547,4.509,10.056,10.051,10.056c7.394,0,13.41-6.017,13.41-13.406c0-9.652-9.837-22.982-28.303-23.218
		c-24.237,7.285-41.951,29.802-41.951,56.382v35.029c0,14.749,5.399,24.951,16.509,31.19c4.744,2.662,10.58,4.644,17.608,5.958
		c7.023,1.313,15.24,1.96,24.746,1.96c19.007,0,32.861-2.59,42.351-7.918C414.233,297.556,419.634,287.354,419.634,272.605z
		 M295.194,270.963v-23.685c-5.16,1.47-8.952,6.218-8.952,11.844C286.242,264.745,290.034,269.498,295.194,270.963z"/>
	<path fill="#333333" d="M394.661,255.408c3.561,0,6.453,2.888,6.453,6.452c0,3.565-2.893,6.454-6.453,6.454
		c-3.564,0-6.453-2.889-6.453-6.454C388.208,258.295,391.097,255.408,394.661,255.408z"/>
	<path fill="#333333" d="M382.502,275.611c1.855,0,3.358,1.503,3.358,3.358c0,13.835-11.252,25.086-25.086,25.086
		s-25.09-11.251-25.09-25.086c0-1.855,1.503-3.358,3.358-3.358H382.502z M378.837,282.329h-17.588h-6.718h-11.823
		c1.583,8.531,9.082,15.01,18.066,15.01C369.755,297.338,377.253,290.86,378.837,282.329z"/>
	<path fill="#FFFFFF" d="M361.249,282.329v3.178c0,1.856-1.503,3.359-3.359,3.359c-1.855,0-3.358-1.503-3.358-3.359v-3.178H361.249z
		"/>
	<path fill="#333333" d="M326.888,255.408c3.561,0,6.453,2.888,6.453,6.452c0,3.565-2.893,6.454-6.453,6.454
		c-3.564,0-6.453-2.889-6.453-6.454C320.435,258.295,323.323,255.408,326.888,255.408z"/>
</g>
<g>
	<path fill="#333333" d="M496.495,422.7c0,1.77-1.51,3.41-3.346,3.41c-1.967,0-3.475-1.641-3.475-3.41
		c0-1.904,1.508-3.478,3.475-3.478C494.985,419.222,496.495,420.795,496.495,422.7z M495.249,412.465
		c0,1.182-1.312,1.771-2.164,1.771c-1.115,0-2.166-0.59-2.166-1.771c0-10.232-0.787-22.367-0.787-32.536
		c0-1.835,1.246-2.821,2.953-2.821c1.572,0,2.949,0.986,2.949,2.821C496.034,390.098,495.249,402.233,495.249,412.465z"/>
	<path fill="#333333" d="M246.583,380.588c0.994-0.107,1.596,0.781,1.699,1.725c0.107,0.994-0.283,2.043-1.277,2.15l-8.002,0.873
		l3.379,30.969c0.109,0.994-0.881,1.605-1.926,1.72c-1.043,0.114-2.143-0.27-2.25-1.264l-3.379-30.969l-8.051,0.878
		c-0.945,0.104-1.594-0.779-1.709-1.824c-0.098-0.893,0.291-1.941,1.285-2.051L246.583,380.588z"/>
	<path fill="#333333" d="M273.624,401.934h-13.551v15.701c0,1-1.051,1.5-2.1,1.5c-1.051,0-2.102-0.5-2.102-1.5v-33.602
		c0-1,1.051-1.449,2.102-1.449c1.049,0,2.1,0.449,2.1,1.449v14.4h13.551v-14.4c0-1,1.051-1.449,2.1-1.449
		c1.051,0,2.102,0.449,2.102,1.449v33.602c0,1-1.051,1.5-2.102,1.5c-1.049,0-2.1-0.5-2.1-1.5V401.934z"/>
	<path fill="#333333" d="M287.272,382.282c0.75,0,1.35,0.301,1.551,0.951l2.199,7.449h13.15l2.201-7.449
		c0.199-0.65,0.801-0.951,1.5-0.951c1.199,0,2.6,0.801,2.6,1.801c0,0.1-0.049,0.199-0.049,0.35l-10.201,33.252
		c-0.301,0.951-1.449,1.451-2.6,1.451s-2.301-0.451-2.602-1.451l-10.199-33.252c-0.051-0.15-0.102-0.25-0.102-0.4
		C284.722,382.983,286.173,382.282,287.272,382.282z M291.974,394.133l5.65,18.801l5.549-18.801H291.974z"/>
	<path fill="#333333" d="M334.122,417.235l-13-25.15v25.551c0,1-1.051,1.5-2.1,1.5c-1.051,0-2.102-0.5-2.102-1.5v-33.602
		c0-1.051,1-1.449,2.102-1.449c1.5,0,2.299,0.898,3.199,2.648l12.451,24.352v-25.551c0-1,1.051-1.449,2.1-1.449
		c1.051,0,2.102,0.449,2.102,1.449v33.602c0,1-1.051,1.5-2.102,1.5C335.622,419.135,334.724,418.336,334.122,417.235z"/>
	<path fill="#333333" d="M347.972,384.034c0-1,1.051-1.449,2.1-1.449c1.051,0,2.1,0.449,2.1,1.449v16.551l13.402-17.4
		c0.299-0.4,0.799-0.6,1.25-0.6c1.049,0,2.4,1.1,2.4,2.148c0,0.25-0.102,0.602-0.352,0.9l-10.199,12.752l11.9,18
		c0.15,0.25,0.25,0.5,0.25,0.75c0,1.1-1.25,2.1-2.451,2.1c-0.6,0-1.148-0.25-1.549-0.85l-10.951-16.451l-3.701,4.65v11.051
		c0,1-1.049,1.5-2.1,1.5c-1.049,0-2.1-0.5-2.1-1.5V384.034z"/>
	<path fill="#333333" d="M396.423,404.985c0-0.199-0.051-0.35-0.15-0.5l-10.352-19.301c-0.148-0.35-0.199-0.65-0.199-0.85
		c0-1.051,1.449-1.75,2.5-1.75c0.699,0,1.1,0.35,1.5,1.1l8.801,17.15l8.75-17.15c0.4-0.75,0.85-1.1,1.5-1.1
		c1.102,0,2.5,0.699,2.5,1.75c0,0.199-0.049,0.5-0.199,0.85l-10.352,19.301c-0.1,0.15-0.1,0.301-0.1,0.5v12.65
		c0,1-1.049,1.5-2.1,1.5s-2.1-0.5-2.1-1.5V404.985z"/>
	<path fill="#333333" d="M417.222,403.907v-15.051c0-7.951,4.699-10.9,10.75-10.9s10.801,2.949,10.801,10.9v15.051
		c0,7.949-4.75,10.9-10.801,10.9S417.222,411.856,417.222,403.907z M434.571,388.856c0-4.852-2.5-7.102-6.6-7.102
		s-6.551,2.25-6.551,7.102v15.051c0,4.85,2.451,7.1,6.551,7.1s6.6-2.25,6.6-7.1V388.856z"/>
	<path fill="#333333" d="M469.241,386.032c0.23-0.973,1.307-1.182,2.377-0.928c0.973,0.229,1.941,0.92,1.713,1.893l-5.629,23.848
		c-1.826,7.736-7.176,9.506-13.162,8.093s-9.932-5.376-8.105-13.112l5.629-23.848c0.23-0.973,1.354-1.17,2.377-0.929
		c1.021,0.241,1.939,0.92,1.711,1.894l-5.629,23.847c-1.115,4.72,0.801,7.483,4.891,8.449c4.086,0.965,7.086-0.64,8.201-5.358
		L469.241,386.032z"/>
</g>
<g>
	<g id="group-134svg">
		<path id="path-1_39_" fill="#333333" d="M87.952,204.598c-0.143,0-0.281-0.004-0.414-0.011c-1.011-0.05-1.789-0.9-1.742-1.903
			c0.051-0.998,0.934-1.744,1.91-1.725c0.693,0.023,6.783,0.033,7.855-7.26c0.145-0.992,1.062-1.682,2.076-1.535
			c1.004,0.145,1.697,1.066,1.551,2.059C97.977,202.478,91.538,204.598,87.952,204.598z"/>
		<path id="path-2_39_" fill="#0CB04A" d="M93.042,192.706h4.334h3.225v-10.581h-3.293h-4.266V192.706z"/>
		<path id="path-3_39_" opacity="0.25" fill="#020403" enable-background="new    " d="M96.82,183.715h-3.415v1.725l3.483,1.724
			v5.946h3.851v-9.395H96.82z"/>
		<path id="path-4_39_" opacity="0.7" fill="#27BFE2" d="M128.05,146.994c0-20.538-13.764-37.187-30.742-37.187
			s-30.742,16.648-30.742,37.187c0,20.537,13.764,37.186,30.742,37.187C114.286,184.18,128.05,167.531,128.05,146.994z"/>
		<path id="path-5_39_" fill="#FFFFFF" d="M73.614,145.022c-1.518,0-2.749-1.221-2.749-2.727c0-14.925,10.262-27.068,22.874-27.068
			c1.52,0,2.751,1.221,2.751,2.726s-1.231,2.724-2.751,2.724c-9.58,0-17.374,9.699-17.374,21.619
			C76.365,143.801,75.134,145.022,73.614,145.022z"/>
		<path id="path-6_39_" opacity="0.25" fill="#010101" enable-background="new    " d="M106.249,111.516
			c5.905,6.775,9.605,16.332,9.605,26.956c0,20.537-13.763,37.187-30.741,37.187c-3.113,0-6.111-0.57-8.942-1.61
			c5.511,6.325,12.939,10.23,21.137,10.23c16.979,0,30.742-16.648,30.742-37.187C128.05,130.319,118.864,116.149,106.249,111.516z"
			/>
		<path id="path-7_39_" fill="#FBB713" d="M76.873,151.334h7.942c1.532,0,2.773,0.658,2.773,1.473c0,0.812-1.241,1.473-2.773,1.473
			h-0.369c-1.531,0-2.773,0.658-2.773,1.471s1.242,1.473,2.773,1.473h17.074c1.531,0,2.772,0.658,2.772,1.471
			c0,0.813-1.241,1.473-2.772,1.473h-20.52H58.448c-1.531,0-2.772-0.659-2.772-1.473c0-0.812,1.241-1.471,2.772-1.471h4.739
			c1.53,0,2.772-0.66,2.772-1.473s-1.242-1.471-2.772-1.471l-22.554-0.002c-1.531,0-2.772-0.658-2.772-1.472
			s1.241-1.472,2.772-1.472h5.331H76.873z"/>
		<path id="path-9_36_" fill="#FBB713" d="M135.286,124.319h3.648c0.702,0,1.271,0.373,1.271,0.836c0,0.461-0.569,0.834-1.271,0.834
			h-0.171c-0.703,0-1.272,0.375-1.272,0.836c0,0.459,0.569,0.834,1.272,0.834h7.84c0.704,0,1.273,0.374,1.273,0.835
			s-0.569,0.835-1.273,0.835h-9.421h-19.26c-0.703,0-1.272-0.373-1.272-0.835c0-0.461,0.569-0.835,1.272-0.835h2.176
			c0.704,0,1.274-0.375,1.274-0.834c0-0.461-0.57-0.836-1.274-0.836h-10.355c-0.703,0-1.273-0.373-1.273-0.834
			c0-0.463,0.57-0.836,1.273-0.836h2.449H135.286z"/>
		<path id="path-10_34_" fill="#FBB713" d="M107.626,130.233c1.312,0,2.375-0.311,2.375-0.691c0-0.383-1.063-0.691-2.375-0.691
			h-7.278c-1.312,0-2.377,0.309-2.377,0.691c0,0.381,1.065,0.691,2.377,0.691H107.626z"/>
	</g>
</g>
<g>
	<g id="group-134svg_1_">
		<path id="path-1_1_" fill="#333333" d="M633.942,252.812c-0.143,0-0.281-0.004-0.414-0.011c-1.011-0.05-1.789-0.9-1.742-1.903
			c0.051-0.998,0.934-1.744,1.91-1.725c0.693,0.023,6.783,0.033,7.855-7.26c0.145-0.992,1.062-1.682,2.076-1.535
			c1.004,0.145,1.697,1.066,1.551,2.059C643.967,250.692,637.528,252.812,633.942,252.812z"/>
		<path id="path-2_1_" fill="#0CB04A" d="M639.032,240.919h4.334h3.225v-10.581h-3.293h-4.266V240.919z"/>
		<path id="path-3_1_" opacity="0.25" fill="#020403" enable-background="new    " d="M642.811,231.929h-3.415v1.725l3.483,1.724
			v5.946h3.851v-9.395H642.811z"/>
		<path id="path-4_1_" opacity="0.6" fill="#27BFE2" d="M674.04,195.208c0-20.538-13.764-37.187-30.742-37.187
			s-30.742,16.648-30.742,37.187c0,20.537,13.764,37.186,30.742,37.187C660.276,232.394,674.04,215.745,674.04,195.208z"/>
		<path id="path-5_1_" fill="#FFFFFF" d="M619.604,193.236c-1.518,0-2.749-1.221-2.749-2.727c0-14.925,10.262-27.068,22.874-27.068
			c1.52,0,2.751,1.221,2.751,2.726s-1.231,2.724-2.751,2.724c-9.58,0-17.374,9.699-17.374,21.619
			C622.355,192.015,621.124,193.236,619.604,193.236z"/>
		<path id="path-6_1_" opacity="0.25" fill="#010101" enable-background="new    " d="M652.239,159.73
			c5.905,6.775,9.605,16.332,9.605,26.956c0,20.537-13.763,37.187-30.741,37.187c-3.113,0-6.111-0.57-8.942-1.61
			c5.511,6.325,12.939,10.23,21.137,10.23c16.979,0,30.742-16.648,30.742-37.187C674.04,178.533,664.854,164.363,652.239,159.73z"/>
		<path id="path-8_1_" fill="#FBB713" d="M677.25,201.034c1.749,0,3.165-0.753,3.165-1.681s-1.416-1.682-3.165-1.682h-9.703
			c-1.748,0-3.166,0.754-3.166,1.682s1.418,1.681,3.166,1.681H677.25z"/>
		<path id="path-9_1_" fill="#FBB713" d="M665.609,172.533h3.648c0.702,0,1.271,0.373,1.271,0.836c0,0.461-0.569,0.834-1.271,0.834
			h-0.171c-0.703,0-1.272,0.375-1.272,0.836c0,0.459,0.569,0.834,1.272,0.834h7.84c0.704,0,1.273,0.374,1.273,0.835
			s-0.569,0.835-1.273,0.835h-9.421h-19.26c-0.703,0-1.272-0.373-1.272-0.835c0-0.461,0.569-0.835,1.272-0.835h2.176
			c0.704,0,1.274-0.375,1.274-0.834c0-0.461-0.57-0.836-1.274-0.836h-10.355c-0.703,0-1.273-0.373-1.273-0.834
			c0-0.463,0.57-0.836,1.273-0.836h2.449H665.609z"/>
		<path id="path-10_1_" fill="#FBB713" d="M637.949,178.447c1.312,0,2.375-0.311,2.375-0.691c0-0.383-1.063-0.691-2.375-0.691
			h-7.278c-1.312,0-2.377,0.309-2.377,0.691c0,0.381,1.065,0.691,2.377,0.691H637.949z"/>
	</g>
</g>
<g>
	<g id="group-134svg_2_">
		<path id="path-1_2_" fill="#333333" d="M414.717,122.152c-0.143,0-0.281-0.004-0.414-0.011c-1.011-0.05-1.789-0.9-1.742-1.903
			c0.051-0.998,0.934-1.744,1.91-1.725c0.693,0.023,6.783,0.033,7.855-7.26c0.145-0.992,1.062-1.682,2.076-1.535
			c1.004,0.145,1.697,1.066,1.551,2.059C424.741,120.032,418.303,122.152,414.717,122.152z"/>
		<path id="path-2_2_" fill="#0CB04A" d="M419.807,110.259h4.334h3.225V99.678h-3.293h-4.266V110.259z"/>
		<path id="path-3_2_" opacity="0.25" fill="#020403" enable-background="new    " d="M423.585,101.269h-3.415v1.725l3.483,1.724
			v5.946h3.851v-9.395H423.585z"/>
		<path id="path-4_2_" opacity="0.6" fill="#27BFE2" d="M454.814,64.547c0-20.538-13.764-37.187-30.742-37.187
			S393.33,44.009,393.33,64.547c0,20.537,13.764,37.186,30.742,37.187C441.051,101.734,454.814,85.084,454.814,64.547z"/>
		<path id="path-5_2_" fill="#FFFFFF" d="M400.379,62.576c-1.518,0-2.749-1.221-2.749-2.727c0-14.925,10.262-27.068,22.874-27.068
			c1.52,0,2.751,1.221,2.751,2.726s-1.231,2.724-2.751,2.724c-9.58,0-17.374,9.699-17.374,21.619
			C403.13,61.355,401.898,62.576,400.379,62.576z"/>
		<path id="path-6_2_" opacity="0.25" fill="#010101" enable-background="new    " d="M433.014,29.07
			c5.905,6.775,9.605,16.332,9.605,26.956c0,20.537-13.763,37.187-30.741,37.187c-3.113,0-6.111-0.57-8.942-1.61
			c5.511,6.325,12.939,10.23,21.137,10.23c16.979,0,30.742-16.648,30.742-37.187C454.814,47.873,445.629,33.703,433.014,29.07z"/>
		<path id="path-7_2_" fill="#FBB713" d="M441.609,68.888h7.942c1.532,0,2.773,0.658,2.773,1.473c0,0.812-1.241,1.473-2.773,1.473
			h-0.369c-1.531,0-2.773,0.658-2.773,1.471s1.242,1.473,2.773,1.473h17.074c1.531,0,2.772,0.658,2.772,1.471
			c0,0.813-1.241,1.473-2.772,1.473h-20.52h-22.553c-1.531,0-2.772-0.659-2.772-1.473c0-0.812,1.241-1.471,2.772-1.471h4.739
			c1.53,0,2.772-0.66,2.772-1.473s-1.242-1.471-2.772-1.471l-22.554-0.002c-1.531,0-2.772-0.658-2.772-1.472
			s1.241-1.472,2.772-1.472h5.331H441.609z"/>
		<path id="path-8_2_" fill="#FBB713" d="M458.024,70.374c1.749,0,3.165-0.753,3.165-1.681s-1.416-1.682-3.165-1.682h-9.703
			c-1.748,0-3.166,0.754-3.166,1.682s1.418,1.681,3.166,1.681H458.024z"/>
		<path id="path-9_2_" fill="#FBB713" d="M462.051,41.873h3.648c0.702,0,1.271,0.373,1.271,0.836c0,0.461-0.569,0.834-1.271,0.834
			h-0.171c-0.703,0-1.272,0.375-1.272,0.836c0,0.459,0.569,0.834,1.272,0.834h7.84c0.704,0,1.273,0.374,1.273,0.835
			s-0.569,0.835-1.273,0.835h-9.421h-19.26c-0.703,0-1.272-0.373-1.272-0.835c0-0.461,0.569-0.835,1.272-0.835h2.176
			c0.704,0,1.274-0.375,1.274-0.834c0-0.461-0.57-0.836-1.274-0.836h-10.355c-0.703,0-1.273-0.373-1.273-0.834
			c0-0.463,0.57-0.836,1.273-0.836h2.449H462.051z"/>
		<path id="path-10_2_" fill="#FBB713" d="M434.391,47.787c1.312,0,2.375-0.311,2.375-0.691c0-0.383-1.063-0.691-2.375-0.691h-7.278
			c-1.312,0-2.377,0.309-2.377,0.691c0,0.381,1.065,0.691,2.377,0.691H434.391z"/>
	</g>
</g>
</svg>
