<?xml version="1.0" encoding="utf-8"?>
<!-- Generator: Adobe Illustrator 16.0.0, SVG Export Plug-In . SVG Version: 6.00 Build 0)  -->
<!DOCTYPE svg PUBLIC "-//W3C//DTD SVG 1.1//EN" "http://www.w3.org/Graphics/SVG/1.1/DTD/svg11.dtd">
<svg version="1.1" id="Layer_1" xmlns="http://www.w3.org/2000/svg" xmlns:xlink="http://www.w3.org/1999/xlink" x="0px" y="0px"
	 width="106.64px" height="61.691px" viewBox="0 0 106.64 61.691" enable-background="new 0 0 106.64 61.691" xml:space="preserve">
<g>
	<g>
		<path d="M30.846,15.164c2.983,0,5.4,2.419,5.4,5.4c0,2.98-2.417,5.398-5.4,5.398c-2.981,0-5.397-2.418-5.397-5.398
			C25.448,17.583,27.865,15.164,30.846,15.164 M30.846,38.299c7.636,0,15.682,3.755,15.682,5.399v2.829H15.167v-2.829
			C15.167,42.054,23.211,38.299,30.846,38.299 M30.846,10.281c-5.681,0-10.282,4.602-10.282,10.283
			c0,5.68,4.601,10.281,10.282,10.281c5.681,0,10.282-4.602,10.282-10.281C41.128,14.883,36.527,10.281,30.846,10.281z
			 M30.846,33.416c-6.862,0-20.563,3.445-20.563,10.282v7.712H51.41v-7.712C51.41,36.861,37.709,33.416,30.846,33.416z"/>
	</g>
	<g>
		<path d="M75.615,50.98h-7.196c-1.47,0-2.735-1.048-3.005-2.494l-0.524-3.701c-0.466-0.241-0.919-0.507-1.359-0.797l-3.385,1.361
			c-1.556,0.582-2.988-0.022-3.738-1.264l-3.621-6.256c-0.754-1.259-0.473-2.896,0.683-3.869l2.937-2.303
			c-0.018-0.279-0.025-0.549-0.025-0.813c0-0.257,0.007-0.518,0.022-0.785l-2.878-2.258c-1.211-1.022-1.49-2.66-0.725-3.941
			l3.586-6.193c0.774-1.288,2.356-1.828,3.71-1.321l3.434,1.384c0.435-0.283,0.89-0.549,1.359-0.793l0.509-3.612
			c0.272-1.546,1.537-2.614,3.021-2.614h7.196c1.47,0,2.735,1.048,3.005,2.494l0.524,3.701c0.466,0.241,0.919,0.507,1.361,0.797
			l3.383-1.361c1.551-0.586,2.99,0.022,3.74,1.264l3.622,6.256c0.752,1.259,0.471,2.896-0.685,3.869l-2.937,2.303
			c0.018,0.279,0.027,0.549,0.027,0.813c0,0.257-0.009,0.518-0.024,0.785l2.878,2.258c1.211,1.022,1.49,2.66,0.725,3.941
			l-3.586,6.193c-0.576,0.962-1.555,1.516-2.635,1.516l0,0c-0.368,0-0.729-0.064-1.073-0.194l-3.436-1.384
			c-0.435,0.283-0.888,0.549-1.359,0.793l-0.509,3.612C78.364,49.912,77.099,50.98,75.615,50.98z M69.485,46.697h5.061l0.685-4.876
			l1.106-0.476c0.948-0.41,1.812-0.912,2.564-1.496l0.973-0.757l4.608,1.853l2.523-4.361l-3.914-3.065l0.169-1.22
			c0.071-0.521,0.109-1.007,0.109-1.453s-0.038-0.933-0.111-1.492l-0.161-1.212l3.907-3.062l-2.523-4.359l-4.608,1.854l-0.973-0.756
			c-0.792-0.616-1.622-1.104-2.546-1.491l-1.123-0.468l-0.685-4.865h-5.061l-0.685,4.875l-1.106,0.477
			c-0.948,0.41-1.81,0.912-2.564,1.496l-0.973,0.757l-4.605-1.853l-2.524,4.361l3.912,3.064l-0.169,1.221
			c-0.071,0.521-0.107,1.007-0.107,1.453s0.036,0.933,0.109,1.492l0.161,1.212l-3.905,3.062l2.524,4.359l4.605-1.854l0.973,0.756
			c0.792,0.616,1.625,1.104,2.546,1.491l1.123,0.468L69.485,46.697z M72.018,38.129c-4.016,0-7.283-3.267-7.283-7.283
			s3.267-7.283,7.283-7.283c4.017,0,7.283,3.267,7.283,7.283S76.035,38.129,72.018,38.129z M72.018,27.847
			c-1.653,0-2.999,1.346-2.999,2.999s1.345,2.999,2.999,2.999s2.999-1.346,2.999-2.999S73.671,27.847,72.018,27.847z"/>
	</g>
</g>
<g>
	<g>
		<path d="M329.834,8.715c3.396,0,6.147,2.755,6.147,6.148c0,3.395-2.751,6.148-6.147,6.148c-3.395,0-6.146-2.754-6.146-6.148
			C323.688,11.47,326.439,8.715,329.834,8.715 M329.834,35.057c8.694,0,17.855,4.275,17.855,6.148v3.221h-35.707v-3.221
			C311.982,39.332,321.143,35.057,329.834,35.057 M329.834,3.156c-6.468,0-11.707,5.238-11.707,11.707s5.239,11.707,11.707,11.707
			s11.707-5.238,11.707-11.707S336.302,3.156,329.834,3.156z M329.834,29.497c-7.813,0-23.413,3.923-23.413,11.708v8.779h46.826
			v-8.779C353.247,33.42,337.649,29.497,329.834,29.497z"/>
	</g>
	<g>
		<path fill="none" d="M294.713-8.551h70.242v70.242h-70.242V-8.551z"/>
	</g>
</g>
<g>
	<g>
		<path d="M895.64,52.991c-11.061,0-20.06-9-20.06-20.062c0-11.06,8.999-20.058,20.06-20.058s20.06,8.998,20.06,20.058
			C915.699,43.991,906.7,52.991,895.64,52.991z M895.64,18.872c-7.753,0-14.06,6.307-14.06,14.058
			c0,7.754,6.307,14.062,14.06,14.062s14.06-6.308,14.06-14.062C909.699,25.179,903.393,18.872,895.64,18.872z"/>
	</g>
	<g>
		<g>
			<polygon points="897.331,16.808 893.089,12.565 899.305,6.349 899.187,6.149 890.752,6.149 890.752,0.149 902.599,0.149 
				906.846,7.292 			"/>
		</g>
		<g>
			<polygon points="893.949,16.82 884.432,7.305 888.681,0.161 900.527,0.161 900.527,6.161 892.093,6.161 891.975,6.361 
				898.191,12.577 			"/>
		</g>
	</g>
</g>
<g>
	<g>
		<path d="M615.563,50.644l-28.725-34.098l9.953-14.049h38.076l9.574,14.155L615.563,50.644z M590.884,16.377l24.688,29.305
			l24.852-29.25l-7.26-10.729h-34.717L590.884,16.377z"/>
	</g>
	<g>
		<rect x="588.972" y="14.94" width="53.276" height="3.204"/>
	</g>
	<g>
		<rect x="614.044" y="4.06" width="3.204" height="44.012"/>
	</g>
	<g>
		
			<rect x="588.093" y="30.705" transform="matrix(0.5058 0.8627 -0.8627 0.5058 327.5528 -507.1262)" width="36.549" height="3.204"/>
	</g>
	<g>
		
			<rect x="593.814" y="30.377" transform="matrix(0.3239 0.9461 -0.9461 0.3239 442.871 -555.7794)" width="32.982" height="3.206"/>
	</g>
	<g>
		<polygon points="605.264,19.206 596.047,5.321 598.716,3.548 605.573,13.878 614.754,3.024 617.201,5.095 		"/>
	</g>
	<g>
		<rect x="623.479" y="13.897" transform="matrix(0.8554 0.518 -0.518 0.8554 107.0792 -319.158)" width="3.205" height="36.559"/>
	</g>
	<g>
		
			<rect x="619.529" y="15.491" transform="matrix(0.9365 0.3508 -0.3508 0.9365 50.7084 -215.8284)" width="3.205" height="33.143"/>
	</g>
	<g>
		<polygon points="626.322,19.206 614.385,5.095 616.832,3.024 626.013,13.878 632.87,3.548 635.539,5.321 		"/>
	</g>
</g>
</svg>
