<?xml version="1.0" encoding="utf-8"?>
<!-- Generator: Adobe Illustrator 16.0.0, SVG Export Plug-In . SVG Version: 6.00 Build 0)  -->
<!DOCTYPE svg PUBLIC "-//W3C//DTD SVG 1.1//EN" "http://www.w3.org/Graphics/SVG/1.1/DTD/svg11.dtd">
<svg version="1.1" id="Layer_1" xmlns="http://www.w3.org/2000/svg" xmlns:xlink="http://www.w3.org/1999/xlink" x="0px" y="0px"
	 width="40.119px" height="52.842px" viewBox="0 0 40.119 52.842" enable-background="new 0 0 40.119 52.842" xml:space="preserve">
<g>
	<g>
		<path d="M20.06,52.842C8.999,52.842,0,43.842,0,32.78c0-11.06,8.999-20.058,20.06-20.058s20.06,8.998,20.06,20.058
			C40.119,43.842,31.12,52.842,20.06,52.842z M20.06,18.723C12.307,18.723,6,25.029,6,32.78c0,7.754,6.307,14.062,14.06,14.062
			s14.06-6.308,14.06-14.062C34.119,25.029,27.813,18.723,20.06,18.723z"/>
	</g>
	<g>
		<g>
			<polygon points="21.751,16.658 17.509,12.416 23.725,6.199 23.606,6 15.172,6 15.172,0 27.019,0 31.266,7.143 			"/>
		</g>
		<g>
			<polygon points="18.369,16.671 8.852,7.155 13.101,0.012 24.947,0.012 24.947,6.012 16.513,6.012 16.395,6.212 22.611,12.428 			
				"/>
		</g>
	</g>
</g>
</svg>
