<?xml version="1.0" encoding="utf-8"?>
<!-- Generator: Adobe Illustrator 16.0.0, SVG Export Plug-In . SVG Version: 6.00 Build 0)  -->
<!DOCTYPE svg PUBLIC "-//W3C//DTD SVG 1.1//EN" "http://www.w3.org/Graphics/SVG/1.1/DTD/svg11.dtd">
<svg version="1.1" id="Layer_1" xmlns="http://www.w3.org/2000/svg" xmlns:xlink="http://www.w3.org/1999/xlink" x="0px" y="0px"
	 width="109.477px" height="116.625px" viewBox="0 0 109.477 116.625" enable-background="new 0 0 109.477 116.625"
	 xml:space="preserve">
<g opacity="0.5" enable-background="new    ">
	<path d="M6.59,14.942V3.283h4.016c0.907,0,1.599,0.056,2.076,0.167c0.668,0.154,1.238,0.433,1.71,0.835
		c0.615,0.52,1.075,1.184,1.38,1.992c0.305,0.809,0.457,1.732,0.457,2.771c0,0.886-0.104,1.67-0.31,2.354
		c-0.207,0.684-0.472,1.25-0.795,1.698c-0.323,0.448-0.677,0.8-1.062,1.058c-0.385,0.257-0.849,0.452-1.392,0.584
		c-0.543,0.132-1.168,0.199-1.873,0.199H6.59z M8.133,13.566h2.489c0.769,0,1.372-0.071,1.809-0.214
		c0.438-0.144,0.786-0.345,1.046-0.604c0.366-0.366,0.65-0.857,0.855-1.475c0.204-0.618,0.306-1.367,0.306-2.247
		c0-1.22-0.2-2.157-0.601-2.812s-0.887-1.093-1.459-1.316c-0.414-0.159-1.079-0.239-1.996-0.239H8.133V13.566z"/>
	<path d="M23.95,12.222l1.479,0.183c-0.233,0.864-0.666,1.535-1.296,2.012s-1.437,0.716-2.417,0.716
		c-1.235,0-2.215-0.38-2.938-1.141s-1.085-1.828-1.085-3.201c0-1.421,0.366-2.523,1.097-3.308s1.681-1.177,2.847-1.177
		c1.129,0,2.052,0.385,2.768,1.153c0.715,0.769,1.073,1.851,1.073,3.245c0,0.085-0.002,0.212-0.008,0.382h-6.298
		c0.053,0.928,0.315,1.638,0.787,2.131c0.472,0.493,1.061,0.739,1.766,0.739c0.525,0,0.973-0.138,1.344-0.413
		C23.438,13.267,23.733,12.827,23.95,12.222z M19.25,9.908h4.716c-0.063-0.71-0.244-1.243-0.541-1.598
		c-0.456-0.551-1.047-0.827-1.773-0.827c-0.657,0-1.21,0.22-1.658,0.66C19.546,8.583,19.298,9.171,19.25,9.908z"/>
	<path d="M29.573,14.942L26.36,6.496h1.511l1.813,5.058c0.196,0.546,0.376,1.113,0.541,1.702c0.127-0.445,0.305-0.98,0.533-1.606
		l1.877-5.153h1.471l-3.197,8.446H29.573z"/>
	<path d="M41.152,12.222l1.479,0.183c-0.233,0.864-0.666,1.535-1.296,2.012s-1.437,0.716-2.417,0.716
		c-1.235,0-2.215-0.38-2.938-1.141s-1.085-1.828-1.085-3.201c0-1.421,0.366-2.523,1.097-3.308s1.681-1.177,2.847-1.177
		c1.129,0,2.052,0.385,2.768,1.153c0.715,0.769,1.073,1.851,1.073,3.245c0,0.085-0.002,0.212-0.008,0.382h-6.298
		c0.053,0.928,0.315,1.638,0.787,2.131c0.472,0.493,1.061,0.739,1.766,0.739c0.525,0,0.973-0.138,1.344-0.413
		C40.64,13.267,40.934,12.827,41.152,12.222z M36.452,9.908h4.716c-0.063-0.71-0.244-1.243-0.541-1.598
		c-0.456-0.551-1.047-0.827-1.773-0.827c-0.657,0-1.21,0.22-1.658,0.66C36.747,8.583,36.499,9.171,36.452,9.908z"/>
	<path d="M44.397,14.942V3.283h1.431v11.659H44.397z"/>
	<path d="M47.514,10.719c0-1.564,0.435-2.723,1.304-3.476c0.726-0.625,1.611-0.938,2.656-0.938c1.161,0,2.11,0.381,2.847,1.142
		s1.105,1.812,1.105,3.153c0,1.087-0.162,1.942-0.489,2.565c-0.326,0.623-0.8,1.107-1.423,1.451
		c-0.623,0.345-1.303,0.517-2.04,0.517c-1.182,0-2.138-0.379-2.867-1.137S47.514,12.146,47.514,10.719z M48.985,10.719
		c0,1.082,0.236,1.891,0.708,2.429s1.066,0.807,1.781,0.807c0.71,0,1.302-0.27,1.773-0.811c0.472-0.541,0.708-1.365,0.708-2.473
		c0-1.044-0.237-1.836-0.712-2.374s-1.064-0.807-1.77-0.807c-0.715,0-1.31,0.268-1.781,0.803
		C49.221,8.829,48.985,9.638,48.985,10.719z"/>
	<path d="M57.104,18.179V6.496h1.305v1.098c0.308-0.43,0.654-0.751,1.042-0.966c0.387-0.215,0.855-0.322,1.407-0.322
		c0.721,0,1.357,0.186,1.908,0.557c0.552,0.371,0.968,0.895,1.249,1.57c0.281,0.676,0.422,1.417,0.422,2.223
		c0,0.864-0.155,1.643-0.466,2.334c-0.31,0.692-0.761,1.222-1.352,1.59c-0.592,0.368-1.213,0.553-1.865,0.553
		c-0.477,0-0.905-0.101-1.284-0.302c-0.379-0.202-0.69-0.456-0.935-0.764v4.112H57.104z M58.401,10.767c0,1.087,0.22,1.89,0.66,2.41
		c0.439,0.52,0.973,0.779,1.598,0.779c0.637,0,1.182-0.269,1.635-0.807s0.68-1.372,0.68-2.501c0-1.076-0.222-1.882-0.664-2.417
		s-0.972-0.803-1.586-0.803c-0.61,0-1.149,0.285-1.619,0.855C58.635,8.852,58.401,9.68,58.401,10.767z"/>
	<path d="M71.945,12.222l1.479,0.183c-0.233,0.864-0.665,1.535-1.296,2.012s-1.437,0.716-2.418,0.716
		c-1.235,0-2.215-0.38-2.938-1.141s-1.085-1.828-1.085-3.201c0-1.421,0.365-2.523,1.098-3.308c0.731-0.785,1.68-1.177,2.847-1.177
		c1.129,0,2.052,0.385,2.768,1.153c0.716,0.769,1.073,1.851,1.073,3.245c0,0.085-0.003,0.212-0.008,0.382h-6.299
		c0.054,0.928,0.315,1.638,0.788,2.131c0.472,0.493,1.06,0.739,1.765,0.739c0.525,0,0.974-0.138,1.345-0.413
		C71.433,13.267,71.727,12.827,71.945,12.222z M67.244,9.908h4.716c-0.063-0.71-0.244-1.243-0.541-1.598
		c-0.456-0.551-1.047-0.827-1.773-0.827c-0.657,0-1.21,0.22-1.658,0.66S67.292,9.171,67.244,9.908z"/>
	<path d="M80.699,14.942v-1.065c-0.535,0.837-1.322,1.256-2.361,1.256c-0.674,0-1.293-0.186-1.857-0.557s-1.002-0.89-1.313-1.555
		c-0.31-0.666-0.465-1.43-0.465-2.294c0-0.843,0.141-1.608,0.422-2.294c0.28-0.687,0.702-1.213,1.264-1.579
		c0.563-0.366,1.19-0.549,1.885-0.549c0.51,0,0.963,0.107,1.36,0.322s0.721,0.495,0.97,0.839V3.283h1.424v11.659H80.699z
		 M76.175,10.727c0,1.082,0.228,1.89,0.684,2.425c0.456,0.536,0.994,0.803,1.614,0.803c0.626,0,1.157-0.255,1.595-0.767
		s0.656-1.292,0.656-2.342c0-1.156-0.223-2.004-0.668-2.545c-0.445-0.541-0.994-0.811-1.646-0.811c-0.637,0-1.168,0.26-1.595,0.779
		C76.388,8.79,76.175,9.608,76.175,10.727z"/>
	<path d="M88.923,14.942V3.283h4.373c0.891,0,1.605,0.118,2.144,0.354s0.96,0.599,1.265,1.09c0.305,0.49,0.457,1.003,0.457,1.539
		c0,0.499-0.135,0.968-0.405,1.408s-0.679,0.795-1.225,1.065c0.705,0.207,1.247,0.56,1.626,1.058
		c0.379,0.499,0.568,1.087,0.568,1.766c0,0.546-0.115,1.054-0.346,1.523s-0.516,0.831-0.854,1.085
		c-0.34,0.254-0.766,0.447-1.276,0.577c-0.512,0.13-1.139,0.195-1.881,0.195H88.923z M90.465,8.182h2.521
		c0.684,0,1.174-0.045,1.471-0.135c0.393-0.116,0.688-0.31,0.887-0.581c0.199-0.27,0.299-0.609,0.299-1.018
		c0-0.387-0.093-0.728-0.278-1.022c-0.186-0.294-0.451-0.496-0.796-0.604c-0.345-0.108-0.936-0.163-1.773-0.163h-2.33V8.182z
		 M90.465,13.566h2.903c0.498,0,0.848-0.019,1.05-0.056c0.354-0.063,0.651-0.169,0.891-0.318c0.238-0.148,0.435-0.365,0.588-0.648
		c0.154-0.284,0.23-0.611,0.23-0.982c0-0.435-0.111-0.813-0.334-1.133s-0.531-0.546-0.926-0.676
		c-0.396-0.13-0.964-0.195-1.706-0.195h-2.696V13.566z"/>
	<path d="M99.603,18.194l-0.159-1.344c0.313,0.084,0.586,0.127,0.819,0.127c0.318,0,0.572-0.053,0.764-0.159
		c0.19-0.106,0.347-0.254,0.469-0.445c0.091-0.144,0.236-0.499,0.438-1.066c0.026-0.08,0.069-0.196,0.128-0.35l-3.205-8.462h1.543
		l1.757,4.891c0.229,0.62,0.433,1.272,0.612,1.956c0.165-0.657,0.36-1.299,0.589-1.924l1.805-4.923h1.432l-3.213,8.589
		c-0.345,0.928-0.612,1.567-0.803,1.917c-0.255,0.472-0.546,0.818-0.875,1.038c-0.329,0.22-0.721,0.33-1.177,0.33
		C100.25,18.37,99.943,18.311,99.603,18.194z"/>
</g>
<g opacity="0.5">
	<g>
		<g>
			<g>
				<polygon points="54.193,70.673 42.099,34.347 22.416,40.9 34.512,77.229 40.905,96.429 41.066,96.912 86.749,81.699 
					80.198,62.018 				"/>
			</g>
			<g>
				<path d="M68.781,49.405c-0.423,0.14-0.878-0.088-1.02-0.511c-0.139-0.422,0.09-0.879,0.511-1.018
					c0.42-0.14,0.879,0.089,1.021,0.509C69.434,48.808,69.203,49.265,68.781,49.405L68.781,49.405z M55.107,30.015l7.601,22.821
					l12.991-4.324l-7.598-22.823L55.107,30.015z"/>
			</g>
			<g>
				<path d="M29.124,116.5v-1.556h-2.882v-9.42h-1.728V116.5H29.124L29.124,116.5z M36.97,116.5l-2.666-10.976h-1.68L29.926,116.5
					h1.818l0.432-2.172h2.543l0.448,2.172H36.97L36.97,116.5z M34.396,112.77h-1.882l0.94-4.593L34.396,112.77L34.396,112.77z
					 M43.337,113.462c0-1.851-0.356-2.557-1.667-3.082l-1.293-0.522c-0.771-0.31-0.909-0.587-0.909-1.479
					c0-0.479,0.094-0.851,0.291-1.078c0.172-0.186,0.386-0.311,0.741-0.311c0.37,0,0.616,0.125,0.77,0.324
					c0.232,0.293,0.264,0.678,0.264,1.171h1.727c0-1.048-0.2-1.834-0.771-2.389c-0.445-0.433-1.093-0.663-1.971-0.663
					c-0.786,0-1.404,0.248-1.883,0.663c-0.602,0.538-0.895,1.341-0.895,2.327c0,1.697,0.418,2.297,1.526,2.76l1.312,0.539
					c0.848,0.355,1.03,0.632,1.03,1.804c0,0.585-0.061,0.955-0.292,1.218c-0.168,0.201-0.433,0.309-0.832,0.309
					c-0.386,0-0.646-0.125-0.8-0.293c-0.248-0.277-0.311-0.647-0.311-1.232h-1.727c0,1.155,0.186,1.833,0.709,2.357
					c0.463,0.464,1.171,0.726,2.127,0.726c0.973,0,1.696-0.293,2.144-0.726C43.183,115.345,43.337,114.587,43.337,113.462
					L43.337,113.462z M49.641,107.082v-1.557h-5.41v1.557h1.835v9.42h1.726v-9.42H49.641L49.641,107.082z M58.258,116.5v-1.556
					h-2.882v-9.42h-1.728V116.5H58.258L58.258,116.5z M64.854,111.013c0-2.157,0.018-3.76-0.801-4.686
					c-0.463-0.525-1.079-0.926-2.129-0.926c-1.046,0-1.664,0.4-2.127,0.926c-0.815,0.926-0.799,2.527-0.799,4.686
					s-0.018,3.761,0.799,4.686c0.463,0.524,1.081,0.926,2.127,0.926c1.05,0,1.666-0.4,2.129-0.926
					C64.871,114.774,64.854,113.169,64.854,111.013L64.854,111.013z M63.128,111.013c0,2.004-0.046,3.113-0.369,3.638
					c-0.153,0.248-0.418,0.416-0.834,0.416c-0.414,0-0.66-0.168-0.815-0.416c-0.322-0.522-0.386-1.634-0.386-3.638
					s0.063-3.114,0.386-3.639c0.155-0.246,0.401-0.414,0.815-0.414c0.416,0,0.681,0.168,0.834,0.414
					C63.082,107.899,63.128,109.009,63.128,111.013L63.128,111.013z M71.853,113.587h-1.725c-0.019,0.399-0.078,0.801-0.263,1.078
					c-0.155,0.246-0.401,0.4-0.817,0.4s-0.662-0.168-0.818-0.416c-0.322-0.523-0.384-1.634-0.384-3.638
					c0-2.003,0.062-3.114,0.384-3.64c0.156-0.246,0.402-0.414,0.818-0.414s0.647,0.153,0.802,0.399
					c0.185,0.278,0.246,0.663,0.261,1.063h1.728c-0.031-0.971-0.338-1.803-0.877-2.313c-0.494-0.462-1.08-0.709-1.912-0.709
					c-1.049,0-1.664,0.4-2.127,0.926c-0.817,0.926-0.802,2.543-0.802,4.699c0,2.16-0.017,3.746,0.802,4.671
					c0.463,0.524,1.078,0.925,2.127,0.925c0.817,0,1.403-0.246,1.896-0.691C71.499,115.419,71.822,114.574,71.853,113.587
					L71.853,113.587z M79.392,116.5l-2.668-10.976h-1.679L72.346,116.5h1.821l0.43-2.172h2.543l0.448,2.172H79.392L79.392,116.5z
					 M76.816,112.77h-1.88l0.939-4.593L76.816,112.77L76.816,112.77z M85.02,116.5v-1.556h-2.886v-9.42h-1.725V116.5H85.02z"/>
			</g>
			<g>
				<rect x="22.441" y="99.464" width="64.595" height="0.088"/>
				<path d="M87.08,99.598H22.396v-0.179H87.08V99.598z M22.485,99.511H86.99v-0.002H22.485V99.511z"/>
			</g>
		</g>
	</g>
</g>
</svg>
