<?xml version="1.0" encoding="utf-8"?>
<!-- Generator: Adobe Illustrator 16.0.0, SVG Export Plug-In . SVG Version: 6.00 Build 0)  -->
<!DOCTYPE svg PUBLIC "-//W3C//DTD SVG 1.1//EN" "http://www.w3.org/Graphics/SVG/1.1/DTD/svg11.dtd">
<svg version="1.1" id="Layer_1" xmlns="http://www.w3.org/2000/svg" xmlns:xlink="http://www.w3.org/1999/xlink" x="0px" y="0px"
	 width="70px" height="70px" viewBox="0 0 70 70" enable-background="new 0 0 70 70" xml:space="preserve">
<g>
	<g>
		<path d="M-263.988,23.594c2.983,0,5.4,2.419,5.4,5.4c0,2.98-2.417,5.398-5.4,5.398c-2.981,0-5.397-2.418-5.397-5.398
			C-269.386,26.013-266.969,23.594-263.988,23.594 M-263.988,46.729c7.636,0,15.682,3.755,15.682,5.399v2.829h-31.361v-2.829
			C-279.667,50.483-271.623,46.729-263.988,46.729 M-263.988,18.711c-5.681,0-10.282,4.602-10.282,10.283
			c0,5.68,4.601,10.281,10.282,10.281c5.681,0,10.282-4.602,10.282-10.281C-253.706,23.313-258.307,18.711-263.988,18.711z
			 M-263.988,41.846c-6.862,0-20.563,3.445-20.563,10.282v7.712h41.127v-7.712C-243.424,45.291-257.125,41.846-263.988,41.846z"/>
	</g>
	<g>
		<path d="M-219.219,59.41h-7.196c-1.47,0-2.735-1.048-3.005-2.494l-0.524-3.701c-0.466-0.241-0.919-0.507-1.359-0.797l-3.385,1.361
			c-1.556,0.582-2.988-0.022-3.738-1.264l-3.621-6.256c-0.754-1.259-0.473-2.896,0.683-3.869l2.937-2.303
			c-0.018-0.279-0.025-0.549-0.025-0.813c0-0.257,0.007-0.518,0.022-0.785l-2.878-2.258c-1.211-1.022-1.49-2.66-0.725-3.941
			l3.586-6.193c0.774-1.288,2.356-1.828,3.71-1.321l3.434,1.384c0.435-0.283,0.89-0.549,1.359-0.793l0.509-3.612
			c0.272-1.546,1.537-2.614,3.021-2.614h7.196c1.47,0,2.735,1.048,3.005,2.494l0.524,3.701c0.466,0.241,0.919,0.507,1.361,0.797
			l3.383-1.361c1.551-0.586,2.99,0.022,3.74,1.264l3.622,6.256c0.752,1.259,0.471,2.896-0.685,3.869l-2.937,2.303
			c0.018,0.279,0.027,0.549,0.027,0.813c0,0.257-0.009,0.518-0.024,0.785l2.878,2.258c1.211,1.022,1.49,2.66,0.725,3.941
			l-3.586,6.193c-0.576,0.962-1.555,1.516-2.635,1.516l0,0c-0.368,0-0.729-0.064-1.073-0.194l-3.436-1.384
			c-0.435,0.283-0.888,0.549-1.359,0.793l-0.509,3.612C-216.47,58.342-217.735,59.41-219.219,59.41z M-225.349,55.127h5.061
			l0.685-4.876l1.106-0.476c0.948-0.41,1.812-0.912,2.564-1.496l0.973-0.757l4.608,1.853l2.523-4.361l-3.914-3.065l0.169-1.22
			c0.071-0.521,0.109-1.007,0.109-1.453s-0.038-0.933-0.111-1.492l-0.161-1.212l3.907-3.062l-2.523-4.359l-4.608,1.854l-0.973-0.756
			c-0.792-0.616-1.622-1.104-2.546-1.491l-1.123-0.468l-0.685-4.865h-5.061l-0.685,4.875l-1.106,0.477
			c-0.948,0.41-1.81,0.912-2.564,1.496l-0.973,0.757l-4.605-1.853l-2.524,4.361l3.912,3.064l-0.169,1.221
			c-0.071,0.521-0.107,1.007-0.107,1.453s0.036,0.933,0.109,1.492l0.161,1.212l-3.905,3.062l2.524,4.359l4.605-1.854l0.973,0.756
			c0.792,0.616,1.625,1.104,2.546,1.491l1.123,0.468L-225.349,55.127z M-222.816,46.559c-4.016,0-7.283-3.267-7.283-7.283
			s3.267-7.283,7.283-7.283c4.017,0,7.283,3.267,7.283,7.283S-218.799,46.559-222.816,46.559z M-222.816,36.276
			c-1.653,0-2.999,1.346-2.999,2.999s1.345,2.999,2.999,2.999s2.999-1.346,2.999-2.999S-221.163,36.276-222.816,36.276z"/>
	</g>
</g>
<g>
	<g>
		<path d="M35,17.145c3.396,0,6.147,2.755,6.147,6.148c0,3.395-2.751,6.148-6.147,6.148c-3.395,0-6.146-2.754-6.146-6.148
			C28.854,19.899,31.605,17.145,35,17.145 M35,43.486c8.694,0,17.855,4.275,17.855,6.148v3.221H17.148v-3.221
			C17.148,47.762,26.309,43.486,35,43.486 M35,11.586c-6.468,0-11.707,5.238-11.707,11.707S28.532,35,35,35
			s11.707-5.238,11.707-11.707S41.468,11.586,35,11.586z M35,37.927c-7.813,0-23.413,3.923-23.413,11.708v8.779h46.826v-8.779
			C58.413,41.85,42.815,37.927,35,37.927z"/>
	</g>
	<g>
		<path fill="none" d="M-0.121-0.121h70.242v70.242H-0.121V-0.121z"/>
	</g>
</g>
<g>
	<g>
		<path d="M600.806,61.421c-11.061,0-20.06-9-20.06-20.062c0-11.06,8.999-20.058,20.06-20.058s20.06,8.998,20.06,20.058
			C620.865,52.421,611.866,61.421,600.806,61.421z M600.806,27.302c-7.753,0-14.06,6.307-14.06,14.058
			c0,7.754,6.307,14.062,14.06,14.062s14.06-6.308,14.06-14.062C614.865,33.608,608.559,27.302,600.806,27.302z"/>
	</g>
	<g>
		<g>
			<polygon points="602.497,25.237 598.255,20.995 604.471,14.778 604.353,14.579 595.918,14.579 595.918,8.579 607.765,8.579 
				612.012,15.722 			"/>
		</g>
		<g>
			<polygon points="599.115,25.25 589.598,15.734 593.847,8.591 605.693,8.591 605.693,14.591 597.259,14.591 597.141,14.791 
				603.357,21.007 			"/>
		</g>
	</g>
</g>
<g>
	<g>
		<path d="M320.729,59.073l-28.725-34.098l9.953-14.049h38.076l9.574,14.155L320.729,59.073z M296.05,24.807l24.688,29.305
			l24.852-29.25l-7.26-10.729h-34.717L296.05,24.807z"/>
	</g>
	<g>
		<rect x="294.138" y="23.37" width="53.276" height="3.204"/>
	</g>
	<g>
		<rect x="319.21" y="12.489" width="3.204" height="44.012"/>
	</g>
	<g>
		<rect x="293.259" y="39.134" transform="matrix(0.5058 0.8627 -0.8627 0.5058 189.11 -248.6166)" width="36.549" height="3.204"/>
	</g>
	<g>
		
			<rect x="298.98" y="38.806" transform="matrix(0.3239 0.9461 -0.9461 0.3239 251.5144 -271.1422)" width="32.982" height="3.206"/>
	</g>
	<g>
		<polygon points="310.43,27.636 301.213,13.751 303.882,11.978 310.739,22.308 319.92,11.454 322.367,13.524 		"/>
	</g>
	<g>
		<rect x="328.645" y="22.326" transform="matrix(0.8554 0.518 -0.518 0.8554 68.8017 -165.2055)" width="3.205" height="36.559"/>
	</g>
	<g>
		<rect x="324.695" y="23.92" transform="matrix(0.9365 0.3508 -0.3508 0.9365 34.9333 -111.878)" width="3.205" height="33.143"/>
	</g>
	<g>
		<polygon points="331.488,27.636 319.551,13.524 321.998,11.454 331.179,22.308 338.036,11.978 340.705,13.751 		"/>
	</g>
</g>
</svg>
